<?xml version="1.0" encoding="UTF-8"?><svg id="Layer_2" xmlns="http://www.w3.org/2000/svg" viewBox="0 0 496 288.35"><defs><style>.cls-1{fill:#fff;}.cls-2{fill:#dcdbdb;opacity:.6;}.cls-2,.cls-3{isolation:isolate;}.cls-4{fill:#455b64;}.cls-5{fill:#eb9482;}.cls-6{fill:#c7c7c6;}.cls-7{fill:#a6a5a5;}.cls-8{fill:#37474f;}.cls-9{fill:#4cbc89;}.cls-10{fill:#171b1c;}.cls-11{fill:#ebebeb;}.cls-12{fill:#f498ba;}.cls-13,.cls-3{opacity:.1;}.cls-14{fill:#091b29;stroke:#414950;}.cls-15{fill:#263238;}</style></defs><g id="Layer_1-2"><g><path class="cls-14" d="M468.08,286.43c-6.72,1.37-13.87,1.43-20.77,1.42-112.48-.06-224.97-.13-337.45-.19-9.56,0-19.97-.3-27.33-6.4-15.73-13.02-6.13-41.29-19.69-56.56-10.18-11.46-28.35-10.22-42.01-17.17C8.29,201.17,.05,187.2,.52,173.16s9.64-27.42,22.56-32.93c14.73-6.28,33.96-3.45,44.75-15.29,10.04-11.01,7.05-28.93,14.73-41.7,5.65-9.39,16.5-14.69,27.35-16.25s21.87,.1,32.71,1.77c-6.64-8.45-11.9-18.3-13.2-28.96s1.82-22.2,9.74-29.46C149.37,.99,164.63,.48,178.48,.5l194.6,.22c9.44,.01,19.84,.38,26.78,6.77,10.27,9.46,7.36,26.16,11.78,39.4,3.04,9.11,9.98,16.85,18.71,20.85,9.76,4.48,21.13,4.32,30.99,8.58,13.36,5.77,22.17,20.14,22.25,34.56,.04,7.33-1.01,13.67-5.55,19.61s-10.63,10.25-16.78,14.22c-5.1,3.3-10.38,6.33-15.41,9.75-9.36,6.35-17.86,14.67-21.87,25.26s-2.66,23.68,5.39,31.63c12.67,12.51,34.56,7.61,50.09,16.31,9.52,5.33,15.86,15.93,16.03,26.84s-5.81,21.71-15.15,27.34c-3.8,2.29-7.95,3.71-12.27,4.59Z"/><g><path class="cls-11" d="M166.81,228.75h-24.43v7.78h24.43v-7.78Z"/><path class="cls-11" d="M226.29,152.04h-24.43v7.78h24.43v-7.78Z"/><path class="cls-11" d="M153.19,246.33c-4.07,.07-14.34,.24-18.27,.29l-6.16,.03h-.31v-.32l-.03-7.78v-.35h.35l12.22,.05c3.04,.03,9.17,.09,12.22,.13h.17v.17l-.17,7.78h0Zm0,0l-.17-7.78,.17,.17c-3.05,.04-9.17,.11-12.22,.13l-12.22,.05,.35-.35-.03,7.78-.32-.32,6.05,.03c3.87,.04,14.37,.22,18.38,.29h0Z"/><path class="cls-11" d="M416.24,238.56h-24.43v7.78h24.43v-7.78Z"/><path class="cls-15" d="M417.43,276.42l-36.23-.17-36.24-.06-72.46-.11-72.47,.11-36.23,.06-36.24,.17,36.24,.17,36.23,.06,72.47,.11,72.46-.11,36.24-.06,36.23-.17Z"/><path class="cls-4" d="M127.99,186.86h88.18v-12.52H127.99v12.52Z"/><path class="cls-4" d="M130.09,190.92h83.98v-4.06h-83.98v4.06Z"/><path class="cls-15" d="M130.09,188.21h83.98v-1.35h-83.98v1.35Z"/><path class="cls-4" d="M213.24,276.76h3.36l-9.77-85.84h-8.57l14.98,85.84Z"/><path class="cls-15" d="M198.26,190.92l1,5.75h8.22l-.65-5.75h-8.57Z"/><path class="cls-4" d="M130.92,276.76h-3.36l9.77-85.84h8.58l-14.99,85.84Z"/><path class="cls-15" d="M145.9,190.92l-1,5.75h-8.21l.65-5.75h8.57Z"/><path class="cls-9" d="M150.47,225.07c.59,2.52,1.22,4.99,1.34,7.57-.07,.13-.06,.6,.02,.47,.01,.42,.65,.34,.65-.07,0-.27-.01-.54-.03-.79,1.48-1.84,3.63-3,5.37-4.6,1.4-1.29,2.41-2.84,2.94-4.68,1.44-4.96,.09-10.22,1.82-15.18,1.49-4.27,4.17-7.98,6.44-11.85,2.39-4.09,4.16-8.39,4.34-13.18,.14-3.67-.3-8.55-3.09-11.31-2.96-2.92-6.63-.73-8.9,1.87-6.57,7.55-9.62,17.08-10.85,26.83-.68,5.4-1.38,10.83-1.22,16.28,.09,2.93,.51,5.79,1.17,8.63h0Z"/><path class="cls-15" d="M151.78,234.62c-.34-5.1-.32-10.21,.18-15.29,0-.02-.03-.03-.03-.06-.08-4.13-.41-8.25-.25-12.38,.17-4.5,.83-8.9,1.82-13.29,.01-.05,.09-.04,.08,.01-.81,4.27-1.28,8.64-1.44,12.99-.08,2.34-.07,4.67,.06,7.01,.04,.76,.11,1.52,.16,2.29,1.67-11.63,5.96-22.67,12.29-32.55,.08-.13,.33,0,.24,.15-4.57,7.45-7.93,15.64-10.01,24.13,3.16-5.86,7.94-10.67,11.48-16.3,.02-.03,.07,0,.06,.03-3.18,6.27-8.44,11.21-11.79,17.38-.58,2.52-1.06,5.06-1.41,7.61-.49,3.51-.72,7.04-.76,10.58,1.93-3.6,3.93-7.05,5.5-10.85,.04-.1,.19-.03,.15,.07-1.34,3.95-3.14,8.21-5.66,11.58-.01,2.5,.06,5.01,.21,7.51,.4,6.67,1.54,13.26,2.06,19.91,.01,.2-.26,.22-.31,.03-1.38-6.71-2.18-13.73-2.63-20.57h0Z"/><path class="cls-15" d="M158.86,183.14s.09-.01,.08,.03c-1.22,3.37-1.91,6.79-2.79,10.24-.04,.16-.27,.13-.25-.04,.36-3.5,1.61-7,2.97-10.24h0Z"/><path class="cls-9" d="M127.9,197.27c.79,1.98,1.77,3.9,2.8,5.76,2.2,3.99,4.48,7.64,4.9,12.28,.19,2.07,.25,4.16,.88,6.15,.55,1.73,1.43,3.32,2.45,4.82,2.38,3.47,5.35,6.46,7.56,10.05,2.29,3.74,3.99,7.85,5.02,12.11,.06,.24,.42,.17,.37-.06,0-.02-.01-.03-.01-.06,0-.01,.02-.02,.02-.05,.35-9.95-.44-19.99-3.48-29.52-1.33-4.17-2.97-8.32-4.82-12.28-1.63-3.46-3.66-6.78-6.51-9.37-1.86-1.67-5.87-4.83-8.51-3.16-1.26,.81-1.17,2.08-.67,3.32h0Z"/><path class="cls-15" d="M137.91,219.84c1.71,2.92,3.73,5.64,5.78,8.31,.97,1.26,1.94,2.51,2.9,3.77,.45,.6,.97,1.19,1.38,1.83-.26-1.05-.52-2.09-.79-3.14-1.29-5.03-2.52-10.1-4.43-14.94-1.87-4.73-4.36-9.17-6.91-13.55-.07-.12,.12-.2,.19-.09,2.11,3.46,4.24,6.91,6,10.56,.99,2.04,1.82,4.14,2.55,6.27-.86-4.57-1.89-8.96-3.39-13.39-.01-.04,.04-.07,.06-.03,1.84,4.34,3.16,9.22,3.52,13.93v.02c.43,1.29,.83,2.6,1.2,3.91,1.57,5.57,2.95,11.2,4.22,16.85-.02-3.73-.26-7.39-.96-11.07-.01-.08,.11-.1,.13-.02,.92,3.79,1.34,7.78,.96,11.67,.48,2.15,.95,4.29,1.41,6.45,.98,4.59,2.18,9.26,2.75,13.92,.01,.12-.15,.15-.18,.03-.68-2.51-1.1-5.11-1.65-7.66-.56-2.55-1.14-5.09-1.73-7.64-.86-3.7-1.77-7.39-2.69-11.09-.62-1.35-1.81-2.55-2.7-3.69-.98-1.24-1.96-2.49-2.91-3.75-1.77-2.36-3.41-4.8-4.79-7.41-.03-.06,.06-.1,.09-.04h-.02Z"/><path class="cls-15" d="M137.49,215.58c2.16,2.77,4.12,5.84,5.66,8.99,.02,.04-.04,.08-.07,.04-1.9-2.99-3.78-6-5.68-8.98-.03-.05,.05-.1,.09-.06h0Z"/><path class="cls-9" d="M179.86,206.71c-1.29,2.22-2.76,4.89-2.21,7.55,.35,1.69,1.58,3.06,1.81,4.78,.5,3.8-3.29,6.32-6.03,8.11-6.83,4.48-16.21,8.49-17.45,17.64-.05,.33-.6,.24-.57-.08,0-.02,0-.04,.01-.06-.01-.02-.03-.03-.03-.06-.88-4.64-.86-9.37,.12-13.99,1.02-4.72,3.08-8.96,5.51-13.11,4.11-7.02,8.47-14.2,14.69-19.58,1.72-1.49,5.25-4.16,6.62-.81,1.33,3.26-.9,6.87-2.48,9.58h.01Z"/><path class="cls-15" d="M173.6,221.59c-4.53,4.91-11.74,7.66-15.64,13.15,2.31-8.42,6.14-16,12.02-22.57,.15-.17-.08-.41-.25-.25-4.31,4.14-7.49,8.98-9.82,14.23,1.05-3.75,2.51-7.29,4.23-10.81,.06-.13-.13-.25-.2-.12-2.19,3.73-3.65,7.93-4.56,12.15-5.14,12.44-5.61,27.03-4.54,40.15,.01,.19,.3,.19,.3,0-.29-10.33-.12-20.85,2.35-30.95,.05-.21,.11-.42,.16-.62,4.25-5.91,11.42-8.66,16.03-14.28,.04-.06-.03-.13-.08-.08h0Z"/><path class="cls-15" d="M174.65,217.38c-2.38,2.18-4.72,4.41-7.1,6.59-.02,.02,0,.06,.03,.05,2.59-1.75,5.23-4.07,7.21-6.5,.08-.1-.04-.23-.14-.14h0Z"/><path class="cls-15" d="M175.03,207.92c-2.16,3.46-4.43,6.71-7.12,9.79-.03,.04,.02,.1,.06,.06,2.89-2.78,5.45-6.15,7.19-9.78,.04-.08-.08-.15-.13-.08h0Z"/><path class="cls-4" d="M164.32,276.76h-20.84l2.81-28.03h14.82l3.21,28.03Z"/><path class="cls-15" d="M161.63,253.28h-15.8l.45-4.56h14.82l.52,4.56Z"/><path class="cls-4" d="M163.66,245.62h-19.53v4.48h19.53v-4.48Z"/><path class="cls-15" d="M394.12,85.61h-3.75v187.4h3.75V85.61Z"/><path class="cls-15" d="M328.24,19.34l-2.65,2.65,89.19,89.19,2.65-2.65L328.24,19.34Z"/><path class="cls-15" d="M371.89,273.01v3.75h40.69v-3.75h-40.69Z"/><path class="cls-9" d="M325.21,33.17l-12.58-11.81,11.84-9.63,9.42,8.86-8.68,12.57Z"/><path class="cls-3" d="M312.63,21.36l12.58,11.81,3.45-5-10.79-11.08-5.25,4.26Z"/><path class="cls-9" d="M326.51,52.91l-33.95-31.9,16.21-8.73,25.44,23.9-7.71,16.73Z"/><path class="cls-2" d="M194.1,153.83s12.06-5.55,12.06-13-15.64-12.24-15.64-18.06,6.82-9.24,6.82-9.24c0,0-10.77,3.68-10.77,11.04s10.31,12.35,11.3,17.03c1.37,6.51-3.77,12.23-3.77,12.23h0Z"/><path class="cls-2" d="M194.69,153.83s-12.06-4.37-12.06-10.22,15.64-9.62,15.64-14.2-6.82-7.27-6.82-7.27c0,0,10.77,2.89,10.77,8.68s-11.84,9.77-12.69,14.47c-.83,4.61,5.16,8.54,5.16,8.54h0Z"/><path class="cls-9" d="M199.96,172.56h-11.47v1.79h11.47v-1.79Z"/><path class="cls-3" d="M199.96,172.56h-11.47v1.18h11.47v-1.18Z"/><path class="cls-9" d="M174.87,167.74c1.36,1.9,3.76,3.27,6.46,2.77,.38-.07,.77-.18,1.16-.33,.54-.21,1.07-.49,1.62-.85l-1.46-2.16c-.3,.21-.58,.37-.86,.49-2.73,1.24-4.46-.92-4.8-1.4-1.57-2.21-2.13-7.25-.54-9.2,.1-.15,.56-.37,2.41,.02,.34,.08,.73,.16,1.17,.29,.49,.14,.77,.22,1.05,.23l.05-1.3,.13-1.29c-.12-.02-.31-.08-.55-.15-.7-.19-1.63-.44-2.61-.54-1.36-.14-2.79,.02-3.66,1.1-2.58,3.17-1.54,9.58,.43,12.36h0Z"/><path class="cls-3" d="M182.66,167.16c-.3,.21-.58,.37-.86,.49l.7,2.52c.54-.21,1.07-.49,1.62-.86l-1.46-2.16h0Z"/><path class="cls-3" d="M178.1,154.29l.77,2.77c.34,.08,.73,.16,1.17,.29,.49,.14,.77,.22,1.05,.23l.05-1.3,.13-1.29c-.12-.02-.31-.08-.55-.15-.69-.19-1.63-.44-2.61-.54h0Z"/><path class="cls-9" d="M209.49,150.92s-.1,.85-.3,2.2c-.03,.21-.06,.43-.1,.65-.13,.92-.31,2.02-.52,3.2,0,.06-.03,.13-.03,.21-.31,1.69-.67,3.53-1.1,5.26-.02,.08-.04,.15-.06,.22-.12,.47-.24,.92-.37,1.36-.13,.44-.26,.87-.4,1.29-.28,.83-.56,1.58-.87,2.22-2.38,4.92-5.7,5.47-7.76,5.47h-7.51c-2.06,0-5.38-.55-7.75-5.47-.07-.15-.15-.31-.22-.49-.06-.12-.1-.24-.15-.37-.06-.13-.1-.25-.15-.39-.03-.09-.07-.19-.1-.28-.46-1.26-.87-2.74-1.23-4.27-.02-.06-.03-.12-.04-.18,0-.03,0-.04-.02-.07-.15-.61-.28-1.23-.4-1.84-.22-1.01-.4-2-.56-2.93-.07-.43-.15-.86-.22-1.26-.02-.12-.03-.22-.06-.33-.04-.27-.09-.54-.13-.79-.03-.25-.07-.49-.11-.73-.03-.24-.06-.46-.1-.67-.18-1.25-.27-2.03-.27-2.03h30.52Z"/><path class="cls-3" d="M208.53,157.17c-.31,1.69-.67,3.53-1.1,5.26-.19,.03-.38,.06-.56,.11-.9,.22-1.79,.58-2.58,1.11-.79,.51-1.49,1.16-2.16,1.79-.67,.64-1.33,1.29-2.09,1.78-.76,.49-1.62,.79-2.52,.82-.87,.04-1.66-.47-2.29-1.08-.65-.64-1.19-1.38-1.72-2.13-.53-.76-1.06-1.53-1.69-2.24-.31-.35-.67-.69-1.06-.97-.21-.13-.44-.24-.67-.34-.25-.04-.49-.16-.74-.13-.51-.04-.99,.15-1.44,.36-.42,.24-.81,.52-1.15,.86-.7,.64-1.29,1.36-1.91,2.05-.62,.65-1.27,1.38-2.13,1.58-.22,.06-.43,.06-.65,.03-.46-1.26-.87-2.74-1.23-4.27,.24-.06,.49-.13,.74-.21,.89-.3,1.73-.76,2.46-1.36,.74-.59,1.36-1.29,1.97-1.99,.61-.7,1.2-1.41,1.9-1.97,.7-.56,1.54-.94,2.43-1.06,.86-.12,1.7,.31,2.39,.86,.7,.56,1.3,1.26,1.9,1.96,.61,.7,1.21,1.42,1.9,2.07,.34,.33,.73,.62,1.15,.86,.22,.12,.46,.19,.69,.28,.25,.02,.51,.11,.76,.06,.51,0,.97-.26,1.38-.5,.4-.28,.77-.61,1.07-.96,.64-.7,1.15-1.48,1.7-2.22,.55-.72,1.13-1.49,1.96-1.79,.84-.3,1.74,.17,2.44,.73,.28,.22,.55,.44,.82,.67v-.02Z"/><path class="cls-1" d="M208.57,156.97c0,.06-.03,.13-.03,.21-.27-.24-.54-.46-.82-.67-.7-.56-1.6-1.02-2.44-.73-.83,.3-1.41,1.07-1.96,1.79-.56,.74-1.07,1.51-1.7,2.22-.31,.36-.67,.68-1.07,.96-.41,.24-.87,.49-1.38,.5-.25,.06-.51-.03-.76-.06-.24-.08-.47-.16-.69-.28-.42-.24-.81-.54-1.15-.86-.69-.65-1.29-1.38-1.9-2.07-.6-.7-1.2-1.39-1.9-1.96-.69-.56-1.53-.99-2.39-.86-.89,.12-1.72,.49-2.42,1.06-.7,.56-1.29,1.27-1.9,1.97-.61,.7-1.24,1.4-1.97,2-.73,.6-1.57,1.06-2.46,1.36-.24,.08-.49,.15-.74,.21-.02-.06-.03-.12-.04-.18,.24-.07,.47-.15,.71-.24,1.76-.59,3.1-1.93,4.24-3.36,.59-.71,1.19-1.45,1.93-2.06,.74-.61,1.65-1.02,2.61-1.16,1.02-.15,1.99,.35,2.71,.93,.76,.59,1.38,1.3,1.99,2,.61,.7,1.2,1.42,1.85,2.05,.65,.61,1.42,1.2,2.28,1.1,.86-.04,1.61-.64,2.2-1.31,.61-.67,1.14-1.44,1.72-2.17,.58-.71,1.19-1.51,2.15-1.84,.47-.17,.99-.09,1.45,.08,.45,.17,.84,.45,1.21,.74,.25,.21,.49,.41,.71,.64h0Z"/><path class="cls-1" d="M207.43,162.43c-.02,.08-.04,.15-.06,.22-.15,.03-.31,.06-.45,.1-1.81,.42-3.27,1.62-4.55,2.93-.65,.65-1.31,1.33-2.11,1.86-.8,.53-1.74,.86-2.71,.9-1.02,.06-1.94-.53-2.61-1.19-.69-.67-1.24-1.42-1.79-2.18-.53-.76-1.04-1.54-1.64-2.22-.58-.67-1.3-1.33-2.16-1.32-.86-.03-1.66,.49-2.31,1.1-.67,.61-1.27,1.32-1.92,2-.65,.65-1.33,1.39-2.31,1.63-.19,.04-.4,.06-.6,.03-.03-.09-.07-.19-.1-.28,.22,.03,.43,.03,.65-.03,.85-.21,1.51-.92,2.13-1.58,.62-.68,1.21-1.41,1.91-2.05,.34-.33,.73-.61,1.15-.85,.44-.21,.93-.4,1.44-.36,.25-.03,.49,.08,.74,.13,.22,.1,.46,.21,.67,.34,.4,.28,.74,.62,1.06,.97,.63,.72,1.16,1.49,1.69,2.25,.53,.76,1.07,1.5,1.72,2.13,.63,.62,1.42,1.13,2.29,1.08,.9-.03,1.76-.33,2.52-.82,.76-.49,1.42-1.14,2.09-1.78,.67-.64,1.36-1.29,2.16-1.79,.78-.53,1.67-.9,2.58-1.11,.19-.04,.38-.08,.56-.11v.02Z"/><path class="cls-6" d="M328.87,233.63l53.06,42.79h-2.99l-61.28-42.79h11.21Z"/><path class="cls-6" d="M323.88,233.63l26.22,42.79h-3l-32.14-42.79h8.91Z"/><path class="cls-6" d="M311.03,233.63l-26.22,42.79h2.99l32.14-42.79h-8.9Z"/><path class="cls-6" d="M306.45,233.63l-53.07,42.79h2.99l61.29-42.79h-11.21Z"/><path class="cls-4" d="M217.88,217.93v-12.52l72.87-2.99,38.49-102.76h88.19l-31.2,118.27-74.55,20.93h-4.68l-89.12-20.93Z"/><path class="cls-8" d="M417.43,99.66h-10.09l-32.51,107.81-65.96,18.68-90.99-20.74v12.52l89.12,20.93h4.68l74.55-20.93,31.2-118.27Z"/><path class="cls-11" d="M164.29,275.99c2.35,.06,63.33-18.8,65.2-20.98,.2-.24-.75-9.27-2.33-16.44-.07-.34,21.66-28.81,21.66-28.81l-39.29-15.28-18.79,38.94-4.89,10.12s-20.34,20.45-22.14,23.07c-1.78,2.62-1.77,9.33,.58,9.38h0Z"/><path class="cls-9" d="M162.58,276.33c2.45,.06,66.11-19.37,68.07-21.64,.75-.86-.39-4.8-3.48-16.12l-41.74,5.02s-21.54,20.23-23.42,22.95c-1.87,2.72-1.88,9.72,.57,9.79h0Z"/><path class="cls-15" d="M162.71,273.51c10.59-3.52,53.64-16.71,64.38-19.39,.09-.02,.1,.03,.02,.07-10.42,3.72-53.58,16.56-64.35,19.5-.23,.06-.28-.1-.06-.17h0Z"/><path class="cls-15" d="M165.4,263.01c2.5-.88,5.34-.43,7.18,.66,1.77,1.04,3.52,2.73,4.12,4.97,.01,.06-.1,.1-.13,.04-1.88-3.99-6.8-6.5-11.13-5.53-.09,.02-.13-.1-.04-.13h0Z"/><path class="cls-15" d="M181.12,247.8c4.25-1.36,9.67-1.37,13.38,1.31,.15,.1,0,.31-.15,.28-4.47-.81-8.59-1.17-13.15-1.05-.32,0-.39-.45-.09-.55h0Z"/><path class="cls-15" d="M178.21,250.09c4.25-1.36,9.67-1.37,13.39,1.31,.15,.1,0,.31-.15,.28-4.47-.81-8.59-1.17-13.15-1.05-.32,0-.39-.45-.08-.55h0Z"/><path class="cls-15" d="M175.31,252.39c4.25-1.36,9.67-1.37,13.39,1.31,.15,.1,0,.31-.15,.28-4.47-.81-8.59-1.17-13.15-1.05-.32,0-.39-.45-.08-.55h0Z"/><path class="cls-15" d="M172.4,254.68c4.25-1.36,9.67-1.37,13.39,1.31,.15,.1,0,.31-.15,.28-4.47-.81-8.59-1.17-13.15-1.05-.32,0-.39-.45-.08-.55h0Z"/><path class="cls-15" d="M175.28,243.97c3.21,2.27,7.3,3.07,10.98,4.25,.38,.13,.67-.24,.66-.58,.07-.01,.13-.08,.1-.16-1.36-3.61-4.14-7.38-7.21-9.74-1.9-1.45-5.16-2.38-6.78,.08-1.53,2.32,.38,4.83,2.25,6.16h0Zm-1.28-3.48c-.99-4.77,4.29-2.49,5.65-1.36,.88,.72,1.68,1.57,2.44,2.41,1.61,1.75,2.93,3.7,4.34,5.59-1.77-.69-3.59-1.22-5.39-1.84-2.14-.74-6.49-2.17-7.04-4.8h0Z"/><path class="cls-15" d="M201.35,240.12c-1.19-2.69-4.55-2.32-6.67-1.2-3.43,1.81-6.79,5.07-8.73,8.41-.05,.08,0,.15,.07,.17-.06,.33,.16,.74,.56,.68,3.83-.55,7.99-.66,11.53-2.37,2.07-.99,4.36-3.16,3.24-5.7h0Zm-9.14,6.05c-1.88,.31-3.75,.53-5.62,.92,1.71-1.63,3.34-3.34,5.2-4.8,.89-.7,1.82-1.4,2.81-1.97,1.53-.89,7.12-2.27,5.34,2.28-.98,2.51-5.5,3.19-7.74,3.57h0Z"/><path class="cls-10" d="M188.75,235.23l43.31,6.4s23.64-42.91,33.18-53.59l.02-.02c.62-.7,1.21-1.27,1.74-1.7h.02c.6-.35,1.66-.61,3.13-.79h.02c12.81-1.56,55.9,2.63,85.69,.7l-13.91-18.59-6.16-8.25c-33.55-3.83-74.72-17.55-93.31-8.22-20.18,10.13-53.73,84.06-53.73,84.06h0Z"/><path class="cls-8" d="M194.18,227.88c7.36,.95,5.26,.58,12.61,1.61,3.6,.5,21.68,2.98,24.96,4.01,.07,.02,.06,.14-.02,.14-3.43,.03-21.46-2.84-25.05-3.41-7.33-1.16-5.21-.9-12.53-2.14-.14-.02-.11-.22,.03-.2h0Z"/><path class="cls-8" d="M231.84,232.88c4.9-8.19,27.21-48.64,31.66-50.23,4.04-1.45,84.93,.23,86.13,.24,.08,0,.09,.13,0,.13-9.58-.13-83.51-.38-85.62,.45-4.38,1.73-31.07,48.65-31.72,49.63-.17,.26-.62,.06-.45-.22h0Z"/><path class="cls-10" d="M378.48,169.32s2.56,24.39-9.82,36.52c-14.81,14.52-112.55,10.85-127.7,5.96-15.15-4.89-15.62-29.34,.94-35.01,15.75-5.39,85.59-8.49,87.25-9.15,1.65-.66,6.5-8.39,6.5-8.39l42.84,10.06h0Z"/><path class="cls-8" d="M357.8,168.63c.02-.12,.2-.08,.2,.03-.01,3.08,1.13,6.32,3.15,8.66,2.32,2.68,5.74,4.18,8.84,5.75,.3,.15,.07,.62-.24,.52-1.89-.57-3.75-1.39-5.48-2.36-1.57-.88-3.02-1.99-4.11-3.42-2.03-2.65-2.91-5.88-2.36-9.18h0Z"/><path class="cls-8" d="M329.81,166.13c.69-.88,1.45-1.72,2.17-2.58,1.71-2.03,3.42-4.07,5.21-6.03,.17-.19,.5,.08,.35,.28-1.2,1.58-2.48,3.1-3.73,4.64-.64,.79-1.29,1.57-1.94,2.36-.6,.73-1.35,1.45-1.81,2.29-.47,.88,.15,1.62,1.05,1.72,.81,.08,1.56-.33,2.18-.8,1.41-1.08,2.52-2.63,3.7-3.95,.72-.81,1.44-1.62,2.17-2.41,.78-.85,1.61-1.65,2.38-2.5,.05-.06,.15,.02,.1,.08-.67,.92-1.3,1.9-1.98,2.83-.67,.93-1.36,1.85-2.06,2.76-.66,.86-1.35,1.71-2.05,2.54-.6,.7-1.28,1.39-2.08,1.86-1.29,.77-3.54,.93-4.23-.75-.34-.83,.08-1.67,.59-2.32h-.01Z"/><path class="cls-8" d="M243.03,211.88c5.21,.1,10.42,.4,15.64,.51,5.17,.11,10.35,.14,15.53,.09,10.39-.1,20.78-.49,31.15-1.21,10.48-.72,21.78-1.77,32.18-3.21,4.98-.69,10.03-1.26,14.95-2.32,4.44-.95,8.47-2.8,11.79-6.03,6.74-6.54,9.36-16.15,10.44-25.33,.15-1.23,.26-2.47,.36-3.7,0-.08,.13-.08,.13,0-.61,9.42-2.07,19.24-7.99,26.8-2.56,3.27-5.82,5.96-9.65,7.49-4.66,1.87-9.83,2.31-14.75,2.97-10.45,1.42-21.79,2.51-32.3,3.33-10.58,.82-21.18,1.33-31.78,1.49-10.61,.16-21.22,0-31.82-.51-1.29-.06-2.58-.14-3.88-.25-.08,0-.07-.12,0-.12h0Z"/><path class="cls-8" d="M229.11,189.09c.99-4.13,3.48-7.6,6.98-9.99,3.75-2.56,8.24-3.73,12.69-4.38,5.03-.73,10.12-1.1,15.18-1.6,10.38-1.01,20.76-1.94,31.15-2.79,10.38-.86,32.75-2.59,34-2.64,.11,0,.13,.18,.02,.19-10.02,1.11-19.14,2.07-29.19,2.98-10.09,.92-20.18,1.88-30.27,2.88-5.03,.49-10.05,1-15.07,1.51-4.66,.48-9.44,.95-13.81,2.75-3.75,1.54-7.11,4.02-9.02,7.67-1.85,3.52-2.23,7.73-1.49,11.6,.69,3.59,2.38,7.09,4.84,9.81,2.43,2.67,5.52,4.71,9.08,5.48,.92,.19,2.03,.34,2.87,.51,.06,.01,.13,.15,.06,.15-7.51,.19-14.45-5.3-17.17-12.15-1.49-3.78-1.83-8.03-.87-11.98h.01Z"/><path class="cls-5" d="M349.29,109.29c-4.97,19.47-14.84,42.72-18.9,46.44-5.14,4.7-36.58,10.86-38.24,11.02-2.72,.26-8.35-27.76-5.8-27.71,6.73,.15,27.45-1.96,28.94-3.41,1.54-1.52,12.07-14.16,22.93-28.47,7.49-9.89,14.17-9.96,11.09,2.13h0Z"/><path class="cls-5" d="M294.69,165.59c-.46,.22-6.92,3.28-10.9,4.33-2.97,.79-11.58,2.81-12.77-.38-.81-2.17,4.11-3.96,7.56-5.3,1.82-.71,4.08-2.54,3.58-3.71-.88-2.04-5.57-.13-8.65,1.57-5.98,3.28-13.98,9.26-17.51,6.19-1.33-1.16,.3-3.18,2.65-5.15-3.81,2.27-7.85,4.09-9.39,2.86-.88-.7-.9-1.64-.38-2.7-1.17,.35-2.19,.25-2.88-.52-1.19-1.31-.55-3.18,.83-5.07-.42-.06-.81-.29-1.09-.76-2.49-4,10.71-14.99,15.21-15.94,13.22-2.81,27.07-1.9,27.07-1.9,5.07,4.25,6.67,26.45,6.66,26.46h0Z"/><path class="cls-15" d="M275.65,153.01c-3.11,.41-6.19,1.49-8.85,3.17-3.38,2.12-5.66,4.64-8.52,7.17-.08,.07,.03,.19,.1,.12,1.36-1.2,7-5.71,8.45-6.72,2.66-1.87,5.62-3.16,8.83-3.68,.03,0,.02-.06,0-.06h0Z"/><path class="cls-15" d="M273.33,147.38c-3.48,.86-7.04,1.73-10.29,3.29-3.55,1.7-6.37,4.56-9.14,7.3-1.66,1.65-3.29,3.33-4.88,5.05-.07,.07,.03,.19,.1,.12,2.81-2.84,5.71-5.59,8.69-8.24,2.8-2.5,5.91-4.39,9.45-5.64,2-.71,4.04-1.26,6.09-1.81,.04,0,.03-.07-.01-.06h0Z"/><path class="cls-15" d="M269.76,142.41c-3.38,.61-6.32,1.13-9.33,2.86-4,2.29-7.89,6.21-9.26,7.6-1.51,1.54-2.97,3.12-4.4,4.73-.06,.06,.06,.17,.11,.1,3.27-3.51,6.79-6.84,10.49-9.9,1.77-1.46,3.68-2.72,5.82-3.59,2.11-.85,4.36-1.31,6.58-1.78,.01,0,0-.03,0-.02h0Z"/><path class="cls-9" d="M288.54,137.17l9.45,32.64s27.88-7.24,33.07-12.57c5.19-5.34,15.21-33.29,18.28-46.88,3.07-13.59-3.84-13.42-10.39-4.96-6.55,8.46-22.86,28.95-23.75,29.38-.9,.43-26.66,2.39-26.66,2.39h0Z"/><path class="cls-15" d="M301,155.48c-1.15-3.85-2.33-7.69-3.33-11.59-.57-2.21-1.15-4.42-1.7-6.64-.02-.08,.12-.13,.15-.05,1.31,3.82,2.61,7.65,3.73,11.53,1.13,3.86,2.28,7.71,3.35,11.58,.61,2.2,1.15,4.41,1.63,6.65,0,.04-.06,.07-.08,.03-1.43-3.78-2.6-7.64-3.75-11.51h0Z"/><path class="cls-3" d="M302.01,168.72c7.92-2.23,25.09-7.42,29.05-11.48,5.19-5.34,15.21-33.29,18.28-46.88,1.47-6.53,.65-9.89-1.33-10.67-.21,.09-.42,.22-.64,.34-10.23,14.07-31.47,47.64-45.35,68.68h0Z"/><path class="cls-9" d="M381.3,173.54c-.16,.16-59.09-12.75-59.63-13.43-.76-.97,9.77-45.28,20.88-58.5,2.78-3.31,11.63-3.08,15.58,.26,19.62,16.54,23.73,71.1,23.17,71.68h0Z"/><path class="cls-5" d="M362.71,105.03c11.75,9.04,42.72,45.58,36.25,54.26-6.52,8.74-50.84,5.78-63.79,2.05-3.85-1.11,6.03-25.61,10.14-26.83,3.42-1.01,22.63,4.2,22.98,3.09,.39-1.26-3.86-9.36-10.73-24.16-7.92-17.07-.04-12.41,5.15-8.41h0Z"/><path class="cls-5" d="M327.25,131.66c-8.56,.22-10.73,1.59-18.05-2.06-4.81-2.4-8.4-.35-5.14,4.18,5.35,7.41,16.45,9.45,20.5,9.05l2.68-11.16h0Z"/><path class="cls-5" d="M350.81,136.04s-10.26-3.67-19.42-4.34c-6.32-.47-20.2,.06-30.98,15.62-2.56,3.69-3.59,10.77,2.78,6.25,4.52-3.2,6.42-6.6,9.39-7.99,0,0-.24,9.15,3.56,11.57,1.7,1.08,6.4,3.92,10.38,5.61,0,0,.6-.76,1.22-1.85,0,0,3.76,1.93,9.97,.28l13.1-25.17h0Z"/><path class="cls-5" d="M325.29,132.23c-2.65,2-8.22,6.32-11.54,11.45-3.68,5.69-9.25,17.65-5.02,20.32,3.1,1.96,5.63-2.41,5.63-2.41,0,0-1.26,5.43,1.93,6.59,2.9,1.06,4.66-2.45,4.66-2.45,0,0-.19,3.42,2.8,3.9,3.6,.58,3.43-6.69,7.58-9.26,.93-.58-6.03-28.14-6.03-28.14h-.01Z"/><path class="cls-15" d="M320.42,146.57c-2.19,2.29-5.83,8.76-6.12,14.89,0,.14,.1,.22,.13,.09,1.75-6.68,4.66-12.54,6.05-14.95,.02-.03-.03-.06-.06-.03h0Z"/><path class="cls-15" d="M326.04,150.45c-1.69,2.17-5.14,9.01-5.23,15.23,0,.14,.1,.21,.13,.08,1.54-7.05,3.91-12.79,5.15-15.28,.01-.03-.03-.06-.06-.03h0Z"/><path class="cls-15" d="M312.57,145.54c-2.59,1.25-4.15,2.88-6.19,4.86-1.01,.98-2.04,1.95-3.15,2.81-1.01,.79-2.5,1.97-3.84,1.22-.74-.42-.9-1.37-.87-2.15,.03-.87,.6-2.57,.99-3.35,.02-.04-.05-.08-.07-.03-.36,.7-1.04,2.26-1.18,3.04-.13,.7-.19,1.5,.1,2.17,.65,1.44,2.45,1.34,3.64,.72,.71-.37,1.35-.89,1.97-1.4,.6-.49,1.17-1.01,1.74-1.54,1.15-1.09,2.24-2.24,3.38-3.35,1.25-1.21,2.15-1.86,3.52-2.92,.05-.03,0-.11-.06-.08h0Z"/><path class="cls-15" d="M308.45,156.08c.44-1.68,3.2-8.78,4.19-10.49,.03-.04-.03-.08-.06-.04-1.79,2.37-4.32,8.28-4.84,10.13-.51,1.83-1.06,4.14-.74,6.03,.47,2.85,2.45,3.08,3.18,3.1,.86,.03,1.68-.29,2.36-.8,.76-.57,1.42-1.6,1.86-2.43,.02-.04-.03-.09-.06-.04-.8,1.29-2.26,2.67-3.84,2.72-.69,.02-1.42-.17-1.92-.66-.59-.58-.77-1.43-.83-2.22-.15-1.79,.26-3.58,.72-5.3h0Z"/><path class="cls-9" d="M350.81,134.81l-8.92,31.03s55.48,3.16,58.55-6.92c3.07-10.08-23.73-43.08-34.85-52.14-12.88-10.5-13.58-6.09-9.38,4.41,4.39,11,11.95,26.71,11.95,26.71l-17.37-3.09h0Z"/><path class="cls-15" d="M385.7,142.87c-2.76-1.32-5.64-2.38-8.56-3.29-2.89-.9-5.86-1.49-8.85-1.95-1.7-.26-3.42-.45-5.14-.65-.06,0-.06,.08,0,.08,3,.42,5.98,1.11,8.92,1.88,2.93,.76,5.82,1.58,8.71,2.45,1.63,.49,3.25,1.06,4.87,1.61,.08,.03,.11-.08,.04-.12Z"/><path class="cls-15" d="M350.94,134.7c.28,.03,15.71,2.43,16.23,2.58-.1-.21-4.01-7.55-4.59-8.63-.06-.1-.11-.22-.17-.33-.35-.47-.7-.92-1.03-1.4-.42-.61-.85-1.23-1.27-1.84-.01-.02,.01-.04,.03-.02,.45,.59,.9,1.19,1.35,1.79,.21,.28,.4,.56,.6,.84-.39-.76-.77-1.53-1.15-2.3-.6-1.23-1.17-2.47-1.74-3.72-.02-.04,.04-.06,.06-.03,1.15,2.14,2.37,4.25,3.53,6.38,1.15,2.13,5.55,9.99,5.53,9.99-.02,.03-17.05-3.02-17.38-3.1-.13-.03-.11-.22,.03-.21h-.01Z"/><path class="cls-15" d="M353.06,153.63c.97-3.46,1.92-6.93,3.02-10.35,.63-1.95,1.24-3.89,1.89-5.84,.02-.08,.15-.04,.13,.03-.84,3.51-1.69,7.03-2.69,10.5-.99,3.45-1.96,6.92-3,10.36-.59,1.96-1.24,3.89-1.95,5.81-.01,.03-.08,.02-.07-.02,.72-3.54,1.69-7.02,2.67-10.5h0Z"/><path class="cls-15" d="M341.28,166.4c.39-.97,.86-2.36,1.29-3.32,.11-.25,.3-.24,.22,.03-.27,.87-.47,1.84-.73,2.72,.78,.03,1.55,.03,2.33,.07,.9,.04,1.79,.08,2.69,.12,1.76,.07,3.52,.12,5.28,.15,3.56,.07,7.12,.06,10.68-.03,7.14-.17,14.29-.6,21.37-1.51,1.98-.26,3.96-.55,5.93-.9,2-.36,4.15-.76,5.77-1.24,.05-.01,.08,.07,.03,.09-1.66,.64-3.22,1.12-4.95,1.49-1.77,.38-3.55,.71-5.34,.99-3.57,.55-7.15,.9-10.74,1.17-7.12,.51-14.28,.72-21.43,.65-2-.02-4-.07-6-.13-1.01-.03-2.02-.07-3.03-.13-1.01-.06-3.41-.06-3.34-.22h0Z"/><path class="cls-4" d="M337.44,170.49h-70.98v2.86h70.98v-2.86Z"/><path class="cls-7" d="M337.44,170.49h-39.28v2.86h39.28v-2.86Z"/><path class="cls-7" d="M299.34,173.35h-62.21l-8.78-42.25h62.21l8.78,42.25Z"/><path class="cls-6" d="M296.53,173.35h-62.21l-8.79-42.25h62.21l8.79,42.25Z"/><path class="cls-11" d="M265.17,153.16c.24,2.29-1.42,4.15-3.71,4.15s-4.34-1.86-4.58-4.15c-.24-2.29,1.42-4.15,3.71-4.15s4.34,1.86,4.58,4.15Z"/><path class="cls-9" d="M347,115.78s10.38-10.32,17.15-10.14l5.8,5.06s1.89,.61,2.47-.6c1.42-2.97,1.65-10.13-4.54-14.73-5.67-4.2-14.9-3.82-22.59-1.72-7.38,2.01-13.75,6.97-11.45,11.78,2.31,4.8,13.16,10.36,13.16,10.36h0Z"/><path class="cls-3" d="M346.25,113.51s-8.53-5.98-9.44-9.58c-.9-3.59,6.25-7.08,10.89-8.46,7.17-2.14,12.07-1.72,16.13,2.08,4.06,3.8-17.58,15.95-17.58,15.95h0Z"/><path class="cls-9" d="M346.25,113.51s8.27-14.27,18.73-15.75l-.81,7.87s-6.25,.07-17.15,10.14l-.76-2.26h0Z"/><path class="cls-15" d="M366.99,105.76c-1.92-.22-3.82,.22-5.61,.8-1.81,.59-3.51,1.46-5.13,2.45-1.63,.97-3.16,2.11-4.66,3.27l-2.18,1.86-2.09,1.95-.24,.22-.26-.13c-1.97-.99-3.86-2.11-5.67-3.36-.9-.63-1.8-1.26-2.62-2-.83-.72-1.63-1.48-2.3-2.35,1.56,1.54,3.39,2.72,5.23,3.86,.92,.56,1.88,1.08,2.84,1.59,.96,.5,1.93,1.01,2.9,1.46l-.5,.08,2.09-2.02c.72-.65,1.47-1.27,2.21-1.9,.78-.58,1.54-1.18,2.34-1.74,.82-.53,1.62-1.08,2.49-1.53,1.69-.97,3.51-1.72,5.39-2.24,.47-.14,.95-.22,1.42-.32,.49-.06,.97-.14,1.45-.17,.97-.08,1.96-.05,2.89,.2h0Z"/><path class="cls-15" d="M369.95,110.7c-1.08-.7-2.08-1.51-3.05-2.35-.96-.85-1.9-1.72-2.74-2.7,1.08,.7,2.08,1.51,3.05,2.35,.96,.85,1.9,1.72,2.74,2.7Z"/><path class="cls-9" d="M350.49,110.95s.87,4.05,1,9.91c.05,2.32-.84,10.64-3.42,10.34-2.58-.3,1.62-5.67,2.36-10.06,.75-4.45-.44-7.6-.6-10.23l.66,.03h0Z"/><g class="cls-13"><path d="M350.49,110.95s.87,4.05,1,9.91c.05,2.32-.84,10.64-3.42,10.34-2.58-.3,1.62-5.67,2.36-10.06,.75-4.45-.44-7.6-.6-10.23l.66,.03h0Z"/></g><path class="cls-9" d="M341.33,111.41s-1.2,4.39-1.92,9.65c-.29,2.09-.33,9.67,2.02,9.67s-.87-5.28-1.09-9.31c-.22-4.09,1.17-7.63,1.58-9.98l-.6-.03h0Z"/><g class="cls-13"><path d="M341.33,111.41s-1.2,4.39-1.92,9.65c-.29,2.09-.33,9.67,2.02,9.67s-.87-5.28-1.09-9.31c-.22-4.09,1.17-7.63,1.58-9.98l-.6-.03h0Z"/></g><path class="cls-5" d="M345.38,111.91c2.69-.17,7.71-5.8,9.42-10.26,.12-.31-.73-3.25-1.58-6.87-.51-2.2-1.03-4.66-1.34-6.94l-13.83,5.42s2.06,4.59,2.57,8.57c.04,.33,.05,.65,.03,.95v.16c-.05,1.81,.52,9.25,4.73,8.97h0Z"/><path class="cls-15" d="M340.65,102.79s0,.09,0,.16c.46,0,.94-.03,1.49-.13,8.1-1.29,8.74-11.47,8.74-14.58l-12.83,5.02s2.06,4.59,2.58,8.57c.03,.33,.05,.64,.03,.94h-.01Z"/><path class="cls-5" d="M349.06,70.01c2.9,4.5,4.33,19.46,1.72,23.62-3.77,6.03-11.96,8.83-17.6,3.84-5.46-4.84-6.98-24.37-3.88-28.36,4.56-5.88,15.48-5.74,19.76,.9h0Z"/><path class="cls-15" d="M339.72,80.93c-.46-.06-.87-.18-1.31-.28-.5-.11-.91-.15-1.29-.54-.19-.21-.18-.63,0-.84,.43-.49,1.08-.51,1.69-.4,.66,.13,1.14,.38,1.58,.9,.42,.49-.08,1.24-.67,1.17h0Z"/><path class="cls-15" d="M329.58,82.31c.44-.13,.83-.33,1.24-.5,.47-.19,.88-.31,1.17-.75,.16-.24,.07-.65-.15-.83-.51-.41-1.15-.32-1.73-.1-.63,.23-1.06,.57-1.4,1.15-.33,.56,.29,1.21,.86,1.04h0Z"/><path class="cls-15" d="M340.49,92.68c-.21,.26-.41,.62-.77,.69-.35,.08-.78-.03-1.11-.12-.03,0-.06,.03-.03,.06,.31,.35,.89,.52,1.34,.38,.45-.14,.62-.56,.67-.99,0-.06-.07-.07-.1-.03h0Z"/><path class="cls-15" d="M339.05,89.81c-.45,.95-1.22,1.52-2.09,1.81-.39,.13-.81,.19-1.22,.22-.08,0-.16,0-.24,0h-.22c-.12,0-.19-.09-.23-.2,0-.04,0-.08,0-.11v-.1c-.13-.77-.2-1.95-.2-1.95-.26,.18-1.62,1.01-1.65,.6-.23-3.37-.48-7.12,0-10.51,0-.11,.18-.11,.19,0,.35,3.23,.12,6.5,.42,9.74,.44-.24,1.15-.65,1.55-.7,.11,.02,.1,2.29,.19,2.63,0,0,0,.01,.01,.03,1.32,0,2.25-.51,3.4-1.55,.07-.07,.15,0,.1,.08h-.01Z"/><path class="cls-15" d="M336.15,91.39s.81,.84,1.79,1.05c.36,.08,.74,.08,1.12-.07,.77-.31,.7-1.05,.47-1.66-.19-.5-.48-.92-.48-.92,0,0-1.03,1.24-2.89,1.6h0Z"/><path class="cls-12" d="M337.94,92.44c.36,.08,.74,.08,1.12-.07,.77-.31,.7-1.05,.47-1.66-.85,.19-1.63,.89-1.59,1.74h0Z"/><path class="cls-15" d="M337.75,83.66s.08,.03,.09,.08c.13,1,.44,2.12,1.39,2.31,.03,0,.03,.06,0,.06-1.12,.02-1.52-1.47-1.48-2.44h0Z"/><path class="cls-15" d="M338.47,82.48c1.58-.38,2.21,2.81,.75,3.16-1.44,.34-2.07-2.84-.75-3.16Z"/><path class="cls-15" d="M331.93,84.43s-.07,.06-.06,.1c.24,.98,.34,2.14-.48,2.65-.03,.01-.01,.06,.02,.06,1.06-.38,.9-1.92,.52-2.81h0Z"/><path class="cls-15" d="M330.84,83.58c-1.61,.21-1.08,3.41,.42,3.22,1.47-.19,.93-3.39-.42-3.22h0Z"/><path class="cls-15" d="M347.62,79.65c-2.06-2.56-2.15-8.08-4.09-8.86-4.2-1.7-8.69,6.11-13.13,7.75-4.3,1.59-6.75-.66-7.24-4.44-.49-3.78,1.63-7.21,6.21-9.69,4.73-2.56,10.03-2.2,13.09-1.51,0,0-1.72-1.36-1.51-2.04,.21-.69,2.93,.22,3.84,.7,.92,.49,1.81,1.7,1.81,1.7,0,0,.7-.52,1.9-.92,1.11-.37,2.8-.01,2.97,.22,.17,.23-1.33,1-2.41,1.45,0,0,3.04,1.98,3.84,4.33,.8,2.35,1.19,14.73,.36,15.17-1.06,.56-4.78-2.81-5.61-3.86h0Z"/><path class="cls-15" d="M348.51,63.88s-.08,.06-.03,.08c1.38,.53,2.61,1.27,3.53,2.45,1.07,1.37,1.57,3.09,1.79,4.79,.43,3.31-.06,6.63-.33,9.92,0,.1,.15,.11,.17,.01,.51-3.47,.97-7.21,.37-10.7-.51-2.97-2.32-5.95-5.49-6.57h0Z"/><path class="cls-15" d="M343.29,69.59c-1.33,.28-2.7,.91-3.82,1.67-1.1,.75-1.88,1.88-2.75,2.88-1.97,2.22-4.28,4.23-7.17,5.08-.03,.01-.02,.06,.02,.06,2.7-.61,4.96-2.3,6.84-4.28,.95-.99,1.74-2.22,2.81-3.1,1.21-.99,2.71-1.51,4.15-2.07,.15-.06,.08-.27-.07-.24h0Z"/><path class="cls-15" d="M339.35,62.63c-2.06-.26-4.16-.15-6.19,.18-1.96,.32-3.91,.85-5.65,1.83-3,1.68-5.21,4.78-4.76,8.33,.22,1.8,1.06,3.56,2.46,4.75,.1,.08,.22-.06,.13-.14-2.36-2.4-3.11-6.07-1.43-9.06,1.79-3.22,5.41-4.73,8.87-5.39,2.18-.42,4.37-.5,6.58-.45,.01,0,.01-.02,0-.03h0Z"/><path class="cls-8" d="M340.15,88.78c-2.57,.06-4.7-1.99-4.76-4.56-.06-2.57,1.99-4.7,4.56-4.76,2.57-.06,4.71,1.99,4.76,4.56,.05,2.18-1.4,4.04-3.41,4.59-.37,.1-.75,.16-1.15,.17h0Zm-4.14-4.57c.05,2.22,1.9,4,4.13,3.95,2.22-.05,4-1.9,3.95-4.13-.05-2.22-1.9-4-4.13-3.95-.34,0-.67,.06-.99,.15-1.74,.49-3,2.1-2.95,3.98h0Z"/><path class="cls-8" d="M330.42,90.27c-1.89,.29-3.75-1.54-4.14-4.07-.19-1.21-.02-2.41,.47-3.37,.51-.99,1.3-1.63,2.24-1.77,.94-.15,1.88,.21,2.67,1,.76,.76,1.29,1.86,1.47,3.07,.38,2.4-.69,4.59-2.41,5.07-.1,.03-.19,.05-.3,.06Zm-3.12-7.16c-.43,.85-.58,1.91-.41,2.99,.34,2.2,1.88,3.79,3.43,3.55,1.56-.24,2.54-2.22,2.2-4.43-.17-1.08-.63-2.05-1.3-2.72-.65-.65-1.4-.94-2.13-.83-.08,.01-.15,.03-.23,.05-.63,.17-1.18,.66-1.55,1.38h0Z"/><path class="cls-8" d="M335.63,84.73l.32-.54c-.79-.48-2.53-1.01-3.47,.36l.51,.35c.84-1.24,2.56-.22,2.63-.18h0Z"/><path class="cls-8" d="M356.33,82.73l.5-.37c-.17-.24-1.72-2.29-3.13-2.3-1.32,0-9.45,2.05-9.79,2.14l.15,.6c2.33-.59,8.62-2.13,9.64-2.12,.93,0,2.21,1.48,2.63,2.04h0Z"/><path class="cls-5" d="M349.3,82.47s2.02-5.47,4.42-4.86c2.4,.6,1.72,7.94-.5,9.51-2.22,1.56-3.71-.47-3.71-.47l-.22-4.17h0Z"/><path class="cls-15" d="M353.48,79.7s.06,.04,.03,.06c-1.54,1.15-2.04,2.99-2.24,4.82,.35-.77,.95-1.31,1.97-.92,.06,.02,.03,.1-.02,.1-.75,.03-1.22,.29-1.56,.98-.24,.49-.33,1.06-.45,1.58-.04,.17-.34,.17-.33-.03v-.04c-.62-2.19,.29-5.72,2.59-6.56h0Z"/><g><circle class="cls-4" cx="166.17" cy="36.36" r="26.67"/><path class="cls-1" d="M166.6,10.72h-.68v8.99h.68V10.72Z"/><path class="cls-1" d="M166.6,54.04h-.68v8.99h.68v-8.99Z"/><path class="cls-1" d="M192.84,36.79v-.68h-8.99v.68h8.99Z"/><path class="cls-1" d="M149.51,36.79v-.68h-8.99v.68h8.99Z"/><path class="cls-1" d="M167.42,36.84c0,.15-.05,.29-.13,.41-.08,.12-.2,.21-.33,.27-.14,.06-.28,.07-.43,.05-.14-.03-.28-.09-.38-.2-.1-.1-.17-.24-.2-.38-.04-.14-.04-.29,0-.44,.07-.16,.18-.28,.33-.36,.15-.08,.32-.11,.49-.08,.17,.03,.32,.12,.43,.26,.13,.12,.21,.29,.23,.46h0Z"/><path class="cls-1" d="M166.59,37.07s-.07,.01-.1,0c-.03-.02-.07-.04-.1-.06l-11.15-11.18s-.05-.05-.06-.09c0-.03,0-.07,0-.1,0-.04,0-.07,0-.11,.01-.03,.03-.06,.06-.09l.09-.06c.05-.01,.11-.01,.16,0,.05,.01,.1,.04,.14,.08l11.16,11.18s.07,.09,.09,.14c.02,.05,.02,.11,0,.17-.03,.05-.06,.09-.11,.13-.05,.01-.1,.01-.15,0h-.02Z"/><path class="cls-1" d="M171.16,50.59l-.08-.06s-.03-.05-.05-.09l-4.31-13.06c-.02-.06-.01-.12,.02-.18,.03-.06,.07-.1,.13-.12,.06-.02,.12-.02,.18,0,.03,.01,.06,.03,.08,.06,.02,.02,.04,.05,.05,.08l4.32,13.06s0,.1,0,.14c-.02,.04-.05,.08-.08,.11-.04,.03-.08,.05-.13,.06-.04,.01-.09,.01-.13,0h0Z"/><path class="cls-9" d="M166.29,6.61c-5.91,0-11.68,1.75-16.59,5.03-4.91,3.28-8.74,7.95-11,13.4-2.26,5.46-2.85,11.46-1.7,17.26,1.15,5.79,4,11.12,8.17,15.29,4.18,4.18,9.5,7.02,15.29,8.17,5.79,1.15,11.8,.56,17.26-1.7s10.12-6.09,13.41-11c3.28-4.91,5.03-10.69,5.03-16.59,0-7.92-3.15-15.52-8.75-21.12-5.6-5.6-13.2-8.75-21.12-8.75Zm1.6,55.45c-5.06,.33-10.1-.85-14.48-3.39-4.39-2.54-7.92-6.32-10.16-10.87-2.24-4.55-3.07-9.66-2.4-14.68,.67-5.02,2.81-9.73,6.16-13.54,3.35-3.8,7.75-6.53,12.65-7.83,4.9-1.3,10.07-1.12,14.87,.52,4.79,1.64,8.99,4.67,12.07,8.7,3.07,4.03,4.88,8.88,5.2,13.94,.43,6.77-1.85,13.43-6.33,18.52-4.48,5.09-10.8,8.19-17.57,8.63Z"/></g></g></g></g></svg>