<svg width="220" height="78" viewBox="0 0 220 78" fill="none" xmlns="http://www.w3.org/2000/svg">
<rect x="0.5" y="0.5" width="219" height="77" rx="11.5" fill="#031A2A" stroke="#40494F"/>
<path d="M87.8183 30V20.06H90.2683C91.2297 20.06 92.0463 20.214 92.7183 20.522C93.3997 20.8207 93.9503 21.2173 94.3703 21.712C94.7903 22.2067 95.0983 22.748 95.2943 23.336C95.4903 23.924 95.5883 24.5073 95.5883 25.086C95.5883 25.842 95.4577 26.5233 95.1963 27.13C94.935 27.7273 94.5757 28.2407 94.1183 28.67C93.6703 29.0993 93.157 29.4307 92.5783 29.664C91.9997 29.888 91.3883 30 90.7443 30H87.8183ZM88.5043 29.342H90.5623C91.1597 29.342 91.7197 29.244 92.2423 29.048C92.765 28.852 93.2223 28.5673 93.6143 28.194C94.0157 27.8207 94.3283 27.3727 94.5523 26.85C94.7763 26.318 94.8883 25.716 94.8883 25.044C94.8883 24.4747 94.7903 23.9333 94.5943 23.42C94.4077 22.8973 94.123 22.4353 93.7403 22.034C93.3577 21.6327 92.8863 21.3153 92.3263 21.082C91.7663 20.8487 91.113 20.732 90.3663 20.732H88.5043V29.342ZM97.2589 27.228C97.2589 26.696 97.3849 26.2107 97.6369 25.772C97.8983 25.3333 98.2483 24.988 98.6869 24.736C99.1349 24.4747 99.6343 24.344 100.185 24.344C100.745 24.344 101.244 24.4747 101.683 24.736C102.122 24.988 102.467 25.3333 102.719 25.772C102.971 26.2107 103.097 26.696 103.097 27.228C103.097 27.76 102.971 28.2453 102.719 28.684C102.467 29.1227 102.117 29.4727 101.669 29.734C101.23 29.986 100.736 30.112 100.185 30.112C99.6249 30.112 99.1256 29.9907 98.6869 29.748C98.2483 29.496 97.8983 29.1553 97.6369 28.726C97.3849 28.2873 97.2589 27.788 97.2589 27.228ZM97.9169 27.242C97.9169 27.6713 98.0149 28.0633 98.2109 28.418C98.4163 28.7633 98.6869 29.0387 99.0229 29.244C99.3683 29.4493 99.7509 29.552 100.171 29.552C100.591 29.552 100.969 29.4493 101.305 29.244C101.65 29.0387 101.921 28.7633 102.117 28.418C102.322 28.0633 102.425 27.6713 102.425 27.242C102.425 26.8127 102.322 26.4253 102.117 26.08C101.921 25.7253 101.65 25.4453 101.305 25.24C100.969 25.0253 100.591 24.918 100.171 24.918C99.7416 24.918 99.3543 25.03 99.0089 25.254C98.6729 25.4687 98.4069 25.7533 98.2109 26.108C98.0149 26.4627 97.9169 26.8407 97.9169 27.242ZM107.98 24.526L110.052 29.188L109.898 29.202L111.9 24.526H112.572L109.996 30.336L108.232 26.444L106.622 30.336L104.046 24.526H104.704L106.818 29.286L106.58 29.216L107.98 25.828L107.378 24.526H107.98ZM114.785 24.526L114.855 26.248L114.771 25.912C114.93 25.436 115.228 25.0627 115.667 24.792C116.115 24.512 116.61 24.372 117.151 24.372C117.664 24.372 118.08 24.526 118.397 24.834C118.714 25.1327 118.878 25.5247 118.887 26.01V30H118.215V26.192C118.206 25.8373 118.094 25.5433 117.879 25.31C117.664 25.0767 117.352 24.9553 116.941 24.946C116.577 24.946 116.236 25.0347 115.919 25.212C115.602 25.3893 115.345 25.6367 115.149 25.954C114.962 26.2713 114.869 26.64 114.869 27.06V30H114.211V24.526H114.785ZM121.375 19.36H122.033V30H121.375V19.36ZM123.987 27.228C123.987 26.696 124.113 26.2107 124.365 25.772C124.627 25.3333 124.977 24.988 125.415 24.736C125.863 24.4747 126.363 24.344 126.913 24.344C127.473 24.344 127.973 24.4747 128.411 24.736C128.85 24.988 129.195 25.3333 129.447 25.772C129.699 26.2107 129.825 26.696 129.825 27.228C129.825 27.76 129.699 28.2453 129.447 28.684C129.195 29.1227 128.845 29.4727 128.397 29.734C127.959 29.986 127.464 30.112 126.913 30.112C126.353 30.112 125.854 29.9907 125.415 29.748C124.977 29.496 124.627 29.1553 124.365 28.726C124.113 28.2873 123.987 27.788 123.987 27.228ZM124.645 27.242C124.645 27.6713 124.743 28.0633 124.939 28.418C125.145 28.7633 125.415 29.0387 125.751 29.244C126.097 29.4493 126.479 29.552 126.899 29.552C127.319 29.552 127.697 29.4493 128.033 29.244C128.379 29.0387 128.649 28.7633 128.845 28.418C129.051 28.0633 129.153 27.6713 129.153 27.242C129.153 26.8127 129.051 26.4253 128.845 26.08C128.649 25.7253 128.379 25.4453 128.033 25.24C127.697 25.0253 127.319 24.918 126.899 24.918C126.47 24.918 126.083 25.03 125.737 25.254C125.401 25.4687 125.135 25.7533 124.939 26.108C124.743 26.4627 124.645 26.8407 124.645 27.242ZM134.047 30.112C133.525 30.112 133.049 29.9953 132.619 29.762C132.199 29.5193 131.863 29.1833 131.611 28.754C131.369 28.3247 131.247 27.8253 131.247 27.256C131.247 26.6493 131.378 26.1313 131.639 25.702C131.901 25.2633 132.255 24.932 132.703 24.708C133.151 24.4747 133.66 24.358 134.229 24.358C134.715 24.358 135.172 24.5027 135.601 24.792C136.04 25.0813 136.353 25.4453 136.539 25.884L136.441 26.08L136.525 24.526H137.113V30H136.455V28.306L136.595 28.558C136.53 28.7447 136.418 28.9313 136.259 29.118C136.101 29.2953 135.905 29.4633 135.671 29.622C135.447 29.7713 135.195 29.8927 134.915 29.986C134.645 30.07 134.355 30.112 134.047 30.112ZM134.187 29.552C134.598 29.552 134.967 29.468 135.293 29.3C135.629 29.1227 135.9 28.88 136.105 28.572C136.311 28.264 136.427 27.9093 136.455 27.508V26.724C136.381 26.3787 136.231 26.0707 136.007 25.8C135.793 25.5293 135.527 25.3147 135.209 25.156C134.892 24.9973 134.547 24.918 134.173 24.918C133.763 24.918 133.385 25.016 133.039 25.212C132.694 25.3987 132.419 25.6647 132.213 26.01C132.008 26.3553 131.905 26.7613 131.905 27.228C131.905 27.6573 132.008 28.0493 132.213 28.404C132.419 28.7493 132.694 29.0293 133.039 29.244C133.394 29.4493 133.777 29.552 134.187 29.552ZM141.84 30.112C141.326 30.112 140.86 29.9907 140.44 29.748C140.02 29.496 139.684 29.1507 139.432 28.712C139.189 28.2733 139.068 27.7787 139.068 27.228C139.068 26.64 139.194 26.1313 139.446 25.702C139.698 25.2727 140.038 24.9413 140.468 24.708C140.906 24.4747 141.387 24.358 141.91 24.358C142.432 24.358 142.927 24.4933 143.394 24.764C143.87 25.0347 144.215 25.3893 144.43 25.828L144.318 26.136V19.36H144.976V30H144.304V28.32L144.444 28.628C144.21 29.0667 143.86 29.426 143.394 29.706C142.927 29.9767 142.409 30.112 141.84 30.112ZM142.008 29.538C142.428 29.538 142.806 29.4493 143.142 29.272C143.478 29.0853 143.748 28.838 143.954 28.53C144.159 28.2127 144.276 27.858 144.304 27.466V26.766C144.238 26.4113 144.094 26.094 143.87 25.814C143.646 25.534 143.375 25.3147 143.058 25.156C142.74 24.988 142.39 24.904 142.008 24.904C141.588 24.904 141.205 25.002 140.86 25.198C140.514 25.394 140.239 25.6647 140.034 26.01C139.828 26.3553 139.726 26.7567 139.726 27.214C139.726 27.6433 139.828 28.0353 140.034 28.39C140.239 28.7353 140.514 29.0153 140.86 29.23C141.214 29.4353 141.597 29.538 142.008 29.538ZM151.222 27.228C151.222 26.696 151.348 26.2107 151.6 25.772C151.861 25.3333 152.211 24.988 152.65 24.736C153.098 24.4747 153.597 24.344 154.148 24.344C154.708 24.344 155.207 24.4747 155.646 24.736C156.084 24.988 156.43 25.3333 156.682 25.772C156.934 26.2107 157.06 26.696 157.06 27.228C157.06 27.76 156.934 28.2453 156.682 28.684C156.43 29.1227 156.08 29.4727 155.632 29.734C155.193 29.986 154.698 30.112 154.148 30.112C153.588 30.112 153.088 29.9907 152.65 29.748C152.211 29.496 151.861 29.1553 151.6 28.726C151.348 28.2873 151.222 27.788 151.222 27.228ZM151.88 27.242C151.88 27.6713 151.978 28.0633 152.174 28.418C152.379 28.7633 152.65 29.0387 152.986 29.244C153.331 29.4493 153.714 29.552 154.134 29.552C154.554 29.552 154.932 29.4493 155.268 29.244C155.613 29.0387 155.884 28.7633 156.08 28.418C156.285 28.0633 156.388 27.6713 156.388 27.242C156.388 26.8127 156.285 26.4253 156.08 26.08C155.884 25.7253 155.613 25.4453 155.268 25.24C154.932 25.0253 154.554 24.918 154.134 24.918C153.704 24.918 153.317 25.03 152.972 25.254C152.636 25.4687 152.37 25.7533 152.174 26.108C151.978 26.4627 151.88 26.8407 151.88 27.242ZM159.588 24.526L159.658 26.248L159.574 25.912C159.732 25.436 160.031 25.0627 160.47 24.792C160.918 24.512 161.412 24.372 161.954 24.372C162.467 24.372 162.882 24.526 163.2 24.834C163.517 25.1327 163.68 25.5247 163.69 26.01V30H163.018V26.192C163.008 25.8373 162.896 25.5433 162.682 25.31C162.467 25.0767 162.154 24.9553 161.744 24.946C161.38 24.946 161.039 25.0347 160.722 25.212C160.404 25.3893 160.148 25.6367 159.952 25.954C159.765 26.2713 159.672 26.64 159.672 27.06V30H159.014V24.526H159.588ZM171.017 22.118H171.689V24.596H173.383V25.128H171.689V30H171.017V25.128H169.855V24.596H171.017V22.118ZM175.023 30V19.36H175.667V25.982L175.625 25.744C175.812 25.3613 176.111 25.0393 176.521 24.778C176.941 24.5073 177.422 24.372 177.963 24.372C178.477 24.372 178.892 24.526 179.209 24.834C179.527 25.1327 179.69 25.5247 179.699 26.01V30H179.027V26.192C179.018 25.8373 178.906 25.5433 178.691 25.31C178.477 25.0767 178.164 24.9553 177.753 24.946C177.389 24.946 177.049 25.0393 176.731 25.226C176.414 25.4127 176.157 25.6647 175.961 25.982C175.775 26.2993 175.681 26.6587 175.681 27.06V30H175.023ZM184.567 30.112C183.998 30.112 183.494 29.986 183.055 29.734C182.617 29.482 182.271 29.1413 182.019 28.712C181.777 28.2733 181.655 27.7833 181.655 27.242C181.655 26.71 181.786 26.2247 182.047 25.786C182.309 25.3473 182.659 24.9973 183.097 24.736C183.545 24.4747 184.04 24.344 184.581 24.344C185.235 24.344 185.781 24.5353 186.219 24.918C186.667 25.3007 186.989 25.8 187.185 26.416L182.397 28.264L182.201 27.788L186.583 26.08L186.443 26.276C186.285 25.9027 186.042 25.5807 185.715 25.31C185.398 25.0393 185.006 24.904 184.539 24.904C184.119 24.904 183.741 25.0067 183.405 25.212C183.069 25.4173 182.799 25.6927 182.593 26.038C182.397 26.3833 182.299 26.7753 182.299 27.214C182.299 27.6247 182.393 28.0073 182.579 28.362C182.775 28.7167 183.046 29.0013 183.391 29.216C183.737 29.4307 184.133 29.538 184.581 29.538C184.88 29.538 185.165 29.482 185.435 29.37C185.715 29.258 185.963 29.1133 186.177 28.936L186.513 29.412C186.252 29.6173 185.949 29.7853 185.603 29.916C185.267 30.0467 184.922 30.112 184.567 30.112Z" fill="white"/>
<path d="M83.9382 60L91.0222 43.324H91.1762L98.2602 60H95.3122L90.3182 47.35L92.1662 46.096L86.4682 60H83.9382ZM88.3822 54.06H93.8602L94.7402 56.238H87.6122L88.3822 54.06ZM106.141 60.242C105.496 60.242 104.872 60.1027 104.271 59.824C103.67 59.5453 103.186 59.164 102.819 58.68L102.951 57.932V64.466H100.487V50.518H102.621L102.951 52.674L102.731 52.014C103.186 51.5153 103.736 51.1047 104.381 50.782C105.041 50.4447 105.782 50.276 106.603 50.276C107.483 50.276 108.268 50.4813 108.957 50.892C109.646 51.3027 110.189 51.8893 110.585 52.652C110.996 53.4 111.201 54.2873 111.201 55.314C111.201 56.3407 110.981 57.2207 110.541 57.954C110.101 58.6873 109.5 59.252 108.737 59.648C107.974 60.044 107.109 60.242 106.141 60.242ZM105.657 58.284C106.2 58.284 106.698 58.1593 107.153 57.91C107.622 57.6607 107.996 57.316 108.275 56.876C108.554 56.4213 108.693 55.9153 108.693 55.358C108.693 54.7713 108.561 54.258 108.297 53.818C108.048 53.3633 107.703 53.0113 107.263 52.762C106.838 52.498 106.361 52.366 105.833 52.366C105.349 52.366 104.916 52.4467 104.535 52.608C104.154 52.7693 103.831 53.004 103.567 53.312C103.303 53.6053 103.098 53.9573 102.951 54.368V56.238C103.054 56.634 103.23 56.986 103.479 57.294C103.728 57.602 104.044 57.844 104.425 58.02C104.806 58.196 105.217 58.284 105.657 58.284ZM119.461 60.242C118.816 60.242 118.193 60.1027 117.591 59.824C116.99 59.5453 116.506 59.164 116.139 58.68L116.271 57.932V64.466H113.807V50.518H115.941L116.271 52.674L116.051 52.014C116.506 51.5153 117.056 51.1047 117.701 50.782C118.361 50.4447 119.102 50.276 119.923 50.276C120.803 50.276 121.588 50.4813 122.277 50.892C122.967 51.3027 123.509 51.8893 123.905 52.652C124.316 53.4 124.521 54.2873 124.521 55.314C124.521 56.3407 124.301 57.2207 123.861 57.954C123.421 58.6873 122.82 59.252 122.057 59.648C121.295 60.044 120.429 60.242 119.461 60.242ZM118.977 58.284C119.52 58.284 120.019 58.1593 120.473 57.91C120.943 57.6607 121.317 57.316 121.595 56.876C121.874 56.4213 122.013 55.9153 122.013 55.358C122.013 54.7713 121.881 54.258 121.617 53.818C121.368 53.3633 121.023 53.0113 120.583 52.762C120.158 52.498 119.681 52.366 119.153 52.366C118.669 52.366 118.237 52.4467 117.855 52.608C117.474 52.7693 117.151 53.004 116.887 53.312C116.623 53.6053 116.418 53.9573 116.271 54.368V56.238C116.374 56.634 116.55 56.986 116.799 57.294C117.049 57.602 117.364 57.844 117.745 58.02C118.127 58.196 118.537 58.284 118.977 58.284ZM143.084 47.24C142.512 46.9467 141.904 46.6973 141.258 46.492C140.613 46.272 139.997 46.162 139.41 46.162C138.618 46.162 137.988 46.338 137.518 46.69C137.064 47.042 136.836 47.526 136.836 48.142C136.836 48.582 136.998 48.9707 137.32 49.308C137.643 49.6307 138.054 49.9167 138.552 50.166C139.051 50.4007 139.579 50.628 140.136 50.848C140.62 51.024 141.097 51.2367 141.566 51.486C142.05 51.7207 142.483 52.014 142.864 52.366C143.246 52.718 143.546 53.158 143.766 53.686C144.001 54.1993 144.118 54.8373 144.118 55.6C144.118 56.436 143.906 57.206 143.48 57.91C143.055 58.5993 142.446 59.1493 141.654 59.56C140.862 59.9707 139.894 60.176 138.75 60.176C138.09 60.176 137.438 60.1027 136.792 59.956C136.162 59.8093 135.56 59.6113 134.988 59.362C134.416 59.098 133.888 58.8047 133.404 58.482L134.548 56.48C134.9 56.744 135.304 56.986 135.758 57.206C136.213 57.426 136.682 57.602 137.166 57.734C137.65 57.8513 138.105 57.91 138.53 57.91C138.985 57.91 139.432 57.8367 139.872 57.69C140.327 57.5433 140.701 57.3013 140.994 56.964C141.302 56.6267 141.456 56.1793 141.456 55.622C141.456 55.1673 141.324 54.7787 141.06 54.456C140.796 54.1333 140.452 53.8547 140.026 53.62C139.616 53.3707 139.161 53.1507 138.662 52.96C138.164 52.7693 137.65 52.5567 137.122 52.322C136.609 52.0873 136.132 51.8013 135.692 51.464C135.252 51.112 134.893 50.6867 134.614 50.188C134.336 49.6893 134.196 49.0733 134.196 48.34C134.196 47.46 134.402 46.6973 134.812 46.052C135.223 45.4067 135.788 44.8933 136.506 44.512C137.24 44.1307 138.083 43.9253 139.036 43.896C140.166 43.896 141.126 44.0353 141.918 44.314C142.725 44.578 143.436 44.9007 144.052 45.282L143.084 47.24ZM147.859 46.602H150.345V50.694H152.765V52.63H150.345V60H147.859V52.63H146.275V50.694H147.859V46.602ZM154.416 55.248C154.416 54.3093 154.636 53.466 155.076 52.718C155.516 51.9553 156.132 51.3613 156.924 50.936C157.731 50.496 158.64 50.276 159.652 50.276C160.694 50.276 161.596 50.496 162.358 50.936C163.136 51.3613 163.737 51.9553 164.162 52.718C164.588 53.466 164.8 54.3093 164.8 55.248C164.8 56.1867 164.588 57.0373 164.162 57.8C163.737 58.548 163.136 59.142 162.358 59.582C161.596 60.022 160.686 60.242 159.63 60.242C158.633 60.242 157.738 60.044 156.946 59.648C156.154 59.2373 155.531 58.658 155.076 57.91C154.636 57.162 154.416 56.2747 154.416 55.248ZM156.902 55.27C156.902 55.8127 157.02 56.3113 157.254 56.766C157.489 57.206 157.812 57.558 158.222 57.822C158.633 58.086 159.088 58.218 159.586 58.218C160.129 58.218 160.598 58.086 160.994 57.822C161.405 57.558 161.72 57.206 161.94 56.766C162.175 56.3113 162.292 55.8127 162.292 55.27C162.292 54.7127 162.175 54.214 161.94 53.774C161.72 53.3193 161.405 52.96 160.994 52.696C160.598 52.432 160.129 52.3 159.586 52.3C159.073 52.3 158.611 52.4393 158.2 52.718C157.804 52.982 157.489 53.334 157.254 53.774C157.02 54.214 156.902 54.7127 156.902 55.27ZM169.611 50.694L169.831 53.334L169.743 52.96C170.007 52.4027 170.367 51.926 170.821 51.53C171.291 51.1193 171.767 50.8113 172.251 50.606C172.735 50.386 173.131 50.276 173.439 50.276L173.329 52.74C172.625 52.6813 172.009 52.8133 171.481 53.136C170.968 53.444 170.565 53.8547 170.271 54.368C169.993 54.8813 169.853 55.424 169.853 55.996V60H167.389V50.694H169.611ZM179.997 60.242C178.897 60.242 177.959 60.0293 177.181 59.604C176.404 59.1787 175.81 58.592 175.399 57.844C174.989 57.0813 174.783 56.2233 174.783 55.27C174.783 54.3313 175.018 53.488 175.487 52.74C175.957 51.992 176.587 51.398 177.379 50.958C178.186 50.5033 179.073 50.276 180.041 50.276C181.317 50.276 182.366 50.65 183.187 51.398C184.023 52.1313 184.581 53.1727 184.859 54.522L177.357 57.052L176.785 55.666L182.637 53.576L182.131 53.862C181.97 53.422 181.706 53.0407 181.339 52.718C180.987 52.3953 180.489 52.234 179.843 52.234C179.33 52.234 178.875 52.3587 178.479 52.608C178.083 52.8427 177.768 53.18 177.533 53.62C177.313 54.0453 177.203 54.5513 177.203 55.138C177.203 55.7393 177.328 56.2673 177.577 56.722C177.827 57.1767 178.164 57.5287 178.589 57.778C179.015 58.0127 179.499 58.13 180.041 58.13C180.423 58.13 180.789 58.064 181.141 57.932C181.493 57.8 181.823 57.624 182.131 57.404L183.253 59.23C182.769 59.538 182.234 59.7873 181.647 59.978C181.075 60.154 180.525 60.242 179.997 60.242Z" fill="white"/>
<path d="M67.8272 62.9538C65.0488 65.6452 62.0153 65.2202 59.0952 63.9454C56.0049 62.6422 53.1698 62.5855 49.9095 63.9454C45.8269 65.7018 43.6723 65.1919 41.2341 62.9538C27.3989 48.704 29.4401 27.0034 45.1465 26.2101C48.9739 26.4084 51.6389 28.3065 53.8786 28.4765C57.224 27.7966 60.4276 25.8418 63.9999 26.0968C68.2808 26.4368 71.5128 28.1365 73.6392 31.1962C64.7937 36.4938 66.8917 48.1374 75 51.3953C73.384 55.6447 71.286 59.8659 67.7989 62.9822L67.8272 62.9538ZM53.5951 26.0401C53.1698 19.7226 58.3013 14.5099 64.1983 14C65.0205 21.3091 57.5642 26.7484 53.5951 26.0401Z" fill="white"/>
</svg>
