<svg width="220" height="78" viewBox="0 0 220 78" fill="none" xmlns="http://www.w3.org/2000/svg">
<rect x="0.5" y="0.5" width="219" height="77" rx="11.5" fill="#031A2A" stroke="#40494F"/>
<path d="M23.8303 14.22C24.0823 14.0747 24.3678 13.9988 24.6581 14C24.9485 14.0012 25.2334 14.0793 25.4842 14.2266L51.4279 29.4765L43.3997 36.7564L23 18.2566V15.6666C22.9998 15.3732 23.0764 15.0849 23.2222 14.8309C23.368 14.5768 23.5778 14.3661 23.8303 14.22ZM23 22.7432V55.2563L40.9287 38.9997L23 22.7432ZM23 59.7429V62.3329C22.9999 62.6261 23.0766 62.9142 23.2224 63.168C23.3681 63.4219 23.5777 63.6324 23.8301 63.7785C24.0824 63.9246 24.3685 64.001 24.6596 64C24.9506 63.999 25.2362 63.9206 25.4875 63.7728L51.4279 48.523L43.3997 41.2431L23 59.7429ZM54.4282 46.7597L65.1788 40.4397C65.4287 40.293 65.636 40.0828 65.7801 39.8302C65.9242 39.5775 66 39.2912 66 38.9997C66 38.7083 65.9242 38.422 65.7801 38.1693C65.636 37.9167 65.4287 37.7065 65.1788 37.5598L54.4282 31.2398L45.8707 38.9997L54.4282 46.7597Z" fill="white"/>
<path d="M83.334 26.3C83.166 26.412 82.9607 26.5193 82.718 26.622C82.4847 26.7153 82.2327 26.7993 81.962 26.874C81.6914 26.9487 81.4114 27.0047 81.122 27.042C80.842 27.0887 80.576 27.112 80.324 27.112C79.54 27.112 78.8307 26.986 78.196 26.734C77.5707 26.4727 77.034 26.118 76.586 25.67C76.138 25.2127 75.7927 24.6853 75.55 24.088C75.3167 23.4813 75.2 22.828 75.2 22.128C75.2 21.372 75.3307 20.6767 75.592 20.042C75.8627 19.4073 76.2314 18.8613 76.698 18.404C77.1647 17.9373 77.706 17.578 78.322 17.326C78.938 17.074 79.5914 16.948 80.282 16.948C80.8047 16.948 81.2947 17.0133 81.752 17.144C82.2187 17.2747 82.6387 17.452 83.012 17.676L82.76 18.292C82.5454 18.1613 82.3027 18.0493 82.032 17.956C81.7614 17.8533 81.4814 17.774 81.192 17.718C80.912 17.662 80.632 17.634 80.352 17.634C79.7174 17.634 79.1294 17.746 78.588 17.97C78.0467 18.194 77.5754 18.5067 77.174 18.908C76.7727 19.3093 76.46 19.7807 76.236 20.322C76.012 20.8633 75.9 21.4513 75.9 22.086C75.9 22.702 76.0027 23.276 76.208 23.808C76.4227 24.3307 76.7214 24.7927 77.104 25.194C77.496 25.586 77.9627 25.894 78.504 26.118C79.0454 26.3327 79.6474 26.44 80.31 26.44C80.702 26.44 81.1127 26.3933 81.542 26.3C81.9714 26.2067 82.34 26.0713 82.648 25.894V23.136H80.408V22.478H83.334V26.3ZM86.207 17.06H92.339V17.718H86.893V21.666H91.793V22.324H86.893V26.342H92.535V27H86.207V17.06ZM94.3504 17.06H100.86V17.718H97.9344V27H97.2484V17.718H94.3504V17.06ZM107.521 17.06H108.207V27H107.521V17.06ZM110.579 17.06H117.089V17.718H114.163V27H113.477V17.718H110.579V17.06ZM123.12 22.044C123.12 21.344 123.251 20.6907 123.512 20.084C123.773 19.468 124.137 18.9267 124.604 18.46C125.071 17.984 125.607 17.6153 126.214 17.354C126.83 17.0833 127.488 16.948 128.188 16.948C128.888 16.948 129.546 17.0833 130.162 17.354C130.778 17.6153 131.319 17.984 131.786 18.46C132.253 18.9267 132.617 19.468 132.878 20.084C133.149 20.6907 133.284 21.344 133.284 22.044C133.284 22.744 133.149 23.402 132.878 24.018C132.617 24.6247 132.253 25.1613 131.786 25.628C131.319 26.0947 130.778 26.4587 130.162 26.72C129.546 26.9813 128.888 27.112 128.188 27.112C127.488 27.112 126.83 26.986 126.214 26.734C125.607 26.482 125.071 26.1273 124.604 25.67C124.137 25.2127 123.773 24.676 123.512 24.06C123.251 23.444 123.12 22.772 123.12 22.044ZM123.82 22.058C123.82 22.6647 123.932 23.234 124.156 23.766C124.38 24.298 124.693 24.7647 125.094 25.166C125.495 25.5673 125.957 25.8847 126.48 26.118C127.012 26.342 127.577 26.454 128.174 26.454C128.79 26.454 129.364 26.342 129.896 26.118C130.428 25.8847 130.895 25.5673 131.296 25.166C131.697 24.7647 132.01 24.298 132.234 23.766C132.467 23.234 132.584 22.66 132.584 22.044C132.584 21.4373 132.467 20.868 132.234 20.336C132.01 19.7947 131.697 19.3233 131.296 18.922C130.895 18.5113 130.428 18.1893 129.896 17.956C129.364 17.7227 128.795 17.606 128.188 17.606C127.572 17.606 126.998 17.7273 126.466 17.97C125.934 18.2033 125.467 18.5253 125.066 18.936C124.674 19.3467 124.366 19.8227 124.142 20.364C123.927 20.896 123.82 21.4607 123.82 22.058ZM144.138 27.238L136.298 18.404L136.48 18.264L136.494 27H135.822V16.85H135.864L143.704 25.754L143.522 25.81L143.508 17.06H144.166V27.238H144.138Z" fill="white"/>
<path d="M89.0464 55.526C88.8411 55.7313 88.5331 55.9293 88.1224 56.12C87.7264 56.3107 87.2791 56.4867 86.7804 56.648C86.2817 56.8093 85.7684 56.934 85.2404 57.022C84.7124 57.1247 84.2137 57.176 83.7444 57.176C82.4537 57.176 81.2877 56.978 80.2464 56.582C79.2197 56.186 78.3324 55.6433 77.5844 54.954C76.8511 54.25 76.2864 53.4213 75.8904 52.468C75.5091 51.5147 75.3184 50.4807 75.3184 49.366C75.3184 47.9727 75.5384 46.748 75.9784 45.692C76.4184 44.6213 77.0197 43.7267 77.7824 43.008C78.5451 42.2747 79.4177 41.7247 80.4004 41.358C81.3977 40.9913 82.4464 40.808 83.5464 40.808C84.5144 40.808 85.4091 40.918 86.2304 41.138C87.0664 41.358 87.7777 41.6367 88.3644 41.974L87.5284 44.35C87.2497 44.1887 86.8904 44.0347 86.4504 43.888C86.0104 43.7267 85.5631 43.602 85.1084 43.514C84.6684 43.426 84.2577 43.382 83.8764 43.382C82.9524 43.382 82.1237 43.514 81.3904 43.778C80.6717 44.0273 80.0557 44.4013 79.5424 44.9C79.0291 45.3987 78.6331 46.0073 78.3544 46.726C78.0904 47.43 77.9584 48.2367 77.9584 49.146C77.9584 49.9673 78.0977 50.7153 78.3764 51.39C78.6697 52.0647 79.0731 52.644 79.5864 53.128C80.1144 53.612 80.7304 53.986 81.4344 54.25C82.1531 54.4993 82.9451 54.624 83.8104 54.624C84.3091 54.624 84.7931 54.58 85.2624 54.492C85.7317 54.404 86.1277 54.2647 86.4504 54.074V51.412H83.4584V48.948H89.0464V55.526ZM91.6613 52.248C91.6613 51.3093 91.8813 50.466 92.3213 49.718C92.7613 48.9553 93.3773 48.3613 94.1693 47.936C94.976 47.496 95.8853 47.276 96.8973 47.276C97.9386 47.276 98.8406 47.496 99.6033 47.936C100.381 48.3613 100.982 48.9553 101.407 49.718C101.833 50.466 102.045 51.3093 102.045 52.248C102.045 53.1867 101.833 54.0373 101.407 54.8C100.982 55.548 100.381 56.142 99.6033 56.582C98.8406 57.022 97.9313 57.242 96.8753 57.242C95.878 57.242 94.9833 57.044 94.1913 56.648C93.3993 56.2373 92.776 55.658 92.3213 54.91C91.8813 54.162 91.6613 53.2747 91.6613 52.248ZM94.1473 52.27C94.1473 52.8127 94.2646 53.3113 94.4993 53.766C94.734 54.206 95.0566 54.558 95.4673 54.822C95.878 55.086 96.3326 55.218 96.8313 55.218C97.374 55.218 97.8433 55.086 98.2393 54.822C98.65 54.558 98.9653 54.206 99.1853 53.766C99.42 53.3113 99.5373 52.8127 99.5373 52.27C99.5373 51.7127 99.42 51.214 99.1853 50.774C98.9653 50.3193 98.65 49.96 98.2393 49.696C97.8433 49.432 97.374 49.3 96.8313 49.3C96.318 49.3 95.856 49.4393 95.4453 49.718C95.0493 49.982 94.734 50.334 94.4993 50.774C94.2646 51.214 94.1473 51.7127 94.1473 52.27ZM103.864 52.248C103.864 51.3093 104.084 50.466 104.524 49.718C104.964 48.9553 105.58 48.3613 106.372 47.936C107.179 47.496 108.088 47.276 109.1 47.276C110.142 47.276 111.044 47.496 111.806 47.936C112.584 48.3613 113.185 48.9553 113.61 49.718C114.036 50.466 114.248 51.3093 114.248 52.248C114.248 53.1867 114.036 54.0373 113.61 54.8C113.185 55.548 112.584 56.142 111.806 56.582C111.044 57.022 110.134 57.242 109.078 57.242C108.081 57.242 107.186 57.044 106.394 56.648C105.602 56.2373 104.979 55.658 104.524 54.91C104.084 54.162 103.864 53.2747 103.864 52.248ZM106.35 52.27C106.35 52.8127 106.468 53.3113 106.702 53.766C106.937 54.206 107.26 54.558 107.67 54.822C108.081 55.086 108.536 55.218 109.034 55.218C109.577 55.218 110.046 55.086 110.442 54.822C110.853 54.558 111.168 54.206 111.388 53.766C111.623 53.3113 111.74 52.8127 111.74 52.27C111.74 51.7127 111.623 51.214 111.388 50.774C111.168 50.3193 110.853 49.96 110.442 49.696C110.046 49.432 109.577 49.3 109.034 49.3C108.521 49.3 108.059 49.4393 107.648 49.718C107.252 49.982 106.937 50.334 106.702 50.774C106.468 51.214 106.35 51.7127 106.35 52.27ZM121.48 61.642C120.717 61.642 120.064 61.554 119.522 61.378C118.979 61.202 118.495 60.9673 118.07 60.674C117.659 60.3953 117.27 60.102 116.904 59.794L118.356 58.1C118.781 58.496 119.228 58.826 119.698 59.09C120.182 59.354 120.761 59.486 121.436 59.486C122.037 59.486 122.558 59.3833 122.998 59.178C123.452 58.9727 123.804 58.6867 124.054 58.32C124.303 57.9533 124.435 57.5133 124.45 57V54.69L124.604 55.152C124.354 55.724 123.9 56.2153 123.24 56.626C122.58 57.0367 121.758 57.242 120.776 57.242C119.925 57.242 119.14 57.0293 118.422 56.604C117.703 56.164 117.131 55.57 116.706 54.822C116.28 54.074 116.068 53.2307 116.068 52.292C116.068 51.324 116.288 50.466 116.728 49.718C117.182 48.9553 117.776 48.3613 118.51 47.936C119.258 47.496 120.05 47.276 120.886 47.276C121.707 47.276 122.433 47.4227 123.064 47.716C123.709 48.0093 124.193 48.376 124.516 48.816L124.384 49.168L124.648 47.694H126.914V57.044C126.914 57.9093 126.679 58.6867 126.21 59.376C125.755 60.08 125.117 60.63 124.296 61.026C123.489 61.4367 122.55 61.642 121.48 61.642ZM118.554 52.226C118.554 52.7833 118.678 53.2893 118.928 53.744C119.192 54.1987 119.544 54.558 119.984 54.822C120.438 55.086 120.944 55.218 121.502 55.218C121.986 55.218 122.418 55.1373 122.8 54.976C123.196 54.8147 123.533 54.5873 123.812 54.294C124.105 54.0007 124.318 53.656 124.45 53.26V51.236C124.318 50.84 124.105 50.5027 123.812 50.224C123.533 49.9307 123.196 49.7033 122.8 49.542C122.418 49.3807 121.986 49.3 121.502 49.3C120.944 49.3 120.438 49.4247 119.984 49.674C119.544 49.9233 119.192 50.268 118.928 50.708C118.678 51.148 118.554 51.654 118.554 52.226ZM130.308 39.84H132.772V57H130.308V39.84ZM140.596 57.242C139.496 57.242 138.557 57.0293 137.78 56.604C137.003 56.1787 136.409 55.592 135.998 54.844C135.587 54.0813 135.382 53.2233 135.382 52.27C135.382 51.3313 135.617 50.488 136.086 49.74C136.555 48.992 137.186 48.398 137.978 47.958C138.785 47.5033 139.672 47.276 140.64 47.276C141.916 47.276 142.965 47.65 143.786 48.398C144.622 49.1313 145.179 50.1727 145.458 51.522L137.956 54.052L137.384 52.666L143.236 50.576L142.73 50.862C142.569 50.422 142.305 50.0407 141.938 49.718C141.586 49.3953 141.087 49.234 140.442 49.234C139.929 49.234 139.474 49.3587 139.078 49.608C138.682 49.8427 138.367 50.18 138.132 50.62C137.912 51.0453 137.802 51.5513 137.802 52.138C137.802 52.7393 137.927 53.2673 138.176 53.722C138.425 54.1767 138.763 54.5287 139.188 54.778C139.613 55.0127 140.097 55.13 140.64 55.13C141.021 55.13 141.388 55.064 141.74 54.932C142.092 54.8 142.422 54.624 142.73 54.404L143.852 56.23C143.368 56.538 142.833 56.7873 142.246 56.978C141.674 57.154 141.124 57.242 140.596 57.242ZM159.967 40.984C161.185 40.984 162.226 41.1893 163.091 41.6C163.957 42.0107 164.617 42.5973 165.071 43.36C165.541 44.1227 165.775 45.0467 165.775 46.132C165.775 46.7627 165.673 47.3933 165.467 48.024C165.277 48.6547 164.969 49.2267 164.543 49.74C164.133 50.2533 163.575 50.6713 162.871 50.994C162.182 51.302 161.331 51.456 160.319 51.456H158.009V57H155.435V40.984H159.967ZM160.319 48.97C160.877 48.97 161.346 48.8747 161.727 48.684C162.109 48.4933 162.402 48.2513 162.607 47.958C162.827 47.6647 162.981 47.364 163.069 47.056C163.172 46.7333 163.223 46.4473 163.223 46.198C163.223 45.934 163.179 45.648 163.091 45.34C163.003 45.0173 162.857 44.7167 162.651 44.438C162.446 44.1447 162.16 43.91 161.793 43.734C161.427 43.5433 160.957 43.448 160.385 43.448H158.009V48.97H160.319ZM168.379 39.84H170.843V57H168.379V39.84ZM178.138 57.242C177.258 57.242 176.459 57.0587 175.74 56.692C175.036 56.3253 174.479 55.7827 174.068 55.064C173.658 54.3307 173.452 53.4287 173.452 52.358C173.452 51.302 173.665 50.4 174.09 49.652C174.53 48.8893 175.102 48.3027 175.806 47.892C176.525 47.4813 177.302 47.276 178.138 47.276C179.033 47.276 179.752 47.452 180.294 47.804C180.852 48.156 181.284 48.574 181.592 49.058L181.46 49.41L181.702 47.694H183.968V57H181.504V54.734L181.746 55.328C181.688 55.416 181.57 55.5627 181.394 55.768C181.218 55.9587 180.976 56.1713 180.668 56.406C180.36 56.6407 179.994 56.8387 179.568 57C179.158 57.1613 178.681 57.242 178.138 57.242ZM178.82 55.218C179.26 55.218 179.656 55.1373 180.008 54.976C180.375 54.8147 180.683 54.5873 180.932 54.294C181.196 54.0007 181.387 53.6487 181.504 53.238V51.214C181.387 50.8327 181.196 50.5027 180.932 50.224C180.668 49.9307 180.346 49.7033 179.964 49.542C179.598 49.3807 179.187 49.3 178.732 49.3C178.234 49.3 177.772 49.4247 177.346 49.674C176.921 49.9233 176.576 50.268 176.312 50.708C176.063 51.148 175.938 51.654 175.938 52.226C175.938 52.7833 176.07 53.2893 176.334 53.744C176.598 54.1987 176.95 54.558 177.39 54.822C177.83 55.086 178.307 55.218 178.82 55.218ZM188.141 61.466L194.323 47.694H196.567L190.561 61.466H188.141ZM190.539 57.066L186.007 47.694H188.779L192.431 55.812L190.539 57.066Z" fill="white"/>
</svg>
