<svg fill="#ffffff"  version="1.1" id="Layer_1" xmlns="http://www.w3.org/2000/svg" xmlns:xlink="http://www.w3.org/1999/xlink" x="0px" y="0px"
	 width="24px" height="24px" viewBox="0 0 24 24" enable-background="new 0 0 24 24" xml:space="preserve">
<g>
	<g>
		<path d="M11.994,11.556c1.543,0,2.512-2.262,2.564-4.425c-0.139-0.06-0.398-0.716-0.439-0.877
			c-0.057-0.229-0.467-0.936-0.467-0.936s-0.162,1.164-0.273,1.048c-0.109-0.114-0.207-0.24-0.283-0.378
			c-0.168,0.163-0.373,0.342-0.615,0.519c-0.234,0.171-0.434,0.419-1.92,0.872l0.305-1.131c0,0-1.018,1.307-1.412,1.33
			C9.617,9.595,10.559,11.556,11.994,11.556z"/>
		<path d="M16.309,13.195l-1.482-0.542l-1.16,2.816l-0.982-1.008L12.436,15h-0.883l-0.25-0.539l-0.982,1.102l-1.158-2.861
			l-1.471,0.517c-0.188,0.09-2.021,1.014-2.629,3.263c0.451,0.559,0.969,1.055,1.541,1.49c-0.025-0.743-0.035-1.692,0.02-2.556
			l0.729,0.046c-0.068,1.062-0.033,2.262,0.002,3.019c1.168,0.714,2.512,1.187,3.951,1.298L11.578,15h0.83l0.275,4.777
			c1.445-0.111,2.795-0.573,3.965-1.289c0.033-0.772,0.064-1.997-0.01-3.045l0.729-0.054c0.061,0.856,0.053,1.818,0.029,2.574
			c0.572-0.434,1.088-0.937,1.539-1.494C18.332,14.225,16.5,13.287,16.309,13.195z M16,18.121c-1,0.348-1.935,0.409-2.446,0.409
			C13.38,18.53,14,18.522,13,18.519v-0.437c0,0.002,2,0.174,3-0.416V18.121z"/>
		<path  d="M12,0C5.373,0,0,5.373,0,12s5.373,12,12,12s12-5.373,12-12S18.627,0,12,0z M8.457,8c0,0-0.727-4.78,3.436-4.78
			c2.322,0,4.105,1.466,3.521,4.261c0.248,0.387,0.502,1.143-0.572,2.226c-0.531,1.506-1.518,2.607-2.848,2.607
			c-1.381,0-2.352-0.94-2.867-2.447C8.225,8.945,8.281,8,8.471,8C8.467,8,8.461,8,8.457,8z M19.127,18.068
			c-0.262,0.259-0.537,0.51-0.826,0.738C16.697,20.081,14.703,21,12.525,21c-0.004,0-0.008,0-0.012,0c-0.168,0-0.336,0-0.506,0
			c-0.006,0-0.01,0-0.016,0c-2.379-0.002-4.564-0.825-6.293-2.199c-0.289-0.229-0.566-0.474-0.828-0.732
			c-0.244-0.243-0.479-0.497-0.697-0.763c0.057-0.577,0.188-1.096,0.363-1.558c0.863-2.271,2.834-3.209,2.861-3.222l0.025-0.011
			l2.145-0.788l0.963,2.404L11.516,13h0.955l0.984,1.132l0.963-2.371l2.184,0.782c0.025,0.013,1.998,0.941,2.861,3.213
			c0.176,0.463,0.305,0.977,0.363,1.554C19.605,17.575,19.373,17.825,19.127,18.068z"/>
	</g>
</g>
</svg>
