<svg width="86" height="86" viewBox="0 0 86 86" fill="none" xmlns="http://www.w3.org/2000/svg">
<circle cx="43" cy="43" r="42.5" stroke="#40494F"/>
<path d="M69.017 23.5754C69.0074 23.544 68.995 23.5138 68.9841 23.4837C68.9608 23.4207 68.9375 23.3619 68.9266 23.3016C68.3379 20.1567 66.5402 18.1536 63.5828 17.3486C60.6679 16.5545 58.1281 17.3554 56.032 19.7281C55.3255 20.5291 54.8353 21.5067 54.4944 22.8032H53.9577C53.0705 22.8032 52.1833 22.806 51.2961 22.8087C49.2246 22.8156 47.0819 22.8238 44.9761 22.7896C43.2045 22.7649 41.7189 23.3742 40.436 24.6612C33.3042 31.8122 26.0381 39.0646 18.8391 46.2156C17.6699 47.3767 16.5965 48.5596 16.3103 50.2368V51.5923C16.6047 53.2695 17.6535 54.4168 18.8898 55.6367C22.8138 59.5128 26.7186 63.4094 30.4919 67.2224C31.5667 68.3068 32.7551 69.3912 34.4501 69.6896H35.796C37.3555 69.4336 38.4946 68.5409 39.7241 67.2799C41.2835 65.6821 42.8937 64.083 44.4517 62.5358C45.124 61.8691 45.7962 61.2023 46.4658 60.5328L46.5356 60.463C46.6342 60.3671 46.7369 60.2658 46.8231 60.1549C47.1709 59.7086 47.1462 59.0993 46.7642 58.7077C46.3562 58.2915 45.7456 58.2641 45.2787 58.642C45.1733 58.7269 45.0774 58.8255 44.9843 58.9186L44.9036 59.0021C44.1067 59.7962 43.3112 60.5903 42.5171 61.3858C40.8208 63.0794 39.1244 64.7744 37.4239 66.4639C36.0123 67.8673 34.2598 67.8659 32.8496 66.4598C28.1165 61.7404 23.7585 57.3906 19.5278 53.1627C18.8515 52.4863 18.4941 51.7032 18.4941 50.9008C18.4941 50.0972 18.8556 49.314 19.5333 48.6363C22.1758 45.9993 24.8168 43.3623 27.4593 40.7254C32.2746 35.921 37.2528 30.9524 42.1434 26.0604C42.88 25.3252 43.6973 24.9816 44.7146 24.9816H44.753C46.5684 24.998 48.4141 24.9952 50.1994 24.9939C51.2071 24.9925 52.2148 24.9911 53.2225 24.9925C53.3156 24.9925 53.4169 24.9884 53.5182 24.9829C53.8194 24.9679 54.1316 24.9514 54.3192 25.0815C54.4287 25.1568 54.4492 25.4046 54.4698 25.6442C54.4807 25.7811 54.4917 25.9235 54.5204 26.0467C54.8422 27.42 55.5021 28.6043 56.4811 29.5668C56.9164 29.9954 57.5134 30.0214 57.9638 29.6312C58.4198 29.2382 58.4718 28.6139 58.0912 28.1128C58.035 28.0402 57.9721 27.9745 57.9118 27.9088C57.868 27.8622 57.8228 27.8157 57.7817 27.7664C57.0561 26.9011 56.6645 25.9934 56.5837 24.9898C56.7001 24.9911 56.8138 24.9925 56.9247 24.9952C57.2067 25.0007 57.4723 25.0062 57.7379 24.9857C58.6416 24.9186 59.4809 25.2047 60.1052 25.7935C60.7747 26.426 61.1348 27.331 61.1184 28.3401C61.0444 32.72 61.0786 37.1984 61.1088 41.1512C61.1184 42.3067 60.7418 43.2186 59.9231 44.0223C57.9789 45.935 56.0197 47.8956 54.1248 49.7932C53.4292 50.4887 52.7351 51.1843 52.0396 51.8784L51.9738 51.9441C51.8616 52.055 51.7452 52.1687 51.6493 52.2974C51.3235 52.7314 51.3577 53.3078 51.7315 53.6966C52.0971 54.0773 52.6995 54.1375 53.1335 53.8363C53.2704 53.7405 53.3909 53.62 53.5059 53.505L53.5593 53.4502C54.3904 52.6219 55.2201 51.7922 56.0498 50.9625C57.8488 49.1634 59.7081 47.3027 61.5496 45.4845C62.7449 44.3043 63.3158 42.9228 63.2953 41.2621C63.272 39.4767 63.2775 37.6612 63.283 35.906C63.283 35.1475 63.2871 34.3876 63.2871 33.6277V31.5671L63.4158 31.5302C63.5335 31.4959 63.6431 31.4645 63.7526 31.4302C65.9049 30.758 67.4438 29.4203 68.3296 27.4529C68.5542 26.9531 68.6925 26.4068 68.8253 25.8797C68.8855 25.6401 68.9485 25.3923 69.0183 25.1541L69.0211 23.5973L69.017 23.5754ZM61.7591 24.3148C60.7186 23.2824 59.4192 22.7882 57.7201 22.7882C57.4422 22.7882 57.1533 22.8019 56.8521 22.8279C57.0095 21.1425 59.3426 19.3256 61.4634 19.2626C64.2154 19.1805 66.4594 21.1301 66.8003 23.8972C67.0878 26.2275 65.412 28.744 63.2693 29.2355C63.4404 27.038 62.9735 25.5183 61.7591 24.3148Z" fill="#3FC48B"/>
<path d="M42.8346 48.4131C42.5977 48.372 42.354 48.3597 42.1185 48.3474C42.0309 48.3419 41.9447 48.3378 41.8584 48.331C41.2847 48.2926 40.7124 48.2543 40.1346 48.2146L39.4925 48.1721C39.8677 46.9837 39.9348 46.4826 39.8088 45.8788C39.5651 44.7027 38.7545 43.7813 37.6414 43.4116C36.4845 43.0283 35.2249 43.3048 34.2733 44.151C33.8735 44.5056 33.4929 44.8944 33.1246 45.2695C32.9836 45.4133 32.8426 45.5571 32.7002 45.6995C32.3374 46.0623 32.1703 46.3744 32.1731 46.6811C32.1744 46.9878 32.3469 47.3014 32.7152 47.6697C34.1131 49.0662 35.5124 50.4627 36.9117 51.8592L38.3726 53.3174L38.4301 53.3749C38.4835 53.4297 38.5369 53.4844 38.5957 53.5351C38.8367 53.7459 39.116 53.8514 39.3885 53.8514C39.6609 53.8514 39.9142 53.75 40.1223 53.5488C40.5769 53.1106 40.5783 52.4699 40.1278 51.9879C39.8266 51.6676 39.5089 51.354 39.2023 51.0501C39.0284 50.8789 38.8545 50.7064 38.682 50.5325C38.6286 50.4791 38.5807 50.4162 38.5204 50.3368C38.5136 50.3285 38.5067 50.319 38.4985 50.3094L39.4583 50.3669C39.7705 50.3847 40.084 50.4052 40.3962 50.4257C41.1122 50.4723 41.8516 50.5202 42.5813 50.5531C43.2111 50.5805 43.6944 50.1793 43.7533 49.5755C43.8081 49.0032 43.422 48.5144 42.8346 48.4131ZM37.3745 47.3301C37.1759 47.5697 36.9432 47.7888 36.7186 48.0024C36.6324 48.0845 36.5461 48.1653 36.4626 48.2474L34.8867 46.651C34.9689 46.5661 35.0496 46.4799 35.1304 46.3936C35.344 46.165 35.5466 45.9473 35.7753 45.7542C36.2586 45.3449 36.9569 45.3394 37.3676 45.7433C37.7825 46.1513 37.7866 46.8331 37.3745 47.3301Z" fill="#3FC48B"/>
<path d="M55.5922 37.5955C55.5977 37.9214 55.4443 38.2595 55.1609 38.5443C54.2997 39.4151 53.5398 40.1736 52.8375 40.8637C52.5253 41.1703 52.2309 41.3237 51.9379 41.3237C51.6449 41.3237 51.3547 41.1717 51.048 40.8678C49.1681 38.9989 47.2021 37.0369 45.2031 35.0338C44.5801 34.4081 44.5829 33.8468 45.2127 33.2101C45.9411 32.4763 46.7105 31.7082 47.5005 30.9278C48.0455 30.3883 48.7204 30.3336 49.1805 30.7922C49.6542 31.2646 49.6049 31.9067 49.0518 32.4681C48.6684 32.8569 48.2878 33.232 47.8866 33.6291C47.7292 33.7852 47.5717 33.9413 47.4129 34.0987L48.9409 35.6089C49.0778 35.4692 49.2147 35.3268 49.353 35.1844C49.7076 34.8175 50.0745 34.4369 50.4524 34.0741C50.9439 33.6017 51.5573 33.5743 52.016 34.0056C52.2419 34.2178 52.3637 34.4766 52.3706 34.7545C52.3788 35.053 52.2515 35.3474 52.0023 35.6048C51.6381 35.9854 51.2561 36.3496 50.8851 36.7028C50.744 36.8397 50.603 36.9739 50.4647 37.1081L51.9886 38.647C52.1406 38.4937 52.2912 38.3389 52.4431 38.1842C52.8292 37.7927 53.2263 37.3874 53.6261 36.9944C54.171 36.455 54.783 36.4071 55.2636 36.8657C55.4758 37.067 55.5894 37.3189 55.5922 37.5955Z" fill="#3FC48B"/>
<path d="M49.1738 44.522C48.4071 45.2942 47.6541 46.05 46.886 46.8057C46.5724 47.1152 46.2767 47.2699 45.9823 47.2699C45.688 47.2699 45.4018 47.1179 45.0965 46.8153C43.014 44.7465 41.0904 42.8256 39.2174 40.9444C38.6341 40.3612 38.6355 39.7889 39.2188 39.1974C39.9554 38.4485 40.7276 37.6776 41.5778 36.8397C42.094 36.3318 42.7703 36.288 43.2221 36.7329C43.6904 37.1957 43.6562 37.8378 43.1345 38.3718C42.7402 38.7757 42.3377 39.1714 41.9488 39.5547C41.7996 39.7012 41.6531 39.8464 41.5093 39.9888L43.0373 41.5058C43.1564 41.3826 43.2783 41.2552 43.4042 41.1252C43.7534 40.7637 44.1135 40.3886 44.4941 40.0216C44.9856 39.5479 45.599 39.5178 46.0576 39.945C46.2836 40.1572 46.4081 40.4173 46.415 40.6952C46.4232 40.9951 46.2986 41.2895 46.0522 41.5455C45.688 41.9261 45.306 42.2944 44.9349 42.6504C44.7926 42.7887 44.6502 42.9256 44.5105 43.0625L46.0344 44.5905C46.1809 44.4426 46.3287 44.2934 46.4752 44.1428C46.8518 43.7608 47.2406 43.3651 47.6294 42.9776C47.943 42.6668 48.2784 42.5025 48.6015 42.5025H48.6138C48.8808 42.5053 49.1327 42.6244 49.3436 42.8448C49.7886 43.3117 49.7228 43.9702 49.1738 44.522Z" fill="#3FC48B"/>
<path d="M34.202 59.4594C33.9912 59.6621 33.7269 59.7647 33.4572 59.7647C33.2162 59.7647 32.9698 59.6812 32.7562 59.5156C32.6535 59.4361 32.5632 59.3444 32.4742 59.2541L32.4139 59.1938C30.5532 57.3372 28.6912 55.4793 26.8305 53.6214C26.4116 53.2024 26.235 52.893 26.2377 52.5849C26.2404 52.2783 26.4225 51.9675 26.847 51.5417L27.307 51.0816C27.8423 50.5463 28.3763 50.011 28.9144 49.4811C29.4593 48.943 30.1343 48.8937 30.593 49.3565C31.068 49.8371 31.0174 50.4614 30.456 51.0296C30.0987 51.3924 29.7277 51.7566 29.3689 52.1085C29.2238 52.2509 29.0787 52.3933 28.9335 52.537L30.3862 53.976L31.2625 53.1052C31.3172 53.0505 31.3734 52.9943 31.4281 52.9382C31.5514 52.8136 31.6787 52.6835 31.8115 52.563C32.3016 52.1208 32.9451 52.1057 33.3764 52.5274C33.8228 52.9628 33.8173 53.62 33.3641 54.0883C33.0287 54.4347 32.6741 54.7605 32.2989 55.1055C32.1483 55.2452 31.995 55.3862 31.8375 55.5341L32.3742 56.0653C32.8329 56.5212 33.2669 56.9525 33.6995 57.3838C33.7447 57.429 33.7913 57.4728 33.8378 57.518C33.9857 57.6631 34.1404 57.8137 34.2732 57.978C34.647 58.4367 34.6169 59.061 34.202 59.4594Z" fill="#3FC48B"/>
<path d="M50.3347 56.2117C50.3334 56.513 50.2142 56.7813 50.0198 56.9744C49.8268 57.1688 49.557 57.2879 49.2572 57.2893H49.2504C48.9574 57.2893 48.6712 57.1674 48.4631 56.9538C48.2536 56.7389 48.1441 56.4623 48.155 56.172C48.1742 55.5956 48.6904 55.1027 49.2695 55.1123C49.8596 55.1246 50.3375 55.6175 50.3347 56.2117Z" fill="#3FC48B"/>
</svg>
