<svg width="86" height="86" viewBox="0 0 86 86" fill="none" xmlns="http://www.w3.org/2000/svg">
<circle cx="43" cy="43" r="42.5" stroke="#40494F"/>
<path d="M14 48.1453C14.1308 47.6419 14.2278 47.1272 14.398 46.6364C15.4287 43.644 18.1244 41.6965 21.2925 41.636C21.5724 41.6304 21.8536 41.636 22.1152 41.636C21.8199 40.8893 21.3924 40.1792 21.2658 39.4184C20.9396 37.4512 20.8454 35.4909 21.9042 33.6404C23.7562 30.4033 28.5387 29.9013 30.9911 32.7081C32.0218 33.8879 32.5548 35.2364 32.5238 36.8043C32.5182 37.0813 32.5238 37.3584 32.5238 37.7549C32.7418 37.5566 32.8894 37.4315 33.0258 37.2965C35.5809 34.7442 38.1388 32.1948 40.6868 29.6355C41.2324 29.0871 41.8202 28.7187 42.6315 28.9381C42.7019 28.9563 42.7848 28.9577 42.8537 28.9381C43.6918 28.7117 44.2824 29.1096 44.8407 29.6707C47.3606 32.2046 49.8931 34.726 52.4187 37.2557C52.5621 37.3991 52.6774 37.5721 52.9052 37.8547C52.9657 36.9899 52.9685 36.3065 53.0683 35.6386C53.4157 33.3282 55.3548 31.3553 57.6216 30.9616C60.1021 30.5313 62.4814 31.6478 63.6514 33.7894C64.8185 35.924 64.7243 39.2272 63.4376 41.3098C63.3912 41.3857 63.3504 41.4659 63.3082 41.5446C64.1927 41.6515 65.0702 41.6768 65.9083 41.8722C69.0694 42.6091 71.4318 45.4693 71.467 48.7162C71.5218 53.711 71.4895 58.7086 71.4853 63.7034C71.4853 64.5443 71.0367 64.9817 70.1874 64.9817C64.3123 64.9873 58.4372 64.9887 52.5635 64.9817C51.6846 64.9817 51.2811 64.5218 51.2811 63.5741C51.2782 59.3259 51.2867 55.0792 51.267 50.8311C51.2656 50.5035 51.1531 50.128 50.9717 49.8552C48.5544 46.2075 46.1105 42.5796 43.6918 38.9333C43.3431 38.4074 43.09 37.8182 42.7694 37.2163C42.6962 37.3091 42.6245 37.3809 42.5739 37.4652C41.9383 38.5424 41.3519 39.6519 40.6643 40.6924C38.704 43.6553 36.7101 46.5971 34.7119 49.5346C34.387 50.0127 34.1817 50.4725 34.1958 51.0772C34.2183 51.9448 33.4772 52.5101 32.7558 52.2064C32.4774 52.0897 32.1329 51.8028 32.0795 51.5398C31.9079 50.6863 31.8038 49.8257 32.3593 49.0101C34.6964 45.579 36.9955 42.1225 39.3256 38.6872C40.5771 36.8395 41.366 34.83 41.5671 32.6012C41.5839 32.4198 41.591 32.2384 41.6107 31.9361C41.3871 32.1414 41.238 32.2693 41.1002 32.4071C37.5003 36.0056 33.8963 39.5984 30.3091 43.2095C29.8394 43.682 29.3402 43.8972 28.6708 43.8901C26.2944 43.8634 23.9179 43.869 21.5414 43.8831C19.0131 43.8972 17.1218 45.3174 16.4426 47.7192C16.3174 48.1636 16.2584 48.6403 16.2569 49.1015C16.2429 53.5366 16.2485 57.9704 16.2499 62.4055C16.2499 62.4955 16.2612 62.5869 16.2682 62.7092H19.3928V62.1411C19.3928 58.2488 19.3928 54.3564 19.3928 50.4655C19.3928 50.2785 19.3843 50.09 19.404 49.9044C19.4743 49.2801 19.9313 48.8413 20.5065 48.8357C21.0774 48.8301 21.5485 49.2674 21.6244 49.8876C21.6469 50.0718 21.637 50.2616 21.637 50.4486C21.637 54.3213 21.637 58.1954 21.637 62.068V62.7092H31.9641C31.9641 61.9851 31.9641 61.2777 31.9641 60.5718C31.9641 60.3848 31.9557 60.1964 31.974 60.0108C32.0401 59.3864 32.4957 58.9449 33.0694 58.935C33.6375 58.9252 34.1691 59.3625 34.1859 59.9784C34.2225 61.3059 34.2211 62.6347 34.1831 63.9622C34.1663 64.5345 33.7331 64.9029 33.1566 64.9746C32.9907 64.9957 32.8205 64.9887 32.6518 64.9887C26.9637 64.9887 21.2771 64.9817 15.589 64.9999C14.8915 65.0028 14.3487 64.8312 14 64.204C14 58.8478 14 53.4973 14 48.1453ZM43.8788 31.929C44.0054 34.4925 44.7985 36.6707 46.1499 38.6675C48.4785 42.1043 50.8001 45.5452 53.0922 49.0059C53.3425 49.3841 53.5 49.8988 53.5028 50.353C53.5338 54.2819 53.5211 58.2108 53.5211 62.1397V62.7092H63.851V62.0708C63.851 59.6761 63.851 57.2813 63.851 54.8866C63.851 54.6996 63.8426 54.5097 63.8707 54.3269C63.9565 53.7405 64.4234 53.3229 64.9718 53.3215C65.5202 53.3215 65.9885 53.7391 66.0756 54.3241C66.1024 54.5083 66.0953 54.6967 66.0953 54.8838C66.0953 57.2968 66.0953 59.7112 66.0953 62.1243V62.7149H69.2199C69.2269 62.5813 69.2382 62.4744 69.2382 62.3661C69.2382 57.9507 69.2438 53.5352 69.2311 49.1198C69.2311 48.6571 69.1749 48.1804 69.0512 47.7361C68.3818 45.3357 66.4834 43.9 63.9649 43.8831C61.5702 43.8676 59.1754 43.8648 56.7807 43.8901C56.1296 43.8972 55.6487 43.6806 55.1945 43.2236C51.6073 39.6139 48.0032 36.0197 44.4048 32.4226C44.2641 32.282 44.1151 32.1512 43.8788 31.9304V31.929ZM30.3006 37.3527C30.2739 36.9238 30.2795 36.4921 30.2162 36.0689C29.9828 34.5094 28.8072 33.3605 27.2492 33.1398C25.7642 32.9288 24.2512 33.7346 23.6549 35.1591C23.1164 36.4443 23.1571 37.8196 23.5017 39.1245C24.1513 41.5798 27.1606 42.4277 29.0786 40.7599C30.1234 39.8529 30.3555 38.6563 30.3006 37.3527ZM55.1875 37.378C55.2142 37.8069 55.2086 38.2386 55.2718 38.6619C55.5039 40.2214 56.6794 41.3702 58.2361 41.5938C59.721 41.8061 61.2327 41.0018 61.8317 39.5773C62.3717 38.2935 62.3309 36.9168 61.9864 35.6119C61.3382 33.1566 58.3289 32.3059 56.4109 33.9722C55.3661 34.8792 55.1326 36.0745 55.1875 37.3794V37.378Z" fill="#3FC48B"/>
<path d="M41.6205 16.4525C41.6205 15.4231 41.6163 14.3952 41.6219 13.3659C41.6261 12.5376 42.048 12.0201 42.7159 12.0005C43.3993 11.9822 43.8619 12.5221 43.8634 13.3701C43.869 15.4456 43.8634 17.5226 43.8648 19.5981C43.8648 20.1212 43.7185 20.6289 43.194 20.7723C42.8467 20.8679 42.339 20.8173 42.0648 20.6134C41.8061 20.4222 41.657 19.9497 41.6388 19.5925C41.5839 18.5477 41.6191 17.4987 41.6191 16.4511L41.6205 16.4525Z" fill="#3FC48B"/>
<path d="M49.657 23.7942C49.335 23.5341 48.9258 23.3527 48.788 23.0503C48.6516 22.748 48.7135 22.2952 48.8302 21.9591C48.9258 21.6835 49.2253 21.4726 49.4475 21.2476C50.197 20.4897 50.9437 19.7275 51.7101 18.9864C52.2416 18.4732 52.9138 18.4563 53.3638 18.9021C53.8138 19.3464 53.8081 20.0312 53.3005 20.5558C52.416 21.4698 51.5174 22.3712 50.5978 23.25C50.3686 23.4694 50.0367 23.5791 49.6556 23.7942H49.657Z" fill="#3FC48B"/>
<path d="M32.8274 18.4478C33.2211 18.67 33.5502 18.7811 33.778 18.9976C34.6302 19.8076 35.457 20.6429 36.2754 21.4852C36.7957 22.0196 36.8252 22.6734 36.3907 23.1333C35.9421 23.6086 35.2475 23.6001 34.7005 23.0686C33.8427 22.2389 33.0018 21.3896 32.1665 20.5374C31.7953 20.1592 31.6378 19.6698 31.9232 19.2142C32.1173 18.9048 32.4998 18.715 32.8274 18.4464V18.4478Z" fill="#3FC48B"/>
<path d="M34.2002 55.8977C34.196 56.4798 33.6616 57.0086 33.0809 57.0057C32.4987 57.0015 31.97 56.4672 31.9728 55.8864C31.977 55.3042 32.5114 54.7755 33.0921 54.7783C33.6743 54.7826 34.203 55.3169 34.2002 55.8977Z" fill="#3FC48B"/>
<path d="M66.0869 49.9691C66.0728 50.5569 65.5357 51.073 64.9507 51.0589C64.3615 51.0449 63.844 50.5091 63.8595 49.9255C63.8749 49.3363 64.4121 48.8189 64.9943 48.8329C65.5849 48.847 66.0995 49.3842 66.0855 49.9691H66.0869Z" fill="#3FC48B"/>
</svg>
