<svg width="86" height="86" viewBox="0 0 86 86" fill="none" xmlns="http://www.w3.org/2000/svg">
<circle cx="43" cy="43" r="42.5" stroke="#40494F"/>
<path d="M66.9962 30.1689C66.9934 29.0227 66.9906 27.8371 66.9948 26.672C66.9976 25.7906 66.4417 25.439 66.0248 25.2514C62.6451 23.73 59.6948 22.393 57.0071 21.1648C56.5332 20.9472 56.1163 20.9456 55.6536 21.1569C53.4982 22.1454 51.3011 23.1403 49.1777 24.1005C48.3313 24.4836 47.485 24.8667 46.6387 25.2498C45.8369 25.614 45.6409 25.9451 45.6409 26.9368C45.6409 27.9285 45.6381 28.8856 45.6367 29.8599C45.6326 32.3841 45.627 34.9934 45.6451 37.5618C45.6757 41.8297 47.1807 45.1911 50.1157 47.556C51.2191 48.4453 52.4073 49.2336 53.5552 49.9967C54.1902 50.4192 54.8462 50.8559 55.4799 51.3021C56.0621 51.7136 56.5749 51.7184 57.1433 51.3179C58.0202 50.6967 58.9249 50.0865 59.8004 49.4969C60.0853 49.303 60.3716 49.1106 60.6564 48.9167C60.7245 48.871 60.7968 48.8284 60.876 48.7811V60.0146C60.876 61.421 60.3938 61.9696 59.1597 61.9696H23.003C21.8037 61.9696 21.3354 61.4446 21.3354 60.0966C21.334 54.5547 21.334 49.0129 21.334 43.4694V36.5417H42.5753C43.184 36.5417 43.605 36.3951 43.8649 36.0971C44.0581 35.8748 44.154 35.5736 44.1484 35.2031C44.1331 33.9229 42.9741 33.9229 42.5947 33.9229H21.3354V33.4799C21.334 32.9816 21.334 32.5071 21.3354 32.0309C21.3354 30.5741 21.7926 30.0586 23.078 30.0586H42.535C42.5822 30.0586 42.6309 30.0586 42.6781 30.0601C42.8254 30.0617 42.9769 30.0649 43.1298 30.0444C43.4424 30.0034 43.719 29.83 43.9094 29.554C44.0998 29.2766 44.1831 28.9265 44.1414 28.5702C44.0595 27.8544 43.5675 27.4429 42.7921 27.4429C36.1146 27.4429 29.4386 27.4429 22.7626 27.4445C22.5305 27.4445 22.2581 27.454 21.9982 27.5123C20.1514 27.9301 19.0035 29.6281 19.0021 31.9411C18.9993 42.4225 18.9993 51.6301 19.0021 60.0903C19.0035 62.8793 20.5432 64.6105 23.0224 64.6121C28.9981 64.6121 34.9723 64.6136 40.948 64.6136C46.9236 64.6136 53.1021 64.6121 59.1792 64.6121C61.6501 64.6121 63.1857 62.8762 63.187 60.0824V58.7785C63.1884 55.0466 63.1898 51.1886 63.1801 47.3936C63.1801 47.0972 63.2496 46.9191 63.4469 46.7141C65.6607 44.4122 66.8308 41.6815 66.9253 38.5976C67.0101 35.7881 67.0031 32.9312 66.9962 30.1689ZM64.6671 32.731C64.6685 34.3234 64.6698 35.9694 64.6601 37.5886C64.6393 41.2101 63.2371 44.0244 60.4911 45.9558C59.3362 46.7661 58.0772 47.6207 56.5249 48.6408C56.4276 48.7054 56.222 48.707 56.1497 48.6597C55.9037 48.4973 55.6577 48.3349 55.4132 48.1725C54.2125 47.381 52.9729 46.5628 51.7972 45.6862C49.3694 43.873 48.0881 41.281 47.9881 37.9811C47.9547 36.8775 47.9645 35.7518 47.9728 34.6623C47.9756 34.1578 47.9797 33.6549 47.9797 33.1519V32.9154H47.9742C47.9742 32.5213 47.9742 32.1287 47.9756 31.7361C47.9784 30.4575 47.9811 29.1378 47.9645 27.8371C47.9603 27.5407 48.0173 27.4461 48.2702 27.3326C49.4459 26.806 50.6201 26.2746 51.7958 25.7433C53.1855 25.1142 54.6224 24.4631 56.0385 23.8324C56.2025 23.7599 56.4485 23.7583 56.6111 23.8309C57.9924 24.4458 59.3946 25.0827 60.7509 25.696C61.9433 26.2368 63.137 26.7776 64.3321 27.3136C64.6115 27.4382 64.6754 27.5391 64.674 27.8529C64.6643 29.4784 64.6657 31.1323 64.6671 32.731Z" fill="#3FC48B"/>
<path d="M34.6461 56.7982C34.6489 57.1498 34.5433 57.4588 34.339 57.6938C34.0903 57.9791 33.7178 58.1305 33.2648 58.1305C32.2656 58.1336 31.2664 58.1336 30.2672 58.1336H26.0357C25.3895 58.1336 24.9684 57.8246 24.7849 57.2145C24.6085 56.628 24.771 56.0809 25.2199 55.7514C25.477 55.5622 25.823 55.518 26.0662 55.5133C26.9626 55.4991 27.8728 55.5022 28.7525 55.5038C29.0721 55.5038 29.3904 55.5038 29.7086 55.5054H30.7342C31.5722 55.5038 32.4087 55.5038 33.2453 55.5054C34.1042 55.507 34.6406 56.002 34.6461 56.7967V56.7982Z" fill="#3FC48B"/>
<path d="M60.8397 33.5744C59.2291 35.4112 57.5948 37.2653 55.9841 39.0832C55.6729 39.4348 55.3643 39.6114 55.0544 39.6114C54.7445 39.6114 54.4333 39.4332 54.1164 39.0785C53.3076 38.1751 52.528 37.289 51.797 36.4486C51.2453 35.8133 51.2022 35.0691 51.6845 34.5031C51.9124 34.2366 52.1848 34.0932 52.4724 34.09H52.4835C52.8101 34.09 53.1422 34.2697 53.4438 34.6087C53.844 35.0612 54.2304 35.5153 54.6389 35.9962C54.7696 36.1491 54.9016 36.3036 55.035 36.4597L55.6326 35.7754C56.2065 35.1211 56.7624 34.4873 57.3169 33.8551L57.7699 33.3379C58.234 32.8082 58.7149 32.258 59.1943 31.7251C59.4959 31.3892 59.8377 31.2126 60.1768 31.2205C60.47 31.2268 60.7396 31.3656 60.9578 31.6241C61.4387 32.1965 61.3928 32.9438 60.8397 33.5744Z" fill="#3FC48B"/>
</svg>
