<svg width="86" height="86" viewBox="0 0 86 86" fill="none" xmlns="http://www.w3.org/2000/svg">
<circle cx="43" cy="43" r="42.5" stroke="#40494F"/>
<path d="M43.3676 18.0118V20.2756L43.0522 20.2821C36.7102 20.4108 31.3058 22.6566 26.992 26.9549C22.6705 31.2622 20.4106 36.6667 20.2754 43.0163L20.2689 43.3318H18L18.0026 41.52C18.0425 41.2316 18.0773 40.9419 18.112 40.6534C18.1867 40.0276 18.264 39.3799 18.3889 38.7476C20.1414 29.7994 25.3141 23.4279 33.7614 19.8095C35.9801 18.8604 38.468 18.2848 41.1554 18.0968C41.221 18.0917 41.3009 18.0724 41.3833 18.0518C41.4335 18.0402 41.4837 18.0286 41.534 18.0183L41.5971 18.0118H43.3676Z" fill="#3FC48B"/>
<path d="M68.0916 42.6877L68.089 44.4982C68.0491 44.7931 68.013 45.088 67.9783 45.3829C67.9023 46.019 67.8237 46.677 67.6975 47.3196C65.9501 56.1609 60.8521 62.4861 52.5439 66.1213C49.8552 67.2982 46.9321 67.9112 43.606 67.9974C43.5455 67.9987 43.485 68 43.4206 68C43.3704 68 43.3176 68 43.2609 67.9987H42.7239V65.7427L43.0394 65.7362C49.38 65.6075 54.7832 63.363 59.0983 59.0647C63.4211 54.7573 65.681 49.3529 65.8162 43.0019L65.8227 42.6877H68.0916Z" fill="#3FC48B"/>
<path d="M53.2211 41.8662C52.7473 39.3269 51.748 37.2833 50.2479 35.7896C48.7477 34.2971 46.7041 33.3082 44.1686 32.8485V27.9127H41.8868V32.8536C39.3488 33.3275 37.3065 34.3242 35.8115 35.8205C34.3165 37.3181 33.3262 39.3578 32.8652 41.8881H27.9205V44.166H32.873C33.3455 46.6989 34.3448 48.7387 35.845 50.2311C37.3438 51.7222 39.3874 52.7099 41.9229 53.1696V58.1054H44.2047V53.1271C46.5959 52.8116 48.6369 51.8214 50.2723 50.1822C51.8922 48.5597 52.8735 46.5251 53.1928 44.1313H58.1711V41.8662H53.2211ZM43.0406 50.902H43.038C38.6869 50.8994 35.1419 47.3621 35.138 43.0148C35.1329 38.6766 38.6727 35.1328 43.0277 35.1174H43.0586C45.1718 35.1174 47.1561 35.9389 48.6511 37.4352C50.1461 38.9315 50.9638 40.9159 50.9535 43.0238C50.9342 47.3685 47.384 50.902 43.0406 50.902Z" fill="#3FC48B"/>
<path d="M47.3492 27.5959L45.7434 29.1785L43.1165 26.5413L40.4008 29.3021L38.8182 27.5058L39.4504 26.8774C39.8161 26.5168 40.2128 26.1241 40.6094 25.73C40.7819 25.5588 40.9532 25.3849 41.1244 25.2124C41.4695 24.866 41.825 24.5067 42.1868 24.1616C42.7379 23.6375 43.3522 23.6285 43.8737 24.1372C44.6592 24.9021 45.446 25.6901 46.207 26.4524C46.5109 26.7576 46.8148 27.0615 47.12 27.3667L47.3492 27.5959Z" fill="#3FC48B"/>
<path d="M29.3343 45.6262L27.4543 47.2603L27.2431 47.0169C27.2173 46.9873 27.1852 46.9487 27.1478 46.9036C27.0551 46.7916 26.9276 46.6384 26.7937 46.5019C26.4112 46.1168 26.0275 45.7344 25.6425 45.3532C25.1699 44.8819 24.6793 44.3939 24.2028 43.9097C23.6427 43.3419 23.6182 42.7135 24.1333 42.1855C24.8969 41.4052 25.685 40.6222 26.446 39.8651C26.7576 39.5573 27.068 39.2483 27.3783 38.9379L27.6037 38.7139L29.2184 40.2836L26.5271 42.9272L29.3343 45.6262Z" fill="#3FC48B"/>
<path d="M61.9585 43.8325C61.1936 44.6141 60.4029 45.397 59.6393 46.1555C59.329 46.4633 59.0174 46.7723 58.7057 47.0826L58.4765 47.3106L56.8965 45.7125L59.5402 43.114L56.7703 40.3596L58.6581 38.7603L58.8667 38.9895C58.9491 39.0796 59.0393 39.18 59.1358 39.2869C59.3702 39.5483 59.6367 39.8445 59.9162 40.1304C60.2445 40.4677 60.5845 40.8051 60.9141 41.1322C61.2361 41.4503 61.5683 41.7799 61.8902 42.1096C62.4478 42.6787 62.4722 43.3071 61.9585 43.8325Z" fill="#3FC48B"/>
<path d="M47.2875 58.4916L47.0609 58.7183C46.7763 59.0015 46.4866 59.29 46.1942 59.5836C45.4319 60.3446 44.6439 61.1327 43.8429 61.9092C43.6034 62.141 43.333 62.2569 43.0574 62.2569C42.7612 62.2569 42.4612 62.1229 42.1895 61.8577C41.4195 61.1018 40.6391 60.3202 39.8858 59.5656C39.5768 59.2565 39.2664 58.9449 38.9535 58.6333L38.723 58.4028L40.3365 56.8266L42.9068 59.4819L45.598 56.7803L47.2875 58.4916Z" fill="#3FC48B"/>
<path d="M48.4335 18.537L47.979 20.7801L44.2627 20.2805L44.4159 18L48.4335 18.537Z" fill="#3FC48B"/>
<path d="M32.9013 63.3991L31.8519 65.4362L28.3699 63.3321L29.6924 61.4624L32.9013 63.3991Z" fill="#3FC48B"/>
<path d="M64.6406 30.2331L62.6872 31.428L60.5135 28.3762L62.288 26.9288L64.6406 30.2331Z" fill="#3FC48B"/>
<path d="M67.2892 36.5093L65.0924 37.1429L63.8215 33.6146L65.923 32.6978L67.2892 36.5093Z" fill="#3FC48B"/>
<path d="M38.7877 65.3757L38.3293 67.6072L34.4172 66.5436L35.168 64.3777L38.7877 65.3757Z" fill="#3FC48B"/>
<path d="M54.8564 20.8999L53.7992 22.9306L50.361 21.4459L51.1221 19.2839L54.8564 20.8999Z" fill="#3FC48B"/>
<path d="M21.1797 49.5473L18.9906 50.1603L18.1446 46.198L18.4884 46.1517C18.6223 46.1336 18.7524 46.1143 18.8799 46.0963C19.2572 46.0435 19.6151 45.992 19.9744 45.9611C20.2551 45.9379 20.5062 46.2289 20.55 46.4337C20.7045 47.1522 20.8462 47.8643 20.9956 48.6163L21.1797 49.5473Z" fill="#3FC48B"/>
<path d="M60.3836 24.8969L58.828 26.5722L55.9088 24.2144L57.2339 22.3447L60.3836 24.8969Z" fill="#3FC48B"/>
<path d="M23.7686 55.1745L21.8165 56.3682L19.9338 52.7936L22.0225 51.8536L23.7686 55.1745Z" fill="#3FC48B"/>
<path d="M27.7711 59.9055L26.213 61.586L23.4238 58.6359L25.1944 57.1846L27.7711 59.9055Z" fill="#3FC48B"/>
<path d="M45.5764 40.4472C44.8874 39.7698 43.9822 39.4003 43.0203 39.4067C41.0308 39.4222 39.4237 41.0485 39.4379 43.0341C39.4521 45.012 41.0681 46.6114 43.046 46.6114H43.0705C44.0311 46.6049 44.9338 46.2238 45.6124 45.5374C46.291 44.8511 46.6606 43.9445 46.6542 42.9852C46.6477 42.0272 46.2653 41.1258 45.5764 40.4472ZM44.3646 43.029C44.3595 43.387 44.2101 43.7102 43.9719 43.9458C43.7324 44.1802 43.4053 44.3257 43.046 44.3257C42.6906 44.3257 42.3571 44.1853 42.1073 43.933C41.8575 43.6793 41.7223 43.3445 41.7274 42.9891C41.7364 42.2744 42.3275 41.6936 43.046 41.6936C43.4014 41.6936 43.7349 41.8327 43.9848 42.0851C44.2346 42.3388 44.3698 42.6736 44.3646 43.029Z" fill="#3FC48B"/>
</svg>
