<svg width="86" height="86" viewBox="0 0 86 86" fill="none" xmlns="http://www.w3.org/2000/svg">
<circle cx="43" cy="43" r="42.5" stroke="#40494F"/>
<path d="M70.8165 67.2561L69.7301 64.3903C67.546 58.6317 65.288 52.6786 63.0485 46.8291C62.9036 46.45 62.5713 46.0623 62.2035 45.8421C61.2606 45.2784 60.2864 44.7359 59.3434 44.2104C58.9557 43.9946 58.568 43.7773 58.1817 43.56C57.2232 43.0189 56.2674 42.4779 55.2989 41.9297L54.248 41.3347C54.3034 41.241 54.3574 41.1515 54.4113 41.0634C54.6627 40.6644 54.9155 40.2668 55.1697 39.8691C55.6965 39.0398 56.2433 38.1835 56.7545 37.3229C58.6518 34.1333 59.3178 30.6668 58.7328 27.0199C58.0894 23.0109 55.9479 19.472 52.7015 17.0549C49.4594 14.6393 45.466 13.6041 41.4584 14.1366C36.2949 14.8225 31.8613 18.0547 29.599 22.7823C27.3368 27.5084 27.6024 32.9901 30.3063 37.4422C30.8118 38.2729 31.3415 39.1079 31.8542 39.9132C32.1112 40.3193 32.3697 40.7255 32.6253 41.1316C32.6665 41.1984 32.7077 41.2665 32.7474 41.3361C32.6566 41.3901 32.5742 41.4398 32.4904 41.4866C31.8627 41.8403 31.235 42.1939 30.6073 42.5475C28.7072 43.6154 26.7418 44.7217 24.8218 45.8308C24.4383 46.0523 24.0904 46.4542 23.937 46.8518C22.5922 50.3524 21.2388 53.9184 19.9309 57.3664C19.2989 59.0336 18.6656 60.7023 18.0308 62.3695C17.5792 63.5567 17.1091 64.7609 16.6533 65.9254C16.4417 66.4665 16.2301 67.0076 16.0199 67.5501L16 67.5998V69H17.4215L19.6795 67.7191C21.3908 66.7477 23.102 65.7763 24.8161 64.8064C25.5148 64.4116 26.2135 64.0168 26.9136 63.622C27.9702 63.0284 29.0267 62.4334 30.0805 61.8327C30.2551 61.7333 30.3247 61.729 30.4724 61.8128C33.3936 63.4686 36.3673 65.1444 39.2445 66.7647C40.4473 67.4421 41.6487 68.1209 42.8516 68.7983C42.8658 68.8069 42.897 68.8381 42.9197 68.8608C42.9425 68.8835 42.9652 68.9063 42.9879 68.9276L43.0689 69H43.8925L43.9579 68.9617C44.3441 68.7387 44.7276 68.5143 45.1124 68.2899C45.9446 67.8043 46.8052 67.303 47.6558 66.8215C49.1782 65.9595 50.702 65.1004 52.2272 64.2412C53.6289 63.4516 55.0319 62.6606 56.4322 61.8682C56.6537 61.7432 56.7389 61.7233 56.9193 61.8256C60.0662 63.6092 63.2715 65.4142 66.3701 67.1595L69.4049 68.8679C69.4149 68.8793 69.4234 68.8921 69.4333 68.902L69.5185 69H70.2769L70.355 68.9389C71.0367 68.4021 71.1275 68.0727 70.8165 67.2561ZM57.1621 45.463C57.4603 45.632 57.76 45.7981 58.0582 45.9657C58.9472 46.4642 59.866 46.9782 60.7578 47.5023C60.9396 47.6088 61.1086 47.7962 61.1711 47.9595C63.2075 53.2878 65.2639 58.7127 67.252 63.9572L67.8385 65.5051L66.8019 64.9214C63.8864 63.2798 60.8715 61.5827 57.9133 59.9013C57.7841 59.8275 57.6464 59.6613 57.6222 59.552C56.5713 54.6795 55.5204 49.7205 54.5022 44.9262L54.2722 43.8369L57.1621 45.463ZM42.4042 65.5477V66.0575L31.5148 59.924L32.55 55.0289C32.6026 54.7832 32.6551 54.5375 32.7077 54.2918C32.8 53.863 32.8923 53.4327 32.9803 53.0024C33.1209 52.3207 32.8227 51.7811 32.222 51.6263C31.9181 51.5496 31.6327 51.5851 31.3969 51.7314C31.1385 51.8904 30.9609 52.1673 30.8814 52.5337C30.6812 53.4568 30.4824 54.3813 30.285 55.3058C29.9967 56.6592 29.697 58.058 29.3931 59.4312C29.3519 59.6116 29.2355 59.8118 29.1389 59.8672C26.1993 61.5458 23.2014 63.2343 20.3015 64.8675L19.1456 65.5193L19.2918 65.1316C21.422 59.5236 23.6246 53.7224 25.8017 48.0234C25.8783 47.8246 26.0147 47.6386 26.134 47.569C28.0128 46.4897 29.9328 45.409 31.7889 44.3638L32.7134 43.844L32.6424 44.1877C32.5018 44.8608 32.3654 45.5155 32.2277 46.1702C32.1368 46.5991 32.0445 47.0279 31.9536 47.4568C31.8315 48.032 31.7079 48.6057 31.5886 49.1808C31.4395 49.8909 31.7605 50.4589 32.3867 50.5939C33.013 50.7273 33.537 50.3411 33.6904 49.631C33.9588 48.4012 34.2201 47.1714 34.4828 45.9416C34.5808 45.4786 34.6802 45.0142 34.7796 44.5513C35.3079 45.3905 35.8362 46.2284 36.3659 47.0677C37.9025 49.5089 39.4916 52.031 41.075 54.5006C41.2795 54.8201 41.5621 55.0757 41.8348 55.3214C41.9782 55.4507 42.1131 55.5728 42.2367 55.702C42.3758 55.8483 42.4 55.9051 42.4028 55.9122C42.4128 59.1245 42.4085 62.3894 42.4028 65.5477H42.4042ZM43.4963 53.8786C43.3216 53.8786 43.1328 53.7323 42.9666 53.4668C41.8973 51.774 40.8038 50.0556 39.7458 48.3955C37.2038 44.405 34.5766 40.2795 32.0857 36.1669C29.8192 32.4249 29.599 27.801 31.4963 23.7948C33.4234 19.7276 37.2109 16.9229 41.6303 16.2938C42.2622 16.2043 42.8913 16.1603 43.5176 16.1603C46.3763 16.1603 49.1498 17.0862 51.4788 18.8457C54.3204 20.9929 56.1496 24.1129 56.6281 27.6306C56.6835 28.0396 56.7148 28.4642 56.746 28.8746C56.7602 29.0663 56.7744 29.2594 56.79 29.4526C56.7517 31.9846 56.1141 34.2611 54.8928 36.2166C52.0085 40.8348 49.0504 45.5155 46.1917 50.0414L44.026 53.4682C43.8599 53.7323 43.671 53.8786 43.4963 53.8786ZM55.147 60.1299C52.5496 61.5756 49.9181 63.0611 47.3718 64.4968C46.4928 64.9938 45.6137 65.4895 44.7347 65.9851C44.685 66.0135 44.6338 66.0405 44.5784 66.0689V63.7143C44.5799 61.232 44.5813 58.6644 44.5728 56.1394C44.5728 55.8838 44.6296 55.7815 44.8653 55.6197C45.2629 55.347 45.645 54.9394 45.9432 54.4722C47.528 51.9884 49.1257 49.4535 50.6693 47.0024C51.1834 46.1887 51.6961 45.3749 52.2087 44.5612C52.2982 44.9517 52.3806 45.3124 52.4573 45.6732C52.7143 46.8831 52.9713 48.093 53.2284 49.303C53.9399 52.6559 54.6755 56.1238 55.4139 59.5307C55.4878 59.8729 55.448 59.9624 55.147 60.1299Z" fill="#3FC48B"/>
<path d="M43.536 20.3837C41.109 20.3794 38.834 21.3139 37.117 23.0208C35.4001 24.7278 34.4529 27.0028 34.4472 29.4241C34.4387 34.4088 38.4804 38.476 43.4579 38.4916H43.4848C45.8976 38.4916 48.1656 37.5557 49.8754 35.8544C51.5923 34.146 52.5409 31.8724 52.5466 29.4497C52.5566 24.4651 48.5149 20.3979 43.536 20.3837ZM43.4848 36.3288H43.4607C41.6316 36.3217 39.9104 35.5988 38.6124 34.2895C37.3201 32.9872 36.6101 31.2689 36.6101 29.4483V29.4156C36.6186 27.5681 37.3443 25.8369 38.6522 24.5418C39.953 23.2552 41.6799 22.5465 43.5175 22.5465H43.5573C45.385 22.5579 47.1047 23.2878 48.4013 24.6043C49.6979 25.9221 50.4008 27.6547 50.3824 29.4838C50.344 33.2627 47.2524 36.3288 43.4848 36.3288Z" fill="#3FC48B"/>
<path d="M47.7239 25.3853C46.6361 24.2493 45.1833 23.6074 43.6354 23.5761C40.3478 23.5094 37.7149 26.0485 37.6425 29.3503C37.6084 30.8883 38.1864 32.3581 39.2699 33.49C40.3577 34.6246 41.8105 35.2679 43.3585 35.2992C43.4011 35.2992 43.4422 35.3006 43.4848 35.3006C46.7113 35.3006 49.2775 32.7856 49.3513 29.5236C49.3869 27.9856 48.8089 26.5158 47.7239 25.3853ZM43.4962 33.1378H43.4919C42.5078 33.1378 41.5805 32.7501 40.8832 32.05C40.1845 31.3484 39.7996 30.4182 39.8011 29.4327C39.8053 27.3934 41.4626 25.7375 43.4976 25.7375H43.5019C44.4874 25.7375 45.4148 26.1238 46.1121 26.8239C46.8093 27.5226 47.1928 28.4514 47.1928 29.4355V29.4412C47.1885 31.4805 45.5298 33.1378 43.4962 33.1378Z" fill="#3FC48B"/>
</svg>
