<svg width="86" height="86" viewBox="0 0 86 86" fill="none" xmlns="http://www.w3.org/2000/svg">
<circle cx="43" cy="43" r="42.5" stroke="#40494F"/>
<path d="M23.4853 58.4697C22.3542 58.4697 21.3574 58.5345 20.3724 58.4556C18.6839 58.3201 18.0005 57.5247 18.0005 55.841C18.0005 50.3268 17.9993 44.8125 18.0005 39.2983C18.0005 37.5262 18.8936 36.6284 20.6752 36.626C25.0005 36.6213 29.3259 36.6248 33.6525 36.6248C33.9081 36.6248 34.1638 36.6248 34.4879 36.6248C34.5032 36.3232 34.5267 36.0734 34.5267 35.8248C34.5291 31.8246 34.5267 27.8233 34.5291 23.8231C34.5303 21.8896 35.414 21 37.3369 21C46.3988 21 55.4608 21 64.5239 21C66.4551 21 67.3223 21.8754 67.3223 23.8207C67.3223 29.2702 67.3223 34.7196 67.3223 40.169C67.3223 41.9918 66.4351 42.8873 64.63 42.8896C63.7439 42.8908 62.8579 42.8896 61.8646 42.8896C61.9848 43.1536 62.0661 43.3633 62.1721 43.5601C63.1171 45.3027 64.478 46.6247 66.2477 47.5155C66.6813 47.7334 67.1597 47.9078 67.0631 48.5229C66.9676 49.132 66.4657 49.1933 65.9838 49.2475C60.5921 49.8555 56.4541 47.8619 53.5497 43.2785C53.4295 43.0899 53.1337 42.9238 52.9075 42.9073C52.243 42.8578 51.5726 42.8896 50.8244 42.8896C50.8114 43.1701 50.7914 43.4175 50.7914 43.6661C50.789 47.6663 50.7914 51.6676 50.789 55.6678C50.789 57.6202 49.9277 58.4874 47.9942 58.4886C42.9112 58.4886 37.8294 58.498 32.7464 58.4756C32.2079 58.4732 31.9063 58.617 31.6223 59.0954C29.0761 63.3807 24.1369 65.6488 19.22 64.837C18.7711 64.7628 18.3469 64.6815 18.2586 64.1442C18.1702 63.6069 18.5355 63.383 18.949 63.1839C20.7565 62.312 22.148 60.9959 23.1153 59.2356C23.2273 59.0329 23.318 58.8185 23.4877 58.4685L23.4853 58.4697ZM21.5647 63.3948C21.8852 63.3948 22.0349 63.409 22.1822 63.3925C25.9337 62.9659 28.7356 61.0984 30.5442 57.7922C30.8942 57.1512 31.2995 56.9073 32.0182 56.9109C37.3381 56.9344 42.6579 56.9238 47.9789 56.9227C49.0122 56.9227 49.1831 56.753 49.1831 55.7138C49.1842 50.2643 49.1842 44.8161 49.1831 39.3666C49.1831 38.3486 49.0016 38.1719 47.9588 38.1719C38.8969 38.1743 29.8361 38.1778 20.7741 38.1825C19.7408 38.1825 19.5535 38.3687 19.5523 39.3796C19.5523 44.829 19.5523 50.2773 19.5523 55.7267C19.5523 56.7506 19.7337 56.9297 20.7624 56.9309C21.9736 56.9333 23.1848 56.9168 24.3949 56.938C25.1785 56.9521 25.4766 57.3916 25.2539 58.1398C25.1985 58.326 25.1243 58.5062 25.0547 58.6877C24.3549 60.5258 23.2013 62.0351 21.5624 63.3936L21.5647 63.3948ZM36.0632 36.6343C36.4013 36.6343 36.6358 36.6343 36.8715 36.6343C40.6124 36.6343 44.3546 36.6307 48.0955 36.6354C49.8735 36.6378 50.7584 37.5286 50.7702 39.3101C50.7749 39.9699 50.7702 40.6286 50.7702 41.3332C51.6704 41.3332 52.4692 41.3709 53.2634 41.3225C53.9786 41.279 54.4015 41.5229 54.7421 42.185C55.9333 44.5074 57.7926 46.1322 60.2103 47.1042C61.2873 47.5378 62.4078 47.8018 63.6391 47.8183C63.0582 47.162 62.4431 46.6271 62.0308 45.9661C61.2696 44.7466 60.5685 43.4811 59.9582 42.1791C59.6436 41.5075 59.8545 41.3237 60.5473 41.3284C61.867 41.3367 63.1854 41.3367 64.5051 41.3379C65.5584 41.3379 65.754 41.1446 65.754 40.096C65.754 34.6689 65.754 29.2419 65.754 23.8137C65.754 22.7733 65.5514 22.5718 64.4921 22.5718C55.4302 22.5706 46.3694 22.5706 37.3074 22.5718C36.2741 22.5718 36.0644 22.7886 36.0644 23.8372C36.0644 27.8586 36.0644 31.8812 36.0644 35.9026C36.0644 36.1147 36.0644 36.3267 36.0644 36.6343H36.0632Z" fill="#3FC48B"/>
<path d="M34.4288 48.3591C32.355 48.3591 30.2825 48.3732 28.2099 48.3426C27.9048 48.3379 27.5159 48.1977 27.3192 47.982C26.9775 47.6085 27.2332 47.0064 27.7457 46.8627C27.9684 46.8003 28.2146 46.805 28.4503 46.805C32.4458 46.8014 36.4412 46.8026 40.4355 46.8026C40.5863 46.8026 40.7395 46.7932 40.8891 46.8097C41.3864 46.8651 41.7127 47.1266 41.6798 47.6462C41.6491 48.1281 41.3286 48.3591 40.8432 48.3579C38.9639 48.3579 37.0857 48.3579 35.2064 48.3579C34.9472 48.3579 34.688 48.3579 34.4288 48.3579V48.3591Z" fill="#3FC48B"/>
<path d="M34.4866 43.7781C36.5379 43.7781 38.5905 43.7757 40.6418 43.7781C41.3358 43.7792 41.6952 44.0491 41.6916 44.5486C41.6893 45.0411 41.3122 45.331 40.6359 45.331C36.4896 45.3345 32.3434 45.3345 28.1971 45.331C27.4948 45.331 27.1213 44.9952 27.1991 44.4497C27.2757 43.9124 27.6515 43.7745 28.137 43.7757C30.2531 43.7804 32.3693 43.7781 34.4866 43.7781Z" fill="#3FC48B"/>
<path d="M31.1732 51.4391C30.1799 51.4391 29.1866 51.4461 28.1934 51.4367C27.517 51.4308 27.1506 51.1315 27.193 50.6143C27.2437 49.9957 27.6678 49.8767 28.2028 49.8791C30.2105 49.8885 32.2183 49.8791 34.2272 49.885C34.8599 49.8861 35.2169 50.1748 35.2122 50.6555C35.2075 51.1257 34.834 51.432 34.2166 51.4379C33.2021 51.4473 32.1865 51.4403 31.172 51.4403L31.1732 51.4391Z" fill="#3FC48B"/>
</svg>
