<svg width="268" height="198" viewBox="0 0 268 198" fill="none" xmlns="http://www.w3.org/2000/svg">
<path d="M254.625 0.135254H13.1523C5.8885 0.135254 0 6.02375 0 13.2876V184.612C0 191.876 5.8885 197.764 13.1523 197.764H254.625C261.889 197.764 267.778 191.876 267.778 184.612V13.2876C267.778 6.02375 261.889 0.135254 254.625 0.135254Z" fill="black"/>
<path d="M69.0966 91.8432C69.0966 91.8432 72.8912 90.1456 74.4746 84.9431C74.4746 84.9431 68.463 85.3987 69.0966 91.8432Z" fill="#3D5577"/>
<path d="M56.5717 44.4136C56.5717 44.4136 58.8309 44.1635 60.1379 46.4696C61.1526 48.2586 60.9867 50.5383 60.5599 52.8852C60.1331 55.2322 61.7274 57.2233 62.658 59.6688C63.5886 62.1143 65.267 64.7571 62.0327 66.6952C60.3074 67.7292 54.351 67.5321 53.5166 64.2822C52.6822 61.0322 54.0084 46.4275 56.5717 44.4136Z" fill="#BC6640"/>
<path d="M59.1897 67.4767L67.6421 81.0089L83.288 92.7882C84.375 93.6058 84.5926 95.1508 83.7738 96.2365C83.0259 97.2296 81.6697 97.4965 80.6129 96.9098L63.4808 87.4198C63.0684 87.1913 62.7366 86.8751 62.4937 86.5072L52.7909 71.6572C51.6366 69.8897 52.1332 67.5223 53.8994 66.3669C55.6668 65.2127 58.0342 65.7092 59.1897 67.4755V67.4767Z" fill="#F69D85"/>
<path d="M78.4266 92.4974C78.4266 92.4974 81.091 91.7472 83.1818 92.6718C85.2727 93.5964 85.8847 94.4344 86.1275 95.3734C86.3716 96.3136 82.2704 96.8872 80.8433 96.3617C79.4161 95.8363 77.9913 94.6544 78.4266 92.4962V92.4974Z" fill="#F69D85"/>
<path d="M83.2122 92.6643C84.8654 93.2006 86.6352 93.429 88.3702 93.2884C89.0183 93.227 89.1746 94.2214 88.5433 94.3632C87.9578 94.5147 87.3578 94.6386 86.7555 94.7071C85.3668 94.8646 83.9468 94.873 82.5653 94.6374C81.0528 94.3127 81.7983 92.0307 83.2122 92.6643Z" fill="#F69D85"/>
<path d="M83.8422 93.5024C84.9639 94.0651 86.2047 94.4089 87.4528 94.5484C88.0503 94.7311 89.2166 94.2502 89.3188 95.1387C89.2202 96.3832 84.7211 95.8313 83.8001 95.6064C80.8952 95.259 82.2755 92.4491 83.8422 93.5036V93.5024Z" fill="#F69D85"/>
<path d="M83.1135 94.4125C84.3747 95.1255 85.7754 95.616 87.205 95.8493C87.3914 95.8721 87.6896 95.9154 87.8759 95.9226C88.2727 95.9046 88.8017 96.026 88.7608 96.5286C88.7115 97.2416 87.6318 97.0492 87.1281 97.1201C85.4592 97.1334 83.7856 96.84 82.2177 96.2701C80.6655 95.7675 81.7645 93.4927 83.1135 94.4125Z" fill="#F69D85"/>
<path d="M81.1614 94.7924C82.7737 96.3242 85.0124 97.167 87.2283 97.1863C87.9185 97.1502 87.9894 98.2251 87.3017 98.2756C86.7606 98.3321 86.1462 98.3778 85.604 98.3501C83.5263 98.2588 81.4487 97.5674 79.7751 96.3206C78.1315 95.3058 80.0997 93.1909 81.1601 94.7924H81.1614Z" fill="#F69D85"/>
<path d="M55.898 63.3755C55.898 63.3755 53.1808 72.3041 55.2536 77.8204C57.3264 83.3367 62.6948 88.2121 69.0985 91.8432C69.0985 91.8432 69.0924 86.6178 74.4765 84.943L69.1514 79.8427C69.1514 79.8427 65.4422 72.6768 63.3501 68.8798C60.5703 63.8336 55.8968 63.3743 55.8968 63.3743L55.898 63.3755Z" fill="#263656"/>
<path d="M87.7146 94.6195C87.711 94.6688 87.6713 94.7085 87.622 94.7133C86.16 94.8263 84.8098 94.5029 84.7966 94.4993C84.7425 94.486 84.7076 94.4307 84.722 94.3766C84.7352 94.3225 84.7905 94.2888 84.8447 94.3021C84.8579 94.3057 86.178 94.6219 87.6064 94.5113C87.6617 94.5065 87.711 94.5486 87.7146 94.6039C87.7146 94.6087 87.7146 94.6147 87.7146 94.6195Z" fill="#BC6B55"/>
<path d="M87.5057 95.8903C87.5021 95.9396 87.4624 95.9805 87.4119 95.9841C87.3602 95.9877 86.1194 96.0683 85.0181 95.8025C84.964 95.7893 84.9303 95.7364 84.9436 95.6799C84.9568 95.6258 85.0109 95.5921 85.0662 95.6054C86.1363 95.8639 87.3867 95.7821 87.3987 95.7821C87.454 95.7785 87.5033 95.8206 87.5069 95.8759C87.5069 95.8807 87.5069 95.8855 87.5069 95.8903H87.5057Z" fill="#BC6B55"/>
<path d="M86.1214 97.113C86.1166 97.1683 86.0685 97.2104 86.0132 97.2068C85.9615 97.2032 84.7483 97.1082 83.8321 96.8437C83.778 96.8281 83.7468 96.7716 83.7636 96.7187C83.7792 96.6646 83.8357 96.6345 83.8886 96.6501C84.7844 96.9098 86.0168 97.0048 86.0288 97.006C86.0841 97.0108 86.1262 97.0589 86.1226 97.1142L86.1214 97.113Z" fill="#BC6B55"/>
<path d="M62.6542 98.3081C62.6638 98.3237 71.5563 130.806 71.5647 130.825C72.7298 131.987 62.6915 165.507 62.6254 167.201C61.3004 171.781 55.7119 170.94 55.0266 166.437L60.377 134.503L55.0891 99.7545C54.4134 94.9812 61.5276 93.6538 62.6542 98.3081Z" fill="#F69D85"/>
<path d="M52.7223 99.3662H53.0975C58.8134 99.3662 64.4343 91.569 64.4343 91.569C62.2388 88.4959 62.3494 78.9457 62.3915 74.5428C62.4456 68.8389 55.8941 63.0364 53.0975 62.897H52.7223C47.0064 62.897 43.8479 68.7307 43.6579 74.4322C43.4487 80.7023 44.2916 86.3124 42.3726 89.5984C39.4967 94.5244 47.0064 99.3674 52.7235 99.3674L52.7223 99.3662Z" fill="#F69D85"/>
<path d="M39.1099 90.3149C39.1099 90.3149 34.5458 91.0015 30.7043 87.1083C30.7043 87.1083 36.3938 84.5714 39.1099 90.3149Z" fill="#3D5577"/>
<path d="M53.0644 70.7891L41.6987 81.9876L33.6118 99.8255C33.0503 101.064 31.5907 101.613 30.3523 101.052C29.2197 100.538 28.6642 99.2736 29.0069 98.1133L34.5352 79.3245C34.6687 78.8724 34.9043 78.4792 35.2109 78.1618L47.5902 65.4555C49.063 63.9442 51.4821 63.9117 52.9947 65.3846C54.506 66.8575 54.5385 69.2766 53.0656 70.7891H53.0644Z" fill="#F69D85"/>
<path d="M55.895 55.7083H49.7065V65.4099H55.895V55.7083Z" fill="#F69D85"/>
<path d="M55.8963 63.3755C55.8963 63.3755 59.8051 67.4165 61.5786 69.113C62.6655 70.153 66.846 73.2274 65.6316 77.7891C64.6986 81.2951 62.3433 86.5336 64.4365 91.569C64.4365 91.569 56.4602 95.4033 41.7401 90.8861C41.7401 90.8861 41.1858 83.0805 41.1858 76.309C41.1858 72.0191 44.1195 65.1189 49.7043 63.3755C49.7043 63.3755 51.9058 66.2407 54.0351 66.1312C56.221 66.0194 55.8975 63.3755 55.8975 63.3755H55.8963Z" fill="#263656"/>
<path d="M51.6614 61.4458C51.6614 61.4458 53.7306 62.2778 55.8972 61.9075V58.7983L51.6614 61.4446V61.4458Z" fill="#D1836B"/>
<path d="M54.0379 61.554C57.6016 61.0899 60.1145 57.8244 59.6516 54.2607L59.2152 50.911C58.7511 47.3472 55.4855 44.8344 51.9218 45.2973C48.3581 45.7614 45.8452 49.0269 46.3081 52.5906L46.7446 55.9403C47.2087 59.504 50.4742 62.0169 54.0379 61.554Z" fill="#F69D85"/>
<path d="M57.796 53.4094C57.9187 54.3557 58.7867 55.0242 59.733 54.9003C60.6792 54.7777 61.3477 53.9096 61.2239 52.9634C61.1012 52.0171 60.2332 51.3486 59.2869 51.4725C58.3407 51.5951 57.6722 52.4632 57.796 53.4094Z" fill="#F69D85"/>
<path d="M49.3785 55.0651C49.3676 55.4126 49.6682 55.7036 50.0482 55.7144C50.4281 55.7252 50.7455 55.4535 50.7563 55.106C50.7672 54.7585 50.4666 54.4676 50.0866 54.4567C49.7067 54.4459 49.3893 54.7176 49.3785 55.0651Z" fill="#D1836B"/>
<path d="M56.6734 54.4037C56.6626 54.7512 56.9631 55.0422 57.3431 55.053C57.723 55.0638 58.0404 54.7921 58.0513 54.4446C58.0621 54.0971 57.7615 53.8062 57.3816 53.7954C57.0016 53.7845 56.6842 54.0563 56.6734 54.4037Z" fill="#D1836B"/>
<path d="M33.4238 95.2928C34.2799 96.7284 34.8534 98.3359 35.083 99.9915C35.0998 100.204 35.1455 100.545 35.1443 100.757C35.2081 101.179 35.1143 101.747 34.5804 101.754C34.0923 101.778 33.9456 101.291 33.9071 100.898C33.5753 99.2929 32.7878 97.7804 31.7598 96.5107C30.5923 95.3505 32.6435 93.8392 33.4238 95.2916V95.2928Z" fill="#F69D85"/>
<path d="M47.8401 55.3235C48.0615 54.3947 47.4881 53.4622 46.5592 53.2407C45.6304 53.0193 44.6979 53.5927 44.4764 54.5216C44.255 55.4504 44.8284 56.3829 45.7573 56.6043C46.6861 56.8258 47.6186 56.2523 47.8401 55.3235Z" fill="#F69D85"/>
<path d="M52.4954 56.8841C52.4618 57.1643 52.909 57.4492 53.4958 57.519C54.0813 57.5899 54.5839 57.4192 54.6176 57.139C54.6512 56.8589 54.204 56.5739 53.6172 56.5042C53.0305 56.4345 52.5291 56.604 52.4954 56.8841Z" fill="#DB7777"/>
<path d="M52.9973 57.0706C52.6631 56.9828 52.3084 56.8409 51.9501 56.6221C51.902 56.5932 51.8876 56.5307 51.9164 56.4826C51.9453 56.4345 52.0078 56.4201 52.0559 56.4489C53.6021 57.3892 55.0822 56.8193 55.0966 56.8133C55.1483 56.7928 55.2072 56.8181 55.2276 56.8698C55.2481 56.9215 55.2228 56.9804 55.1711 57.0008C55.1206 57.0213 54.1828 57.382 52.9973 57.0694V57.0706Z" fill="#BC6B55"/>
<path d="M49.6375 63.3755C49.6375 63.3755 43.116 65.6082 38.7961 69.6156C34.4761 73.623 32.5511 80.5869 30.7043 87.1084C30.7043 87.1084 35.5209 85.9661 39.1099 90.315L42.3081 83.8188C42.3081 83.8188 47.4913 78.8591 50.5116 75.7499C53.5319 72.6407 49.6375 63.3755 49.6375 63.3755Z" fill="#263656"/>
<path d="M55.6858 47.043C55.6858 47.043 57.4256 50.305 59.288 51.4724C59.288 51.4724 60.4001 48.1528 56.5394 45.712L55.6858 47.0442V47.043Z" fill="#BC6640"/>
<path d="M54.3894 68.1007C50.9447 68.1007 49.0763 65.5109 49.0571 65.4832C49.0162 65.4255 49.0294 65.3449 49.0883 65.3028C49.1461 65.262 49.2266 65.2752 49.2687 65.3341C49.2879 65.3606 51.2093 68.0153 54.7381 67.8326C55.5942 67.7881 56.229 67.4911 56.6246 66.95C57.4626 65.8054 56.9853 63.9262 56.9805 63.9069C56.9624 63.8384 57.0033 63.7675 57.073 63.7494C57.1428 63.7314 57.2125 63.7723 57.2306 63.842C57.2522 63.9238 57.7439 65.8583 56.8338 67.1015C56.3889 67.7087 55.6892 68.0418 54.7513 68.0899C54.6287 68.0959 54.5085 68.0995 54.3894 68.0995V68.1007Z" fill="#3D5577"/>
<path d="M59.463 54.1729C59.4222 54.1621 59.3909 54.126 59.3873 54.0803C59.3488 53.4191 59.7853 53.2688 60.0738 53.169C60.2025 53.1245 60.3251 53.0824 60.3576 53.0151C60.3756 52.9778 60.3708 52.9213 60.3444 52.8468C60.1364 52.2612 59.4138 52.2624 59.3837 52.2624C59.3272 52.2624 59.2815 52.2179 59.2815 52.1626C59.2815 52.1073 59.326 52.0604 59.3813 52.0604C59.4174 52.0604 60.2794 52.0568 60.5355 52.7794C60.5812 52.9081 60.5824 53.0151 60.5403 53.1029C60.4718 53.2459 60.3107 53.3012 60.14 53.3601C59.855 53.4587 59.5604 53.5597 59.5893 54.0683C59.5929 54.1236 59.5496 54.1717 59.4943 54.1753C59.4835 54.1753 59.4727 54.1753 59.463 54.1717V54.1729Z" fill="#BC6B55"/>
<path d="M50.1938 51.7202C50.1613 51.7118 50.1313 51.6937 50.1072 51.6661C50.0459 51.5951 50.0555 51.4869 50.1265 51.4268C51.2037 50.5118 52.1259 50.7571 52.1668 50.7679C52.257 50.7932 52.3099 50.887 52.2846 50.9771C52.2594 51.0661 52.1668 51.119 52.0778 51.095H52.0754C52.0358 51.0842 51.2735 50.8966 50.3465 51.6841C50.302 51.7214 50.2455 51.7322 50.1926 51.719L50.1938 51.7202Z" fill="#BC6B55"/>
<path d="M54.2748 50.8232C54.2255 50.81 54.1822 50.7751 54.1618 50.7246C54.1257 50.6381 54.1666 50.5383 54.2532 50.5022C55.3305 50.0513 56.2887 50.6369 56.3284 50.6621C56.4078 50.7114 56.4318 50.8172 56.3825 50.8966C56.3332 50.9759 56.2274 51 56.1481 50.9507C56.1348 50.9423 55.292 50.4349 54.383 50.816C54.347 50.8304 54.3097 50.8328 54.2748 50.8232Z" fill="#BC6B55"/>
<path d="M53.6175 55.7107C53.5826 55.701 53.5538 55.6746 53.5454 55.6373C53.5321 55.5832 53.5658 55.5279 53.6199 55.5147C53.858 55.4558 54.3437 55.2694 54.3221 55.0662C54.292 54.7837 53.8483 53.5164 53.6788 53.0523C53.6596 52.9994 53.6872 52.9417 53.7389 52.9225C53.7918 52.9032 53.8495 52.9309 53.8688 52.9826C53.894 53.0511 54.4844 54.6791 54.5229 55.0446C54.5685 55.4774 53.7594 55.6878 53.6668 55.7107C53.65 55.7143 53.6331 55.7143 53.6175 55.7107Z" fill="#BC6B55"/>
<path d="M52.165 53.3097C52.2276 53.7906 52.0797 54.2066 51.8332 54.2391C51.5879 54.2704 51.3378 53.906 51.2753 53.4251C51.2128 52.9442 51.3607 52.5282 51.6072 52.4957C51.8524 52.4644 52.1025 52.8288 52.165 53.3097Z" fill="#4E484A"/>
<path d="M56.0627 52.8034C56.1253 53.2843 55.9774 53.7003 55.7309 53.7328C55.4856 53.7641 55.2355 53.3998 55.173 52.9188C55.1105 52.4379 55.2584 52.0219 55.5049 51.9894C55.7501 51.9582 56.0002 52.3225 56.0627 52.8034Z" fill="#4E484A"/>
<path d="M54.8483 171.308C54.8976 171.497 54.9806 171.671 55.09 171.825C55.3617 172.206 55.7993 172.457 56.2971 172.46L67.6652 172.499C68.2315 172.502 68.6619 172.177 68.8783 171.741C68.9457 171.608 68.9914 171.465 69.0154 171.317C69.0875 170.874 68.9601 170.393 68.5705 170.038L67.0027 168.61L65.3182 167.074C60.0568 167.86 55.0274 166.438 55.0274 166.438L54.8988 168.92L54.8002 170.821C54.7918 170.99 54.8086 171.153 54.8495 171.308H54.8483Z" fill="#3D5577"/>
<path d="M66.2593 167.932C66.2593 167.932 63.8835 165.746 63.1778 165.223C62.4708 164.7 60.6961 165.35 60.8885 166.074C61.0821 166.799 62.3049 167.947 62.3049 167.947L66.2605 167.932H66.2593Z" fill="#3D5577"/>
<path d="M54.8481 171.308C55.0189 171.966 55.5996 172.456 56.297 172.46L67.665 172.499C68.4033 172.502 68.9118 171.949 69.0152 171.317L54.8493 171.308H54.8481Z" fill="#263656"/>
<path d="M65.102 171.315L66.831 172.052L68.8774 171.741C68.9447 171.608 68.9904 171.465 69.0144 171.317C69.0866 170.874 68.9591 170.393 68.5696 170.038L67.0017 168.61C67.0017 168.61 65.102 168.934 65.1008 171.315H65.102Z" fill="#263656"/>
<path d="M54.8475 171.308C54.8968 171.497 54.9798 171.671 55.0892 171.825L57.8486 171.31C57.8498 168.986 54.8968 168.92 54.8968 168.92L54.7983 170.821C54.7898 170.99 54.8067 171.153 54.8475 171.308Z" fill="#263656"/>
<path d="M64.4695 169.31C64.5056 169.31 64.5392 169.29 64.5561 169.257C65.0767 168.237 66.261 168.032 66.273 168.029C66.3259 168.021 66.362 167.97 66.3535 167.917C66.3451 167.864 66.2946 167.828 66.2417 167.837C66.1888 167.845 64.948 168.059 64.3829 169.169C64.3589 169.217 64.3769 169.276 64.425 169.3C64.4394 169.307 64.4539 169.311 64.4695 169.311V169.31Z" fill="white"/>
<path d="M63.6414 168.539C63.6774 168.539 63.7111 168.52 63.7279 168.486C64.2485 167.466 65.4328 167.261 65.4449 167.258C65.4978 167.25 65.5338 167.2 65.5254 167.147C65.517 167.094 65.4665 167.058 65.4136 167.066C65.3607 167.074 64.1199 167.288 63.5548 168.398C63.5307 168.446 63.5488 168.505 63.5969 168.529C63.6113 168.536 63.6257 168.54 63.6414 168.54V168.539Z" fill="white"/>
<path d="M62.8474 167.822C62.8835 167.822 62.9172 167.803 62.934 167.769C63.4558 166.747 64.6389 166.544 64.6509 166.542C64.7038 166.533 64.7399 166.483 64.7315 166.43C64.7231 166.377 64.6726 166.341 64.6197 166.349C64.5668 166.358 63.3259 166.572 62.7608 167.682C62.7368 167.73 62.7548 167.789 62.8029 167.813C62.8174 167.82 62.8318 167.823 62.8474 167.823V167.822Z" fill="white"/>
<path d="M51.7327 98.8481C51.7387 98.865 55.6607 132.313 55.6667 132.333C56.6454 133.656 41.6932 165.292 41.3745 166.957C39.3787 171.288 32.6997 168.633 34.211 164.124L44.0546 134.292L44.0365 99.1427C44.0846 94.3226 51.3178 94.0761 51.7327 98.8469V98.8481Z" fill="#F69D85"/>
<path d="M33.1401 169.382C33.1606 169.577 33.2159 169.761 33.3012 169.929C33.5129 170.347 33.9084 170.66 34.399 170.737L45.6324 172.481C46.1915 172.569 46.6664 172.312 46.9453 171.914C47.0307 171.794 47.098 171.658 47.1437 171.516C47.282 171.088 47.2279 170.594 46.896 170.184L45.5602 168.537L44.1247 166.767C38.8043 166.755 34.0455 164.594 34.0455 164.594L33.5465 167.029L33.1642 168.894C33.1305 169.06 33.1221 169.223 33.1401 169.383V169.382Z" fill="#3D5577"/>
<path d="M44.9292 167.756C44.9292 167.756 42.9081 165.239 42.2877 164.616C41.6673 163.993 39.8145 164.369 39.8975 165.115C39.9792 165.86 41.0169 167.179 41.0169 167.179L44.9292 167.756Z" fill="#3D5577"/>
<path d="M33.1411 169.382C33.2108 170.057 33.7122 170.629 34.3999 170.737L45.6333 172.481C46.3632 172.594 46.9487 172.124 47.1447 171.516L33.1399 169.382H33.1411Z" fill="#263656"/>
<path d="M43.2766 170.927L44.8757 171.915H46.9461C47.0315 171.794 47.0988 171.659 47.1445 171.516C47.2828 171.088 47.2287 170.594 46.8968 170.184L45.561 168.537C45.561 168.537 43.6349 168.573 43.2766 170.927Z" fill="#263656"/>
<path d="M33.1401 169.382C33.1606 169.577 33.2159 169.76 33.3012 169.929L36.1063 169.834C36.4562 167.536 33.5465 167.029 33.5465 167.029L33.1642 168.894C33.1305 169.059 33.1221 169.223 33.1401 169.383V169.382Z" fill="#263656"/>
<path d="M42.9555 168.849C42.9904 168.854 43.0277 168.841 43.0493 168.809C43.7166 167.88 44.9189 167.854 44.931 167.854C44.9851 167.854 45.0283 167.809 45.0271 167.755C45.0271 167.701 44.9827 167.659 44.9286 167.659C44.8756 167.659 43.6168 167.685 42.8906 168.696C42.8593 168.74 42.869 168.801 42.9134 168.832C42.9267 168.842 42.9411 168.847 42.9555 168.849Z" fill="white"/>
<path d="M42.2504 167.963C42.2853 167.968 42.3226 167.954 42.3442 167.923C43.0115 166.994 44.2139 166.967 44.2259 166.967C44.28 166.967 44.3233 166.923 44.3221 166.869C44.3221 166.815 44.2776 166.771 44.2235 166.773C44.1706 166.773 42.9117 166.799 42.1855 167.81C42.1543 167.853 42.1639 167.915 42.2084 167.947C42.2216 167.957 42.236 167.962 42.2504 167.964V167.963Z" fill="white"/>
<path d="M41.5715 167.136C41.6064 167.141 41.6436 167.127 41.6653 167.096C42.3338 166.164 43.5349 166.14 43.5469 166.14C43.601 166.14 43.6443 166.096 43.6431 166.042C43.6431 165.988 43.5986 165.945 43.5445 165.945C43.4916 165.945 42.2328 165.972 41.5066 166.983C41.4753 167.026 41.4849 167.088 41.5294 167.12C41.5426 167.13 41.5571 167.135 41.5715 167.137V167.136Z" fill="white"/>
<path d="M64.7439 92.4912L63.7279 89.0008C62.0603 83.4208 65.1142 81.3047 63.6642 74.6257C63.6642 74.6257 62.1588 69.107 58.3571 64.1293C58.3571 64.1293 57.7114 63.3502 56.5728 63.5029C56.5728 63.5029 60.0079 68.982 61.1994 74.6353L52.5859 74.6666C52.545 74.3973 51.6023 68.4073 49.0366 63.5979C49.0366 63.5979 47.9172 63.5522 47.3293 64.3025C47.3293 64.3025 49.5969 68.6225 49.7471 74.6774C50.8172 88.3924 41.5268 88.0546 41.5268 88.0546C39.1101 92.2111 38.1795 99.9673 38.1795 99.9673C36.2497 113.086 42.5367 130.788 42.5367 130.788L33.7561 160.655C39.9746 164.5 44.5903 164.026 44.5903 164.026C44.5903 164.026 56.0474 140.453 57.4024 131.355C57.4902 130.764 57.5695 130.14 57.6393 129.491L58.0949 131.694L54.1477 162.112C60.8735 164.982 65.3643 163.821 65.3643 163.821C65.3643 163.821 73.1578 138.795 73.1325 129.598C73.1025 118.474 66.2828 97.1647 64.7415 92.4912H64.7439Z" fill="#F76C59"/>
<path d="M56.5717 44.4135C56.5717 44.4135 54.2488 41.6674 50.013 42.4525C45.7772 43.2376 43.4999 47.4975 43.2595 51.0299C43.019 54.5624 39.2292 57.1967 39.2533 61.756C39.2677 64.4191 45.2974 67.051 48.5341 66.6555C51.8201 66.2527 49.1653 57.8207 48.1987 54.9279C47.232 52.0351 50.0815 49.7374 52.0389 49.1579C53.9975 48.5784 56.4683 46.4034 56.4683 46.4034L56.5717 44.4135Z" fill="#BC6640"/>
<path d="M56.6738 46.2459C58.8465 46.2459 60.6078 44.4846 60.6078 42.3118C60.6078 40.1391 58.8465 38.3778 56.6738 38.3778C54.5011 38.3778 52.7397 40.1391 52.7397 42.3118C52.7397 44.4846 54.5011 46.2459 56.6738 46.2459Z" fill="#BC6640"/>
<path d="M39.4303 94.6049C38.3037 94.6049 36.7154 94.3633 35.0706 93.3304C34.8386 93.185 34.7688 92.8796 34.9143 92.6475C35.0598 92.4155 35.3664 92.3457 35.5972 92.4912C38.2352 94.1468 40.7529 93.4723 40.7781 93.4651C41.0414 93.3918 41.3143 93.5445 41.3889 93.8078C41.4634 94.0711 41.3107 94.344 41.0486 94.4186C40.9945 94.4342 40.3741 94.6037 39.4291 94.6037L39.4303 94.6049Z" fill="#263656"/>
<path d="M43.0118 98.8167L40.9836 95.5897L31.1226 101.788L33.1508 105.014L43.0118 98.8167Z" fill="#7CE1F7"/>
<path d="M22.9238 112.645L19.8266 107.717C18.7445 105.996 19.6174 103.716 21.5736 103.157L35.1034 99.2951L37.1366 102.529L27.7908 113.047C26.4394 114.568 24.0071 114.366 22.925 112.645H22.9238Z" fill="#7CE1F7"/>
<path d="M42.379 100.339L39.2766 95.4029L36.5586 97.1112L39.6611 102.047L42.379 100.339Z" fill="#263656"/>
<path d="M45.1278 99.6364L41.1008 93.2294L36.9771 95.8212L41.004 102.228L45.1278 99.6364Z" fill="#263656"/>
<path d="M46.3859 101.635L43.7141 97.3843L42.2391 98.3114L44.9109 102.562L46.3859 101.635Z" fill="#263656"/>
<path d="M28.5407 108.831C30.622 107.523 31.6589 105.428 30.8568 104.152C30.0547 102.875 27.7172 102.901 25.6359 104.209C23.5547 105.517 22.5177 107.612 23.3198 108.889C24.1219 110.165 26.4594 110.139 28.5407 108.831Z" fill="#3D5577"/>
<path d="M40.5504 101.627C40.5071 101.627 40.4651 101.605 40.441 101.566L37.3378 96.6309C37.2993 96.5708 37.3185 96.4902 37.3787 96.453C37.4388 96.4145 37.5181 96.4337 37.5566 96.4938L40.6598 101.429C40.6983 101.49 40.6791 101.57 40.619 101.607C40.5973 101.621 40.5733 101.627 40.5504 101.627Z" fill="#3D5577"/>
<path d="M43.6624 100.697C43.6191 100.697 43.577 100.676 43.5529 100.637L40.8248 96.298C40.7864 96.2379 40.8056 96.1573 40.8657 96.1201C40.9258 96.0816 41.0064 96.1008 41.0437 96.1609L43.7718 100.5C43.8102 100.56 43.791 100.641 43.7309 100.678C43.7092 100.691 43.6852 100.697 43.6624 100.697Z" fill="#3D5577"/>
<path d="M44.3639 101.812C44.3207 101.812 44.2786 101.79 44.2545 101.752C44.2161 101.692 44.2353 101.611 44.2954 101.574L45.7695 100.647C45.8296 100.608 45.9101 100.628 45.9474 100.688C45.9859 100.748 45.9667 100.828 45.9065 100.866L44.4325 101.793C44.4108 101.806 44.3868 101.812 44.3639 101.812Z" fill="#3D5577"/>
<path d="M32.8355 95.0149C32.8355 95.0149 34.1484 97.4521 33.7011 99.6932C33.2539 101.936 32.5697 102.715 31.7065 103.157C30.842 103.6 29.3896 99.7233 29.5904 98.2155C29.7911 96.7078 30.6352 95.0606 32.8355 95.0137V95.0149Z" fill="#F69D85"/>
<path d="M33.7165 99.7234C33.553 101.454 33.7165 103.231 34.2323 104.893C34.4343 105.513 33.4965 105.882 33.22 105.297C32.9446 104.759 32.6933 104.201 32.495 103.627C32.0381 102.306 31.7219 100.922 31.6497 99.5226C31.6365 97.9752 34.0267 98.2061 33.7165 99.7234Z" fill="#F69D85"/>
<path d="M33.0355 100.519C32.7313 101.737 32.6652 103.023 32.8023 104.271C32.7542 104.893 33.4768 105.926 32.6327 106.221C31.3967 106.395 30.9555 101.884 30.9735 100.936C30.679 98.0256 33.7221 98.7615 33.0355 100.519Z" fill="#F69D85"/>
<path d="M31.9885 100.007C31.5677 101.393 31.3945 102.867 31.4775 104.313C31.4967 104.499 31.5184 104.8 31.552 104.984C31.6554 105.367 31.653 105.909 31.1529 105.979C30.4471 106.086 30.399 104.99 30.2199 104.515C29.8435 102.889 29.7642 101.191 29.9794 99.5369C30.1321 97.9126 32.5921 98.4885 31.9873 100.007H31.9885Z" fill="#F69D85"/>
<path d="M31.1921 98.1843C30.0487 100.092 29.7144 102.46 30.1773 104.628C30.3637 105.293 29.3297 105.597 29.1301 104.937C28.957 104.421 28.7778 103.832 28.6876 103.295C28.3245 101.248 28.547 99.0692 29.3982 97.1647C30.0306 95.3396 32.5231 96.8004 31.1921 98.1831V98.1843Z" fill="#F69D85"/>
<path d="M32.7895 104.543C32.7414 104.551 32.6933 104.522 32.6777 104.472C32.2484 103.071 32.2701 101.682 32.2713 101.669C32.2713 101.613 32.3182 101.568 32.3747 101.57C32.4312 101.57 32.4745 101.617 32.4745 101.673C32.4745 101.687 32.454 103.045 32.8724 104.415C32.8893 104.469 32.8592 104.525 32.8051 104.541C32.8003 104.542 32.7955 104.543 32.7895 104.545V104.543Z" fill="#BC6B55"/>
<path d="M31.5028 104.617C31.4535 104.624 31.4054 104.594 31.391 104.546C31.3766 104.495 31.0267 103.303 31.0459 102.17C31.0459 102.115 31.0916 102.07 31.1493 102.07C31.2058 102.07 31.2503 102.117 31.2491 102.174C31.2299 103.274 31.5822 104.476 31.5858 104.488C31.6014 104.542 31.5714 104.597 31.5172 104.614C31.5124 104.616 31.5076 104.617 31.5028 104.618V104.617Z" fill="#BC6B55"/>
<path d="M30.0081 103.531C29.9528 103.539 29.9011 103.501 29.8939 103.446C29.8867 103.395 29.7135 102.189 29.7725 101.238C29.7761 101.183 29.8242 101.14 29.8795 101.143C29.9348 101.147 29.9781 101.195 29.9745 101.25C29.9167 102.181 30.0923 103.404 30.0935 103.417C30.1019 103.472 30.0634 103.524 30.0081 103.531Z" fill="#BC6B55"/>
<path d="M102.283 149.996C101.682 149.996 101.122 149.615 100.922 149.014C100.673 148.263 101.079 147.452 101.831 147.202C101.863 147.191 105.074 146.11 108.018 144.152C111.617 141.759 113.167 139.243 112.628 136.675C111.35 130.584 106.186 128.788 99.6499 126.515C93.4242 124.349 86.3689 121.895 81.972 114.832C80.005 111.673 78.888 108.517 78.6512 105.455C78.4311 102.621 78.9962 99.8891 80.2839 97.5566C81.4983 95.3575 83.3378 93.5252 85.6055 92.2579C87.8514 91.0027 90.4689 90.3318 93.1729 90.3186C96.6862 90.2969 100.253 91.3802 103.487 93.4434C107.086 95.7399 110.181 99.1497 112.686 103.577C113.075 104.266 112.834 105.141 112.143 105.53C111.454 105.92 110.579 105.678 110.19 104.988C105.943 97.4833 99.7774 93.1849 93.2655 93.1849C93.2391 93.1849 93.2138 93.1849 93.1874 93.1849C88.7231 93.209 84.741 95.414 82.7944 98.9417C80.5713 102.97 81.1436 108.075 84.4067 113.317C88.2686 119.521 94.534 121.699 100.593 123.807C103.97 124.982 107.16 126.092 109.79 127.853C112.856 129.907 114.703 132.6 115.435 136.087C117.303 144.983 103.331 149.727 102.736 149.925C102.586 149.975 102.435 149.999 102.284 149.999L102.283 149.996Z" fill="#263656"/>
<path d="M85.0038 142.764H78.6194V139.572C78.6194 137.81 80.049 136.38 81.8116 136.38C83.5742 136.38 85.0038 137.81 85.0038 139.572V142.764Z" fill="#F76C59"/>
<path d="M79.44 141.066H96.7187C111.428 141.066 123.37 153.007 123.37 167.717C123.37 170.273 121.294 172.348 118.738 172.348H83.2802C78.8328 172.348 75.2222 168.737 75.2222 164.29V145.282C75.2222 142.954 77.1122 141.064 79.44 141.064V141.066Z" fill="#F5AD60"/>
<path d="M92.217 168.759C97.2036 163.773 97.2036 155.688 92.2171 150.702C87.2305 145.715 79.1458 145.715 74.1593 150.702C69.1727 155.688 69.1727 163.773 74.1593 168.759C79.1458 173.746 87.2305 173.746 92.217 168.759Z" fill="#333647"/>
<path d="M83.1882 168.283C87.9114 168.283 91.7404 164.454 91.7404 159.731C91.7404 155.007 87.9114 151.178 83.1882 151.178C78.4649 151.178 74.636 155.007 74.636 159.731C74.636 164.454 78.4649 168.283 83.1882 168.283Z" fill="#E4E5CF"/>
<path d="M131.686 167.218C131.084 167.218 130.523 166.834 130.324 166.23L110.643 106.252C110.397 105.499 110.807 104.689 111.558 104.442C112.311 104.196 113.12 104.605 113.368 105.357L133.049 165.336C133.295 166.089 132.885 166.899 132.134 167.145C131.986 167.194 131.834 167.218 131.686 167.218Z" fill="#263656"/>
<path d="M131.049 163.562H138.658C143.507 163.562 147.444 167.499 147.444 172.348H127.587V167.023C127.587 165.112 129.138 163.561 131.049 163.561V163.562Z" fill="#F5AD60"/>
<path d="M123.369 167.831H98.1233C98.0595 167.831 98.009 167.779 98.009 167.717C98.009 167.654 98.0607 167.602 98.1233 167.602H123.369C123.432 167.602 123.483 167.654 123.483 167.717C123.483 167.779 123.431 167.831 123.369 167.831Z" fill="#D88E4C"/>
<path d="M146.103 167.796H127.588C127.524 167.796 127.474 167.744 127.474 167.682C127.474 167.619 127.526 167.567 127.588 167.567H146.103C146.167 167.567 146.217 167.619 146.217 167.682C146.217 167.744 146.165 167.796 146.103 167.796Z" fill="#D88E4C"/>
<path d="M113.407 109.498C111.874 110.109 110.137 109.362 109.526 107.829L108.376 104.946C107.766 103.413 108.512 101.676 110.045 101.065C111.578 100.454 113.316 101.201 113.926 102.734L115.076 105.617C115.687 107.15 114.94 108.888 113.407 109.498Z" fill="#F76C59"/>
<path d="M81.5063 91.8492C83.1462 91.5306 84.8535 91.5366 86.4899 91.8841C86.6967 91.9406 87.031 92.0127 87.2318 92.0861C87.6502 92.169 88.1528 92.4504 87.9784 92.9554C87.8353 93.4219 87.328 93.3954 86.9456 93.298C85.3237 93.0648 83.6332 93.292 82.0906 93.8283C80.6033 94.5328 79.8771 92.0909 81.5087 91.8492H81.5063Z" fill="#F69D85"/>
<path d="M57.6402 129.618C57.6402 129.618 57.6342 129.618 57.6306 129.618C57.5596 129.613 57.5067 129.551 57.5115 129.48C57.5212 129.357 58.4193 117.11 58.0141 107.038C58.0117 106.967 58.067 106.907 58.138 106.904C58.2101 106.9 58.269 106.957 58.2726 107.028C58.679 117.114 57.7785 129.377 57.7688 129.499C57.764 129.567 57.7075 129.618 57.6402 129.618Z" fill="#D85648"/>
<path d="M45.8372 161.534C39.4263 161.498 34.5076 158.154 34.4583 158.121C34.3994 158.08 34.3849 157.999 34.4258 157.942C34.4667 157.883 34.5473 157.868 34.605 157.909C34.6531 157.943 39.5105 161.241 45.8384 161.277C45.9093 161.277 45.967 161.336 45.967 161.407C45.967 161.478 45.9093 161.535 45.8384 161.535L45.8372 161.534Z" fill="#D85648"/>
<path d="M64.1709 161.419C58.4153 161.419 54.5005 159.407 54.4573 159.384C54.3935 159.351 54.3695 159.274 54.4031 159.21C54.4356 159.146 54.5138 159.122 54.5775 159.156C54.6244 159.181 59.3952 161.63 66.1463 161.081C66.2173 161.075 66.2798 161.128 66.2858 161.199C66.2918 161.27 66.2389 161.332 66.168 161.338C65.4815 161.395 64.8154 161.419 64.1721 161.419H64.1709Z" fill="#D85648"/>
<path d="M46.9963 158.722C40.3871 158.722 35.3385 155.338 35.288 155.304C35.229 155.264 35.2134 155.183 35.2543 155.124C35.294 155.066 35.3745 155.05 35.4334 155.091C35.4839 155.124 40.47 158.465 46.9963 158.465C47.0456 158.465 47.0949 158.465 47.1442 158.465C47.2151 158.465 47.2728 158.521 47.2728 158.592C47.2728 158.663 47.2163 158.722 47.1442 158.722C47.0949 158.722 47.0432 158.722 46.9939 158.722H46.9963Z" fill="#D85648"/>
<path d="M64.5956 158.581C58.8268 158.581 54.8399 156.844 54.7954 156.825C54.7304 156.796 54.7004 156.72 54.7292 156.654C54.7581 156.589 54.8338 156.559 54.9 156.588C54.9505 156.611 60.0123 158.813 66.981 158.222C67.0532 158.214 67.1145 158.269 67.1205 158.34C67.1265 158.41 67.0736 158.473 67.0027 158.479C66.1719 158.55 65.3663 158.581 64.5944 158.581H64.5956Z" fill="#D85648"/>
<path d="M57.1061 87.5822C54.8192 87.5822 52.9592 85.7222 52.9592 83.4353V77.6966C52.9592 77.6256 53.0169 77.5679 53.0879 77.5679H61.1243C61.1952 77.5679 61.2529 77.6256 61.2529 77.6966V83.4353C61.2529 85.7222 59.3929 87.5822 57.1061 87.5822ZM53.2177 77.8252V83.4353C53.2177 85.5791 54.9623 87.3237 57.1061 87.3237C59.2498 87.3237 60.9944 85.5791 60.9944 83.4353V77.8252H53.2165H53.2177Z" fill="#D85648"/>
<path d="M61.1243 79.9582H53.0879C53.0169 79.9582 52.9592 79.9005 52.9592 79.8295C52.9592 79.7586 53.0169 79.7009 53.0879 79.7009H61.1243C61.1952 79.7009 61.2529 79.7586 61.2529 79.8295C61.2529 79.9005 61.1952 79.9582 61.1243 79.9582Z" fill="#D85648"/>
<path d="M41.4362 85.7185C41.4169 85.7185 41.3977 85.7137 41.3797 85.7053C41.3159 85.674 41.2895 85.5959 41.3208 85.5321L42.1924 83.7611C42.1985 83.7479 42.2081 83.7359 42.2189 83.725C42.2694 83.6757 47.2651 78.8388 48.4951 77.6028C48.5456 77.5523 48.6273 77.5523 48.6778 77.6028C48.7283 77.6533 48.7283 77.735 48.6778 77.7855C47.4815 78.9878 42.7299 83.5892 42.4149 83.8946L41.5528 85.6452C41.53 85.6909 41.4843 85.7173 41.4374 85.7173L41.4362 85.7185Z" fill="#3D5577"/>
<path d="M40.0255 88.5849C39.9883 88.5849 39.951 88.5693 39.9258 88.538C36.4558 84.307 31.3916 85.0621 31.3411 85.0705C31.2702 85.0825 31.204 85.0344 31.1932 84.9635C31.1824 84.8926 31.2293 84.8264 31.3002 84.8156C31.3531 84.8072 32.63 84.61 34.3638 84.9467C35.9641 85.2569 38.2641 86.1045 40.1253 88.3745C40.171 88.4298 40.1626 88.5116 40.1073 88.5561C40.0833 88.5753 40.0544 88.5849 40.0255 88.5849Z" fill="#3D5577"/>
<path d="M67.2784 90.8886H67.2736C67.2026 90.8861 67.1473 90.826 67.1497 90.7539C67.2688 87.7252 68.8029 85.8496 70.069 84.8096C71.4385 83.6842 72.7598 83.2802 72.8151 83.2634C72.8837 83.2429 72.9558 83.2814 72.9762 83.3499C72.9967 83.4185 72.9582 83.4906 72.8897 83.511C72.8764 83.5146 71.5551 83.9198 70.2253 85.0152C69.0037 86.0215 67.5237 87.8358 67.4082 90.7647C67.4058 90.8345 67.3481 90.8886 67.2796 90.8886H67.2784Z" fill="#3D5577"/>
<path d="M123.3 165.754H99.8459C99.7822 165.754 99.7317 165.703 99.7317 165.64C99.7317 165.578 99.7834 165.526 99.8459 165.526H123.3C123.364 165.526 123.414 165.578 123.414 165.64C123.414 165.703 123.362 165.754 123.3 165.754Z" fill="#D88E4C"/>
<path d="M123.104 163.677H101.567C101.503 163.677 101.452 163.625 101.452 163.562C101.452 163.5 101.504 163.448 101.567 163.448H123.104C123.168 163.448 123.218 163.5 123.218 163.562C123.218 163.625 123.167 163.677 123.104 163.677Z" fill="#D88E4C"/>
<path d="M194.506 65.8392C193.053 64.4096 190.717 64.4289 189.288 65.8813L175.016 80.385L160.04 81.5705C158.893 81.6607 157.949 82.5721 157.855 83.7552C157.752 85.0657 158.729 86.2115 160.04 86.3149L176.692 87.6327C177.565 87.6976 178.473 87.3934 179.135 86.7201L179.322 86.5302L194.547 71.0573C195.976 69.6049 195.957 67.2688 194.505 65.8392H194.506Z" fill="#F69D85"/>
<path d="M161.829 82.12C161.829 82.12 159.317 81.3168 157.309 82.1717C155.302 83.0265 154.7 83.8321 154.447 84.7483C154.193 85.6644 158.072 86.3293 159.44 85.8508C160.808 85.3723 162.19 84.2481 161.829 82.12Z" fill="#F69D85"/>
<path d="M160.613 83.4197C159.437 82.768 158.115 82.3508 156.776 82.2174C156.603 82.209 156.324 82.1861 156.151 82.1921C155.742 82.2462 155.209 82.1368 155.211 81.6258C155.231 80.8696 156.256 81.0102 156.78 80.9092C158.424 80.8203 160.096 81.0788 161.627 81.6883C162.994 82.3027 161.818 84.3118 160.612 83.4185L160.613 83.4197Z" fill="#F69D85"/>
<path d="M157.674 84.1303C156.794 84.2385 151.363 84.1327 151.737 82.8234C151.97 82.0863 153.567 82.7332 154.231 82.5745C155.268 82.548 156.312 82.4338 157.316 82.1705C158.823 81.6355 159.275 84.0714 157.674 84.1291V84.1303Z" fill="#F69D85"/>
<path d="M157.325 84.8601C156.442 85.1438 150.848 85.5093 151.106 84.1038C151.254 83.3656 152.977 83.9042 153.629 83.695C154.678 83.582 155.729 83.3632 156.709 82.9676C158.176 82.1452 158.992 84.616 157.325 84.8613V84.8601Z" fill="#F69D85"/>
<path d="M157.828 85.6633C155.925 86.4556 153.732 86.6288 151.752 86.0336C151.142 85.8773 151.328 84.9214 151.949 85.002C152.449 85.0597 152.947 85.0826 153.447 85.0417C154.611 84.9359 155.761 84.5764 156.768 83.9848C157.175 83.5255 157.787 83.2466 158.351 83.6422C159.221 84.2662 158.756 85.4144 157.828 85.6633Z" fill="#F69D85"/>
<path d="M160.149 86.3329C158.346 87.0903 156.41 87.5569 154.448 87.5737C153.788 87.4655 152.003 87.7324 152.084 86.7333C152.14 86.4711 152.381 86.2968 152.641 86.3184C154.917 86.5108 157.177 85.7065 159.146 84.6171C160.361 83.7298 161.527 85.7245 160.149 86.3341V86.3329Z" fill="#F69D85"/>
<path d="M153.604 83.8104C153.206 83.8104 152.907 83.7972 152.881 83.796C152.827 83.7936 152.784 83.7479 152.788 83.6938C152.79 83.6397 152.835 83.5952 152.89 83.6012C152.905 83.6012 154.325 83.6649 155.154 83.5147C155.208 83.505 155.258 83.5399 155.267 83.594C155.277 83.6469 155.242 83.6986 155.188 83.707C154.72 83.7912 154.089 83.8104 153.604 83.8104Z" fill="#BC6B55"/>
<path d="M153.535 85.1559C153.261 85.1559 153.072 85.1354 153.055 85.1342C153.001 85.1282 152.962 85.0801 152.968 85.026C152.974 84.9719 153.022 84.9334 153.077 84.9395C153.086 84.9407 154.073 85.0453 154.868 84.7603C154.919 84.7423 154.975 84.7687 154.993 84.8192C155.011 84.8697 154.985 84.9262 154.934 84.9443C154.45 85.1186 153.911 85.1559 153.535 85.1559Z" fill="#BC6B55"/>
<path d="M153.3 86.4196C153.197 86.4196 153.133 86.4172 153.121 86.4172C153.067 86.4148 153.025 86.3691 153.027 86.3162C153.03 86.2621 153.076 86.2212 153.128 86.2224C153.142 86.2224 154.493 86.2693 155.545 85.8773C155.596 85.8581 155.652 85.8845 155.671 85.935C155.691 85.9855 155.664 86.042 155.614 86.0613C154.743 86.3859 153.71 86.422 153.299 86.422L153.3 86.4196Z" fill="#BC6B55"/>
<path d="M157.163 85.1029C157.155 85.1029 157.145 85.1017 157.135 85.0993C157.084 85.0849 157.054 85.0296 157.068 84.9779C157.169 84.6268 157.613 84.3082 157.884 84.1411C157.226 83.9222 156.712 83.3367 156.688 83.3091C156.653 83.2682 156.657 83.2069 156.698 83.1708C156.739 83.1359 156.8 83.1395 156.836 83.1804C156.842 83.1876 157.459 83.8886 158.16 84.0088C158.201 84.016 158.233 84.0485 158.24 84.0906C158.246 84.1327 158.226 84.1735 158.187 84.1928C157.963 84.307 157.357 84.6809 157.256 85.0308C157.244 85.0741 157.204 85.1017 157.162 85.1017L157.163 85.1029Z" fill="#BC6B55"/>
<path d="M194.628 62.8838C194.628 62.8838 190.098 62.8838 183.547 69.9367C177.284 76.6806 175.979 78.044 175.979 78.044C175.979 78.044 176.802 83.0241 182.072 85.4504L190.256 78.044L194.628 62.8838Z" fill="#F76C59"/>
<path d="M200.507 55.5015H194.629V65.0227H200.507V55.5015Z" fill="#F69D85"/>
<path d="M199.411 60.2614C196.937 61.5563 194.628 61.2918 194.628 61.2918V59.4474L199.411 60.2602V60.2614Z" fill="#D1836B"/>
<path d="M191.967 49.8842C191.967 49.8842 191.382 48.1156 192.138 46.4792L193.919 47.185C193.919 47.185 192.645 48.3392 191.968 49.8842H191.967Z" fill="#BC6640"/>
<path d="M195.34 60.4804C192.071 59.4656 190.216 55.9055 191.198 52.5269L192.122 49.3516C193.104 45.973 196.55 44.0577 199.82 45.0725C203.089 46.0872 204.945 49.6473 203.962 53.0259L203.039 56.2013C202.057 59.5798 198.611 61.4951 195.34 60.4804Z" fill="#F69D85"/>
<path d="M203.866 56.8193C204.773 56.8193 205.508 56.0597 205.508 55.1228C205.508 54.1858 204.773 53.4263 203.866 53.4263C202.959 53.4263 202.224 54.1858 202.224 55.1228C202.224 56.0597 202.959 56.8193 203.866 56.8193Z" fill="#F69D85"/>
<path d="M193.067 51.9967C192.806 52.8936 191.891 53.4034 191.022 53.1341C190.153 52.8648 189.66 51.9186 189.921 51.0216C190.182 50.1247 191.097 49.6149 191.967 49.8854C192.836 50.1559 193.328 51.101 193.067 51.9979V51.9967Z" fill="#F69D85"/>
<path d="M197.745 98.3454H197.388C191.958 98.3454 187.557 93.7982 187.557 88.1881L188.396 73.8767C188.396 68.2667 191.957 62.4774 197.387 62.4774H197.744C202.278 62.4774 207.575 67.0246 207.575 72.6347V88.1869C207.575 93.797 203.174 98.3442 197.744 98.3442L197.745 98.3454Z" fill="#F69D85"/>
<path d="M198.623 52.5125C198.49 52.9682 198.565 53.395 198.791 53.4647C199.017 53.5345 199.306 53.2207 199.438 52.765C199.57 52.3093 199.496 51.8825 199.27 51.8127C199.044 51.743 198.755 52.0568 198.623 52.5125Z" fill="#4E484A"/>
<path d="M195.049 51.4051C194.917 51.8608 194.991 52.2876 195.217 52.3574C195.442 52.4271 195.732 52.1133 195.864 51.6576C195.996 51.2019 195.922 50.7751 195.696 50.7054C195.47 50.6356 195.181 50.9495 195.049 51.4051Z" fill="#4E484A"/>
<path d="M204.27 46.2507C204.261 44.9919 203.88 43.3651 202.257 42.2421C200.206 40.8234 196.57 41.6879 195.302 42.5235C193.579 43.6585 191.532 42.4297 189.897 44.3546C188.763 45.6892 189.304 48.6373 192.69 48.6289C195.614 48.6217 196.074 46.7401 198.932 46.9036C199.736 46.9493 200.766 47.1741 201.688 47.4194C201.596 48.0903 201.598 48.9716 201.795 50.1258C202.167 52.3021 203.844 53.4274 203.844 53.4274C203.844 53.4274 205.835 51.5326 205.859 49.5583C205.88 47.8847 205.079 46.8603 204.27 46.2531V46.2507Z" fill="#BC6640"/>
<path d="M200.704 54.9339C200.66 55.2718 200.335 55.5063 199.976 55.457C199.618 55.4077 199.363 55.0939 199.406 54.756C199.45 54.4181 199.776 54.1837 200.134 54.233C200.492 54.2823 200.747 54.5961 200.704 54.9339Z" fill="#E58A76"/>
<path d="M193.968 53.1377C193.925 53.4755 193.599 53.71 193.241 53.6607C192.882 53.6114 192.628 53.2976 192.671 52.9597C192.714 52.6219 193.04 52.3874 193.398 52.4367C193.757 52.486 194.011 52.7998 193.968 53.1377Z" fill="#E58A76"/>
<path d="M191.27 52.48C191.262 52.48 191.252 52.4788 191.244 52.4764C191.192 52.4619 191.162 52.4078 191.177 52.3561C191.314 51.874 191.061 51.7117 190.818 51.5542C190.615 51.4231 190.364 51.2608 190.575 50.9157C190.967 50.2797 191.792 50.4805 191.801 50.4817C191.852 50.4949 191.885 50.5478 191.871 50.6007C191.858 50.6524 191.805 50.6849 191.752 50.6717C191.724 50.6644 191.057 50.5045 190.741 51.0179C190.634 51.1923 190.699 51.2452 190.923 51.3894C191.168 51.5482 191.54 51.7874 191.363 52.409C191.351 52.4523 191.311 52.48 191.269 52.48H191.27Z" fill="#BC6B55"/>
<path d="M203.703 56.2217H203.698C203.644 56.2193 203.603 56.1724 203.606 56.1183C203.64 55.4702 204.068 55.3716 204.351 55.3067C204.612 55.2466 204.685 55.2201 204.641 55.0194C204.507 54.4242 203.827 54.346 203.798 54.3424C203.744 54.3364 203.705 54.2883 203.711 54.2354C203.717 54.1813 203.764 54.1416 203.818 54.1489C203.853 54.1525 204.668 54.2438 204.832 54.9773C204.921 55.3764 204.63 55.4438 204.396 55.4979C204.117 55.5616 203.828 55.6277 203.8 56.1291C203.798 56.1808 203.755 56.2217 203.703 56.2217Z" fill="#BC6B55"/>
<path d="M196.842 49.776C196.796 49.776 196.751 49.758 196.719 49.7207C196.505 49.479 196.273 49.3564 196.031 49.354H196.025C195.604 49.354 195.269 49.7135 195.265 49.7183C195.204 49.7844 195.101 49.7892 195.033 49.7279C194.966 49.6666 194.961 49.5632 195.023 49.4971C195.041 49.4778 195.457 49.0258 196.025 49.0258H196.031C196.37 49.0282 196.684 49.1881 196.964 49.5019C197.024 49.5692 197.018 49.6738 196.951 49.7339C196.92 49.7616 196.881 49.7748 196.842 49.7748V49.776Z" fill="#BC6B55"/>
<path d="M200.179 50.9086C200.118 50.9086 200.059 50.8737 200.031 50.8148C199.844 50.4205 199.62 50.1872 199.364 50.1223C199.066 50.0465 198.811 50.2293 198.809 50.2317C198.735 50.2846 198.633 50.269 198.58 50.1968C198.526 50.1247 198.542 50.0225 198.614 49.9684C198.629 49.9576 198.991 49.6918 199.441 49.8037C199.798 49.8926 200.096 50.186 200.328 50.6753C200.367 50.7571 200.332 50.8545 200.25 50.8942C200.227 50.905 200.203 50.9098 200.18 50.9098L200.179 50.9086Z" fill="#BC6B55"/>
<path d="M186.103 102.21C186.659 112.405 186.278 122.639 185.672 132.819C186.601 141.175 187.493 149.704 188.035 158.121C188.218 160.273 188.431 162.677 188.657 164.81C188.863 166.29 188.777 167.798 189.6 169.219C190.967 171.778 195.094 171.414 195.96 168.606C196.495 167.055 196.124 165.591 196.043 164.099C195.855 161.96 195.605 159.557 195.374 157.414C194.465 149.49 193.44 141.438 193.048 133.469C194.801 123.493 196.787 113.521 199.663 103.798C202.403 93.2631 185.858 91.3694 186.103 102.21Z" fill="#F69D85"/>
<path d="M196.424 171.308C196.374 171.497 196.291 171.671 196.182 171.825C195.91 172.206 195.473 172.457 194.975 172.46L183.607 172.499C183.04 172.502 182.61 172.177 182.394 171.741C182.326 171.608 182.281 171.465 182.257 171.317C182.184 170.874 182.312 170.393 182.701 170.038L184.269 168.61L185.954 167.074C191.215 167.86 196.246 166.438 196.246 166.438L196.374 168.92L196.473 170.821C196.481 170.99 196.464 171.153 196.424 171.308Z" fill="#3D5577"/>
<path d="M185.014 167.932C185.014 167.932 187.39 165.746 188.095 165.223C188.802 164.7 190.577 165.35 190.385 166.074C190.191 166.799 188.968 167.947 188.968 167.947L185.013 167.932H185.014Z" fill="#3D5577"/>
<path d="M196.424 171.308C196.253 171.966 195.672 172.456 194.975 172.46L183.607 172.499C182.869 172.502 182.36 171.949 182.257 171.317L196.423 171.308H196.424Z" fill="#263656"/>
<path d="M186.171 171.315L184.442 172.052L182.396 171.741C182.328 171.608 182.283 171.465 182.258 171.317C182.186 170.874 182.314 170.393 182.703 170.038L184.271 168.61C184.271 168.61 186.171 168.934 186.172 171.315H186.171Z" fill="#263656"/>
<path d="M196.424 171.308C196.375 171.497 196.292 171.671 196.182 171.825L193.423 171.31C193.422 168.986 196.375 168.92 196.375 168.92L196.473 170.821C196.482 170.99 196.465 171.153 196.424 171.308Z" fill="#263656"/>
<path d="M186.803 169.31C186.767 169.31 186.734 169.29 186.717 169.257C186.196 168.237 185.012 168.032 185 168.029C184.947 168.021 184.911 167.97 184.919 167.917C184.928 167.864 184.978 167.828 185.031 167.837C185.084 167.845 186.325 168.059 186.89 169.169C186.914 169.217 186.896 169.276 186.848 169.3C186.833 169.307 186.819 169.311 186.803 169.311V169.31Z" fill="white"/>
<path d="M187.63 168.539C187.594 168.539 187.561 168.52 187.544 168.486C187.023 167.467 185.839 167.261 185.827 167.259C185.774 167.25 185.738 167.2 185.746 167.147C185.755 167.094 185.805 167.058 185.858 167.066C185.911 167.075 187.152 167.289 187.717 168.398C187.741 168.446 187.723 168.505 187.675 168.529C187.66 168.537 187.646 168.54 187.63 168.54V168.539Z" fill="white"/>
<path d="M188.425 167.822C188.389 167.822 188.355 167.803 188.338 167.769C187.817 166.747 186.634 166.544 186.622 166.542C186.569 166.533 186.533 166.483 186.541 166.43C186.549 166.377 186.6 166.341 186.653 166.349C186.706 166.358 187.947 166.572 188.512 167.682C188.536 167.73 188.518 167.789 188.47 167.813C188.455 167.82 188.441 167.823 188.425 167.823V167.822Z" fill="white"/>
<path d="M209.454 171.903C207.647 171.903 206.032 171.273 205.77 169.432C205.719 168.719 200.641 134.01 200.66 133.313V103.888C200.737 99.061 207.953 99.0213 208.039 103.888V133.051L212.889 166.439C212.889 166.439 211.675 171.922 209.453 171.904L209.454 171.903Z" fill="#F69D85"/>
<path d="M213.068 171.308C213.019 171.497 212.936 171.671 212.826 171.825C212.555 172.206 212.117 172.457 211.619 172.46L200.251 172.499C199.685 172.502 199.255 172.177 199.038 171.741C198.971 171.608 198.925 171.465 198.901 171.317C198.829 170.874 198.956 170.393 199.346 170.038L200.914 168.61L202.598 167.074C207.86 167.86 212.889 166.438 212.889 166.438L213.018 168.92L213.116 170.821C213.125 170.99 213.108 171.153 213.067 171.308H213.068Z" fill="#3D5577"/>
<path d="M201.657 167.932C201.657 167.932 204.033 165.746 204.739 165.223C205.446 164.7 207.22 165.35 207.028 166.074C206.834 166.799 205.612 167.947 205.612 167.947L201.656 167.932H201.657Z" fill="#3D5577"/>
<path d="M213.067 171.308C212.897 171.966 212.316 172.456 211.619 172.46L200.251 172.499C199.512 172.502 199.004 171.949 198.9 171.317L213.066 171.308H213.067Z" fill="#263656"/>
<path d="M202.816 171.315L201.087 172.052L199.041 171.741C198.974 171.608 198.928 171.465 198.904 171.317C198.832 170.874 198.959 170.393 199.349 170.038L200.917 168.61C200.917 168.61 202.816 168.934 202.818 171.315H202.816Z" fill="#263656"/>
<path d="M213.067 171.308C213.018 171.497 212.935 171.671 212.826 171.825L210.066 171.31C210.065 168.986 213.018 168.92 213.018 168.92L213.117 170.821C213.125 170.99 213.108 171.153 213.067 171.308Z" fill="#263656"/>
<path d="M203.446 169.31C203.41 169.31 203.376 169.29 203.359 169.257C202.839 168.237 201.654 168.032 201.642 168.029C201.589 168.021 201.553 167.97 201.562 167.917C201.57 167.864 201.621 167.828 201.674 167.837C201.726 167.845 202.967 168.059 203.532 169.169C203.556 169.217 203.538 169.276 203.49 169.3C203.476 169.307 203.461 169.311 203.446 169.311V169.31Z" fill="white"/>
<path d="M204.274 168.539C204.238 168.539 204.204 168.52 204.187 168.486C203.667 167.467 202.482 167.261 202.47 167.259C202.418 167.25 202.381 167.2 202.39 167.147C202.398 167.094 202.449 167.058 202.502 167.066C202.555 167.075 203.795 167.289 204.361 168.398C204.385 168.446 204.367 168.505 204.318 168.529C204.304 168.537 204.29 168.54 204.274 168.54V168.539Z" fill="white"/>
<path d="M205.069 167.822C205.033 167.822 204.999 167.803 204.982 167.769C204.46 166.747 203.277 166.544 203.265 166.542C203.212 166.533 203.176 166.483 203.185 166.43C203.193 166.377 203.244 166.341 203.297 166.349C203.35 166.358 204.59 166.572 205.155 167.682C205.179 167.73 205.161 167.789 205.113 167.813C205.099 167.82 205.085 167.823 205.069 167.823V167.822Z" fill="white"/>
<path d="M194.628 62.8839C194.628 62.8839 188.28 65.3391 186.069 73.4777C183.588 82.6094 184.888 99.1222 184.075 105.063C184.075 105.063 188.026 107.038 200.108 106.584C208.002 106.288 212.64 104.669 212.64 104.669C212.64 104.669 213.237 93.4953 211.063 85.4517C208.588 76.2935 210.881 62.4787 200.506 62.8851C200.506 62.8851 195.987 65.6288 194.628 62.8851V62.8839Z" fill="#F76C59"/>
<path d="M196.648 65.6504C196.488 65.6504 196.327 65.6444 196.166 65.6299C193.515 65.4039 193.057 63.1315 193.053 63.1074C193.04 63.0377 193.086 62.9704 193.156 62.9572C193.225 62.9439 193.294 62.9896 193.307 63.0606C193.324 63.1459 193.736 65.1646 196.188 65.3726C198.632 65.5806 201.107 63.9924 202.175 62.8754C202.224 62.8237 202.306 62.8225 202.358 62.8718C202.41 62.9211 202.412 63.0028 202.363 63.0545C201.471 63.9888 199.191 65.6516 196.649 65.6516L196.648 65.6504Z" fill="#D85648"/>
<path d="M197.043 55.9295C195.806 55.9295 194.969 55.2514 194.928 55.2177C194.886 55.1829 194.881 55.1215 194.915 55.0807C194.948 55.0386 195.011 55.0326 195.052 55.0674C195.063 55.0771 196.175 55.974 197.683 55.6698C197.735 55.659 197.787 55.6938 197.798 55.7468C197.809 55.7997 197.774 55.8514 197.721 55.8622C197.484 55.9103 197.257 55.9307 197.042 55.9307L197.043 55.9295Z" fill="#BC6B55"/>
<path d="M211.289 133.266C211.289 133.266 213.465 117.211 213.626 105.528C213.677 101.837 212.716 93.2114 212.126 91.0087C212.126 91.0087 204.337 90.7538 203.852 82.9146C203.852 82.9146 203.469 77.5847 203.399 75.8052C203.225 71.3794 203.901 63.0196 203.901 63.0196C203.901 63.0196 202.545 62.1635 201.465 62.838C201.465 62.838 200.126 68.2798 199.969 75.917L189.851 76.2104C191.75 67.6895 193.767 62.9643 193.767 62.9643C192.26 62.2501 190.96 64.1029 190.96 64.1029C190.96 64.1029 183.844 77.1855 184.075 91.5642C184.135 95.3191 183.71 105.811 183.71 105.811C183.71 105.811 182.332 127.834 182.238 132.346C182.133 137.353 186.801 163.015 186.801 163.015C186.801 163.015 191.811 166.04 197.601 162.794L194.645 133.268L196.882 123.866C197.152 128.21 197.439 131.9 197.696 133.268C198.622 138.184 203.445 163.017 203.445 163.017C203.445 163.017 208.455 166.042 214.245 162.795L211.289 133.27V133.266Z" fill="#3D5577"/>
<path d="M196.457 54.7031C196.439 54.7031 196.421 54.6983 196.405 54.6887C196.328 54.6406 195.656 54.2078 195.818 53.8182C195.956 53.4876 196.953 52.1361 196.995 52.0784C197.028 52.0351 197.089 52.0255 197.132 52.058C197.176 52.0905 197.185 52.1518 197.153 52.1951C196.799 52.6748 196.102 53.6463 195.999 53.894C195.92 54.0803 196.309 54.3989 196.508 54.5228C196.554 54.5516 196.568 54.6117 196.54 54.6574C196.522 54.6875 196.489 54.7031 196.457 54.7031Z" fill="#BC6B55"/>
<path d="M220.001 84.765L219.874 84.5462L213.001 72.7862L208.966 65.8824C207.938 64.1233 206.715 65.0443 204.955 66.0723C203.196 67.1003 204.063 72.1165 205.091 73.8767L206.629 76.5086L211.678 85.1474L199.14 92.7726C198.144 93.3773 197.717 94.6374 198.189 95.7399C198.706 96.9471 200.103 97.5073 201.31 96.9903L218.376 89.6886C218.5 89.6345 218.64 89.5647 218.761 89.495C220.409 88.5319 220.965 86.4134 220.001 84.765Z" fill="#F69D85"/>
<path d="M200.446 94.2503C197.418 94.9537 197.554 97.8068 196.475 97.2585C195.775 96.857 196.496 95.8085 196.703 95.2699C197.38 93.9593 198.539 92.8592 199.929 92.3278C201.171 91.9755 201.699 93.9329 200.446 94.2515V94.2503Z" fill="#F69D85"/>
<path d="M191.172 161.632C188.302 161.632 186.406 160.932 186.375 160.92C186.325 160.9 186.3 160.844 186.319 160.793C186.338 160.743 186.395 160.718 186.445 160.737C186.493 160.755 191.358 162.549 197.33 160.32C197.38 160.301 197.437 160.327 197.456 160.377C197.475 160.428 197.449 160.484 197.398 160.504C195.091 161.366 192.945 161.633 191.172 161.633V161.632Z" fill="#263656"/>
<path d="M208.415 161.813C205.343 161.813 202.997 160.822 202.96 160.807C202.911 160.785 202.888 160.727 202.91 160.678C202.931 160.629 202.989 160.606 203.038 160.628C203.095 160.652 208.743 163.034 213.963 160.325C214.011 160.301 214.07 160.319 214.095 160.367C214.12 160.415 214.101 160.474 214.053 160.499C212.134 161.495 210.158 161.813 208.416 161.813H208.415Z" fill="#263656"/>
<path d="M190.826 159.536C187.975 159.536 186.068 158.979 186.038 158.969C185.986 158.954 185.957 158.9 185.973 158.848C185.989 158.796 186.043 158.766 186.094 158.782C186.145 158.796 191.18 160.264 197.141 158.379C197.192 158.362 197.247 158.391 197.264 158.443C197.281 158.495 197.252 158.549 197.2 158.565C194.853 159.307 192.647 159.536 190.827 159.536H190.826Z" fill="#263656"/>
<path d="M207.583 159.636C204.737 159.636 202.667 159.061 202.632 159.051C202.58 159.037 202.55 158.983 202.564 158.931C202.579 158.879 202.633 158.849 202.685 158.864C202.741 158.88 208.342 160.431 213.779 158.381C213.829 158.361 213.886 158.387 213.905 158.437C213.924 158.488 213.899 158.544 213.848 158.563C211.665 159.387 209.456 159.636 207.583 159.636Z" fill="#263656"/>
<path d="M196.851 124.09C196.801 124.09 196.757 124.051 196.754 124C196.515 120.965 195.943 116.78 195.937 116.737C195.93 116.685 195.967 116.634 196.02 116.627C196.074 116.62 196.123 116.657 196.131 116.71C196.137 116.752 196.709 120.942 196.949 123.983C196.953 124.037 196.912 124.084 196.858 124.087C196.856 124.087 196.854 124.087 196.851 124.087V124.09Z" fill="#263656"/>
<path d="M203.899 63.0197C203.899 63.0197 207.577 62.1108 211.606 67.6992C214.559 71.7944 218.549 79.3029 218.549 79.3029C218.549 79.3029 215.415 84.0233 209.603 84.7892C209.603 84.7892 204.781 77.8577 203.374 74.9445C203.374 74.9445 203.605 65.5987 203.898 63.0197H203.899Z" fill="#F76C59"/>
<path d="M196.346 108.889C192.175 108.889 188.782 105.911 188.782 102.251C188.782 98.5907 192.175 95.6125 196.346 95.6125C200.517 95.6125 203.91 98.5907 203.91 102.251C203.91 105.911 200.517 108.889 196.346 108.889ZM196.346 96.453C192.638 96.453 189.623 99.0536 189.623 102.251C189.623 105.448 192.639 108.048 196.346 108.048C200.053 108.048 203.07 105.448 203.07 102.251C203.07 99.0536 200.053 96.453 196.346 96.453Z" fill="#D85648"/>
<path d="M202.536 122.277H190.158L186.836 103.625C186.72 102.531 187.578 101.577 188.678 101.577H204.015C205.115 101.577 205.973 102.531 205.857 103.625L202.535 122.277H202.536Z" fill="#F76C59"/>
<path d="M200.471 92.4492C200.471 92.4492 198.273 94.1938 197.424 96.2173C197.31 96.4891 196.989 97.7287 196.99 97.9487C196.99 97.9487 199.433 97.6637 200.647 99.0621C200.647 99.0621 201.582 98.6497 202.555 96.7776C203.226 95.4839 202.194 93.7369 200.471 92.4492Z" fill="#F69D85"/>
<path d="M198.468 95.9636C197.649 95.5344 197.333 97.3319 197.036 97.7587C196.909 98.0449 197.036 98.3899 197.322 98.5282C198.141 98.9574 198.457 97.1599 198.754 96.7331C198.882 96.4469 198.754 96.1019 198.468 95.9636Z" fill="#F69D85"/>
<path d="M199.425 96.2113C198.606 95.7821 198.29 97.5795 197.993 98.0064C197.865 98.2925 197.993 98.6376 198.279 98.7759C199.098 99.2051 199.414 97.4076 199.711 96.9808C199.838 96.6946 199.711 96.3496 199.425 96.2113Z" fill="#F69D85"/>
<path d="M200.356 96.4483C199.538 96.0191 199.221 97.8165 198.924 98.2434C198.797 98.5295 198.924 98.8746 199.211 99.0129C200.029 99.4421 200.346 97.6446 200.643 97.2178C200.77 96.9316 200.643 96.5866 200.356 96.4483Z" fill="#F69D85"/>
<path d="M201.335 96.483C201.049 96.3448 200.713 96.465 200.585 96.7512L199.903 98.2781C199.775 98.5643 199.903 98.9093 200.189 99.0476C200.475 99.1859 200.811 99.0657 200.939 98.7795L201.621 97.2525C201.749 96.9664 201.621 96.6213 201.335 96.483Z" fill="#F69D85"/>
<path d="M210.983 109.869C210.687 109.869 210.388 109.841 210.091 109.786C208.903 109.564 207.901 108.908 207.344 107.985C206.122 105.961 205.529 96.97 205.505 96.5889C205.503 96.5504 205.517 96.5131 205.545 96.4867C205.572 96.4602 205.611 96.447 205.649 96.4518C209.878 96.9664 212.854 95.9216 212.883 95.9107C212.95 95.8867 213.023 95.9216 213.047 95.9889C213.071 96.0562 213.037 96.1296 212.969 96.1536C212.939 96.1644 209.983 97.2044 205.772 96.7259C205.857 97.9487 206.46 106.022 207.564 107.85C208.083 108.711 209.021 109.323 210.137 109.531C211.345 109.756 212.583 109.49 213.45 108.818C213.507 108.775 213.587 108.784 213.632 108.841C213.675 108.897 213.665 108.978 213.609 109.022C212.899 109.572 211.959 109.867 210.982 109.867L210.983 109.869Z" fill="#263656"/>
<path d="M208.568 99.8437C207.776 99.8437 206.879 99.8076 205.871 99.7162C205.8 99.7102 205.747 99.6477 205.755 99.5756C205.761 99.5046 205.824 99.4517 205.895 99.4589C210.875 99.9074 213.185 98.9936 213.208 98.9852C213.274 98.9588 213.35 98.99 213.376 99.0562C213.403 99.1223 213.371 99.1968 213.305 99.2245C213.229 99.2557 211.748 99.8437 208.568 99.8437Z" fill="#263656"/>
<path d="M209.604 84.9178C209.561 84.9178 209.52 84.8961 209.496 84.8601L204.899 77.8913C204.86 77.8324 204.877 77.7519 204.936 77.7122C204.996 77.6725 205.075 77.6893 205.115 77.7495L209.668 84.6533C209.882 84.6304 210.526 84.5498 211.227 84.325C211.296 84.3034 211.368 84.3406 211.39 84.4092C211.411 84.4765 211.374 84.5499 211.306 84.5715C210.421 84.854 209.645 84.9154 209.613 84.9178C209.609 84.9178 209.607 84.9178 209.603 84.9178H209.604Z" fill="#D85648"/>
<path d="M208.396 83.0854C208.339 83.0854 208.286 83.0458 208.271 82.9869C208.254 82.9171 208.297 82.8474 208.366 82.8305C214.192 81.4154 217.11 76.8946 217.138 76.8489C217.177 76.7888 217.256 76.7708 217.316 76.8093C217.377 76.8477 217.395 76.9271 217.356 76.9872C217.327 77.0341 214.353 81.6426 208.426 83.0818C208.416 83.0842 208.406 83.0854 208.396 83.0854Z" fill="#D85648"/>
<path d="M183.401 84.3779C183.383 84.3779 183.365 84.3743 183.348 84.3671C178.624 82.239 177.079 76.8501 177.063 76.796C177.044 76.7275 177.085 76.6566 177.154 76.6373C177.222 76.6181 177.293 76.659 177.312 76.7275C177.327 76.7804 178.842 82.0538 183.454 84.1315C183.519 84.1603 183.548 84.2373 183.519 84.3022C183.497 84.3503 183.45 84.3779 183.401 84.3779Z" fill="#D85648"/>
<path d="M205.883 103.754H186.836C186.765 103.754 186.707 103.696 186.707 103.625C186.707 103.554 186.765 103.496 186.836 103.496H205.883C205.954 103.496 206.012 103.554 206.012 103.625C206.012 103.696 205.954 103.754 205.883 103.754Z" fill="#D85648"/>
<path d="M241.056 133.663H230.206L226.832 169.808C226.685 171.384 227.925 172.743 229.506 172.743C230.819 172.743 231.94 171.795 232.155 170.5L232.389 169.097H242.402L242.663 170.537C242.895 171.815 244.007 172.745 245.306 172.745H245.733C247.393 172.745 248.656 171.252 248.382 169.7L242.554 134.932C242.431 134.114 241.798 133.664 241.055 133.664L241.056 133.663Z" fill="#4E484A"/>
<path d="M240.884 133.576H227.215C226.43 133.576 225.775 134.174 225.701 134.955L222.456 169.807C222.309 171.382 223.549 172.742 225.13 172.742C226.443 172.742 227.564 171.794 227.779 170.499L228.013 169.096H238.026L238.287 170.536C238.519 171.814 239.631 172.743 240.93 172.743H241.583C243.165 172.743 244.404 171.384 244.257 169.809L240.883 133.577L240.884 133.576Z" fill="#FFE393"/>
<path d="M234.228 159.257C234.733 158.752 234.733 157.933 234.228 157.428C233.723 156.922 232.904 156.922 232.398 157.428C231.893 157.933 231.893 158.752 232.398 159.257C232.904 159.762 233.723 159.762 234.228 159.257Z" fill="#F76C59"/>
<path d="M234.16 142.817H232.554C231.767 142.817 231.145 143.488 231.206 144.273L232.009 154.604C232.065 155.307 232.652 155.851 233.357 155.851C234.063 155.851 234.65 155.307 234.705 154.604L235.508 144.273C235.57 143.488 234.948 142.817 234.16 142.817Z" fill="#F76C59"/>
<path d="M124.68 48.9185C124.68 48.9185 123.988 44.7849 122.315 43.062C122.315 43.062 120.482 44.1777 118.69 45.0314C118.69 45.0314 116.801 47.5034 120.674 51.1308C121.857 52.2382 122.853 50.3613 124.679 48.9185H124.68Z" fill="#F69D85"/>
<path d="M127.525 54.3026C127.525 54.3026 123.45 53.5379 120.673 55.3029C120.673 55.3029 125.093 58.0454 127.525 54.3026Z" fill="#263656"/>
<path d="M178.624 97.601C178.624 97.601 177.267 100.526 172.395 100.746C172.395 100.746 171.766 96.145 178.624 97.601Z" fill="#263656"/>
<path d="M145.775 82.2495C145.775 81.6845 146.235 81.2252 146.8 81.2252C147.365 81.2252 147.824 81.6845 147.824 82.2495C147.824 82.8146 147.365 83.2739 146.8 83.2739C146.235 83.2739 145.775 82.8146 145.775 82.2495ZM145.977 82.2495C145.977 82.7028 146.347 83.0719 146.8 83.0719C147.253 83.0719 147.622 82.7028 147.622 82.2495C147.622 81.7963 147.253 81.4271 146.8 81.4271C146.347 81.4271 145.977 81.7963 145.977 82.2495Z" fill="#263656"/>
<path d="M145.161 87.2923C145.161 86.7272 145.62 86.2679 146.186 86.2679C146.751 86.2679 147.21 86.7272 147.21 87.2923C147.21 87.8574 146.751 88.3167 146.186 88.3167C145.62 88.3167 145.161 87.8574 145.161 87.2923ZM145.363 87.2923C145.363 87.7456 145.732 88.1147 146.186 88.1147C146.639 88.1147 147.008 87.7456 147.008 87.2923C147.008 86.839 146.639 86.4699 146.186 86.4699C145.732 86.4699 145.363 86.839 145.363 87.2923Z" fill="#263656"/>
<path d="M147.057 77.4319C147.057 76.8668 147.516 76.4075 148.081 76.4075C148.646 76.4075 149.105 76.8668 149.105 77.4319C149.105 77.997 148.646 78.4563 148.081 78.4563C147.516 78.4563 147.057 77.997 147.057 77.4319ZM147.259 77.4319C147.259 77.8852 147.628 78.2543 148.081 78.2543C148.534 78.2543 148.903 77.8852 148.903 77.4319C148.903 76.9786 148.534 76.6095 148.081 76.6095C147.628 76.6095 147.259 76.9786 147.259 77.4319Z" fill="#263656"/>
<path d="M145.775 92.336C145.775 91.7709 146.235 91.3116 146.8 91.3116C147.365 91.3116 147.824 91.7709 147.824 92.336C147.824 92.9011 147.365 93.3604 146.8 93.3604C146.235 93.3604 145.775 92.9011 145.775 92.336ZM145.977 92.336C145.977 92.7893 146.347 93.1584 146.8 93.1584C147.253 93.1584 147.622 92.7893 147.622 92.336C147.622 91.8827 147.253 91.5136 146.8 91.5136C146.347 91.5136 145.977 91.8827 145.977 92.336Z" fill="#263656"/>
<path d="M146.076 97.3172C146.076 96.7521 146.536 96.2928 147.101 96.2928C147.666 96.2928 148.125 96.7521 148.125 97.3172C148.125 97.8823 147.666 98.3416 147.101 98.3416C146.536 98.3416 146.076 97.8823 146.076 97.3172ZM146.278 97.3172C146.278 97.7705 146.648 98.1396 147.101 98.1396C147.554 98.1396 147.923 97.7705 147.923 97.3172C147.923 96.8639 147.554 96.4948 147.101 96.4948C146.648 96.4948 146.278 96.8639 146.278 97.3172Z" fill="#263656"/>
<path d="M154.857 50.9637C154.857 50.9637 159.906 49.7625 162.362 54.0537C164.819 58.3448 162.216 62.1586 162.136 64.9685C162.057 67.7783 165.039 68.9855 164.929 72.9099C164.82 76.8343 161.358 77.6904 158.765 76.2872C158.765 76.2872 158.433 81.705 153.91 80.8272C149.387 79.9495 142.105 76.791 141.242 69.1682C140.379 61.5454 142.903 50.4491 154.857 50.9649V50.9637Z" fill="#31364C"/>
<path d="M154.213 63.8058H148.024V73.5074H154.213V63.8058Z" fill="#F69D85"/>
<path d="M152.369 69.5434C152.369 69.5434 150.23 70.4043 148.023 69.9859V66.8286L152.369 69.5446V69.5434Z" fill="#D1836B"/>
<path d="M149.119 69.1082C145.79 67.7507 144.194 63.9526 145.551 60.6245L146.827 57.4972C148.184 54.1692 151.982 52.5725 155.311 53.9299C158.639 55.2874 160.235 59.0855 158.878 62.4136L157.602 65.5409C156.245 68.8689 152.447 70.4656 149.119 69.1082Z" fill="#F69D85"/>
<path d="M147.563 60.2758C147.202 61.1595 146.193 61.5839 145.309 61.2232C144.426 60.8625 144.001 59.8537 144.362 58.97C144.723 58.0863 145.731 57.6619 146.615 58.0226C147.499 58.3833 147.923 59.392 147.563 60.2758Z" fill="#F69D85"/>
<path d="M152.216 108.693C146.501 108.693 139.18 107.318 141.404 99.4707C142.546 95.4404 142.797 89.8039 141.637 82.5863C140.729 76.9425 148.904 70.9152 150.931 70.9152H151.306C156.932 71.0198 160.96 76.7886 160.371 82.4757C159.612 89.8039 156.445 91.4523 160.062 98.7961C164.883 108.584 152.215 108.693 152.215 108.693H152.216Z" fill="#F69D85"/>
<path d="M155.434 107.41L154.06 137.305L154.028 137.983C154.022 138.109 154.028 138.246 154.044 138.367L157.671 167.351C157.934 169.445 159.844 170.93 161.939 170.668C164.033 170.406 165.518 168.497 165.256 166.402L161.638 137.418L164.194 119.749C166.765 106.729 155.46 106.916 155.434 107.409V107.41Z" fill="#F69D85"/>
<path d="M165.423 171.308C165.374 171.496 165.291 171.671 165.182 171.825C164.91 172.206 164.472 172.457 163.975 172.46L152.606 172.499C152.04 172.502 151.61 172.177 151.393 171.741C151.326 171.608 151.28 171.465 151.256 171.317C151.184 170.874 151.312 170.393 151.701 170.038L153.269 168.61L154.953 167.074C160.215 167.859 165.245 166.438 165.245 166.438L165.374 168.92L165.473 170.821C165.481 170.99 165.464 171.153 165.423 171.308Z" fill="#3D5577"/>
<path d="M154.011 167.931C154.011 167.931 156.387 165.746 157.093 165.223C157.8 164.7 159.574 165.35 159.382 166.074C159.188 166.799 157.965 167.947 157.965 167.947L154.01 167.931H154.011Z" fill="#3D5577"/>
<path d="M165.422 171.308C165.251 171.965 164.671 172.456 163.973 172.459L152.605 172.499C151.867 172.502 151.358 171.948 151.255 171.317L165.421 171.308H165.422Z" fill="#263656"/>
<path d="M155.17 171.315L153.441 172.052L151.394 171.741C151.327 171.608 151.281 171.465 151.257 171.317C151.185 170.874 151.313 170.393 151.702 170.038L153.27 168.61C153.27 168.61 155.17 168.934 155.171 171.315H155.17Z" fill="#263656"/>
<path d="M165.424 171.308C165.375 171.496 165.292 171.671 165.182 171.825L162.423 171.31C162.422 168.986 165.375 168.92 165.375 168.92L165.473 170.821C165.482 170.99 165.465 171.153 165.424 171.308Z" fill="#263656"/>
<path d="M155.801 169.309C155.765 169.309 155.732 169.29 155.715 169.257C155.194 168.237 154.01 168.031 153.998 168.029C153.945 168.021 153.909 167.97 153.917 167.917C153.926 167.864 153.976 167.828 154.029 167.837C154.082 167.845 155.323 168.059 155.888 169.169C155.912 169.217 155.894 169.276 155.846 169.3C155.831 169.307 155.817 169.311 155.801 169.311V169.309Z" fill="white"/>
<path d="M156.631 168.539C156.595 168.539 156.561 168.52 156.544 168.486C156.023 167.466 154.839 167.261 154.827 167.258C154.774 167.25 154.738 167.199 154.747 167.146C154.755 167.094 154.806 167.057 154.858 167.066C154.911 167.074 156.152 167.288 156.717 168.398C156.741 168.446 156.723 168.505 156.675 168.529C156.661 168.536 156.646 168.54 156.631 168.54V168.539Z" fill="white"/>
<path d="M157.423 167.822C157.387 167.822 157.354 167.803 157.337 167.769C156.815 166.747 155.632 166.544 155.62 166.542C155.567 166.533 155.531 166.483 155.539 166.43C155.548 166.377 155.598 166.341 155.651 166.349C155.704 166.358 156.945 166.572 157.51 167.681C157.534 167.73 157.516 167.788 157.468 167.813C157.453 167.82 157.439 167.823 157.423 167.823V167.822Z" fill="white"/>
<path d="M139.199 107.41L137.825 137.305L137.793 137.983C137.787 138.109 137.793 138.246 137.809 138.367L141.436 167.351C141.698 169.445 143.609 170.93 145.703 170.668C147.798 170.406 149.283 168.497 149.021 166.402L145.403 137.418L153.171 109.585C154.193 105.793 151.946 101.89 148.154 100.868C144.362 99.8458 140.459 102.093 139.437 105.885C139.303 106.38 139.225 106.916 139.2 107.408L139.199 107.41Z" fill="#F69D85"/>
<path d="M152.916 79.7091L165.771 89.1583L176.336 105.649C177.07 106.795 178.593 107.128 179.739 106.395C180.786 105.724 181.154 104.393 180.649 103.294L172.479 85.4948C172.283 85.0667 171.992 84.7108 171.644 84.4415L171.451 84.2948L157.568 73.6446C155.893 72.3605 153.494 72.6767 152.209 74.3503C150.925 76.0252 151.241 78.4238 152.915 79.7091H152.916Z" fill="#F69D85"/>
<path d="M146.76 71.5115L131.475 68.044L125.361 49.5004C124.935 48.2091 123.543 47.5069 122.25 47.9325C121.07 48.3221 120.382 49.5196 120.598 50.7087L124.066 69.9244C124.29 71.1652 125.166 72.1247 126.278 72.513L144.26 78.7351C146.255 79.4253 148.431 78.3684 149.121 76.3737C149.812 74.3791 148.755 72.2028 146.76 71.5127V71.5115Z" fill="#F69D85"/>
<path d="M153.335 61.3567C153.152 61.8063 153.189 62.2464 153.417 62.3402C153.647 62.4339 153.981 62.1454 154.164 61.6957C154.347 61.246 154.31 60.806 154.081 60.7122C153.853 60.6184 153.517 60.907 153.335 61.3567Z" fill="#4E484A"/>
<path d="M149.697 59.8742C149.514 60.3239 149.552 60.764 149.78 60.8577C150.01 60.9515 150.344 60.663 150.527 60.2133C150.709 59.7636 150.672 59.3236 150.444 59.2298C150.214 59.136 149.88 59.4246 149.697 59.8742Z" fill="#4E484A"/>
<path d="M155.28 64.0235C155.202 64.3614 154.838 64.567 154.466 64.4804C154.096 64.3938 153.858 64.05 153.937 63.7121C154.015 63.3742 154.38 63.1686 154.751 63.2552C155.121 63.3418 155.36 63.6856 155.28 64.0235Z" fill="#D1836B"/>
<path d="M148.394 61.5226C148.316 61.8604 147.952 62.066 147.58 61.9795C147.21 61.8929 146.972 61.549 147.051 61.2112C147.13 60.8733 147.494 60.6677 147.865 60.7543C148.236 60.8409 148.474 61.1847 148.394 61.5226Z" fill="#D1836B"/>
<path d="M176.412 100.779C176.412 100.779 175.464 103.379 176.227 105.534C176.992 107.689 177.781 108.362 178.699 108.676C179.618 108.99 180.499 104.945 180.083 103.482C179.667 102.018 178.596 100.509 176.411 100.78L176.412 100.779Z" fill="#F69D85"/>
<path d="M175.87 101.137C175.229 102.681 174.893 104.355 174.904 106.026C174.917 106.24 174.922 106.581 174.953 106.793C174.95 107.22 175.125 107.768 175.654 107.698C176.14 107.651 176.215 107.149 176.197 106.754C176.295 105.118 176.857 103.508 177.692 102.105C178.68 100.79 176.434 99.5873 175.87 101.137Z" fill="#F69D85"/>
<path d="M176.218 105.564C176.628 107.252 176.722 109.035 176.451 110.754C176.34 111.397 177.321 111.626 177.51 111.008C177.748 110.324 177.931 109.607 178.056 108.893C178.26 107.633 178.357 106.343 178.235 105.067C178.026 103.534 175.693 104.106 176.218 105.563V105.564Z" fill="#F69D85"/>
<path d="M177.483 105.999C177.819 107.151 177.989 108.357 178.029 109.557C178.033 109.639 178.035 109.807 178.033 109.89C178.156 110.512 177.569 111.656 178.454 111.839C179.26 112.001 179.337 109.85 179.471 109.283C179.614 108.01 179.652 106.713 179.48 105.439C179.214 103.926 176.921 104.57 177.483 106.001V105.999Z" fill="#F69D85"/>
<path d="M178.175 105.803C178.991 107.395 179.482 109.199 179.433 110.995C179.413 111.647 180.42 111.734 180.516 111.094C180.584 110.744 180.649 110.304 180.682 109.949C180.801 108.226 180.58 106.467 180.012 104.834C179.437 103.4 177.314 104.517 178.176 105.803H178.175Z" fill="#F69D85"/>
<path d="M178.692 104.144C179.975 105.836 180.807 107.948 180.769 110.09C180.764 110.75 181.788 110.803 181.854 110.15C181.918 109.725 181.965 109.193 181.973 108.765C181.966 106.784 181.403 104.814 180.452 103.081C179.755 101.515 177.569 102.847 178.692 104.145V104.144Z" fill="#F69D85"/>
<path d="M148.024 71.4731C148.024 71.4731 141.478 77.7096 139.648 83.9906C138.806 86.8822 141.109 89.953 141.613 93.0129C142.08 95.848 141.405 99.4706 141.405 99.4706C141.405 99.4706 146.854 100.559 149.693 100.559C156.479 100.559 160.063 98.7961 160.063 98.7961C160.063 98.7961 156.824 91.51 161.046 85.2049C164.403 80.1924 159.802 73.2165 154.217 71.4731C154.217 71.4731 151.612 74.1831 149.498 73.9066C147.723 73.6758 148.024 71.4731 148.024 71.4731Z" fill="#3D5577"/>
<path d="M160.027 64.9962C159.667 65.8799 158.658 66.3043 157.774 65.9436C156.891 65.5829 156.466 64.5741 156.827 63.6904C157.187 62.8067 158.196 62.3823 159.08 62.743C159.964 63.1037 160.388 64.1125 160.027 64.9962Z" fill="#F69D85"/>
<path d="M157.855 54.5538C157.855 54.5538 157.74 49.2611 152.201 48.7201C146.662 48.179 144.844 52.9078 147.004 55.1273C148.51 56.6723 153.641 57.2398 155.917 56.7385C155.917 56.7385 155.312 59.3451 158.152 60.9202C160.992 62.4952 163.427 56.9356 157.855 54.555V54.5538Z" fill="#31364C"/>
<path d="M154.217 71.4731C154.217 71.4731 159.677 73.3283 164.458 76.6768C167.684 78.9348 171.232 82.1053 172.96 84.2803C174.689 86.4554 178.624 97.6022 178.624 97.6022C178.624 97.6022 175.629 97.0119 172.395 100.748C172.395 100.748 166.835 91.5208 165.887 90.2379C164.939 88.955 158.698 86.3784 156.132 83.1453C153.568 79.9111 154.216 71.4743 154.216 71.4743L154.217 71.4731Z" fill="#3D5577"/>
<path d="M148.023 71.4731C148.023 71.4731 144.203 69.327 139.464 67.877C134.724 66.4269 131.878 65.3004 131.878 65.3004C131.878 65.3004 128.752 57.686 127.526 54.3026C127.526 54.3026 124.954 56.4019 120.674 55.303C120.674 55.303 121.413 69.9907 124.406 72.5384C127.442 75.1234 142.652 79.6526 142.652 79.6526L148.023 71.4731Z" fill="#3D5577"/>
<path d="M149.75 75.4372C149.383 75.4372 149.03 75.3975 148.699 75.3121C146.458 74.7398 146.463 72.3652 146.463 72.3412C146.463 72.2702 146.525 72.2137 146.594 72.2137C146.665 72.2137 146.723 72.2726 146.721 72.3448C146.721 72.4337 146.721 74.5402 148.763 75.062C150.837 75.5923 153.881 74.2877 155.276 72.269C155.317 72.2101 155.397 72.1957 155.455 72.2366C155.514 72.2774 155.528 72.358 155.488 72.4157C154.259 74.1928 151.793 75.436 149.749 75.436L149.75 75.4372Z" fill="#263656"/>
<path d="M151.801 64.7605C151.763 65.0406 151.257 65.2005 150.672 65.12C150.088 65.0394 149.645 64.746 149.684 64.4671C149.722 64.1882 150.229 64.027 150.813 64.1076C151.397 64.1882 151.84 64.4815 151.801 64.7605Z" fill="#DB7777"/>
<path d="M151.27 64.8133C151.616 64.8133 151.995 64.7664 152.398 64.6461C152.452 64.6305 152.482 64.574 152.466 64.5199C152.451 64.4658 152.394 64.4357 152.34 64.4514C150.609 64.9648 149.319 64.0378 149.306 64.0281C149.262 63.9945 149.198 64.0041 149.165 64.0498C149.131 64.0943 149.141 64.158 149.186 64.1917C149.23 64.2241 150.045 64.8121 151.27 64.8121V64.8133Z" fill="#BC6B55"/>
<path d="M180.735 108.978C180.788 108.978 180.833 108.937 180.836 108.883C180.836 108.868 180.92 107.455 180.542 106.116C180.526 106.062 180.471 106.031 180.417 106.046C180.362 106.062 180.331 106.117 180.347 106.171C180.716 107.476 180.635 108.856 180.634 108.869C180.631 108.925 180.673 108.973 180.729 108.976C180.732 108.976 180.734 108.976 180.735 108.976V108.978Z" fill="#BC6B55"/>
<path d="M179.308 109.897C179.359 109.897 179.402 109.86 179.408 109.808C179.409 109.795 179.569 108.458 179.408 106.812C179.403 106.757 179.354 106.716 179.297 106.721C179.242 106.727 179.201 106.776 179.206 106.831C179.365 108.456 179.208 109.77 179.206 109.783C179.199 109.838 179.238 109.889 179.294 109.896C179.297 109.896 179.302 109.896 179.306 109.896L179.308 109.897Z" fill="#BC6B55"/>
<path d="M177.933 109.117C177.983 109.117 178.026 109.081 178.033 109.03C178.041 108.973 178.245 107.613 178.16 106.581C178.156 106.526 178.108 106.484 178.051 106.489C177.996 106.493 177.954 106.543 177.958 106.598C178.041 107.606 177.835 108.986 177.832 109C177.824 109.056 177.862 109.107 177.918 109.116C177.922 109.116 177.928 109.116 177.933 109.116V109.117Z" fill="#BC6B55"/>
<path d="M158.068 65.215C158.11 65.215 158.15 65.1885 158.165 65.1452C158.324 64.6619 158.636 64.6751 158.936 64.6895C159.116 64.698 159.286 64.7052 159.403 64.597C159.475 64.5296 159.514 64.431 159.518 64.294C159.546 63.5269 158.743 63.2131 158.709 63.2011C158.658 63.1806 158.599 63.2071 158.579 63.26C158.559 63.3117 158.585 63.3706 158.638 63.391C158.667 63.4018 159.339 63.6676 159.318 64.288C159.315 64.3673 159.298 64.4214 159.267 64.4491C159.212 64.4996 159.083 64.4936 158.947 64.4876C158.642 64.4743 158.181 64.4527 157.973 65.0827C157.955 65.1356 157.984 65.1933 158.038 65.2102C158.049 65.2138 158.06 65.215 158.07 65.215H158.068Z" fill="#BC6B55"/>
<path d="M145.582 60.58C145.626 60.58 145.665 60.5523 145.68 60.5078C145.872 59.8742 145.484 59.6253 145.227 59.4606C145.111 59.3872 145.003 59.3175 144.987 59.2442C144.979 59.2033 144.996 59.1492 145.039 59.083C145.379 58.56 146.103 58.7392 146.11 58.7404C146.164 58.7536 146.22 58.7211 146.234 58.667C146.249 58.6129 146.215 58.5576 146.161 58.5432C146.126 58.5336 145.289 58.328 144.869 58.9712C144.795 59.0855 144.768 59.1889 144.789 59.285C144.823 59.4401 144.966 59.5315 145.117 59.6289C145.371 59.7912 145.634 59.9595 145.485 60.4465C145.468 60.4994 145.499 60.5571 145.552 60.5727C145.562 60.5751 145.572 60.5775 145.582 60.5775V60.58Z" fill="#BC6B55"/>
<path d="M157.422 66.4545C157.422 65.9579 157.826 65.554 158.322 65.554C158.819 65.554 159.223 65.9579 159.223 66.4545C159.223 66.9511 158.819 67.3551 158.322 67.3551C157.826 67.3551 157.422 66.9511 157.422 66.4545ZM157.624 66.4545C157.624 66.8393 157.936 67.1519 158.322 67.1519C158.708 67.1519 159.02 66.8393 159.02 66.4545C159.02 66.0698 158.707 65.756 158.322 65.756C157.938 65.756 157.624 66.0686 157.624 66.4545Z" fill="#EFBB6A"/>
<path d="M143.463 61.0273C143.463 60.5307 143.867 60.1267 144.363 60.1267C144.86 60.1267 145.264 60.5307 145.264 61.0273C145.264 61.5238 144.86 61.9278 144.363 61.9278C143.867 61.9278 143.463 61.5238 143.463 61.0273ZM143.665 61.0273C143.665 61.412 143.977 61.7258 144.363 61.7258C144.749 61.7258 145.061 61.4132 145.061 61.0273C145.061 60.6413 144.748 60.3299 144.363 60.3299C143.979 60.3299 143.665 60.6425 143.665 61.0273Z" fill="#EFBB6A"/>
<path d="M155.104 61.0392C155.133 61.0392 155.162 61.032 155.188 61.0163C155.27 60.9694 155.298 60.866 155.252 60.7843C155.229 60.7446 154.679 59.8008 153.583 59.6312C153.491 59.6168 153.404 59.6805 153.39 59.7731C153.375 59.8657 153.439 59.9523 153.532 59.9667C154.467 60.111 154.953 60.9442 154.958 60.9526C154.989 61.0079 155.047 61.038 155.105 61.038L155.104 61.0392Z" fill="#BC6B55"/>
<path d="M151.517 59.1732C151.565 59.1732 151.612 59.1528 151.645 59.1143C151.707 59.0434 151.699 58.9364 151.629 58.8751C151.6 58.8498 150.9 58.2546 149.862 58.536C149.772 58.56 149.718 58.6538 149.742 58.744C149.766 58.8342 149.86 58.8883 149.95 58.8642C150.809 58.6322 151.382 59.1119 151.406 59.1324C151.439 59.16 151.478 59.1732 151.517 59.1732Z" fill="#BC6B55"/>
<path d="M151.141 63.3141C151.175 63.3141 151.209 63.2973 151.228 63.266C151.258 63.2179 151.242 63.1566 151.195 63.1265C150.987 62.9967 150.583 62.6685 150.666 62.4821C150.782 62.2224 151.597 61.1559 151.902 60.7664C151.937 60.7219 151.929 60.6582 151.886 60.6245C151.841 60.5896 151.777 60.598 151.744 60.6413C151.698 60.699 150.633 62.0637 150.482 62.3991C150.306 62.7959 151.009 63.248 151.09 63.2973C151.106 63.3081 151.125 63.3129 151.143 63.3129L151.141 63.3141Z" fill="#BC6B55"/>
<path d="M171.623 99.5716C171.655 99.5716 171.685 99.5572 171.705 99.5308C173.985 96.4335 178.086 96.3193 178.127 96.3181C178.182 96.3181 178.227 96.2712 178.227 96.2147C178.227 96.1582 178.181 96.1161 178.123 96.1149C178.081 96.1149 173.88 96.2328 171.542 99.4093C171.508 99.4538 171.518 99.5175 171.563 99.5512C171.581 99.5644 171.603 99.5704 171.623 99.5704V99.5716Z" fill="#263656"/>
<path d="M170.961 98.4788C170.99 98.4788 171.019 98.4667 171.038 98.4427C173.999 94.9271 177.669 95.2 177.706 95.2024C177.762 95.2084 177.811 95.1663 177.816 95.1098C177.821 95.0545 177.78 95.0052 177.723 95.0004C177.686 94.9968 173.914 94.7118 170.883 98.3116C170.847 98.3549 170.853 98.4186 170.895 98.4547C170.914 98.4703 170.937 98.4788 170.96 98.4788H170.961Z" fill="#263656"/>
<path d="M122.55 57.223C126.013 57.223 128.076 55.7802 128.099 55.7633C128.145 55.7309 128.156 55.6672 128.122 55.6227C128.09 55.577 128.026 55.5662 127.981 55.5986C127.955 55.6179 125.24 57.5115 120.8 56.8983C120.745 56.8911 120.693 56.9296 120.686 56.9849C120.678 57.0402 120.717 57.0919 120.772 57.0991C121.399 57.1857 121.993 57.223 122.55 57.223Z" fill="#263656"/>
<path d="M122.729 58.5504C126.621 58.5504 128.571 57.0523 128.593 57.0342C128.636 56.9994 128.644 56.9356 128.609 56.8924C128.575 56.8491 128.511 56.8407 128.468 56.8755C128.442 56.8948 125.939 58.8113 120.907 58.2426C120.852 58.2366 120.802 58.2763 120.796 58.3316C120.79 58.3869 120.829 58.4374 120.884 58.4434C121.541 58.5179 122.157 58.5504 122.729 58.5504Z" fill="#263656"/>
<path d="M163.365 136.311C163.365 136.311 164.82 124.751 165.284 116.336C165.81 106.784 162.95 100.746 159.05 94.9944C159.05 94.9944 154.778 94.7046 155.878 82.2496L156.852 72.5155C156.852 72.5155 156.164 71.4142 154.778 71.6775L152.765 81.4705L144.64 79.4362C146.084 74.8745 147.621 71.2615 147.621 71.2615C147.056 70.3297 145.564 70.2395 145.564 70.2395C143.684 73.9307 142.426 77.2864 141.909 78.752C141.909 78.752 138.283 83.8716 139.464 87.8729C140.854 92.5861 141.999 94.6469 140.837 98.7901C139.566 103.317 138.511 106.878 138.511 106.878C136.629 112.527 134.306 121.24 133.095 132.458C132.392 138.975 138.936 163.373 138.936 163.373C138.936 163.373 143.983 165.035 150.388 162.681L148.023 136.416C148.023 136.416 148.384 134.67 148.969 132.14C149.038 133.321 149.111 134.498 149.188 135.662C149.703 143.453 155.17 163.373 155.17 163.373C155.17 163.373 160.217 165.035 166.622 162.681L163.365 136.313V136.311Z" fill="#263656"/>
<path d="M149.188 171.308C149.139 171.496 149.056 171.671 148.947 171.825C148.675 172.206 148.237 172.457 147.739 172.46L136.371 172.499C135.805 172.502 135.375 172.177 135.158 171.741C135.091 171.608 135.045 171.465 135.021 171.317C134.949 170.874 135.076 170.393 135.466 170.038L137.034 168.61L138.718 167.074C143.98 167.859 149.01 166.438 149.01 166.438L149.139 168.92L149.238 170.821C149.246 170.99 149.229 171.153 149.188 171.308Z" fill="#3D5577"/>
<path d="M137.777 167.931C137.777 167.931 140.153 165.746 140.858 165.223C141.565 164.7 143.34 165.35 143.148 166.074C142.954 166.799 141.731 167.947 141.731 167.947L137.776 167.931H137.777Z" fill="#3D5577"/>
<path d="M149.189 171.308C149.018 171.965 148.437 172.456 147.74 172.459L136.372 172.499C135.633 172.502 135.125 171.948 135.021 171.317L149.187 171.308H149.189Z" fill="#263656"/>
<path d="M138.936 171.315L137.208 172.052L135.161 171.741C135.094 171.608 135.048 171.465 135.024 171.317C134.952 170.874 135.079 170.393 135.469 170.038L137.037 168.61C137.037 168.61 138.936 168.934 138.938 171.315H138.936Z" fill="#263656"/>
<path d="M149.189 171.308C149.139 171.496 149.056 171.671 148.947 171.825L146.188 171.31C146.186 168.986 149.139 168.92 149.139 168.92L149.238 170.821C149.246 170.99 149.229 171.153 149.189 171.308Z" fill="#263656"/>
<path d="M139.567 169.309C139.531 169.309 139.497 169.29 139.48 169.257C138.96 168.237 137.775 168.031 137.763 168.029C137.711 168.021 137.674 167.97 137.683 167.917C137.691 167.864 137.742 167.828 137.795 167.837C137.848 167.845 139.088 168.059 139.653 169.169C139.678 169.217 139.659 169.276 139.611 169.3C139.597 169.307 139.583 169.311 139.567 169.311V169.309Z" fill="white"/>
<path d="M140.396 168.539C140.36 168.539 140.326 168.52 140.309 168.486C139.789 167.466 138.605 167.261 138.593 167.258C138.54 167.25 138.504 167.199 138.512 167.146C138.52 167.094 138.571 167.057 138.624 167.066C138.677 167.074 139.917 167.288 140.483 168.398C140.507 168.446 140.489 168.505 140.44 168.529C140.426 168.536 140.412 168.54 140.396 168.54V168.539Z" fill="white"/>
<path d="M141.19 167.822C141.154 167.822 141.12 167.803 141.103 167.769C140.582 166.747 139.398 166.544 139.386 166.542C139.334 166.533 139.297 166.483 139.306 166.43C139.314 166.377 139.365 166.341 139.418 166.349C139.471 166.358 140.711 166.572 141.277 167.681C141.301 167.73 141.283 167.788 141.234 167.813C141.22 167.82 141.206 167.823 141.19 167.823V167.822Z" fill="white"/>
<path d="M111.481 53.9599C111.132 53.9599 110.789 53.7904 110.582 53.4766C110.255 52.98 110.392 52.3127 110.887 51.9857L133.419 37.1261C133.916 36.799 134.583 36.9361 134.91 37.4315C135.237 37.928 135.1 38.5953 134.605 38.9224L112.073 53.782C111.89 53.9022 111.685 53.9599 111.481 53.9599Z" fill="#333647"/>
<path d="M131.333 40.5514C131.086 40.5514 130.843 40.4312 130.698 40.21C130.467 39.8601 130.563 39.3876 130.914 39.1567L145.948 29.2423C146.298 29.0114 146.769 29.1076 147.002 29.4587C147.232 29.8086 147.136 30.2811 146.785 30.5119L131.751 40.4264C131.622 40.5118 131.477 40.5514 131.334 40.5514H131.333Z" fill="#F5AD60"/>
<path d="M131.333 40.5515C131.117 40.5515 130.9 40.4589 130.75 40.2798C130.481 39.9587 130.522 39.479 130.844 39.2085L144.339 27.8813C144.66 27.612 145.14 27.6529 145.41 27.9751C145.679 28.2961 145.639 28.7758 145.316 29.0464L131.821 40.3736C131.679 40.4926 131.505 40.5515 131.333 40.5515Z" fill="#F5AD60"/>
<path d="M131.332 40.5515C131.145 40.5515 130.959 40.483 130.812 40.3459C130.506 40.0586 130.491 39.5776 130.779 39.271L142.735 26.5299C143.022 26.2233 143.503 26.2089 143.809 26.4962C144.116 26.7836 144.13 27.2645 143.843 27.5711L131.887 40.3123C131.738 40.4722 131.535 40.5527 131.333 40.5527L131.332 40.5515Z" fill="#F5AD60"/>
<path d="M131.332 40.5515C131.178 40.5515 131.023 40.5046 130.888 40.4084C130.548 40.1631 130.47 39.6882 130.716 39.348L140.711 25.473C140.957 25.1328 141.431 25.0546 141.772 25.3011C142.112 25.5464 142.19 26.0213 141.944 26.3615L131.949 40.2365C131.8 40.4433 131.567 40.5527 131.332 40.5527V40.5515Z" fill="#F5AD60"/>
<path d="M131.333 40.5515C131.055 40.5515 130.787 40.3988 130.654 40.1342C130.465 39.7591 130.615 39.3022 130.989 39.1135L146.716 31.1696C147.091 30.9809 147.548 31.1312 147.737 31.5051C147.925 31.8802 147.775 32.3371 147.401 32.5259L131.675 40.4697C131.565 40.525 131.447 40.5515 131.333 40.5515Z" fill="#F5AD60"/>
<path d="M131.333 40.5514C131.023 40.5514 130.731 40.3603 130.619 40.0513C130.476 39.6569 130.679 39.2205 131.074 39.0774L147.494 33.1054C147.888 32.9623 148.325 33.1655 148.468 33.5599C148.611 33.9542 148.408 34.3907 148.013 34.5338L131.593 40.5057C131.508 40.537 131.42 40.5514 131.333 40.5514Z" fill="#F5AD60"/>
<path d="M131.332 40.5515C130.984 40.5515 130.67 40.311 130.592 39.9563C130.5 39.5463 130.759 39.1399 131.168 39.0485L147.857 35.3261C148.266 35.2347 148.674 35.4932 148.765 35.902C148.856 36.312 148.598 36.7184 148.189 36.8098L131.499 40.5322C131.444 40.5442 131.388 40.5503 131.333 40.5503L131.332 40.5515Z" fill="#F5AD60"/>
<path d="M125.308 49.3538C125.373 48.2837 124.967 42.7566 123.376 43.0752C122.517 43.4852 123.627 44.5661 123.34 46.2614C123.143 47.424 121.893 49.0099 123.391 49.6411C124.077 49.8852 125.279 50.0764 125.308 49.3538Z" fill="#F69D85"/>
<path d="M119.391 44.7849C119.331 44.4735 119.508 44.1537 119.813 44.0467C119.981 43.989 120.153 44.0058 120.296 44.0803C120.311 43.8255 120.476 43.5898 120.728 43.502C120.906 43.4395 121.09 43.466 121.238 43.5537C121.243 43.288 121.409 43.0379 121.671 42.9465C121.999 42.8323 122.323 42.997 122.525 43.282C122.754 43.6054 123.101 44.4182 123.107 44.9677C123.11 45.3151 122.929 45.8045 122.6 45.9187C122.423 45.9812 122.239 45.9548 122.091 45.867C122.086 46.1327 121.92 46.3828 121.658 46.4742C121.491 46.5319 121.319 46.5151 121.176 46.4405C121.16 46.6954 120.995 46.9311 120.743 47.0189C120.612 47.0645 120.478 47.0621 120.358 47.0237C120.418 47.3351 120.241 47.6549 119.936 47.7619C119.608 47.8761 119.257 47.7006 119.153 47.3675L118.6 45.5989C118.497 45.2671 118.678 44.9051 119.008 44.7897C119.139 44.744 119.272 44.7464 119.393 44.7849H119.391Z" fill="#F69D85"/>
<path d="M120.357 47.1247C120.307 47.1247 120.264 47.0886 120.257 47.0381C120.043 45.5628 119.33 44.8643 119.323 44.8583C119.282 44.8198 119.281 44.7561 119.319 44.7152C119.357 44.6743 119.421 44.6731 119.462 44.7116C119.493 44.7416 120.233 45.4606 120.458 47.0092C120.466 47.0645 120.428 47.1162 120.372 47.1235C120.367 47.1235 120.363 47.1235 120.358 47.1235L120.357 47.1247Z" fill="#BC6B55"/>
<path d="M121.175 46.5414C121.175 46.5414 121.171 46.5414 121.168 46.5414C121.113 46.5378 121.071 46.4885 121.074 46.4332C121.16 45.2597 120.229 44.1584 120.22 44.1476C120.183 44.1055 120.188 44.0405 120.23 44.0045C120.272 43.9684 120.336 43.9732 120.373 44.0153C120.414 44.0622 121.369 45.19 121.276 46.4488C121.273 46.5017 121.228 46.5426 121.175 46.5426V46.5414Z" fill="#BC6B55"/>
<path d="M122.091 45.968H122.086C122.03 45.9656 121.987 45.9175 121.99 45.8622C122.039 44.7753 121.169 43.6271 121.159 43.6151C121.125 43.5706 121.134 43.5068 121.178 43.4732C121.223 43.4395 121.286 43.4479 121.32 43.4924C121.357 43.5417 122.245 44.7116 122.192 45.8718C122.189 45.9259 122.145 45.968 122.091 45.968Z" fill="#BC6B55"/>
<path d="M119.011 47.0188C118.964 47.0188 118.923 46.9863 118.912 46.9394C118.912 46.9346 118.813 46.497 118.655 45.992C118.638 45.9391 118.668 45.8814 118.721 45.8645C118.775 45.8477 118.832 45.8778 118.849 45.9307C119.009 46.4429 119.11 46.8889 119.11 46.8937C119.122 46.9478 119.088 47.002 119.033 47.0152C119.025 47.0164 119.018 47.0176 119.011 47.0176V47.0188Z" fill="#BC6B55"/>
<path d="M122.545 48.6516C122.53 48.6516 122.514 48.648 122.5 48.6408C121.825 48.2958 121.094 48.3402 121.087 48.3414C121.029 48.3462 120.982 48.303 120.979 48.2477C120.975 48.1924 121.017 48.1431 121.073 48.1394C121.103 48.137 121.753 48.0974 122.423 48.3811C122.399 48.0914 122.395 47.5058 122.654 46.8794C122.675 46.8277 122.734 46.8037 122.786 46.8241C122.838 46.8457 122.863 46.9047 122.841 46.9564C122.507 47.7667 122.644 48.5242 122.646 48.5314C122.654 48.5699 122.638 48.6084 122.608 48.6312C122.59 48.6444 122.568 48.6516 122.547 48.6516H122.545Z" fill="#BC6B55"/>
<path d="M142.93 161.588C140.148 161.588 138.309 161.106 138.277 161.098C138.209 161.08 138.168 161.009 138.186 160.939C138.204 160.87 138.276 160.829 138.345 160.848C138.399 160.862 143.813 162.277 150.137 160.19C150.204 160.167 150.278 160.204 150.301 160.272C150.323 160.339 150.286 160.412 150.219 160.435C147.512 161.328 144.969 161.587 142.933 161.587L142.93 161.588Z" fill="#3D5577"/>
<path d="M141.526 159.272C139.276 159.272 137.784 159.011 137.754 159.005C137.685 158.992 137.638 158.926 137.651 158.855C137.664 158.785 137.731 158.738 137.801 158.752C137.86 158.763 143.729 159.788 149.79 157.715C149.857 157.692 149.93 157.729 149.953 157.796C149.976 157.863 149.94 157.937 149.873 157.959C146.804 159.009 143.783 159.272 141.526 159.272Z" fill="#3D5577"/>
<path d="M158.64 161.552C156.13 161.552 154.551 161.196 154.522 161.189C154.452 161.173 154.409 161.104 154.426 161.034C154.441 160.964 154.511 160.921 154.581 160.938C154.631 160.95 159.775 162.106 166.294 160.19C166.362 160.169 166.434 160.209 166.454 160.278C166.474 160.346 166.434 160.418 166.366 160.437C163.394 161.312 160.702 161.552 158.638 161.552H158.64Z" fill="#3D5577"/>
<path d="M158.575 158.912C155.915 158.912 153.863 158.509 153.825 158.502C153.756 158.487 153.71 158.42 153.724 158.35C153.739 158.28 153.806 158.235 153.876 158.249C153.947 158.264 161.024 159.651 165.904 157.216C165.968 157.185 166.046 157.21 166.077 157.274C166.108 157.338 166.083 157.416 166.019 157.447C163.703 158.603 160.905 158.912 158.575 158.912Z" fill="#3D5577"/>
<path d="M148.969 132.269C148.902 132.269 148.845 132.217 148.84 132.15C148.833 132.05 148.065 122.124 147.793 116.634C147.79 116.563 147.845 116.502 147.916 116.498C147.988 116.492 148.048 116.55 148.052 116.621C148.323 122.107 149.09 132.03 149.099 132.13C149.105 132.201 149.051 132.263 148.98 132.268C148.976 132.268 148.973 132.268 148.97 132.268L148.969 132.269Z" fill="#3D5577"/>
<path d="M162.013 117.751C161.859 117.751 161.704 117.745 161.548 117.732C160.099 117.613 158.827 116.96 158.145 115.985C156.79 114.048 155.6 105.115 155.549 104.737C155.544 104.698 155.556 104.66 155.583 104.632C155.609 104.605 155.647 104.588 155.685 104.591C159.942 104.822 163.522 103.482 163.558 103.468C163.624 103.443 163.699 103.477 163.725 103.543C163.75 103.609 163.717 103.684 163.65 103.71C163.614 103.723 160.075 105.052 155.828 104.857C155.995 106.071 157.134 114.086 158.358 115.837C158.996 116.749 160.196 117.361 161.57 117.474C162.995 117.591 164.315 117.144 165.194 116.246C165.244 116.195 165.325 116.194 165.377 116.243C165.428 116.292 165.429 116.374 165.379 116.426C164.544 117.28 163.337 117.751 162.015 117.751H162.013Z" fill="#3D5577"/>
<path d="M157.356 107.859C156.961 107.859 156.551 107.851 156.122 107.834C156.051 107.832 155.996 107.772 155.998 107.699C156.001 107.628 156.063 107.572 156.133 107.576C161.69 107.803 164.387 106.39 164.413 106.376C164.476 106.342 164.554 106.365 164.588 106.428C164.621 106.491 164.598 106.569 164.535 106.603C164.432 106.658 162.148 107.859 157.354 107.859H157.356Z" fill="#3D5577"/>
<path d="M160.251 86.7007C160.224 86.7007 160.199 86.6935 160.176 86.6767C160.155 86.661 157.95 85.0896 156.687 84.0856C156.632 84.0411 156.622 83.9606 156.667 83.9041C156.711 83.8488 156.793 83.8392 156.848 83.8836C158.106 84.8828 160.305 86.4506 160.327 86.4663C160.384 86.5071 160.399 86.5877 160.357 86.6466C160.331 86.6815 160.292 86.7007 160.251 86.7007Z" fill="#263656"/>
<path d="M133.465 38.5436C133.918 39.2542 133.71 40.1992 132.998 40.6525L131.66 41.5062C130.949 41.9595 130.004 41.7515 129.551 41.0397C129.098 40.3291 129.306 39.3841 130.018 38.9308L131.356 38.0771C132.066 37.6239 133.011 37.8319 133.465 38.5436Z" fill="#F76C59"/>
</svg>
