<svg width="268" height="198" viewBox="0 0 268 198" fill="none" xmlns="http://www.w3.org/2000/svg">
<path d="M254.62 0H13.15C5.89 0 0 5.89 0 13.15V184.48C0 191.74 5.89 197.63 13.15 197.63H254.62C261.88 197.63 267.77 191.74 267.77 184.48V13.15C267.77 5.89 261.88 0 254.62 0Z" fill="black"/>
<path d="M202.68 86.2899C208.58 84.8899 213.24 79.4499 217.53 75.8599L212.75 67.5099C208.37 71.3999 203.12 76.5799 200.98 78.8999C196.73 83.3099 199.65 87.5099 202.69 86.2899H202.68Z" fill="#FFA88F"/>
<path d="M213.52 66.69C209.82 68.58 206.36 71.76 203.52 74.72C207.17 75.93 208.55 82.8399 207.56 84.1799L216.15 78.3799C219.39 74.9399 220.69 64.97 213.51 66.69H213.52Z" fill="#338C8C"/>
<path d="M236.08 118.21L234.37 164.11H228.96L225.64 118.25L236.08 118.21Z" fill="#FFA88F"/>
<path d="M221.86 116.99L212.81 163.96H206.85L212.16 117.03L221.86 116.99Z" fill="#FFA88F"/>
<path d="M225.27 121.7L223.36 98.84H237.03C237.58 102.33 237.3 111.06 236.72 121.7C233.45 122.64 229.65 122.67 225.27 121.7Z" fill="#267FBF"/>
<path d="M210.92 121.7L213.02 99.09H227.3L222.36 121.7C218.25 122.75 214.48 122.57 210.92 121.7Z" fill="#267FBF"/>
<path d="M234.44 160.67C234.96 161.84 237.28 162.29 239.92 162.74C242.76 162.53 244.1 165.65 242.68 166.95H228.64C228.42 166 228.62 163.25 228.77 161.89C229.99 162.7 231.28 162.54 232.61 162.04C231.63 159.64 234.24 159.25 234.44 160.67Z" fill="#FFA88F"/>
<path d="M238.63 162.45C238.63 162.45 234.94 162.91 234.77 165.56H228.2V167.15H243.25C243.25 167.15 243.61 165.72 243.04 164.17C242.47 162.62 238.83 162.42 238.63 162.45Z" fill="#154B73"/>
<path d="M203.37 162.43C205.07 162.03 206.88 161.43 207.3 160.47C207.51 158.98 210.87 159.57 209.84 162.08C211.23 162.61 211.91 162.55 213.19 161.7C213.35 163.12 213.55 166.01 213.32 167.01C213.32 167.01 208.64 167.01 203.12 167.01L203.35 162.43H203.37Z" fill="#FFA88F"/>
<path d="M206.13 161.67C206.13 161.67 210 162.76 210.17 165.54H213.78V167.21H200.29C199.43 164.42 203.02 161.21 206.13 161.67Z" fill="#154B73"/>
<path d="M207.12 165.52H200.99C201.04 164.7 201.95 163.28 204.47 163.3C207.44 163.32 207.13 165.52 207.13 165.52H207.12Z" fill="#FFA88F"/>
<path d="M242.65 165.52H238.12C238.16 164.82 238.52 163.24 240.38 163.25C242.57 163.27 242.65 165.52 242.65 165.52Z" fill="#FFA88F"/>
<path d="M246.69 84.23C240.62 84.33 234.76 80.22 229.72 77.8L232.29 68.53C237.5 71.21 243.87 74.93 246.52 76.65C251.74 79.87 249.94 84.66 246.69 84.23Z" fill="#FFA88F"/>
<path d="M231.33 67.91C235.38 68.83 239.52 71.05 243 73.21C239.76 75.28 240.14 82.32 241.43 83.38L231.67 79.89C227.68 77.36 223.94 68.02 231.33 67.91Z" fill="#338C8C"/>
<path d="M241.91 76.69C241.13 74.01 239.6 66.33 239.01 58.92L241.98 58.33C244.26 62.92 248.33 70.41 249.41 76.84C250 80.35 250.39 83.96 247.11 84.14C245.07 84.25 243.43 82.08 241.92 76.68L241.91 76.69Z" fill="#FFA88F"/>
<path d="M228.07 67.17C230.4 67.45 232.32 68.12 233.41 69.05C235.08 74.16 236.19 79.58 236.88 85.21L236.91 85.43L237.06 86.81C237.67 92.46 237.87 98.31 237.81 104.3C236.65 105.09 234.32 105.69 231.48 106.07C231.91 80.58 229 69.9 228.07 67.17Z" fill="#338C8C"/>
<path d="M212.83 87.9C212.88 87.37 212.94 86.84 212.99 86.32C213.52 81.11 214.11 76.01 214.9 69.67C216.21 68.95 217.6 68.4 218.99 67.99C220.22 71.78 222.95 82.93 222.56 106.55C218.09 106.47 213.8 105.92 211.35 104.8C211.88 98.15 212.34 92.91 212.83 87.9Z" fill="#338C8C"/>
<path d="M218.99 67.99C222.15 67.06 225.38 66.86 228.07 67.18C229 69.91 231.9 80.59 231.48 106.08C228.79 106.44 225.64 106.61 222.56 106.56C222.95 82.94 220.22 71.78 218.99 68V67.99Z" fill="white"/>
<path d="M213.99 56.88C213.99 56.88 211.76 62.31 213.99 63.62C217.89 65.91 224.94 49.66 224.94 49.66L213.99 56.88Z" fill="#267FBF"/>
<path d="M229.07 51.94C228.48 50.47 226.9 45.25 219.89 45.78C213.04 46.3 209.23 56.74 218.3 61.8C225.61 65.89 231.74 57.1 229.08 51.94H229.07Z" fill="#59330B"/>
<path d="M228.25 68.97L228.01 67.93L227.13 64.21L225.98 59.29L219.77 59.46L219.56 69.8C220.28 73.55 229.7 72.04 228.25 68.97Z" fill="#FFA88F"/>
<g style="mix-blend-mode:soft-light" opacity="0.5">
<path d="M221.46 63.28C221.46 63.28 225.7 67.18 228.01 67.93L227.13 64.21L221.46 63.28Z" fill="#0D0D0D"/>
</g>
<path d="M229.96 53.82C232.07 56.83 232.8 61.81 229.28 64.3C225.77 66.8 220.47 65.1 217.56 61.01C214.65 56.91 215.14 51.57 218.65 49.07C222.16 46.57 227.94 48.52 229.96 53.82Z" fill="#FFA88F"/>
<path d="M227.1 58.19C227.1 58.19 227.12 58.19 227.13 58.19C227.16 58.17 227.94 57.7 227.85 57.03C227.79 56.52 227.21 56.59 226.83 56.63C226.71 56.64 226.58 56.66 226.53 56.65L226.01 55.95C226.01 55.95 225.94 55.91 225.92 55.94C225.89 55.96 225.88 56 225.91 56.03L226.46 56.76H226.48C226.56 56.8 226.69 56.79 226.87 56.76C227.32 56.71 227.69 56.69 227.73 57.04C227.8 57.62 227.08 58.06 227.07 58.06C227.04 58.08 227.03 58.12 227.05 58.15C227.06 58.17 227.09 58.18 227.11 58.18L227.1 58.19Z" fill="#733602"/>
<path d="M227.3 54.63L227.49 54.5C227.26 54.16 227.22 53.81 227.34 53.73C227.46 53.64 227.78 53.8 228.01 54.14L228.2 54.01C227.89 53.56 227.47 53.36 227.21 53.54C226.95 53.72 226.99 54.19 227.3 54.63Z" fill="#522601"/>
<path d="M221.59 57.77L221.78 57.64C221.55 57.3 221.51 56.95 221.63 56.87C221.75 56.78 222.07 56.94 222.3 57.28L222.49 57.15C222.18 56.7 221.75 56.5 221.5 56.68C221.24 56.86 221.28 57.33 221.59 57.77Z" fill="#522601"/>
<path d="M225.05 61.61C227.35 61.61 228.87 59.76 228.89 59.74C228.91 59.71 228.91 59.67 228.88 59.64C228.85 59.62 228.81 59.62 228.78 59.65C228.76 59.68 226.27 62.7 222.86 60.9C222.83 60.88 222.79 60.9 222.77 60.93C222.75 60.96 222.77 61 222.8 61.02C223.61 61.45 224.36 61.61 225.05 61.61Z" fill="#733602"/>
<path d="M228.01 50.67C228.01 50.67 226.48 49.25 221.92 52.17C215.37 56.35 217.97 61.55 217.97 61.55C217.97 61.55 211.85 54.65 217.64 48.85C223.43 43.06 227.64 50.05 228.01 50.67Z" fill="#59330B"/>
<path d="M214.01 57.99L227.68 48.98C227.68 48.98 223.46 42.3 216.44 46.5C209.12 50.87 214.01 57.99 214.01 57.99ZM221.05 48.87C223 47.52 224.34 49.41 224.34 49.41L220.35 52.27C220.35 52.27 218.71 50.49 221.06 48.87H221.05Z" fill="#267FBF"/>
<path d="M217.01 61.42C217.932 61.42 218.68 60.6723 218.68 59.75C218.68 58.8276 217.932 58.08 217.01 58.08C216.088 58.08 215.34 58.8276 215.34 59.75C215.34 60.6723 216.088 61.42 217.01 61.42Z" fill="#FFA88F"/>
<g style="mix-blend-mode:multiply" opacity="0.25">
<path d="M209.1 73.74C209.1 73.74 212.97 73.92 214.32 75.21C217.61 73.51 229.99 71.34 234.46 73.8C237.04 72.57 240.39 71.66 240.39 71.66L240.22 69.39L209.11 73.73L209.1 73.74Z" fill="black"/>
</g>
<path d="M204.667 74.1471L240.391 71.674L237.918 35.9495L202.194 38.4225L204.667 74.1471Z" fill="white"/>
<path d="M213.63 53.65L214.49 64.25C214.59 65.43 228.99 64.25 228.9 63.07L228.04 52.47L213.63 53.65ZM219.38 57.21C219.3 56.23 220.03 55.37 221.01 55.29C221.99 55.21 222.86 55.94 222.94 56.92C223 57.64 222.62 58.3 222.02 58.63L222.27 61.64C222.3 62.04 222 62.4 221.6 62.43C221.2 62.46 220.85 62.16 220.81 61.76L220.56 58.76C219.91 58.53 219.44 57.94 219.38 57.22V57.21Z" fill="#444444"/>
<path d="M214.83 52.8L216.29 52.68L216.23 51.97C216.03 49.5 217.88 47.32 220.35 47.12C222.82 46.92 225 48.77 225.2 51.24L225.26 51.95L226.72 51.83L226.66 51.12C226.39 47.84 223.51 45.4 220.23 45.66C216.95 45.93 214.51 48.81 214.77 52.09L214.83 52.8Z" fill="#444444"/>
<path d="M198.77 76.98C199.09 74.2 200.65 66.54 202.99 59.48L205.95 60.09C206.27 65.2 207.11 73.69 205.62 80.04C204.8 83.51 203.76 86.99 200.66 85.88C198.74 85.19 198.07 82.55 198.77 76.99V76.98Z" fill="#FFA88F"/>
<path d="M205.23 57.66C205.19 58.67 206.35 58.66 205.98 60.53C205.64 62.25 203.07 61.33 202.78 59.93C202.78 59.93 202.01 57.68 201.76 56.18C201.52 54.68 202.86 50.96 203 51.07C203.72 51.18 203.21 54.49 203.21 54.49C203.21 54.49 204.49 52.58 205.19 52.13C206.04 52.39 203.97 55.23 203.97 55.23C204.4 54.74 204.95 54.44 205.44 54.39C206.15 54.32 206.78 54.7 207.02 55.11C207.12 55.49 205.81 55.43 205.66 55.23L204.87 55.97C205.42 55.71 206.81 55.95 207.24 57.01C207.15 57.71 205.89 56.8 205.89 56.8C205.89 56.8 205.26 57.03 205.24 57.67L205.23 57.66Z" fill="#FFA88F"/>
<path d="M239.12 56.91C239.56 57.82 238.5 58.27 239.58 59.84C240.58 61.29 242.57 59.41 242.28 58.01C242.28 58.01 242.09 55.63 241.71 54.17C241.33 52.7 238.62 49.82 238.53 49.98C237.92 50.37 239.7 53.2 239.7 53.2C239.7 53.2 237.77 51.96 236.94 51.82C236.26 52.4 239.3 54.17 239.3 54.17C238.71 53.9 238.09 53.83 237.61 53.99C236.93 54.21 236.51 54.81 236.45 55.28C236.51 55.66 237.68 55.09 237.75 54.85L238.77 55.21C238.16 55.19 236.98 55.97 237.01 57.11C237.37 57.71 238.16 56.38 238.16 56.38C238.16 56.38 238.83 56.34 239.11 56.92L239.12 56.91Z" fill="#FFA88F"/>
<path d="M167.23 89.22L171.85 72.4C170.6 68.32 152.03 68.4 150.66 72.4L150.9 87.88C154.3 87.65 160.84 87.77 167.23 89.22Z" fill="#48C6C6"/>
<path d="M150.9 87.88C148.84 92.64 148.01 96.69 147.97 99.28L170.75 97.82C170.5 95.96 169.61 91.91 167.31 88.8C162.26 87.05 156.79 86.74 150.9 87.89V87.88Z" fill="#154B73"/>
<path d="M171.86 66.44C172.31 66.44 172.75 66.32 173.15 66.08C174.36 65.37 174.76 63.8 174.04 62.6C173.43 61.57 172.16 61.1 171.03 61.49C170.89 61.54 170.82 61.68 170.87 61.82C170.92 61.96 171.07 62.03 171.2 61.98C172.1 61.67 173.11 62.04 173.6 62.86C174.17 63.82 173.85 65.06 172.89 65.63C172.43 65.91 171.88 65.98 171.36 65.85C170.84 65.72 170.4 65.39 170.12 64.92C169.69 64.2 169.76 63.27 170.29 62.62C170.38 62.51 170.36 62.34 170.25 62.25C170.14 62.16 169.97 62.18 169.88 62.29C169.21 63.11 169.13 64.28 169.67 65.19C170.02 65.77 170.57 66.19 171.23 66.36C171.44 66.41 171.65 66.44 171.86 66.44Z" fill="#FE931F"/>
<path d="M157.46 100.22L158.23 110.68L159.38 126.24C157.58 131.91 157.06 137.81 157.1 143.47C157.14 149.88 158.06 156 158.48 161.18L162.25 161.15L166.24 132.85L168.42 117.22L170.63 101.43C171.4 93.01 158.23 91.8 157.46 100.22Z" fill="#FFA88F"/>
<path d="M165.72 103.15C162.8 103.01 159.91 103.36 157.09 104.05C156.51 98.26 158.37 95.15 160.59 93.38C163.34 91.18 168.25 91.92 170.14 95.75C171.21 97.93 170.75 101.5 170.29 103.81C170.22 103.79 167.32 103.24 165.71 103.16L165.72 103.15Z" fill="#154B73"/>
<path d="M157.1 143.47L166.24 132.84L168.42 117.21L158.22 110.68L159.37 126.24C157.57 131.91 157.05 137.81 157.09 143.47H157.1Z" fill="#F58160"/>
<path d="M166.6 167.15C166.5 166.28 163.85 165.32 163.85 165.32L162.77 157.86V157.66H160.34L158.09 157.68C157.09 158.17 157.13 159.36 157.31 160.65L161.27 167.15H166.6Z" fill="#0E324D"/>
<path d="M158 167.15L160.33 160.25L157.3 160.62V167.15H158Z" fill="#0E324D"/>
<path d="M156.39 101.58L156.47 104.32C156.47 104.32 160.7 102.83 164.22 103.07C167.74 103.3 170.56 104.16 170.56 104.16L170.71 102.25C170.71 102.25 164.69 99.29 156.39 101.58Z" fill="white"/>
<path d="M161.07 98.27C161.07 98.27 175.7 114.51 175.7 118.4C175.7 122.29 153.23 139.59 153.23 139.59L150.39 137.12C155.08 128.97 159.72 121.35 165.94 117.16L151.75 106.93C147.66 102.2 154.98 92.86 161.06 98.27H161.07Z" fill="#FFA88F"/>
<path d="M151.86 107.15C148.82 104.23 147.83 101.37 148 99.04C148.24 95.52 151.35 93.24 156.2 93.6C158.2 93.75 160.74 96.64 161.58 98.84C157.35 99.73 153.76 103.2 151.86 107.15Z" fill="#154B73"/>
<path d="M151.85 79.04C151.85 79.04 143.59 72.51 139.86 68.7C137.86 66.65 139.53 62.52 143.66 64.29C150.07 67.04 155.82 71.17 155.82 71.17C160.15 74.56 155.6 80.87 151.85 79.04Z" fill="#48C6C6"/>
<path d="M144.35 53.15L146.11 49.47L147.99 49.6L147.48 54.05L144.35 53.15Z" fill="#FFA88F"/>
<path d="M139.09 65.79C138.69 68.82 142.16 71.32 143.92 68.2C145.64 66.25 146.25 60.06 147.88 52.05L145.27 51.26C141.77 57.23 139.09 65.8 139.09 65.8V65.79Z" fill="#48C6C6"/>
<path d="M157.57 62C157.84 62.37 158.17 62.76 158.54 63.16C161.12 65.9 165.56 68.63 169.75 66.47C172.42 65.05 173.59 59.12 170.84 55.91C169.99 53.64 168.6 50.95 167.1 49.9C165.18 48.55 162.85 48.25 160.44 49.09C156.37 50.5 154.08 57.22 157.57 62Z" fill="#FFA88F"/>
<path d="M157.25 70.72C157.89 72.35 165.17 73.77 165.17 71.98L167.26 61.5L160.94 59.62L157.25 70.72Z" fill="#FFA88F"/>
<path d="M165.91 68.61C165.91 68.61 164.13 69.37 161.7 68.61C159.26 67.85 158.59 66.86 158.59 66.86C158.59 66.86 157.72 66.64 157.18 67.9C156.64 69.16 155.63 69.66 155.39 70.57C155.15 71.47 163.21 74.54 165.39 73.66C167.58 72.79 165.26 70.86 165.92 69.98C166.58 69.1 165.92 68.61 165.92 68.61H165.91Z" fill="#48C6C6"/>
<path d="M168.18 59.93C168.18 59.93 168.22 59.93 168.24 59.91C168.7 59.61 168.71 59.1 168.65 58.87V58.83L166.15 57.12C166.1 57.09 166.03 57.1 166 57.15C165.97 57.2 165.98 57.27 166.03 57.3L168.45 58.96C168.47 59.09 168.5 59.48 168.12 59.72C168.07 59.75 168.05 59.82 168.09 59.87C168.11 59.9 168.15 59.92 168.18 59.92V59.93Z" fill="#B56148"/>
<path d="M170.26 60.85L164.83 62.55C164.83 62.55 165.85 64.82 168.36 64.37C171.09 63.88 170.26 60.84 170.26 60.84V60.85Z" fill="#F13005"/>
<path d="M162.2 58.23C162.2 58.23 162.25 58.23 162.27 58.21C163.5 57.23 164.46 57.51 164.47 57.52C164.53 57.54 164.6 57.5 164.61 57.44C164.63 57.38 164.6 57.32 164.53 57.3C164.49 57.29 163.45 56.98 162.12 58.03C162.07 58.07 162.06 58.14 162.1 58.19C162.12 58.22 162.16 58.23 162.19 58.23H162.2Z" fill="#0D0D0D"/>
<path d="M167.1 56.16C167.1 56.16 167.18 56.14 167.2 56.1C167.22 56.07 167.61 55.3 169.07 55.23C169.13 55.23 169.18 55.17 169.18 55.11C169.18 55.05 169.12 55 169.06 55C167.46 55.09 167.01 55.97 167 56C166.97 56.06 167 56.13 167.05 56.15C167.07 56.15 167.08 56.16 167.1 56.16Z" fill="#0D0D0D"/>
<path d="M159.05 62.51C159.967 62.51 160.71 61.7668 160.71 60.85C160.71 59.9332 159.967 59.19 159.05 59.19C158.133 59.19 157.39 59.9332 157.39 60.85C157.39 61.7668 158.133 62.51 159.05 62.51Z" fill="#FFA88F"/>
<path d="M157.63 66.33C157.63 66.33 157.68 66.33 157.71 66.33C158.39 66.31 159.02 66.03 159.49 65.53C160.31 64.66 160.41 63.31 159.72 62.33C159.64 62.21 159.48 62.18 159.36 62.27C159.24 62.35 159.21 62.51 159.3 62.63C159.85 63.41 159.77 64.48 159.11 65.18C158.74 65.57 158.24 65.8 157.7 65.81C157.16 65.83 156.65 65.63 156.25 65.26C155.86 64.89 155.63 64.39 155.62 63.85C155.6 63.31 155.8 62.8 156.17 62.4C156.75 61.79 157.66 61.6 158.43 61.93C158.56 61.99 158.72 61.93 158.77 61.79C158.83 61.66 158.77 61.5 158.63 61.45C157.66 61.04 156.51 61.28 155.79 62.05C155.32 62.54 155.08 63.19 155.1 63.87C155.12 64.55 155.4 65.18 155.9 65.65C156.38 66.1 156.99 66.34 157.64 66.34L157.63 66.33Z" fill="#FE931F"/>
<path d="M185.07 78.71C184.8 79.35 184.26 79.9 183.41 80.21C182.93 80.39 182.34 80.49 181.65 80.48C180.22 80.46 178.79 80.36 177.43 80.2C174.51 79.86 171.86 79.27 170.07 78.82C168.6 78.45 167.7 78.16 167.7 78.16C163.74 77.06 163.78 72.9 165.8 70.99C165.95 70.84 166.12 70.71 166.29 70.59C166.89 70.19 167.61 69.97 168.42 70.01C168.42 70.01 170.01 70.46 172.23 71.13C173.44 71.5 174.85 71.93 176.29 72.39C177.3 72.72 178.33 73.06 179.33 73.4C180.87 73.93 182.31 74.47 183.47 74.96C184.57 75.43 185.22 76.48 185.27 77.54C185.29 77.94 185.23 78.34 185.07 78.71Z" fill="#48C6C6"/>
<path d="M185.27 77.54C185.23 78.01 185.16 78.4 185.07 78.71C185.05 78.8 185.02 78.87 185 78.94C184.77 79.77 184.16 80.16 183.41 80.21C182.01 80.31 180.14 79.24 179.44 77.7C179.41 76.31 179.36 74.87 179.33 73.39C179.33 72.97 179.31 72.54 179.31 72.11C179.31 71.99 179.31 71.88 179.31 71.76C179.27 68.83 179.33 65.75 179.65 62.55C179.78 61.35 179.94 60.13 180.15 58.9L183.54 58.97C183.75 60.29 183.96 61.64 184.15 63C184.98 68.79 185.55 74.59 185.27 77.54Z" fill="#48C6C6"/>
<path d="M179.64 62.56C180.96 62.69 183.08 62.9 184.14 63C183.95 61.65 183.74 60.29 183.53 58.97L180.14 58.9C179.93 60.13 179.77 61.35 179.64 62.55V62.56Z" fill="#FFA88F"/>
<path d="M149.58 147.92C150.18 147.28 149.23 144.64 149.23 144.64L154.26 139.02L154.41 138.89L153.91 138.3L152.84 137.03L151.39 135.31C150.37 134.86 149.48 135.65 148.61 136.62L146.16 143.83L149.58 147.92Z" fill="#0E324D"/>
<path d="M144.06 141.32L150.85 138.69L148.62 136.6L143.62 140.79L144.06 141.32Z" fill="#0E324D"/>
<g style="mix-blend-mode:multiply" opacity="0.2">
<path d="M172.23 71.13C173.44 71.5 174.85 71.93 176.29 72.39L171.67 72.8C171.67 72.8 169 71.43 165.79 70.98C165.38 70.92 164.95 70.9 164.53 70.86C160.85 70.53 153.67 71 153.57 71.27C153.37 70.59 152.17 69.88 150.62 69.15L166.29 70.58L172.23 71.12V71.13Z" fill="black"/>
</g>
<path d="M181.25 71.95L179.3 72.12C179.3 72 179.3 71.89 179.3 71.77L181.26 71.95H181.25Z" fill="#399E9E"/>
<path d="M152.14 107.33C152.14 107.33 154.41 103.06 155.81 101.93C157.21 100.8 160.19 98.69 161.75 98.85C161.28 97.3 160.43 97.07 160.13 97.12C160.13 97.12 157.21 97.39 154.24 100.15C151.27 102.91 150.57 106.04 150.57 106.04C150.94 106.9 151.49 107.25 152.14 107.34V107.33Z" fill="white"/>
<path d="M183.72 36.2421L147.996 33.769L145.523 69.4935L181.247 71.9666L183.72 36.2421Z" fill="white"/>
<path d="M157.88 50.3L157.02 60.9C156.92 62.08 171.33 63.25 171.43 62.08L172.29 51.48L157.88 50.3ZM165.35 56.57L165.1 59.57C165.07 59.97 164.71 60.28 164.31 60.24C163.9 60.21 163.61 59.85 163.64 59.45L163.89 56.44C163.3 56.11 162.91 55.45 162.97 54.73C163.05 53.75 163.91 53.02 164.9 53.1C165.88 53.18 166.61 54.04 166.53 55.02C166.47 55.75 165.99 56.33 165.35 56.56V56.57Z" fill="#444444"/>
<path d="M171.09 50.62L169.63 50.5L169.69 49.79C169.89 47.32 168.04 45.14 165.57 44.94C163.1 44.74 160.92 46.59 160.72 49.06L160.66 49.77L159.2 49.65L159.26 48.94C159.53 45.66 162.41 43.22 165.69 43.48C168.97 43.75 171.41 46.63 171.15 49.91L171.09 50.62Z" fill="#444444"/>
<path d="M183.54 59.6C183.54 59.6 184.4 56.69 184.37 55.73C184.13 54.43 183.11 53.67 183.11 53.67C183.11 53.67 181.91 54.17 180.75 54.86C180.86 55.17 182.26 54.71 182.26 54.71C182.26 54.71 181.25 55.77 180.6 56.38C180.74 56.78 182.43 55.74 182.43 55.74C182.43 55.74 181.17 56.95 180.68 57.5C181.19 57.95 182.23 56.89 182.23 56.89C182.23 56.89 181.77 58.9 181.93 59.72C182.19 61.1 183.2 60.57 183.55 59.61L183.54 59.6Z" fill="#FFA88F"/>
<path d="M145.93 49.8C145.93 49.8 145.18 47.2 145.2 46.24C145.96 44.54 146.81 43 147.34 41.85C147.72 41.97 147.06 44.77 147.06 44.77C147.06 44.77 148.49 45.91 149.14 46.52C149 46.92 147.14 46.05 147.14 46.05C147.14 46.05 148.41 47.45 148.9 48C148.39 48.45 147.35 47.39 147.35 47.39C147.35 47.39 147.37 48.88 147.22 49.69C146.96 51.07 146.28 50.76 145.93 49.8Z" fill="#FFA88F"/>
<path d="M146.73 44.38L149.29 44.2599C149.29 44.2599 149.14 45.0399 147.17 45.0299C146.1 44.9899 146.74 44.38 146.74 44.38H146.73Z" fill="#FFA88F"/>
<path d="M99.8799 65.28C96.5299 63.09 91.0099 64.39 84.5799 67C78.0999 68.04 75.2799 72.02 76.9899 74.35C77.0099 74.37 77.0399 74.39 77.0599 74.41C81.5499 78.23 92.7299 75.99 97.1599 74.2C99.6899 73.18 102.81 67.31 99.8699 65.27L99.8799 65.28Z" fill="#267FBF"/>
<path d="M108.49 66.16C110.36 62.63 115.83 61.11 122.73 60.29C128.91 58.08 133.3 60.21 132.92 63.07C132.91 63.1 132.9 63.13 132.89 63.16C130.8 68.67 119.93 72.1 115.18 72.67C112.47 72.99 106.91 69.35 108.5 66.16H108.49Z" fill="#267FBF"/>
<path d="M98.9499 70.14C94.7299 68.52 94.3999 63.94 97.5499 62.27C100.7 60.6 112.5 59.71 111.68 65.47C110.86 71.23 101.55 71.14 98.9399 70.14H98.9499Z" fill="#267FBF"/>
<path d="M117.52 96.0799C116.61 121.47 114.57 140.14 112.51 164.62C108.67 165.11 106.07 164.91 106.39 162.85C105.78 142.97 105.02 117.66 102.95 95.6899L117.52 96.0799Z" fill="#154B73"/>
<path d="M107.38 97.86C103.33 122.95 97.8 142.19 92.73 166.23C88.86 166.24 86.2999 165.83 86.8799 163.82C88.0799 141.41 91.5799 118.46 92.2399 96.4L107.38 97.86Z" fill="#154B73"/>
<path d="M95.26 67.55C95.26 67.55 100.4 62.82 111.98 64.08C114.6 66.7 116.81 91.82 117.3 101.72C111.39 105.87 92.96 104.18 92.08 101.79L95.26 67.54V67.55Z" fill="white"/>
<path d="M111.12 106.95C114.66 106.61 117.14 106.16 119.2 104.71C119.71 86.45 114.59 66.7 111.97 64.08C110.33 62.27 108.49 62.56 108.49 64.16C112.41 75.71 113.72 94.86 111.12 106.95Z" fill="#267FBF"/>
<path d="M102.59 67.87C100.47 64.41 93.3999 66.85 93.0399 71.66C93.7099 83.18 91.5999 96.07 89.9899 104.59C91.9399 106.23 99.2399 107.01 102.14 106.95C103.93 97.56 105.87 77.75 102.58 67.87H102.59Z" fill="#267FBF"/>
<path d="M115.24 162.81L113.68 162.33C112.65 160.31 108.26 160.56 108.87 163.02C107.15 163.28 106.24 162.42 106.24 162.42C105.47 163.89 105.42 165.46 105.73 167.08H115.03L115.24 162.81Z" fill="white"/>
<path d="M110.33 167.08C110.33 167.08 110.33 167.04 110.33 167.02C110.33 164.65 112.25 162.73 114.62 162.73C116.99 162.73 118.91 164.65 118.91 167.02C118.91 167.04 118.91 167.06 118.91 167.08H110.33Z" fill="white"/>
<path d="M112.12 166.15H105.35V167.12H112.12V166.15Z" fill="white"/>
<path d="M84.61 162.84L86.16 162.37C87.18 160.36 91.54 160.61 90.94 163.06C92.65 163.31 93.55 162.46 93.55 162.46C94.31 163.92 94.36 165.48 94.06 167.09H84.82L84.61 162.85V162.84Z" fill="white"/>
<path d="M89.48 167.08C89.48 167.08 89.48 167.04 89.48 167.02C89.48 164.67 87.57 162.76 85.22 162.76C82.87 162.76 80.96 164.67 80.96 167.02C80.96 167.04 80.96 167.06 80.96 167.08H89.48Z" fill="white"/>
<path d="M94.37 166.17H87.64V167.13H94.37V166.17Z" fill="white"/>
<path d="M108.82 61.51C109.74 61.78 110.92 62.41 111.7 63.86C113.33 67.37 111.84 72.44 111.15 76.29C110.48 70.98 109.55 68.25 108.76 65.76C108.96 64.72 109.18 63.68 108.83 61.5L108.82 61.51Z" fill="#267FBF"/>
<path d="M101.52 65.8899C102.48 67.2199 103.91 69.6099 102.74 78.0599C101.17 74.8499 90.8999 66.4199 97.5499 62.2599C96.7499 64.4999 100.56 64.5499 101.52 65.8799V65.8899Z" fill="#267FBF"/>
<g style="mix-blend-mode:multiply" opacity="0.2">
<path d="M86.4799 69.85L93.9299 70.44C93.9299 70.44 105.59 65.9 114.11 68.97C115.16 67.29 121.22 64.89 121.22 64.89L120.68 60.73L86.0499 66.59L86.4899 69.84L86.4799 69.85Z" fill="black"/>
</g>
<g style="mix-blend-mode:soft-light" opacity="0.5">
<path d="M100.23 64.42C101.83 64 105.93 61.8 107.26 59.17L100.65 60.46L100.23 64.41V64.42Z" fill="#0D0D0D"/>
</g>
<path d="M93.7599 48.9C93.6099 49.07 93.1599 54.95 96.9999 55.14C100.85 55.33 95.7999 46.53 93.7599 48.9Z" fill="#59330B"/>
<path d="M94.9398 53.11C94.0898 57.07 97.8298 62.53 102.22 62.13C106.62 61.73 110.31 56.78 109.85 51.65C109.38 46.52 105.44 42.69 101.04 43.09C96.6398 43.49 92.9698 47.65 94.9398 53.11Z" fill="#FF9475"/>
<path d="M106.92 46.7C106.92 46.7 104.74 49.26 98.7599 50.04C93.2999 50.76 89.7899 48.66 89.9699 45.33C91.2499 46.48 93.5499 44.64 95.2599 43.28C96.6799 42.15 104.78 37.84 107.51 44.57C112.44 45.98 111.37 50.69 110.23 52.78C108.03 51.08 106.93 46.7 106.93 46.7H106.92Z" fill="#59330B"/>
<path d="M107.58 48.71C107.58 48.71 109.02 51.74 108.81 53.3C109.76 51.89 110.66 51.78 110.67 51.76C110.67 51.74 110.68 47.97 107.58 48.7V48.71Z" fill="#59330B"/>
<path d="M100.08 55.51C99.7699 55.51 99.2999 55.44 99.0599 55.07C98.7699 54.63 99.2599 54.3 99.5799 54.08C99.6799 54.01 99.7899 53.94 99.8299 53.89L99.7699 52.99C99.7699 52.99 99.7999 52.92 99.8299 52.92C99.8699 52.92 99.8999 52.95 99.8999 52.98L99.9599 53.91V53.93C99.9199 54.01 99.8099 54.09 99.6499 54.19C99.2699 54.45 98.9699 54.68 99.1599 54.98C99.4899 55.48 100.34 55.34 100.35 55.34C100.39 55.34 100.42 55.36 100.43 55.4C100.43 55.44 100.41 55.47 100.37 55.48C100.36 55.48 100.23 55.5 100.06 55.5L100.08 55.51Z" fill="#733602"/>
<path d="M97.6299 52.5C97.6799 52.97 97.5199 53.37 97.2799 53.4C97.0399 53.43 96.7999 53.07 96.7499 52.6C96.6999 52.13 96.8599 51.73 97.0999 51.7C97.3399 51.67 97.5799 52.03 97.6299 52.5Z" fill="#522601"/>
<path d="M103.978 52.4609C104.219 52.436 104.376 52.0373 104.328 51.5703C104.28 51.1033 104.045 50.745 103.803 50.7699C103.562 50.7948 103.405 51.1935 103.453 51.6605C103.501 52.1274 103.736 52.4858 103.978 52.4609Z" fill="#522601"/>
<path d="M101 58.27C100.51 58.27 100.19 58.21 100.18 58.21C100.14 58.21 100.12 58.17 100.12 58.13C100.12 58.09 100.16 58.07 100.2 58.07C100.24 58.07 104.19 58.77 105.64 55.1C105.65 55.06 105.69 55.05 105.73 55.06C105.77 55.07 105.78 55.11 105.77 55.15C104.69 57.88 102.27 58.27 100.99 58.27H101Z" fill="#733602"/>
<path d="M108.43 53.92C108.72 54.71 109.6 55.11 110.39 54.81C111.18 54.52 111.58 53.64 111.28 52.85C110.98 52.06 110.11 51.66 109.32 51.96C108.53 52.25 108.13 53.13 108.43 53.92Z" fill="#FF9475"/>
<path d="M116.262 30.1575L81.5243 35.1138L86.4806 69.852L121.219 64.8957L116.262 30.1575Z" fill="white"/>
<path d="M94.3799 48.94L95.7199 59.27C95.8699 60.42 109.91 58.59 109.76 57.44L108.42 47.11L94.3799 48.94ZM102.83 53.42L103.21 56.35C103.26 56.74 102.99 57.11 102.6 57.16C102.2 57.21 101.84 56.93 101.79 56.54L101.41 53.61C100.77 53.42 100.27 52.86 100.18 52.16C100.06 51.2 100.73 50.33 101.69 50.2C102.65 50.08 103.52 50.75 103.65 51.71C103.74 52.42 103.4 53.08 102.83 53.43V53.42Z" fill="#444444"/>
<path d="M107.1 46.53L105.68 46.72L105.59 46.02C105.28 43.61 103.06 41.9 100.65 42.22C98.2399 42.53 96.5299 44.75 96.8499 47.16L96.9399 47.86L95.5199 48.05L95.4299 47.35C95.0099 44.16 97.2699 41.22 100.47 40.8C103.66 40.38 106.6 42.64 107.02 45.84L107.11 46.54L107.1 46.53Z" fill="#444444"/>
<path d="M85.1199 50.8C85.0799 51.81 86.2399 51.8 85.8699 53.67C85.5299 55.4 82.9599 54.47 82.6699 53.07C82.6699 53.07 81.8999 50.82 81.6499 49.32C81.4099 47.82 82.7499 44.1 82.8899 44.21C83.6099 44.32 83.0999 47.63 83.0999 47.63C83.0999 47.63 84.3799 45.72 85.0799 45.27C85.9299 45.53 83.8599 48.37 83.8599 48.37C84.2899 47.88 84.8399 47.58 85.3299 47.53C86.0399 47.46 86.6699 47.84 86.9099 48.25C87.0099 48.63 85.6999 48.57 85.5499 48.37L84.7599 49.11C85.3099 48.85 86.6999 49.09 87.1299 50.15C87.0399 50.85 85.7799 49.94 85.7799 49.94C85.7799 49.94 85.1499 50.17 85.1299 50.81L85.1199 50.8Z" fill="#FFA88F"/>
<path d="M83.8299 66.27C84.9899 61.97 86.3899 56.59 86.5499 53.59C86.2299 52.4 82.8599 51.16 82.0199 52.6C82.0199 52.6 72.4899 71.01 77.1299 74.42C80.3599 75.55 83.1399 73.28 83.8399 66.27H83.8299Z" fill="#267FBF"/>
<path d="M116.25 45.06C116.44 46.06 115.3 46.22 115.96 48.01C116.56 49.66 118.96 48.34 119.03 46.92C119.03 46.92 119.44 44.57 119.45 43.06C119.45 41.54 117.55 38.07 117.43 38.21C116.74 38.43 117.75 41.62 117.75 41.62C117.75 41.62 116.19 39.94 115.43 39.6C114.63 39.99 117.12 42.47 117.12 42.47C116.62 42.06 116.03 41.84 115.53 41.87C114.82 41.91 114.25 42.39 114.08 42.83C114.04 43.22 115.32 42.96 115.44 42.74L116.34 43.34C115.75 43.17 114.42 43.63 114.16 44.74C114.36 45.42 115.46 44.32 115.46 44.32C115.46 44.32 116.12 44.45 116.24 45.08L116.25 45.06Z" fill="#FFA88F"/>
<path d="M123.3 59.08C120.62 55.52 117.31 51.05 116.04 48.33C115.9 47.1 118.56 44.7 119.88 45.72C119.88 45.72 135.59 59.25 132.55 64.14C129.98 66.39 126.55 65.32 123.28 59.08H123.29H123.3Z" fill="#267FBF"/>
<path d="M26.84 68.8C26.84 68.8 16.44 80.82 19.64 82.67C22.84 84.52 33.14 72.7 33.5 69.43C33.86 66.16 29.59 62.77 26.84 68.8Z" fill="#FFA88F"/>
<path d="M24.58 70.79L30.97 75.43L35.55 68.6L30.35 63.39L24.58 70.79Z" fill="#267FBF"/>
<path d="M54.99 72.17L48.59 76.81L44.02 69.97L49.22 64.77L54.99 72.17Z" fill="#267FBF"/>
<path d="M44.8 71.22C44.8 71.22 52.76 85.67 56.93 84.6C60.51 83.68 52.96 67.82 50.57 65.55C48.18 63.28 41.66 65.38 44.8 71.23V71.22Z" fill="#FFA88F"/>
<path d="M47.23 76.01L54.95 71.4L49.25 62.7599L42.24 64.8499L42.45 69.0899L47.23 76.01Z" fill="#267FBF"/>
<path d="M37.86 103.35L53 160.41L57.21 160.57L51.05 102.32C48.72 88.41 35.24 94.4 37.85 103.35H37.86Z" fill="#48C6C6"/>
<path d="M27.61 102.17C27.6 121.09 29.12 158.45 29.12 158.45L34.02 158.18L41.82 102.67C42.18 94.88 29.31 91.05 27.62 102.17H27.61Z" fill="#48C6C6"/>
<path d="M60.79 167.16C60.69 166.29 58.04 165.33 58.04 165.33L56.96 157.87V157.67L52.28 157.69C51.28 158.18 51.32 159.37 51.5 160.66L55.46 167.16H60.79Z" fill="#0E324D"/>
<path d="M52.18 167.16L54.52 160.26L51.49 160.63V167.16H52.18Z" fill="#0E324D"/>
<path d="M35.7299 167.47C36.8199 166.66 34.5999 165.64 34.5999 165.64L34.0099 158.18V157.98L36.1999 143.39L28.4199 143.2L29.0899 157.97C28.4399 158.94 28.1299 159.92 28.6999 160.96L31.1999 167.46H35.7299V167.47Z" fill="#0E324D"/>
<path d="M29.3899 167.47L31.7299 160.57L28.7 160.95V167.47H29.3899Z" fill="#0E324D"/>
<path d="M47.28 88.44L33.3 88.36C32.9 85.86 28.6 75 30.29 70.07C30.11 66.7 42.12 64.71 43.92 66.71C45.72 68.71 47.81 71.39 48.38 73.27C48.95 75.15 47.28 88.45 47.28 88.45V88.44Z" fill="#267FBF"/>
<path d="M34.34 67.2C34.34 67.2 36.4 70.54 41.62 71.62C43.86 69.04 41.05 65.56 41.05 65.56L34.34 67.2Z" fill="#FFA88F"/>
<path d="M39.3099 58.25C39.5999 59.44 40.9099 64.97 41.1799 66.06C40.1499 67.83 35.0499 69.1 34.3499 67.2L33.3099 58.24C34.7499 58.24 37.9099 58.26 39.3199 58.26L39.3099 58.25Z" fill="#FFA88F"/>
<g style="mix-blend-mode:soft-light" opacity="0.6">
<path d="M39.31 58.25L40.7 63.89C37.97 63.36 35.8 61.47 34.46 59.49C34.46 59.49 35.54 58.65 36.94 58.24H39.3L39.31 58.25Z" fill="#0D0D0D"/>
</g>
<path d="M43.22 48.64C46.33 52.84 45.76 58.16 43.72 59.82C40.4 62.51 33.88 62.06 30.78 57.86C27.67 53.66 27.94 48.2 31.38 45.65C34.82 43.1 40.12 44.44 43.23 48.64H43.22Z" fill="#FFA88F"/>
<path d="M41.25 54.21C41.25 54.21 41.18 54.18 41.17 54.14C41.17 54.1 41.2 54.06 41.24 54.05C41.56 54.01 41.81 53.91 41.92 53.75C41.98 53.67 42 53.57 41.98 53.47C41.95 53.32 41.71 53.26 41.41 53.17C41.1 53.08 40.71 52.97 40.37 52.72L39.86 52.3C39.86 52.3 39.82 52.22 39.85 52.19C39.88 52.16 39.93 52.15 39.96 52.18L40.47 52.6C40.78 52.83 41.15 52.94 41.45 53.02C41.8 53.12 42.08 53.2 42.13 53.44C42.16 53.58 42.13 53.72 42.05 53.85C41.91 54.05 41.64 54.17 41.26 54.22L41.25 54.21Z" fill="#94503C"/>
<path d="M37.42 52.3899C37.59 52.6699 37.54 52.9999 37.33 53.1299C37.11 53.2599 36.81 53.1299 36.64 52.8499C36.47 52.5699 36.52 52.2399 36.73 52.1099C36.94 51.9799 37.25 52.1099 37.42 52.3899Z" fill="#6E3B2D"/>
<path d="M42.22 49.66C42.4 49.92 42.38 50.25 42.17 50.39C41.96 50.53 41.65 50.44 41.47 50.18C41.29 49.92 41.31 49.59 41.52 49.45C41.73 49.31 42.04 49.4 42.22 49.66Z" fill="#6E3B2D"/>
<path d="M40.6 49.52C40.6 49.52 40.52 49.49 40.52 49.44C40.51 49.02 40.72 48.63 41.07 48.45C41.35 48.31 41.64 48.33 41.89 48.51C41.92 48.54 41.93 48.59 41.91 48.62C41.88 48.65 41.83 48.66 41.8 48.64C41.61 48.5 41.37 48.48 41.15 48.59C40.86 48.74 40.67 49.08 40.69 49.43C40.69 49.47 40.66 49.51 40.61 49.51L40.6 49.52Z" fill="#94503C"/>
<path d="M35.82 52.35C35.82 52.35 35.74 52.32 35.74 52.27C35.73 51.85 35.94 51.46 36.29 51.28C36.57 51.14 36.86 51.16 37.11 51.34C37.14 51.37 37.15 51.42 37.13 51.45C37.1 51.48 37.05 51.49 37.02 51.47C36.83 51.33 36.59 51.31 36.37 51.42C36.08 51.57 35.89 51.91 35.91 52.26C35.91 52.3 35.88 52.34 35.83 52.34L35.82 52.35Z" fill="#94503C"/>
<path d="M37.65 44.34C37.65 44.34 32.28 53.87 34.22 62.05C27.07 58.89 24.54 54.45 26.42 49.21C28.1 44.52 33.47 42.66 37.65 44.34Z" fill="#0E0E0E"/>
<path d="M37.06 45.49C37.06 45.49 40.22 45.58 43.09 48.47C41.04 44.9 34.48 39.69 28.26 46.27C22.04 52.85 37.06 45.49 37.06 45.49Z" fill="#0E0E0E"/>
<path d="M33.46 58.99C34.4707 58.99 35.29 58.1707 35.29 57.16C35.29 56.1493 34.4707 55.33 33.46 55.33C32.4493 55.33 31.63 56.1493 31.63 57.16C31.63 58.1707 32.4493 58.99 33.46 58.99Z" fill="#FFA88F"/>
<path d="M35.54 63.86C35.54 63.86 35.48 63.86 35.45 63.86C34.62 63.84 33.85 63.49 33.28 62.89C32.27 61.82 32.15 60.18 32.99 58.98L33.17 59.1C32.39 60.22 32.5 61.74 33.44 62.74C33.97 63.3 34.69 63.62 35.46 63.64C36.23 63.66 36.96 63.38 37.53 62.85C38.69 61.76 38.74 59.93 37.65 58.77C36.83 57.9 35.53 57.62 34.42 58.09L34.34 57.89C35.53 57.39 36.92 57.68 37.81 58.62C38.98 59.86 38.93 61.83 37.68 63.01C37.1 63.56 36.35 63.86 35.55 63.86H35.54Z" fill="white"/>
<path d="M40.87 57.75C40.51 57.75 40.28 57.64 40.26 57.63C40.22 57.61 40.21 57.56 40.23 57.52C40.25 57.48 40.3 57.47 40.34 57.49C40.36 57.49 41.85 58.22 43.66 55.52C43.68 55.48 43.73 55.47 43.77 55.5C43.81 55.52 43.82 55.57 43.79 55.61C42.58 57.41 41.51 57.75 40.88 57.75H40.87Z" fill="#94503C"/>
<path d="M33.3 88.36C33.3 88.36 27.29 94.52 27.61 102.17C34.56 104.05 50.96 101.75 50.96 101.75C50.48 96.68 50.21 93.52 47.28 88.44C37.18 88.44 33.3 88.36 33.3 88.36Z" fill="#48C6C6"/>
<path d="M20.65 59.7399C20.65 59.7399 20.58 57.4599 21.09 57.1999C21.61 56.9299 21.85 59.0699 21.46 59.6699C21.07 60.2699 20.64 60.1499 20.64 59.7399H20.65Z" fill="#FFA88F"/>
<path d="M57.34 61.55C57.34 61.55 56.5 59.43 56.89 59.01C57.28 58.59 58.24 60.5 58.08 61.21C57.92 61.91 57.47 61.94 57.34 61.56V61.55Z" fill="#FFA88F"/>
<path d="M58.8665 36.8385L23.142 34.3654L20.6689 70.0899L56.3934 72.563L58.8665 36.8385Z" fill="white"/>
<path d="M33.0201 50.9L32.1601 61.5C32.0601 62.68 46.4701 63.85 46.5701 62.68L47.4301 52.08L33.0201 50.9ZM40.4901 57.17L40.2401 60.17C40.2101 60.57 39.8501 60.88 39.4501 60.84C39.0401 60.81 38.7501 60.45 38.7801 60.05L39.0301 57.04C38.4401 56.71 38.0501 56.05 38.1101 55.33C38.1901 54.35 39.0501 53.62 40.0401 53.7C41.0201 53.78 41.7501 54.64 41.6701 55.62C41.6101 56.35 41.1301 56.93 40.4901 57.16V57.17Z" fill="#444444"/>
<path d="M46.2301 51.22L44.7701 51.1L44.8301 50.39C45.0301 47.92 43.1801 45.74 40.7101 45.54C38.2401 45.34 36.0601 47.19 35.8601 49.66L35.8001 50.37L34.3401 50.25L34.4001 49.54C34.6701 46.26 37.5501 43.82 40.8301 44.08C44.1101 44.35 46.5501 47.23 46.2901 50.51L46.2301 51.22Z" fill="#444444"/>
<path d="M18.03 80.45C17.72 76.15 18.69 72.84 20.15 63.99L22.67 64.26C22.67 64.26 24.68 75.14 23.03 78.78C21.97 81.12 19.5 85.63 18.03 80.45Z" fill="#FFA88F"/>
<path d="M58.86 82.6C59.86 78.4 59.67 75.48 59.65 66.51L57.28 66.34C57.71 71.98 53.92 75.99 54.61 80.98C54.96 83.53 56.58 87.47 58.86 82.6Z" fill="#FFA88F"/>
<path d="M52.3299 158.24L48.1799 143.17H55.5999L57.0399 158.18L52.3299 158.24Z" fill="#0E324D"/>
<path d="M20.49 65.39C20.49 65.39 19.08 61.49 19.01 60.53C19.11 59.21 20.04 58.34 20.04 58.34C20.04 58.34 21.29 58.7 22.52 59.27C22.45 59.59 21 59.28 21 59.28C21 59.28 22.12 60.23 22.83 60.76C22.74 61.17 20.94 60.32 20.94 60.32C20.94 60.32 22.32 61.38 22.87 61.88C22.41 62.38 21.26 61.44 21.26 61.44C21.26 61.44 23.18 63.55 22.76 64.27C22.34 64.99 21.41 65.86 20.49 65.39Z" fill="#FFA88F"/>
<path d="M59.6499 66.51C59.6499 66.51 59.2399 62.38 58.8999 61.4799C58.2499 60.3299 57.0299 59.95 57.0299 59.95C57.0299 59.95 56.0599 60.8099 55.1899 61.8499C55.3899 62.0999 56.5699 61.2099 56.5699 61.2099C56.5699 61.2099 55.9699 62.54 55.5499 63.33C55.8099 63.66 57.0599 62.1199 57.0599 62.1199C57.0599 62.1199 56.2699 63.67 55.9799 64.36C56.6099 64.61 57.2499 63.27 57.2499 63.27C57.2499 63.27 56.4299 66 57.1099 66.47C57.7999 66.94 59.0099 67.33 59.6399 66.5L59.6499 66.51Z" fill="#FFA88F"/>
</svg>
