<svg width="268" height="198" viewBox="0 0 268 198" fill="none" xmlns="http://www.w3.org/2000/svg">
<path d="M254.625 0.135254H13.1523C5.8885 0.135254 0 6.02375 0 13.2876V184.612C0 191.876 5.8885 197.764 13.1523 197.764H254.625C261.889 197.764 267.778 191.876 267.778 184.612V13.2876C267.778 6.02375 261.889 0.135254 254.625 0.135254Z" fill="black"/>
<path d="M92.0732 141.857C92.0732 140.29 93.3477 139.015 94.9156 139.015H104.658C106.225 139.015 107.5 140.289 107.5 141.857V144.271H92.0732V141.857ZM106.155 141.857C106.155 141.031 105.483 140.36 104.658 140.36H94.9156C94.0896 140.36 93.4187 141.032 93.4187 141.857V142.927H106.156V141.857H106.155Z" fill="#333333"/>
<path d="M90.0417 142.774C90.1679 142.774 90.2929 142.78 90.4168 142.79L112.28 142.774C115.011 142.774 117.224 144.988 117.224 147.718V160.545H107.336V160.497H94.9856V160.545H85.0977V147.718C85.0977 144.988 87.3112 142.774 90.0417 142.774Z" fill="#CF283C"/>
<g style="mix-blend-mode:multiply" opacity="0.3">
<path d="M117.01 160.544H107.123V147.636C107.123 144.953 109.301 142.774 111.985 142.774H112.147C114.831 142.774 117.01 144.953 117.01 147.638V160.545V160.544Z" fill="#CF283C"/>
</g>
<path d="M85.0533 151.324H117.234C117.529 151.324 117.768 151.085 117.768 150.79V150.771C117.768 150.476 117.529 150.237 117.234 150.237H85.0533C84.7584 150.237 84.5194 150.476 84.5194 150.771V150.79C84.5194 151.085 84.7584 151.324 85.0533 151.324Z" fill="#333333"/>
<path d="M99.6391 152.411H92.65C92.0596 152.411 91.5811 151.932 91.5811 151.342V151.324H100.708V151.342C100.708 151.932 100.229 152.411 99.6391 152.411Z" fill="#CFD8DD"/>
<path d="M116.762 72.1191L124.382 71.8834L123.114 75.2331L117.505 75.7682L116.123 73.2048L116.762 72.1191Z" fill="#FFC0BB"/>
<path d="M96.1514 61.2536C96.1514 61.2536 97.9981 73.5319 98.651 74.8905C99.3027 76.2492 100.01 78.53 106.257 78.15C112.504 77.7701 106.927 72.3368 106.927 72.3368L103.344 71.6382L98.9769 58.6999L96.1514 61.2536Z" fill="#FFC0BB"/>
<path d="M105.44 72.0193C105.44 72.0193 104.244 77.5608 105.44 79.4076L112.448 80.0052L113.481 72.1275L105.441 72.0193H105.44Z" fill="#8BCDF2"/>
<path d="M115.034 72.1191H116.762C116.762 72.1191 118.008 74.0753 120.398 74.0019C122.788 73.9298 124.383 71.8834 124.383 71.8834L127.208 72.4569L128.295 84.7232L120.182 91.0979C120.182 91.0979 115.539 89.6491 115.036 89.5048C114.532 89.3593 110.847 85.2486 110.847 85.2486L113.88 72.4569L115.036 72.1191H115.034Z" fill="#8BCDF2"/>
<path d="M118.481 72.576L118.911 68.2824L122.277 67.8832L122.757 72.7178C122.757 72.7178 119.793 73.3058 118.481 72.576Z" fill="#FFC0BB"/>
<path d="M118.706 70.324L118.91 68.2824L122.277 67.8832L122.443 69.5581C121.783 70.2362 120.587 70.9456 118.706 70.3252V70.324Z" fill="#F99893"/>
<path d="M118.976 156.593H122.063V153.629H118.976V156.593Z" fill="#FFC0BB"/>
<path d="M113.8 160.358L122.863 160.315C123.143 160.314 123.369 160.085 123.368 159.805C123.367 159.525 123.138 159.299 122.858 159.3L113.795 159.344C113.515 159.345 113.289 159.573 113.29 159.853C113.291 160.134 113.52 160.36 113.8 160.358Z" fill="#122F5B"/>
<path d="M122.89 156.22L123.237 159.039C123.28 159.387 123.087 159.704 122.832 159.705L113.952 159.747C113.721 159.747 113.492 159.606 113.37 159.335C113.245 159.059 113.217 158.64 113.613 158.076C114.394 156.96 116.96 156.668 118.246 155.726C118.273 155.706 118.304 155.696 118.336 155.696L122.423 155.676C122.654 155.676 122.852 155.905 122.891 156.22H122.89Z" fill="#F4A640"/>
<path d="M118.921 157.331C118.985 157.291 119.008 157.183 118.97 157.101C118.794 156.715 118.244 155.777 117.137 155.976C117.073 155.988 117.03 156.072 117.041 156.16V156.162C117.052 156.248 117.11 156.303 117.172 156.292C118.165 156.118 118.633 156.945 118.774 157.268C118.805 157.337 118.867 157.365 118.92 157.331H118.921Z" fill="white"/>
<path d="M118.001 157.699C118.064 157.659 118.087 157.551 118.05 157.469C117.873 157.083 117.324 156.145 116.216 156.344C116.153 156.356 116.109 156.44 116.12 156.528V156.53C116.131 156.616 116.19 156.671 116.251 156.66C117.244 156.486 117.712 157.313 117.854 157.636C117.884 157.705 117.946 157.733 117.999 157.699H118.001Z" fill="white"/>
<path d="M117.144 158.041C117.208 158.002 117.23 157.894 117.193 157.812C117.016 157.426 116.467 156.488 115.36 156.686C115.296 156.698 115.253 156.783 115.263 156.87V156.873C115.274 156.958 115.333 157.013 115.394 157.003C116.388 156.828 116.855 157.656 116.997 157.979C117.027 158.048 117.09 158.075 117.143 158.041H117.144Z" fill="white"/>
<path d="M126.799 156.593H129.886V153.629H126.799V156.593Z" fill="#FFC0BB"/>
<path d="M121.645 160.399L130.708 160.274C130.988 160.271 131.211 160.04 131.208 159.76C131.204 159.479 130.973 159.256 130.693 159.259L121.63 159.384C121.35 159.388 121.126 159.619 121.13 159.899C121.134 160.179 121.364 160.403 121.645 160.399Z" fill="#122F5B"/>
<path d="M130.696 156.178L131.069 158.994C131.115 159.341 130.925 159.66 130.67 159.663L121.789 159.786C121.558 159.79 121.329 159.649 121.204 159.38C121.075 159.104 121.045 158.686 121.435 158.118C122.206 156.995 124.769 156.679 126.047 155.726C126.073 155.706 126.103 155.696 126.137 155.694L130.224 155.638C130.454 155.634 130.655 155.863 130.696 156.177V156.178Z" fill="#F4A640"/>
<path d="M126.737 157.326C126.801 157.285 126.822 157.177 126.784 157.095C126.605 156.712 126.046 155.777 124.94 155.987C124.876 155.999 124.834 156.084 124.846 156.172V156.174C124.858 156.258 124.917 156.314 124.978 156.303C125.97 156.12 126.444 156.943 126.59 157.265C126.622 157.333 126.684 157.36 126.737 157.326Z" fill="white"/>
<path d="M125.819 157.701C125.883 157.66 125.905 157.552 125.866 157.47C125.687 157.087 125.128 156.153 124.022 156.362C123.958 156.374 123.916 156.459 123.928 156.547V156.549C123.94 156.633 123.999 156.689 124.06 156.678C125.052 156.495 125.527 157.318 125.673 157.64C125.704 157.708 125.766 157.735 125.819 157.701Z" fill="white"/>
<path d="M124.968 158.052C125.031 158.012 125.053 157.903 125.014 157.822C124.835 157.438 124.276 156.504 123.17 156.713C123.106 156.725 123.064 156.81 123.076 156.898V156.901C123.088 156.985 123.147 157.04 123.209 157.029C124.2 156.846 124.675 157.669 124.821 157.991C124.852 158.06 124.915 158.086 124.968 158.052Z" fill="white"/>
<path d="M112.575 85.0851C112.575 85.0851 113.51 78.6382 115.035 72.1191L113.387 72.1468C113.387 72.1468 110.529 79.7612 110.366 92.0935C110.202 104.426 106.417 111.598 105.114 114.784C103.811 117.971 102.434 122.897 102.796 125.215C103.158 127.534 104.679 130.648 104.752 131.445C104.824 132.242 105.694 134.487 106.925 136.081C108.156 137.674 108.591 140.572 109.967 142.962C111.343 145.352 113.272 154.117 116.762 154.769C120.253 155.42 123.44 154.407 122.716 153.176C121.992 151.944 118.949 143.469 117.862 141.659C116.776 139.848 116.196 138.979 116.124 138.254C116.052 137.53 114.132 131.988 113.698 130.611C113.264 129.235 112.579 125.342 113.534 122.516C114.49 119.691 119.13 108.609 119.13 108.609C119.13 108.609 118.732 123.693 118.948 126.085C119.166 128.475 120.397 131.88 120.541 133.183C120.687 134.487 120.687 135.017 120.903 136.381C121.121 137.746 121.845 146.004 122.352 148.322C122.859 150.64 123.655 153.827 125.032 154.189C126.409 154.551 130.248 154.407 130.537 153.755C130.827 153.104 129.814 141.731 129.74 141.369C129.668 141.007 128.581 133.329 128.653 131.373C128.726 129.416 128.653 126.954 129.015 124.418C129.377 121.883 131.333 104.498 131.333 104.498C131.333 104.498 134.303 83.7084 133.506 81.1727C132.709 78.637 130.02 72.5027 130.02 72.5027L127.203 72.4558C127.203 72.4558 124.162 79.0722 123.509 86.0987L112.571 85.0851H112.575Z" fill="#333333"/>
<path d="M112.615 87.0256L122.698 88.3206L122.656 88.5754C122.214 91.2903 120.138 93.2357 117.967 92.9724L115.923 92.7235C113.651 92.447 112.152 89.8655 112.614 87.0256H112.615Z" fill="#F4A640"/>
<path d="M107.723 84.1436L123.696 89.0347L125.164 86.6361L131.93 88.068C131.93 88.068 127.861 95.8784 125.181 95.8784C122.501 95.8784 106.927 87.1855 106.927 87.1855L107.724 84.1436H107.723Z" fill="#FFC0BB"/>
<path d="M104.331 75.9148L103.832 75.0552L103.757 75.0672L103.712 75.0744L103.637 75.0864L103.423 76.0567L103.65 76.3405C103.708 76.3321 103.762 76.3705 103.771 76.4282L104.652 82.09L104.995 82.0371L104.113 76.3753C104.105 76.3176 104.143 76.2635 104.201 76.2551L104.331 75.9161V75.9148Z" fill="#9C9895"/>
<path d="M104.765 81.9391L104.834 81.9283C105.23 81.8668 105.602 82.1387 105.663 82.5343L105.665 82.5462L104.162 82.7799L104.16 82.7681C104.099 82.3724 104.371 82.0004 104.766 81.9389L104.765 81.9391Z" fill="#333333"/>
<path d="M104.123 82.6685L105.667 82.4285C105.859 82.3986 106.039 82.53 106.069 82.7225L106.774 87.2561C106.804 87.4485 106.671 87.6286 106.48 87.6583L104.937 87.8983C104.744 87.9283 104.565 87.7968 104.535 87.6044L103.83 83.0708C103.8 82.8783 103.931 82.6985 104.123 82.6685Z" fill="#CF283C"/>
<g style="mix-blend-mode:multiply" opacity="0.6">
<path d="M104.357 83.4902L104.363 83.4893C104.456 83.4749 104.543 83.5391 104.558 83.6318L105.094 87.0832C105.108 87.1758 105.044 87.2637 104.951 87.2781L104.946 87.279C104.853 87.2934 104.765 87.2292 104.751 87.1365L104.214 83.6851C104.2 83.5925 104.264 83.5046 104.357 83.4902Z" fill="#CF283C"/>
</g>
<g style="mix-blend-mode:multiply" opacity="0.6">
<path d="M105.023 83.3868L105.029 83.3858C105.122 83.3714 105.21 83.4357 105.224 83.5283L105.76 86.9797C105.775 87.0724 105.71 87.1602 105.618 87.1746L105.612 87.1756C105.519 87.19 105.431 87.1257 105.417 87.0331L104.881 83.5817C104.866 83.489 104.931 83.4012 105.023 83.3868Z" fill="#CF283C"/>
</g>
<g style="mix-blend-mode:multiply" opacity="0.6">
<path d="M105.693 83.2746L105.699 83.2737C105.792 83.2592 105.88 83.3234 105.894 83.416L106.433 86.867C106.447 86.9597 106.383 87.0476 106.29 87.062L106.284 87.063C106.192 87.0774 106.104 87.0133 106.089 86.9206L105.551 83.4696C105.536 83.3769 105.6 83.289 105.693 83.2746Z" fill="#CF283C"/>
</g>
<path d="M126.666 75.9112C127.289 73.3935 129.874 71.6045 132.133 72.8777C135.555 74.8087 133.539 88.4155 133.539 88.4155L124.673 86.4966C124.673 86.4966 125.207 81.8183 126.666 75.91V75.9112Z" fill="#8BCDF2"/>
<path d="M106.926 87.1854L108.681 84.5078C108.209 84.2686 107.771 84.0642 107.375 83.9127C103.967 82.5985 103.231 82.7152 103.104 83.1745C102.976 83.6337 103.463 83.9848 103.31 84.3948C103.156 84.8048 103.203 85.3002 103.491 85.5659C103.778 85.8316 103.328 86.3246 103.873 86.4893C104.418 86.654 106.911 87.1722 106.927 87.1854H106.926Z" fill="#FFC0BB"/>
<path d="M54.0914 45.5535H108.266C109.424 45.5535 110.363 46.4937 110.363 47.6503V59.4392C110.363 61.1369 108.984 62.516 107.286 62.516H54.0914C52.3937 62.516 51.0146 61.1369 51.0146 59.4392V48.6302C51.0146 46.9325 52.3937 45.5535 54.0914 45.5535Z" fill="#F6EBE5"/>
<path d="M59.9452 48.2034H53.9143V48.9091H59.9452V48.2034Z" fill="#07085B"/>
<path d="M67.8776 48.2034H61.8467V48.9091H67.8776V48.2034Z" fill="#07085B"/>
<path d="M75.8092 48.2034H69.7783V48.9091H75.8092V48.2034Z" fill="#07085B"/>
<path d="M83.7409 48.2034H77.71V48.9091H83.7409V48.2034Z" fill="#07085B"/>
<path d="M81.638 52.7819H79.8152C79.6233 52.7819 79.4678 52.9374 79.4678 53.1293V53.1402C79.4678 53.3321 79.6233 53.4876 79.8152 53.4876H81.638C81.8299 53.4876 81.9855 53.3321 81.9855 53.1402V53.1293C81.9855 52.9374 81.8299 52.7819 81.638 52.7819Z" fill="#CF283C"/>
<path d="M91.6735 48.2034H85.6426V48.9091H91.6735V48.2034Z" fill="#07085B"/>
<path d="M99.6039 48.2034H93.573V48.9091H99.6039V48.2034Z" fill="#07085B"/>
<path d="M107.537 48.2034H101.507V48.9091H107.537V48.2034Z" fill="#07085B"/>
<g style="mix-blend-mode:multiply">
<path d="M107.236 57.881H54.1431C52.4154 57.881 51.0146 56.4803 51.0146 54.7526V59.3888C51.0146 61.1165 52.4154 62.5172 54.1431 62.5172H107.236C108.964 62.5172 110.364 61.1165 110.364 59.3888V54.7526C110.364 56.4803 108.964 57.881 107.236 57.881Z" fill="#F6EBE5"/>
</g>
<path d="M107.537 54.7526H53.5254V55.2756H107.537V54.7526Z" fill="#07085B"/>
<path d="M107.537 56.0571H53.5254V56.5801H107.537V56.0571Z" fill="#07085B"/>
<path d="M107.537 57.3604H53.5254V57.8834H107.537V57.3604Z" fill="#07085B"/>
<path d="M107.537 58.6649H53.5254V59.1879H107.537V58.6649Z" fill="#07085B"/>
<path d="M107.537 59.9683H53.5254V60.4913H107.537V59.9683Z" fill="#07085B"/>
<path d="M129.401 95.6247C129.401 95.6247 125.5 106.461 130.926 108.133C131.17 105.977 131.337 104.498 131.337 104.498C131.337 104.498 131.907 100.512 132.479 95.8183L129.401 95.6235V95.6247Z" fill="#F4A640"/>
<path d="M109.14 103.129C113.684 102.899 113.262 93.778 113.262 93.778L110.326 93.6049C110.188 97.2467 109.734 100.41 109.14 103.129Z" fill="#F4A640"/>
<path d="M115.526 58.9644L114.791 61.9546L115.224 62.3321L116.69 58.7792L115.526 58.9644Z" fill="#07085B"/>
<path d="M115.747 61.7839C115.771 62.4908 115.332 63.08 114.765 63.0992C114.197 63.1185 113.719 62.5606 113.693 61.8524C113.669 61.1454 114.108 60.5563 114.676 60.537C115.243 60.5178 115.722 61.0757 115.747 61.7839Z" fill="#F99893"/>
<path d="M114.597 65.4461C114.542 65.1239 114.515 64.7957 114.52 64.4626C114.516 63.5633 114.678 62.6687 114.876 61.91C114.919 61.7477 114.952 61.5818 114.982 61.4171C115.103 60.7486 115.351 60.0837 115.751 59.4525C117.039 57.4241 119.558 56.4659 121.872 57.1296C124.99 58.0229 126.618 61.3365 125.529 64.2919C125.917 64.2318 126.293 64.3243 126.559 64.5828C127.07 65.0806 126.979 65.9992 126.357 66.6352C125.735 67.2713 124.817 67.3843 124.306 66.8865C124.235 66.818 124.177 66.7398 124.129 66.6557C122.945 69.076 120.164 70.2567 117.701 69.3032C116.498 68.8367 115.582 67.9422 115.048 66.8468C115.009 66.7807 114.972 66.705 114.934 66.6196C114.768 66.2457 114.661 65.8489 114.596 65.4437L114.597 65.4461Z" fill="#FFC0BB"/>
<path d="M120.742 63.0355C120.647 63.282 120.77 63.5585 121.016 63.6535C121.263 63.7485 121.54 63.6271 121.635 63.3806C121.73 63.1341 121.608 62.8576 121.361 62.7626C121.115 62.6676 120.837 62.789 120.742 63.0355Z" fill="#333333"/>
<path d="M116.81 61.8018C116.715 62.0483 116.838 62.3248 117.085 62.4198C117.331 62.5148 117.609 62.3934 117.704 62.1469C117.799 61.9004 117.676 61.6239 117.43 61.5289C117.183 61.4339 116.905 61.5553 116.81 61.8018Z" fill="#333333"/>
<path d="M120.546 61.9426C120.8 61.9378 121.036 61.9462 121.265 61.9786C121.493 62.0099 121.71 62.07 121.911 62.1602C122.109 62.2528 122.304 62.3622 122.474 62.5173L122.543 62.5714C122.566 62.5894 122.584 62.6123 122.605 62.6315L122.734 62.7554C122.82 62.8395 122.893 62.9357 122.99 63.0235C122.963 62.9008 122.927 62.7782 122.876 62.6604C122.813 62.551 122.763 62.4271 122.674 62.3297C122.52 62.1169 122.295 61.9534 122.052 61.844C121.807 61.7346 121.535 61.6901 121.276 61.7081C121.016 61.7298 120.761 61.8007 120.55 61.9438L120.546 61.9426Z" fill="#07085B"/>
<path d="M118.712 61.3391C118.627 61.0974 118.464 60.8894 118.268 60.7174C118.07 60.5479 117.826 60.4217 117.564 60.364C117.303 60.3075 117.025 60.3063 116.775 60.3844C116.646 60.4097 116.532 60.4782 116.415 60.5299C116.305 60.5948 116.201 60.6718 116.106 60.7535C116.236 60.7403 116.353 60.7078 116.472 60.6898L116.649 60.667C116.678 60.6645 116.706 60.6573 116.735 60.6549L116.822 60.6525C117.05 60.6297 117.273 60.6561 117.487 60.7006C117.702 60.7475 117.911 60.8281 118.113 60.9387C118.316 61.0493 118.511 61.1828 118.712 61.3379V61.3391Z" fill="#07085B"/>
<path d="M116.321 55.3718C116.321 55.3718 114.773 54.8151 116.889 54.1622C119.006 53.5094 123.912 53.7065 126.095 56.2555C126.095 56.2555 127.112 55.3044 127.798 55.8996C128.485 56.4959 126.848 56.7785 126.848 56.7785C126.848 56.7785 127.88 57.15 127.993 57.7716C128.076 58.2309 127.446 58.0001 127.112 57.8486C127.653 58.1768 129.102 60.0464 126.209 64.0755C125.847 63.8314 123.883 59.8384 123.883 59.8384C123.883 59.8384 118.543 60.7065 119.685 59.4705C119.685 59.4705 113.533 60.0272 115.387 57.5744C115.387 57.5744 113.256 56.9047 116.322 55.373L116.321 55.3718Z" fill="#07085B"/>
<path d="M119.438 61.5301C119.417 61.874 119.34 62.2107 119.223 62.5377C119.164 62.7012 119.092 62.8611 119.001 63.0174C118.907 63.1713 118.797 63.324 118.623 63.4442L118.552 63.4839L118.49 63.5176C118.462 63.5344 118.428 63.5428 118.405 63.5645C118.352 63.5981 118.31 63.6414 118.28 63.6907C118.213 63.7881 118.214 63.9264 118.249 64.0622C118.33 64.3424 118.576 64.5817 118.859 64.774C118.527 64.7055 118.178 64.5143 118.01 64.1524C117.927 63.9769 117.904 63.7448 118.006 63.544C118.031 63.4947 118.06 63.4479 118.099 63.4082C118.134 63.3637 118.176 63.3324 118.218 63.2988C118.26 63.2639 118.308 63.2459 118.354 63.2206C118.381 63.2074 118.387 63.2014 118.402 63.193L118.441 63.1701C118.548 63.0992 118.648 62.9765 118.738 62.8503C118.832 62.7228 118.906 62.5762 118.989 62.4343C119.142 62.1421 119.284 61.8379 119.437 61.5289L119.438 61.5301Z" fill="#F99893"/>
<path d="M123.883 59.8385C123.883 59.8385 124.371 63.3613 123.674 64.9953C123.674 64.9953 125.065 63.8795 126.288 64.3917C126.288 64.3917 127.92 61.8476 127.957 59.8096L124.968 59.1531L123.884 59.8385H123.883Z" fill="#07085B"/>
<path d="M120.264 66.3972C119.883 66.2938 119.515 66.1724 119.143 66.063C118.772 65.9512 118.403 65.8502 118.016 65.7768C118.411 65.7312 118.809 65.8093 119.187 65.9187C119.563 66.0353 119.93 66.1856 120.264 66.3972Z" fill="#F99893"/>
<path d="M33.7402 84.4058L33.7643 85.1668V91.8819C33.7643 92.6934 34.5915 93.3511 35.6135 93.3511C36.7076 93.3511 37.5625 92.5997 37.453 91.7352L36.5585 84.6438L33.7414 84.4058H33.7402Z" fill="#02CCC0"/>
<path d="M37.4338 91.5873C35.064 90.4138 35.0881 86.2093 35.1987 84.5284L33.7402 84.4058L33.7643 85.1668V91.8819C33.7643 92.6934 34.5915 93.3511 35.6135 93.3511C36.7076 93.3511 37.5625 92.5997 37.453 91.7352L37.4338 91.5873Z" fill="#445573"/>
<path d="M36.9456 86.6973C36.6474 86.6697 34.3113 87.0772 33.9843 86.8608C33.6584 86.6432 33.7666 85.4962 33.7666 85.4962C33.7666 85.4962 32.6533 85.0946 32.5174 87.0231C32.5174 87.0231 20.9726 86.969 19.941 86.7791C19.2905 86.6588 19.9025 85.0273 20.4448 83.8382C18.3659 83.1264 16.5396 81.9024 15.5561 81.0908C15.5056 81.2026 14.2263 84.0714 13.7478 87.1602C13.2584 90.3115 13.6396 91.6148 16.4638 91.8325C19.2893 92.0501 36.5104 91.3984 36.9456 90.3656C37.3796 89.3328 37.245 86.7262 36.9456 86.6985V86.6973Z" fill="#FFC0BB"/>
<path d="M38.4073 81.1318H34.6608C34.5526 81.1318 34.4648 81.2195 34.4648 81.3278V81.3338C34.4648 81.442 34.5526 81.5297 34.6608 81.5297H38.4073C38.5155 81.5297 38.6033 81.442 38.6033 81.3338V81.3278C38.6033 81.2195 38.5155 81.1318 38.4073 81.1318Z" fill="#445573"/>
<path d="M34.6608 82.3798H38.4073C38.5155 82.3798 38.6033 82.4676 38.6033 82.5758V82.5818C38.6033 82.69 38.5155 82.7778 38.4073 82.7778H34.6608C34.5526 82.7778 34.4648 82.69 34.4648 82.5818V82.5758C34.4648 82.4676 34.5526 82.3798 34.6608 82.3798Z" fill="#445573"/>
<path d="M34.6608 83.6291H38.4073C38.5155 83.6291 38.6033 83.7169 38.6033 83.8251V83.8311C38.6033 83.9393 38.5155 84.0271 38.4073 84.0271H34.6608C34.5526 84.0271 34.4648 83.9393 34.4648 83.8311V83.8251C34.4648 83.7169 34.5526 83.6291 34.6608 83.6291Z" fill="#445573"/>
<path d="M53.0507 81.7774H63.1347C63.2381 81.7774 63.3223 81.8616 63.3223 81.965C63.3223 82.0684 63.2381 82.1525 63.1347 82.1525H53.0507C53.0219 82.1525 52.999 82.1297 52.999 82.1008V81.8315C52.999 81.8026 53.0219 81.7798 53.0507 81.7798V81.7774Z" fill="#CFD8DD"/>
<path d="M51.168 81.1486H52.6757C53.1182 81.1486 53.4777 81.5081 53.4777 81.9505V81.977C53.4777 82.4194 53.1182 82.7789 52.6757 82.7789H51.168V81.1486Z" fill="#ACB7BC"/>
<path d="M50.8805 80.5235H50.1699C50.295 80.8361 50.3647 81.1764 50.3647 81.5347V82.3943C50.3647 82.7514 50.295 83.0929 50.1699 83.4055H50.8805C51.6764 83.4055 52.3209 82.761 52.3209 81.9651C52.3209 81.1692 51.6764 80.5247 50.8805 80.5247V80.5235Z" fill="#445573"/>
<path d="M53.8464 81.6213L53.8433 81.6231C53.795 81.651 53.7785 81.7128 53.8064 81.7611L54.0794 82.2338C54.1073 82.2821 54.1691 82.2986 54.2174 82.2707L54.2205 82.2689C54.2688 82.241 54.2853 82.1792 54.2574 82.1309L53.9844 81.6583C53.9565 81.61 53.8947 81.5934 53.8464 81.6213Z" fill="#ACB7BC"/>
<path d="M54.4163 81.6231L54.4194 81.6213C54.4673 81.5936 54.5297 81.6103 54.5574 81.6582L54.8304 82.1309C54.8581 82.1788 54.8414 82.2412 54.7935 82.2689L54.7904 82.2707C54.7425 82.2983 54.68 82.2816 54.6524 82.2337L54.3794 81.761C54.3517 81.7131 54.3684 81.6507 54.4163 81.6231Z" fill="#ACB7BC"/>
<path d="M54.9929 81.6205L54.9898 81.6223C54.9415 81.6502 54.925 81.712 54.9529 81.7603L55.2259 82.233C55.2538 82.2813 55.3155 82.2978 55.3638 82.2699L55.367 82.2681C55.4153 82.2402 55.4318 82.1785 55.4039 82.1302L55.1309 81.6575C55.103 81.6092 55.0412 81.5926 54.9929 81.6205Z" fill="#ACB7BC"/>
<path d="M55.5652 81.6216L55.5621 81.6234C55.5138 81.6513 55.4972 81.7131 55.5251 81.7614L55.7981 82.2341C55.826 82.2824 55.8878 82.2989 55.9361 82.271L55.9392 82.2692C55.9875 82.2413 56.0041 82.1796 55.9762 82.1313L55.7032 81.6586C55.6753 81.6103 55.6135 81.5937 55.5652 81.6216Z" fill="#ACB7BC"/>
<path d="M56.1375 81.6216L56.1343 81.6234C56.086 81.6513 56.0695 81.713 56.0974 81.7613L56.3704 82.234C56.3983 82.2823 56.4601 82.2989 56.5084 82.271L56.5115 82.2692C56.5598 82.2413 56.5763 82.1795 56.5484 82.1312L56.2754 81.6585C56.2475 81.6102 56.1858 81.5937 56.1375 81.6216Z" fill="#ACB7BC"/>
<path d="M56.7083 81.6226L56.7114 81.6208C56.7593 81.5931 56.8217 81.6098 56.8494 81.6577L57.1224 82.1304C57.1501 82.1783 57.1334 82.2407 57.0855 82.2684L57.0823 82.2702C57.0344 82.2978 56.972 82.2811 56.9444 82.2332L56.6714 81.7605C56.6437 81.7127 56.6604 81.6502 56.7083 81.6226Z" fill="#ACB7BC"/>
<path d="M27.6728 107.232C29.6579 104.778 28.3064 97.118 28.3064 97.118L25.3535 97.5052C25.7635 99.7596 26.7158 103.577 27.6728 107.232Z" fill="#F4A640"/>
<path d="M45.2561 96.5037C45.2561 96.5037 45.541 106.626 48.9521 107.83C48.2992 103.557 47.4311 99.5697 46.6087 96.2825L45.2549 96.5037H45.2561Z" fill="#F4A640"/>
<path d="M37.3385 69.9813L37.0343 65.6769L33.681 65.1791L33.0605 69.9981C33.0605 69.9981 36.0063 70.6714 37.3385 69.9813Z" fill="#FFC0BB"/>
<path d="M37.1796 67.7233L37.0353 65.6757L33.682 65.1779L33.4668 66.8468C34.1076 67.5429 35.2811 68.2884 37.1796 67.7233Z" fill="#F99893"/>
<path d="M31.7139 68.5961L39.291 69.3211L37.2242 73.468L33.0533 73.1963L31.7139 68.5961Z" fill="#FFC0BB"/>
<path d="M26.0141 155.014H22.9277V157.978H26.0141V155.014Z" fill="#FFC0BB"/>
<path d="M43.1096 155.014H40.0557V158.299H43.1096V155.014Z" fill="#FFC0BB"/>
<path d="M31.1914 161.822L22.1283 161.796C21.8481 161.796 21.6221 161.568 21.6221 161.288C21.6221 161.008 21.8505 160.781 22.1307 160.781L31.1938 160.807C31.474 160.807 31.7 161.035 31.7 161.315C31.7 161.595 31.4716 161.822 31.1914 161.822Z" fill="#122F5B"/>
<path d="M22.0953 157.701L21.7538 160.521C21.7117 160.868 21.9053 161.184 22.1614 161.185L31.0418 161.209C31.2727 161.209 31.5011 161.066 31.6226 160.796C31.7476 160.518 31.7741 160.101 31.3773 159.537C30.5934 158.422 28.0276 158.135 26.7387 157.196C26.7122 157.177 26.681 157.166 26.6485 157.166L22.5618 157.155C22.3309 157.155 22.1325 157.385 22.0953 157.7V157.701Z" fill="#F4A640"/>
<path d="M26.0652 158.805C26.0015 158.765 25.9775 158.657 26.0147 158.575C26.1903 158.189 26.7373 157.25 27.8459 157.446C27.9096 157.457 27.9529 157.542 27.9421 157.63V157.633C27.9312 157.718 27.8735 157.773 27.811 157.762C26.8179 157.591 26.3514 158.418 26.2095 158.742C26.1794 158.811 26.1169 158.839 26.064 158.805H26.0652Z" fill="white"/>
<path d="M26.9857 159.17C26.922 159.131 26.898 159.022 26.9365 158.941C27.112 158.555 27.6591 157.616 28.7676 157.812C28.8313 157.822 28.8746 157.908 28.8638 157.996V157.998C28.853 158.083 28.7953 158.139 28.7327 158.128C27.7396 157.956 27.2731 158.783 27.1312 159.107C27.1012 159.175 27.0387 159.203 26.9857 159.169V159.17Z" fill="white"/>
<path d="M27.8434 159.512C27.7797 159.472 27.7556 159.364 27.7941 159.282C27.9697 158.896 28.5167 157.957 29.6253 158.153C29.689 158.164 29.7323 158.249 29.7215 158.337V158.34C29.7106 158.425 29.6529 158.48 29.5904 158.469C28.5973 158.297 28.1308 159.125 27.9889 159.448C27.9588 159.517 27.8963 159.544 27.8434 159.511V159.512Z" fill="white"/>
<path d="M48.3022 161.794L39.2391 161.81C38.9589 161.81 38.7317 161.583 38.7305 161.303C38.7305 161.023 38.9565 160.796 39.2367 160.795L48.2998 160.779C48.58 160.779 48.8072 161.005 48.8084 161.285C48.8084 161.565 48.5824 161.793 48.3022 161.794Z" fill="#122F5B"/>
<path d="M39.1845 157.714L38.855 160.536C38.8141 160.884 39.0101 161.2 39.265 161.199L48.1455 161.183C48.3763 161.183 48.6035 161.039 48.725 160.767C48.8488 160.489 48.8729 160.071 48.4749 159.509C47.6862 158.398 45.1192 158.123 43.8255 157.189C43.799 157.17 43.7678 157.16 43.7353 157.16L39.6486 157.167C39.4177 157.167 39.2205 157.399 39.1845 157.713V157.714Z" fill="#F4A640"/>
<path d="M43.16 158.8C43.0962 158.76 43.0722 158.652 43.1095 158.57C43.2826 158.183 43.826 157.242 44.9358 157.433C44.9995 157.444 45.0428 157.529 45.0332 157.617V157.619C45.0224 157.705 44.9647 157.76 44.9033 157.749C43.909 157.581 43.4473 158.412 43.3066 158.735C43.2766 158.805 43.2153 158.831 43.1612 158.799L43.16 158.8Z" fill="white"/>
<path d="M44.0838 159.162C44.0201 159.122 43.996 159.014 44.0333 158.932C44.2076 158.545 44.7499 157.604 45.8596 157.795C45.9233 157.806 45.9678 157.891 45.957 157.979V157.981C45.9462 158.067 45.8885 158.122 45.826 158.111C44.8316 157.943 44.3699 158.774 44.2293 159.098C44.1992 159.168 44.1379 159.194 44.0838 159.162Z" fill="white"/>
<path d="M44.9424 159.499C44.8787 159.459 44.8546 159.351 44.8919 159.269C45.0651 158.882 45.6085 157.94 46.7183 158.131C46.782 158.142 46.8265 158.228 46.8157 158.315V158.318C46.8048 158.403 46.7471 158.458 46.6858 158.448C45.6915 158.279 45.2298 159.11 45.0891 159.434C45.059 159.503 44.9965 159.53 44.9436 159.497L44.9424 159.499Z" fill="white"/>
<path d="M24.5046 77.0352C24.5046 77.0352 24.8389 89.4902 25.0673 94.5064L29.9368 100.957L44.4417 96.067L46.0108 93.9641C44.9611 90.0529 44.1159 87.5917 44.1159 87.5917L44.1339 81.4166C44.1339 81.4166 49.2775 82.358 51.378 76.4906C51.378 76.4906 47.5389 70.8408 38.9182 69.2465C38.9182 69.2465 35.8029 72.7958 31.7102 68.5949C31.7102 68.5949 27.7629 68.1969 24.0682 69.4281C20.3734 70.6593 16.5704 76.0566 14.7236 80.4018C14.7236 80.4018 17.9471 83.3102 21.1345 84.034C21.1345 84.034 23.1448 80.1481 24.5034 77.034L24.5046 77.0352Z" fill="#8BCDF2"/>
<path d="M49.4619 128.916C49.8406 125.537 50.051 122.172 49.9849 119.048C49.7865 109.711 47.65 100.07 46.0124 93.9653C39.3418 93.3292 40.977 69.7274 40.977 69.7262C40.4372 69.5747 39.8745 69.4388 39.2889 69.321C39.1434 73.3272 39.1014 76.0505 39.1062 77.8961C39.1122 80.0001 37.4073 81.7075 35.3032 81.7075H30.9147C31.1383 73.13 30.4614 70.7001 30.1933 68.5359C29.8254 68.5359 29.4045 68.5431 28.9428 68.5671C28.9428 68.5671 30.7331 96.0513 25.0665 94.5075C25.099 95.2097 25.129 95.7675 25.1555 96.1234C25.3587 98.8263 28.2707 109.534 29.6029 114.429C29.6029 114.429 30.073 119.131 30.263 120.49C30.453 121.849 29.8747 122.69 29.9336 123.723C29.9925 124.756 29.829 127.852 29.449 128.721C29.0691 129.59 28.0639 134.425 27.7646 135.73C27.4652 137.033 23.2005 148.849 22.6306 151.675C22.0607 154.5 21.8972 155.134 22.1689 155.524H27.1129C27.1129 155.524 27.4123 155.478 27.6563 155.261C27.9004 155.044 29.3132 152.328 29.6125 151.622C29.9119 150.916 31.6505 146.596 32.4645 145.401C33.2797 144.206 34.2307 142.471 34.8824 140.104C35.534 137.737 37.8702 135.567 38.0878 133.72C38.3054 131.874 40.1534 129.108 39.9298 123.997C40.0476 119.461 39.4549 116.394 39.2793 113.319L40.0728 113.127C40.7185 114.887 40.8868 113.785 41.613 122.797C41.613 122.798 41.3257 126.912 41.613 128.14C41.9004 129.37 41.1682 132.777 41.0227 134.008C40.8772 135.239 41.2403 138.498 41.0227 139.441C40.8051 140.383 40.0356 146.032 39.949 147.265C39.8636 148.496 38.3295 154.458 38.8032 155.522H44.4998C44.4998 155.522 45.2489 155.341 45.1996 154.617C45.1503 153.892 46.2733 151.719 46.563 149.655C46.8528 147.591 47.5766 146.323 47.9758 143.208C48.3738 140.093 49.7144 135.095 49.5328 131.365C49.4931 130.546 49.4715 129.717 49.4619 128.918V128.916Z" fill="#333333"/>
<path d="M30.5002 82.8582L41.2864 84.206C41.2864 84.206 40.4171 88.6955 35.6426 88.2375C30.8694 87.7794 30.5002 82.8582 30.5002 82.8582Z" fill="#F4A640"/>
<path d="M43.4389 85.1125H41.8362V96.5035H43.4389V85.1125Z" fill="#02CCC0"/>
<path d="M42.6196 90.3824H42.6521C43.1907 90.3824 43.6272 90.8188 43.6272 91.3575V96.144C43.6272 96.6826 43.1907 97.1191 42.6521 97.1191H42.6196C42.081 97.1191 41.6445 96.6826 41.6445 96.144V91.3575C41.6445 90.8188 42.081 90.3824 42.6196 90.3824Z" fill="#445573"/>
<path d="M59.2752 88.0102C58.9157 82.5324 51.2112 76.9319 51.2112 76.9319L51.1607 76.9547C50.6834 77.8925 49.4365 80.0135 47.514 80.9537L53.4812 86.4171L44.7438 87.0243C44.608 85.0957 43.4946 85.4973 43.4946 85.4973C43.4946 85.4973 43.6028 86.6443 43.277 86.862C42.9512 87.0796 40.615 86.672 40.3156 86.6984C40.0163 86.7261 39.8816 89.334 40.3156 90.3656C40.4263 90.6289 41.6298 90.8669 43.4056 91.0725C43.408 91.0725 59.5289 91.8733 59.2752 88.0114V88.0102Z" fill="#FFC0BB"/>
<path d="M35.2066 78.816H47.6904C49.1657 78.816 50.3644 80.0135 50.3644 81.49V82.4398C50.3644 83.9151 49.1669 85.1138 47.6904 85.1138H35.2066C33.4969 85.1138 32.1094 83.7263 32.1094 82.0166V81.9132C32.1094 80.2035 33.4969 78.816 35.2066 78.816Z" fill="#02CCC0"/>
<path d="M35.4434 78.816C35.4434 79.7334 36.1864 80.4764 37.1038 80.4764H45.662C46.5794 80.4764 47.3224 79.7334 47.3224 78.816H35.4434Z" fill="#445573"/>
<path d="M57.2798 81.6225L57.283 81.6207C57.3309 81.5931 57.3933 81.6098 57.4209 81.6577L57.6939 82.1303C57.7216 82.1782 57.7049 82.2406 57.657 82.2683L57.6539 82.2701C57.606 82.2978 57.5436 82.2811 57.5159 82.2332L57.2429 81.7605C57.2152 81.7126 57.2319 81.6502 57.2798 81.6225Z" fill="#ACB7BC"/>
<path d="M57.8502 81.6285L57.8533 81.6267C57.9012 81.599 57.9636 81.6157 57.9912 81.6636L58.2643 82.1363C58.2919 82.1842 58.2752 82.2466 58.2273 82.2743L58.2242 82.2761C58.1763 82.3038 58.1139 82.287 58.0862 82.2391L57.8132 81.7665C57.7855 81.7186 57.8023 81.6562 57.8502 81.6285Z" fill="#ACB7BC"/>
<path d="M58.4314 81.6211L58.4283 81.6229C58.38 81.6508 58.3634 81.7126 58.3913 81.7609L58.6643 82.2336C58.6922 82.2819 58.754 82.2984 58.8023 82.2705L58.8054 82.2687C58.8537 82.2408 58.8703 82.1791 58.8424 82.1308L58.5694 81.6581C58.5415 81.6098 58.4797 81.5932 58.4314 81.6211Z" fill="#ACB7BC"/>
<path d="M58.9976 81.6289L59.0007 81.6271C59.0486 81.5994 59.111 81.6161 59.1387 81.664L59.4117 82.1367C59.4394 82.1846 59.4227 82.247 59.3748 82.2747L59.3716 82.2765C59.3238 82.3041 59.2613 82.2874 59.2337 82.2395L58.9607 81.7668C58.933 81.7189 58.9497 81.6565 58.9976 81.6289Z" fill="#ACB7BC"/>
<path d="M59.575 81.621L59.5718 81.6228C59.5235 81.6507 59.507 81.7125 59.5349 81.7608L59.8079 82.2335C59.8358 82.2818 59.8976 82.2983 59.9459 82.2704L59.949 82.2686C59.9973 82.2407 60.0138 82.1789 59.9859 82.1306L59.7129 81.658C59.685 81.6097 59.6233 81.5931 59.575 81.621Z" fill="#ACB7BC"/>
<path d="M60.1431 81.6281L60.1462 81.6263C60.1941 81.5986 60.2565 81.6153 60.2842 81.6632L60.5572 82.1359C60.5849 82.1838 60.5682 82.2462 60.5203 82.2739L60.5172 82.2757C60.4693 82.3033 60.4068 82.2866 60.3792 82.2387L60.1062 81.766C60.0785 81.7181 60.0952 81.6557 60.1431 81.6281Z" fill="#ACB7BC"/>
<path d="M60.7192 81.6261L60.7161 81.6279C60.6678 81.6558 60.6513 81.7176 60.6792 81.7659L60.9522 82.2385C60.9801 82.2868 61.0419 82.3034 61.0902 82.2755L61.0933 82.2737C61.1416 82.2458 61.1581 82.184 61.1302 82.1357L60.8572 81.663C60.8293 81.6147 60.7675 81.5982 60.7192 81.6261Z" fill="#ACB7BC"/>
<path d="M61.2906 81.6231L61.2937 81.6213C61.3416 81.5936 61.404 81.6103 61.4317 81.6582L61.7047 82.1309C61.7323 82.1788 61.7156 82.2412 61.6677 82.2689L61.6646 82.2707C61.6167 82.2983 61.5543 82.2816 61.5266 82.2337L61.2536 81.761C61.226 81.7131 61.2427 81.6507 61.2906 81.6231Z" fill="#ACB7BC"/>
<path d="M61.8599 81.6285L61.863 81.6267C61.9109 81.599 61.9733 81.6157 62.001 81.6636L62.274 82.1363C62.3017 82.1842 62.285 82.2466 62.2371 82.2743L62.234 82.2761C62.1861 82.3038 62.1236 82.287 62.096 82.2391L61.823 81.7665C61.7953 81.7186 61.812 81.6562 61.8599 81.6285Z" fill="#ACB7BC"/>
<path d="M62.4373 81.6205L62.4341 81.6223C62.3858 81.6502 62.3693 81.7119 62.3972 81.7602L62.6702 82.2329C62.6981 82.2812 62.7599 82.2978 62.8082 82.2699L62.8113 82.2681C62.8596 82.2402 62.8761 82.1784 62.8482 82.1301L62.5752 81.6574C62.5473 81.6091 62.4856 81.5926 62.4373 81.6205Z" fill="#ACB7BC"/>
<path d="M29.8752 59.9525C29.8752 59.9525 28.8064 55.1721 31.7172 53.466C34.6281 51.761 37.6543 52.0364 39.6887 53.1558C41.7242 54.2751 42.8568 58.0228 41.8721 60.1221L35.0741 57.9182L29.8752 59.9513V59.9525Z" fill="#07085B"/>
<path d="M40.9598 60.9396C40.6977 61.5721 40.9117 62.249 41.4372 62.451C41.9626 62.653 42.5998 62.3031 42.8619 61.6707C43.124 61.0382 42.91 60.3613 42.3846 60.1593C41.8592 59.9573 41.2219 60.3072 40.9598 60.9396Z" fill="#F99893"/>
<path d="M40.7983 64.632C40.9594 64.3591 41.0941 64.0693 41.2023 63.7663C41.5089 62.9524 41.6604 62.0891 41.7301 61.3376C41.7445 61.1765 41.7698 61.0166 41.7974 60.8567C41.9093 60.211 41.902 59.5281 41.7397 58.8272C41.2167 56.5704 39.1788 54.8823 36.7861 54.7284C33.5614 54.5216 30.9163 56.9936 30.9392 60.0259C30.5953 59.8455 30.2117 59.8059 29.8739 59.9537C29.227 60.2375 29.0022 61.0996 29.3701 61.8787C29.738 62.6578 30.5616 63.0594 31.2073 62.7744C31.2975 62.7347 31.378 62.683 31.4514 62.6229C31.7435 65.2007 33.9522 67.1762 36.5829 67.1149C37.8694 67.0848 39.0297 66.5726 39.9002 65.7538C39.9579 65.7057 40.0192 65.6504 40.0841 65.5855C40.3655 65.3005 40.5999 64.9771 40.7983 64.6308V64.632Z" fill="#FFC0BB"/>
<path d="M35.985 60.8794C35.9922 61.1523 35.7673 61.3796 35.4836 61.3868C35.1998 61.3928 34.9642 61.1776 34.9582 60.9034C34.951 60.6305 35.1758 60.4033 35.4596 60.396C35.7433 60.3888 35.979 60.6053 35.985 60.8794Z" fill="#333333"/>
<path d="M40.1991 60.9877C40.2063 61.2607 39.9815 61.4879 39.6977 61.4951C39.414 61.5023 39.1783 61.2859 39.1723 61.0118C39.1651 60.7389 39.3899 60.5116 39.6737 60.5044C39.9574 60.4984 40.1931 60.7136 40.1991 60.9877Z" fill="#333333"/>
<path d="M36.4395 60.0655C36.2099 59.9405 35.9694 59.8455 35.7241 59.7794C35.4777 59.7157 35.2264 59.688 34.9775 59.7048C34.8524 59.7121 34.7298 59.7325 34.6084 59.7625C34.5471 59.7758 34.4881 59.7962 34.428 59.8142C34.398 59.8239 34.3691 59.8359 34.339 59.8467C34.309 59.8575 34.2789 59.8672 34.2513 59.8816C34.0192 59.9814 33.7992 60.1136 33.584 60.2627C33.7463 60.0607 33.9519 59.8888 34.1876 59.7589C34.3054 59.694 34.4304 59.6399 34.5615 59.6026C34.6925 59.5642 34.8284 59.5377 34.9655 59.5305C35.2396 59.5125 35.5173 59.5557 35.7686 59.6507C35.8949 59.6964 36.0151 59.7565 36.1293 59.8251C36.2411 59.8948 36.3494 59.973 36.4395 60.0667V60.0655Z" fill="#07085B"/>
<path d="M38.509 60.1184C38.6052 60.0295 38.717 59.9573 38.8324 59.8924C38.9491 59.8299 39.0729 59.7758 39.2016 59.7361C39.4589 59.6543 39.7378 59.6255 40.0107 59.6567C40.1478 59.6712 40.2813 59.7048 40.4099 59.7493C40.5386 59.7938 40.6612 59.8539 40.7754 59.9249C41.0039 60.0667 41.1986 60.2495 41.3501 60.4587C41.1433 60.2988 40.9305 60.1557 40.7045 60.0439C40.6768 60.0295 40.648 60.0174 40.6179 60.0054C40.5891 59.9934 40.5614 59.979 40.5313 59.9681C40.4724 59.9465 40.4147 59.9237 40.3534 59.9068C40.2344 59.8707 40.1117 59.8431 39.9879 59.8299C39.7402 59.801 39.4865 59.8154 39.2376 59.8659C38.9887 59.9188 38.7447 60.0006 38.5078 60.1148L38.509 60.1184Z" fill="#07085B"/>
<path d="M30.9402 60.0247C30.9402 60.0247 34.6987 58.6721 36.7378 56.5211C36.7378 56.5211 36.6597 57.727 36.2304 58.1394C36.3603 58.2272 38.9561 57.3074 39.6042 55.4282C40.2523 53.5489 36.715 54.1886 36.715 54.1886C36.715 54.1886 34.7251 53.8194 34.6349 53.8591C34.546 53.8988 33.0948 54.6887 33.0274 54.7501C32.9601 54.8114 31.0159 57.3267 31.0159 57.3267L30.5109 58.2669L30.3643 59.5774L30.9402 60.0247Z" fill="#07085B"/>
<path d="M35.9148 63.4466C36.0266 63.538 36.142 63.6233 36.2659 63.6979C36.3873 63.7748 36.5124 63.8446 36.6434 63.9035C36.9043 64.0213 37.1797 64.1079 37.4634 64.1379C37.7472 64.1692 38.0345 64.1427 38.311 64.0694C38.5864 63.9925 38.8485 63.8662 39.0974 63.7159C38.9856 63.8085 38.8665 63.8915 38.7403 63.966C38.614 64.0393 38.477 64.0971 38.3375 64.1476C38.1968 64.1944 38.0501 64.2269 37.901 64.2437C37.752 64.2582 37.6005 64.2582 37.4514 64.2437C37.1532 64.2089 36.8646 64.1163 36.6049 63.9768C36.3452 63.8373 36.1072 63.6618 35.916 63.4466H35.9148Z" fill="#F99893"/>
<path d="M37.8902 60.7003C38.0285 60.9287 38.1451 61.168 38.2497 61.4109C38.3555 61.655 38.4457 61.9038 38.5154 62.1635C38.5467 62.2934 38.5755 62.4256 38.5816 62.5675C38.5816 62.6036 38.5816 62.6397 38.5743 62.6781C38.5719 62.6974 38.5659 62.7178 38.5611 62.7371C38.5515 62.7587 38.5455 62.7791 38.5287 62.8008C38.5202 62.8116 38.5118 62.8224 38.5022 62.832L38.4806 62.8489C38.4661 62.8597 38.4517 62.8717 38.4373 62.8825C38.4072 62.9018 38.3772 62.9222 38.3459 62.9378C38.2221 63.0064 38.0922 63.0545 37.9611 63.0954C37.8289 63.1338 37.6954 63.1675 37.5596 63.1855C37.8097 63.0785 38.0609 62.9727 38.2762 62.8308C38.3038 62.814 38.3279 62.7936 38.3519 62.7743L38.3868 62.7443L38.4036 62.7298C38.4036 62.7298 38.406 62.7238 38.4084 62.7214C38.4253 62.6962 38.4289 62.63 38.424 62.5723C38.4144 62.4521 38.388 62.3259 38.3543 62.2008C38.2906 61.9507 38.2076 61.7018 38.1283 61.453C38.0477 61.2041 37.9648 60.954 37.8914 60.6991L37.8902 60.7003Z" fill="#F99893"/>
<path d="M29.874 59.9526C29.874 59.9526 30.3766 59.7001 30.9393 60.0247L30.9609 59.5787L30.3982 59.2745L29.8752 59.9526H29.874Z" fill="#07085B"/>
<path d="M219.839 88.2904C219.839 88.2904 214.551 98.1712 207.597 100.025C207.597 100.025 201.584 100.584 200.57 101.79L210.494 102.66C210.494 102.66 217.375 101.302 223.968 92.9495C230.559 84.5969 226.648 86.5518 226.648 86.5518L219.839 88.2904Z" fill="#FFC0BB"/>
<path d="M222.737 80.2493L218.826 88.8688C218.826 88.8688 220.565 90.9693 222.737 91.6209C224.91 92.2726 226.649 84.0186 226.649 84.0186L224.186 78.655L222.737 80.2481V80.2493Z" fill="#78BEDD"/>
<path d="M191.667 85.0851H176.24V82.6708C176.24 81.1042 177.515 79.8285 179.083 79.8285H188.825C190.392 79.8285 191.667 81.103 191.667 82.6708V85.0851ZM177.586 83.7409H190.323V82.6708C190.323 81.8448 189.651 81.1739 188.826 81.1739H179.084C178.258 81.1739 177.587 81.846 177.587 82.6708V83.7409H177.586Z" fill="#333333"/>
<path d="M193.702 83.4438C193.576 83.4438 193.451 83.4498 193.327 83.4594L171.464 83.4438C168.733 83.4438 166.52 85.6573 166.52 88.3878V101.214H176.408V101.166H188.758L198.646 101.214V88.3878C198.646 85.6573 196.432 83.4438 193.702 83.4438Z" fill="#CF283C"/>
<g style="mix-blend-mode:multiply" opacity="0.3">
<path d="M174.757 101.214H168.172C167.26 101.214 166.521 100.475 166.521 99.5635V88.389C166.521 85.6585 168.735 83.445 171.465 83.445C174.196 83.445 176.409 85.6585 176.409 88.389V99.5635C176.409 100.476 175.67 101.214 174.759 101.214H174.757Z" fill="#CF283C"/>
</g>
<path d="M166.511 91.4851H198.692C198.986 91.4851 199.227 91.7244 199.227 92.0201V92.0382C199.227 92.3327 198.988 92.572 198.693 92.572H166.513C166.218 92.572 165.979 92.3327 165.979 92.0382V92.0201C165.979 91.7256 166.218 91.4863 166.513 91.4863L166.511 91.4851Z" fill="#333333"/>
<path d="M183.037 92.5707H192.164V92.5888C192.164 93.1791 191.685 93.6577 191.095 93.6577H184.106C183.516 93.6577 183.037 93.1791 183.037 92.5888V92.5707Z" fill="#CFD8DD"/>
<path d="M208.327 160.547H161.3C160.465 160.547 159.786 159.869 159.786 159.033V158.983C159.786 158.147 160.465 157.469 161.3 157.469H208.327C209.163 157.469 209.841 158.147 209.841 158.983V159.033C209.841 159.869 209.163 160.547 208.327 160.547Z" fill="#333333"/>
<path d="M209.615 159.008H159.512C158.496 159.008 157.671 158.183 157.671 157.167V102.18C157.671 101.164 158.496 100.339 159.512 100.339H209.615C210.631 100.339 211.456 101.164 211.456 102.18V157.167C211.456 158.183 210.631 159.008 209.615 159.008Z" fill="#FEE4CB"/>
<g style="mix-blend-mode:multiply" opacity="0.5">
<path d="M174.621 159.008H159.729C158.593 159.008 157.671 158.086 157.671 156.95V100.339H174.621V159.008Z" fill="#FEE4CB"/>
</g>
<g style="mix-blend-mode:multiply" opacity="0.5">
<path d="M178.441 128.16C178.535 128.16 178.626 128.169 178.715 128.187C180.25 122.467 185.47 118.255 191.675 118.255C196.535 118.255 200.792 120.839 203.146 124.708H204.599C205.247 124.708 205.772 125.233 205.772 125.881V137.471C205.772 138.119 205.247 138.644 204.599 138.644H203.146C200.791 142.513 196.535 145.097 191.675 145.097C185.96 145.097 181.084 141.524 179.148 136.492C178.94 136.612 178.699 136.683 178.441 136.683C177.662 136.683 177.029 136.052 177.029 135.272V129.574C177.029 128.795 177.661 128.162 178.441 128.162V128.16Z" fill="#FEE4CB"/>
</g>
<path d="M229.903 74.6452L230.333 70.3516L233.699 69.9525L234.179 74.787C234.179 74.787 231.215 75.375 229.903 74.6464V74.6452Z" fill="#FFC0BB"/>
<path d="M230.128 72.3932L230.332 70.3516L233.699 69.9525L233.865 71.6273C233.205 72.3054 232.008 73.0148 230.128 72.3944V72.3932Z" fill="#F99893"/>
<path d="M235.885 73.2169L229.511 73.55L228.635 75.8488L232.657 77.4251L236.556 74.0561L235.885 73.2169Z" fill="#FFC0BB"/>
<path d="M239.291 156.715H242.377V153.751H239.291V156.715Z" fill="#FFC0BB"/>
<path d="M234.147 160.547L243.209 160.373C243.489 160.368 243.711 160.136 243.706 159.856C243.702 159.576 243.47 159.353 243.189 159.358L234.127 159.532C233.847 159.538 233.625 159.769 233.63 160.049C233.635 160.329 233.867 160.552 234.147 160.547Z" fill="#122F5B"/>
<path d="M243.176 156.276L243.565 159.09C243.613 159.437 243.424 159.756 243.169 159.761L234.29 159.932C234.059 159.936 233.828 159.797 233.702 159.528C233.572 159.252 233.539 158.835 233.925 158.265C234.69 157.137 237.252 156.808 238.526 155.847C238.552 155.828 238.582 155.817 238.615 155.816L242.7 155.737C242.931 155.732 243.133 155.959 243.176 156.273V156.276Z" fill="#F4A640"/>
<path d="M239.225 157.446C239.289 157.405 239.309 157.297 239.271 157.215C239.089 156.832 238.525 155.902 237.42 156.116C237.357 156.129 237.315 156.215 237.328 156.303V156.305C237.341 156.389 237.399 156.445 237.461 156.433C238.452 156.244 238.931 157.064 239.078 157.385C239.11 157.453 239.172 157.48 239.225 157.445V157.446Z" fill="white"/>
<path d="M238.31 157.826C238.374 157.785 238.395 157.677 238.356 157.595C238.174 157.212 237.61 156.282 236.505 156.496C236.441 156.509 236.399 156.595 236.413 156.683V156.685C236.426 156.769 236.484 156.825 236.546 156.813C237.537 156.624 238.015 157.444 238.163 157.765C238.194 157.834 238.257 157.86 238.31 157.825V157.826Z" fill="white"/>
<path d="M237.459 158.182C237.523 158.141 237.545 158.033 237.505 157.951C237.323 157.568 236.76 156.638 235.655 156.852C235.591 156.864 235.549 156.951 235.562 157.039V157.041C235.575 157.125 235.633 157.181 235.695 157.169C236.686 156.98 237.165 157.8 237.313 158.121C237.344 158.189 237.406 158.216 237.459 158.181V158.182Z" fill="white"/>
<path d="M225.345 156.715H228.431V153.751H225.345V156.715Z" fill="#FFC0BB"/>
<path d="M220.203 160.547L229.265 160.373C229.545 160.368 229.767 160.136 229.762 159.856C229.756 159.576 229.526 159.353 229.245 159.358L220.183 159.532C219.903 159.538 219.681 159.769 219.686 160.049C219.69 160.329 219.922 160.552 220.203 160.547Z" fill="#122F5B"/>
<path d="M229.232 156.276L229.62 159.09C229.668 159.437 229.48 159.756 229.225 159.761L220.345 159.932C220.115 159.936 219.884 159.797 219.757 159.528C219.628 159.252 219.595 158.835 219.981 158.265C220.746 157.137 223.308 156.808 224.581 155.847C224.608 155.828 224.638 155.817 224.67 155.816L228.756 155.737C228.987 155.732 229.189 155.959 229.232 156.273V156.276Z" fill="#F4A640"/>
<path d="M225.281 157.446C225.344 157.405 225.366 157.297 225.326 157.215C225.145 156.832 224.581 155.902 223.476 156.116C223.412 156.129 223.37 156.215 223.383 156.303V156.305C223.397 156.389 223.454 156.445 223.517 156.433C224.507 156.244 224.986 157.064 225.134 157.385C225.165 157.453 225.228 157.48 225.281 157.445V157.446Z" fill="white"/>
<path d="M224.366 157.826C224.429 157.785 224.45 157.677 224.411 157.595C224.23 157.212 223.666 156.282 222.561 156.496C222.497 156.509 222.455 156.595 222.468 156.683V156.685C222.481 156.769 222.539 156.825 222.602 156.813C223.592 156.624 224.071 157.444 224.219 157.765C224.25 157.834 224.313 157.86 224.366 157.825V157.826Z" fill="white"/>
<path d="M223.514 158.182C223.577 158.141 223.598 158.033 223.559 157.951C223.378 157.568 222.814 156.638 221.709 156.852C221.645 156.864 221.603 156.951 221.616 157.039V157.041C221.63 157.125 221.687 157.181 221.75 157.169C222.741 156.98 223.219 157.8 223.367 158.121C223.398 158.189 223.461 158.216 223.514 158.181V158.182Z" fill="white"/>
<path d="M238.095 73.2228C238.095 73.2228 241.934 73.0413 243.672 74.6536C245.411 76.2647 251.496 83.2912 251.496 83.2912C251.496 83.2912 246.606 88.579 244.795 88.7967L244.107 87.9995L244.144 93.9751L237.878 96.1117L231.721 94.4813L227.7 94.5534L222.521 93.2128L222.738 80.2469C222.738 80.2469 223.354 74.1258 229.511 73.5463C229.511 73.5463 229.619 74.8869 231.576 74.959C233.532 75.0311 235.886 73.2144 235.886 73.2144L238.096 73.2204L238.095 73.2228Z" fill="#8BCDF2"/>
<path d="M244.143 93.9764C244.143 93.9764 238.963 94.592 237.804 91.3325C236.645 88.073 237.37 73.2169 237.37 73.2169H235.885L235.124 91.1149H226.504C226.504 91.1149 225.8 78.8547 226.55 74.4084C226.55 74.4084 225.96 74.5768 225.242 75.3306C225.242 75.3306 224.476 87.9984 224.512 91.3313C224.512 91.3313 223.969 92.8162 222.52 93.2141C222.52 93.2141 223.461 101.182 222.012 105.674C220.564 110.165 217.522 120.668 216.942 123.638C216.363 126.608 217.087 130.013 216.942 131.098C216.798 132.185 217.522 136.82 218.173 138.053C218.825 139.284 219.84 143.703 220.419 144.572C220.999 145.441 221.723 149.338 221.723 149.816C221.723 150.295 222.736 155.033 224.62 154.982C226.503 154.93 229.257 154.959 229.618 154.257C229.98 153.554 228.749 148.846 228.605 147.759C228.461 146.672 226.649 141.53 226.794 140.733C226.94 139.936 225.273 134.142 225.345 132.04C225.417 129.939 226.069 126.896 225.707 125.303C225.345 123.71 227.72 117.48 230.11 113.061H231.052C231.052 113.061 231.864 125.665 232.154 128.273C232.444 130.881 233.965 138.125 234.037 139.356C234.109 140.587 234.834 142.108 235.196 143.63C235.558 145.151 236.137 147.542 236.283 148.846C236.427 150.149 236.137 154.091 237.37 154.257C238.601 154.424 244.143 154.257 244.143 154.257C244.143 154.257 244.83 154.134 244.143 148.773C243.455 143.413 242.512 137.69 242.658 136.603C242.802 135.516 242.658 135.299 242.658 132.908C242.658 130.517 242.948 121.317 242.586 119.87C242.224 118.421 244.143 93.974 244.143 93.974V93.9764Z" fill="#333333"/>
<path d="M235.614 93.8165L225.449 93.6699L225.454 93.9284C225.507 96.6781 227.285 98.8988 229.472 98.9445L231.531 98.9878C233.819 99.0359 235.669 96.6937 235.614 93.8165Z" fill="#F4A640"/>
<path d="M218.127 118.901C219.31 114.547 221.03 108.725 222.013 105.675C222.149 105.252 222.264 104.799 222.362 104.324L225.451 104.588C225.451 104.588 221.955 117.098 218.127 118.901Z" fill="#F4A640"/>
<path d="M243.306 105.241C242.841 111.869 242.393 119.105 242.584 119.873C242.667 120.204 242.715 120.936 242.741 121.899C238.51 120.077 238.129 105.241 238.129 105.241H243.306Z" fill="#F4A640"/>
<path d="M227.183 64.5997C227.415 65.3055 227.147 66.0269 226.583 66.2132C226.021 66.3996 225.376 65.9776 225.144 65.273C224.912 64.5684 225.18 63.8458 225.744 63.6595C226.307 63.4731 226.951 63.8951 227.183 64.5997Z" fill="#F99893"/>
<path d="M227.104 68.6263C226.953 68.3185 226.831 67.9951 226.738 67.6584C226.471 66.7531 226.37 65.8044 226.347 64.982C226.343 64.8053 226.327 64.6298 226.309 64.4542C226.234 63.7448 226.289 63.0018 226.505 62.2491C227.202 59.8276 229.447 58.1215 231.962 58.1083C235.351 58.0903 237.955 60.9494 237.729 64.2462C238.1 64.0719 238.505 64.0538 238.848 64.2366C239.506 64.5877 239.685 65.5387 239.247 66.3635C238.81 67.1871 237.922 67.5707 237.265 67.2208C237.173 67.1727 237.093 67.1114 237.019 67.0404C236.541 69.8262 234.099 71.8341 231.35 71.5985C230.006 71.4831 228.825 70.8518 227.969 69.9056C227.912 69.8503 227.852 69.7854 227.789 69.7108C227.514 69.3826 227.289 69.0159 227.106 68.6263H227.104Z" fill="#FFC0BB"/>
<path d="M232.559 64.3905C232.535 64.6658 232.739 64.9087 233.014 64.9328C233.29 64.9568 233.533 64.7524 233.556 64.4759C233.58 64.2005 233.375 63.9577 233.1 63.9336C232.825 63.9096 232.583 64.1152 232.559 64.3905Z" fill="#333333"/>
<path d="M228.253 64.3051C228.229 64.5805 228.433 64.8233 228.709 64.8474C228.984 64.8714 229.227 64.6658 229.25 64.3905C229.274 64.1151 229.069 63.8723 228.794 63.8482C228.519 63.8242 228.276 64.0298 228.253 64.3051Z" fill="#333333"/>
<path d="M232.041 63.348C232.294 63.2687 232.534 63.2074 232.772 63.1725C233.01 63.1376 233.245 63.134 233.472 63.1653C233.698 63.199 233.925 63.2531 234.141 63.3589L234.226 63.3925C234.253 63.4046 234.279 63.4226 234.306 63.4358L234.471 63.5224C234.582 63.5825 234.684 63.657 234.806 63.7172C234.743 63.6017 234.671 63.4887 234.585 63.3841C234.49 63.2915 234.404 63.1821 234.286 63.11C234.068 62.9417 233.795 62.8419 233.52 62.8034C233.242 62.7649 232.956 62.7998 232.701 62.896C232.447 62.9946 232.212 63.14 232.042 63.348H232.041Z" fill="#07085B"/>
<path d="M230.025 63.2783C229.87 63.0594 229.645 62.8971 229.399 62.7817C229.15 62.6687 228.869 62.6146 228.589 62.6326C228.311 62.6531 228.031 62.7324 227.803 62.8863C227.682 62.95 227.587 63.0534 227.486 63.1388C227.395 63.2362 227.314 63.3444 227.243 63.455C227.369 63.4033 227.476 63.336 227.591 63.2843L227.761 63.2097C227.79 63.1989 227.815 63.1821 227.844 63.1725L227.931 63.1436C228.153 63.0534 228.384 63.015 228.611 62.9969C228.841 62.9813 229.074 63.0005 229.309 63.0522C229.544 63.1027 229.78 63.1809 230.027 63.2771L230.025 63.2783Z" fill="#07085B"/>
<path d="M209.223 130.217H208.914C208.742 130.217 208.601 130.078 208.601 129.905V126.415C208.601 126.243 208.74 126.103 208.914 126.103H209.223C209.394 126.103 209.535 126.242 209.535 126.415V129.905C209.535 130.076 209.396 130.217 209.223 130.217Z" fill="#333333"/>
<path d="M208.915 137.246H209.223C209.395 137.246 209.535 137.106 209.535 136.933V133.444C209.535 133.272 209.395 133.132 209.223 133.132H208.915C208.742 133.132 208.602 133.272 208.602 133.444V136.933C208.602 137.106 208.742 137.246 208.915 137.246Z" fill="#333333"/>
<path d="M230.968 63.7941C230.764 64.043 230.581 64.3075 230.411 64.5805C230.242 64.8534 230.087 65.1359 229.956 65.4341C229.893 65.5844 229.834 65.7383 229.801 65.9078C229.793 65.9511 229.787 65.9956 229.786 66.0425C229.786 66.0665 229.789 66.0918 229.791 66.117C229.798 66.1447 229.801 66.1699 229.815 66.2C229.822 66.2144 229.831 66.2289 229.839 66.2421L229.861 66.2673C229.875 66.283 229.89 66.301 229.905 66.3154C229.936 66.3443 229.968 66.3743 230 66.3996C230.13 66.5054 230.271 66.5883 230.415 66.6617C230.56 66.7338 230.708 66.7976 230.862 66.8468C230.594 66.6713 230.325 66.4958 230.104 66.2842C230.076 66.2577 230.052 66.2301 230.027 66.2024L229.993 66.1603L229.976 66.1399C229.976 66.1399 229.974 66.1327 229.972 66.1291C229.958 66.0954 229.966 66.016 229.983 65.9475C230.018 65.8044 230.073 65.6577 230.137 65.5147C230.26 65.2261 230.404 64.9436 230.545 64.6574C230.688 64.3725 230.832 64.0875 230.967 63.7953L230.968 63.7941Z" fill="#F99893"/>
<path d="M236.315 56.9385C236.315 56.9385 234.737 55.468 231.038 55.5895C227.34 55.7109 226.574 57.6827 226.275 60.5226L226.269 63.6451C226.269 63.6451 227.373 62.9237 228.712 60.1343C228.712 60.1343 230.702 62.5943 231.612 62.337C232.521 62.0797 231.335 60.3146 231.335 60.3146C231.335 60.3146 235.245 64.2174 237.726 64.2847C237.726 64.2847 239.358 59.9058 237.568 58.2418C237.568 58.2418 238.953 58.3512 239.036 58.0711C239.119 57.7909 238.396 57.3461 237.058 57.4675C237.058 57.4675 238.069 55.5714 237.545 55.3562C237.021 55.141 236.318 56.9385 236.318 56.9385H236.315Z" fill="#07085B"/>
<path d="M229.312 67.8881C229.471 68.4952 230.19 68.9497 231.049 68.9413C231.907 68.9329 232.617 68.4652 232.766 67.8556L229.312 67.8881Z" fill="white"/>
<path d="M225.794 101.119L224.801 101.063L224.769 101.131L224.75 101.173L224.719 101.242L225.41 101.956L225.772 101.922C225.796 101.87 225.859 101.847 225.911 101.871L231.121 104.255L231.265 103.939L226.056 101.555C226.003 101.531 225.98 101.468 226.004 101.415L225.792 101.119H225.794Z" fill="#9C9895"/>
<path d="M231.052 104.07L231.081 104.006C231.247 103.642 231.679 103.481 232.043 103.648L232.054 103.653L231.421 105.036L231.41 105.031C231.046 104.864 230.886 104.433 231.052 104.069L231.052 104.07Z" fill="#F4A640"/>
<path d="M231.257 105.108L232.001 103.481C232.056 103.361 232.198 103.308 232.318 103.363L236.697 105.367C236.817 105.422 236.87 105.564 236.815 105.684L236.07 107.311C236.015 107.431 235.873 107.484 235.753 107.429L231.375 105.425C231.254 105.37 231.202 105.228 231.257 105.108Z" fill="#CF283C"/>
<g style="mix-blend-mode:multiply" opacity="0.6">
<path d="M235.64 106.809L235.592 106.915C235.565 106.972 235.497 106.999 235.439 106.971L232.163 105.472C232.105 105.445 232.08 105.377 232.106 105.319L232.154 105.213C232.181 105.156 232.249 105.129 232.308 105.157L235.585 106.656C235.642 106.683 235.669 106.751 235.641 106.809H235.64Z" fill="#CF283C"/>
</g>
<g style="mix-blend-mode:multiply" opacity="0.6">
<path d="M232.371 104.69L232.42 104.584C232.446 104.526 232.515 104.5 232.573 104.527L235.849 106.028C235.907 106.054 235.932 106.123 235.906 106.181L235.857 106.287C235.831 106.345 235.762 106.37 235.704 106.344L232.428 104.843C232.37 104.816 232.345 104.748 232.371 104.69Z" fill="#CF283C"/>
</g>
<g style="mix-blend-mode:multiply" opacity="0.6">
<path d="M236.201 105.584L236.153 105.69C236.126 105.747 236.058 105.774 236 105.746L232.724 104.247C232.666 104.22 232.64 104.152 232.667 104.094L232.715 103.988C232.742 103.931 232.81 103.904 232.868 103.932L236.144 105.431C236.202 105.457 236.229 105.526 236.201 105.585V105.584Z" fill="#CF283C"/>
</g>
<path d="M236.629 105.165L235.362 102.226C234.901 102.488 234.49 102.741 234.146 102.987C231.172 105.108 230.863 105.786 231.177 106.145C231.489 106.505 232.052 106.292 232.309 106.645C232.566 106.999 233.005 107.234 233.385 107.141C233.765 107.047 233.929 107.694 234.366 107.331C234.804 106.968 236.61 105.171 236.63 105.165H236.629Z" fill="#FFC0BB"/>
<path d="M245.277 88.656C246.776 88.0187 249.362 85.4938 250.676 84.1484C251.64 85.9195 255.22 92.7788 253.939 94.7218C252.462 96.9581 236.628 105.166 236.628 105.166L234.528 102.825L247.411 92.1909L245.278 88.6572L245.277 88.656Z" fill="#FFC0BB"/>
<path d="M181.616 128.16C181.709 128.16 181.801 128.169 181.89 128.187C183.425 122.467 188.644 118.255 194.85 118.255C199.71 118.255 203.967 120.839 206.321 124.708H207.774C208.422 124.708 208.947 125.233 208.947 125.881V137.471C208.947 138.119 208.422 138.644 207.774 138.644H206.321C203.966 142.513 199.71 145.097 194.85 145.097C189.135 145.097 184.258 141.524 182.323 136.492C182.115 136.612 181.873 136.683 181.616 136.683C180.837 136.683 180.204 136.052 180.204 135.272V129.574C180.204 128.795 180.837 128.162 181.616 128.162V128.16Z" fill="#F3FCFF"/>
<path d="M185.476 131.674C185.476 128.527 187.029 125.743 189.408 124.043C190.452 123.642 191.586 123.419 192.771 123.419C197.947 123.419 202.145 127.615 202.145 132.792C202.145 135.94 200.591 138.724 198.211 140.424C197.167 140.825 196.033 141.048 194.848 141.048C189.672 141.048 185.476 136.852 185.476 131.674Z" fill="#70C0FD"/>
<path opacity="0.5" d="M187.156 130.569C187.156 131.738 188.228 132.687 189.552 132.687C190.876 132.687 191.948 131.739 191.948 130.569C191.948 129.399 190.876 128.452 189.552 128.452C188.228 128.452 187.156 129.399 187.156 130.569Z" fill="white"/>
<path opacity="0.5" d="M189.553 134.883C189.553 135.346 190.089 135.723 190.751 135.723C191.414 135.723 191.95 135.347 191.95 134.883C191.95 134.419 191.414 134.044 190.751 134.044C190.089 134.044 189.553 134.419 189.553 134.883Z" fill="white"/>
<path d="M157.669 114.024H211.454V113.263H157.669V114.024Z" fill="#E8B891"/>
<path d="M198.21 140.424C200.59 138.724 202.142 135.94 202.142 132.793C202.142 127.616 197.946 123.419 192.77 123.419C191.585 123.419 190.452 123.642 189.407 124.043C190.941 122.948 192.818 122.301 194.847 122.301C200.023 122.301 204.22 126.497 204.22 131.674C204.22 135.806 201.545 139.31 197.834 140.558C197.961 140.516 198.086 140.471 198.211 140.424H198.21Z" fill="#333333"/>
<path d="M181.806 102.435C181.806 102.655 181.984 102.833 182.204 102.833C182.424 102.833 182.602 102.655 182.602 102.435C182.602 102.215 182.424 102.037 182.204 102.037C181.984 102.037 181.806 102.215 181.806 102.435Z" fill="#E8B891"/>
<path d="M179.807 102.435C179.807 102.655 179.985 102.833 180.205 102.833C180.425 102.833 180.603 102.655 180.603 102.435C180.603 102.215 180.425 102.037 180.205 102.037C179.985 102.037 179.807 102.215 179.807 102.435Z" fill="#CF283C"/>
<path d="M177.809 102.435C177.809 102.655 177.987 102.833 178.207 102.833C178.427 102.833 178.605 102.655 178.605 102.435C178.605 102.215 178.427 102.037 178.207 102.037C177.987 102.037 177.809 102.215 177.809 102.435Z" fill="#E8B891"/>
<path d="M208.289 108.157H198.55C198.186 108.157 197.892 107.861 197.892 107.498V103.781C197.892 103.417 198.187 103.123 198.55 103.123H208.289C208.654 103.123 208.948 103.418 208.948 103.781V107.498C208.948 107.862 208.652 108.157 208.289 108.157Z" fill="#E8B891"/>
<path d="M198.55 111.797H208.289C208.653 111.797 208.948 111.502 208.948 111.138V110.284C208.948 109.92 208.653 109.625 208.289 109.625H198.55C198.187 109.625 197.892 109.92 197.892 110.284V111.138C197.892 111.502 198.187 111.797 198.55 111.797Z" fill="#E8B891"/>
<path d="M186.456 108.998C186.456 110.543 187.709 111.796 189.254 111.796C190.799 111.796 192.052 110.543 192.052 108.998C192.052 107.453 190.799 106.2 189.254 106.2C187.709 106.2 186.456 107.453 186.456 108.998Z" fill="#E8B891"/>
<path d="M187.252 108.998C187.252 110.543 188.505 111.796 190.05 111.796C191.595 111.796 192.848 110.543 192.848 108.998C192.848 107.453 191.595 106.2 190.05 106.2C188.505 106.2 187.252 107.453 187.252 108.998Z" fill="#F3FCFF"/>
<path d="M178.85 108.998C178.85 110.543 180.102 111.796 181.647 111.796C183.192 111.796 184.445 110.543 184.445 108.998C184.445 107.453 183.192 106.2 181.647 106.2C180.102 106.2 178.85 107.453 178.85 108.998Z" fill="#E8B891"/>
<path d="M179.645 108.998C179.645 110.543 180.897 111.796 182.442 111.796C183.987 111.796 185.24 110.543 185.24 108.998C185.24 107.453 183.987 106.2 182.442 106.2C180.897 106.2 179.645 107.453 179.645 108.998Z" fill="#F3FCFF"/>
<path d="M159.155 47.0444C158.685 46.8147 158.199 46.5767 157.715 46.3506C157.686 46.3374 157.674 46.3278 157.672 46.3278C157.67 46.3206 157.665 46.2989 157.665 46.2364C157.663 45.9298 157.65 45.6196 157.635 45.3202C157.623 45.0677 157.612 44.8068 157.608 44.5556C157.609 44.5387 157.624 44.5039 157.636 44.4894C158.12 44.2009 158.624 43.9231 159.11 43.655L158.989 43.4338L159.122 43.6478C159.428 43.4795 159.63 43.3689 159.648 43.0971L159.653 43.0346L158.547 40.5446L158.498 40.5061C158.245 40.3029 157.991 40.3859 157.571 40.5241C157.379 40.5879 157.188 40.6528 156.997 40.7189C156.706 40.8187 156.405 40.9233 156.113 41.0123C156.095 41.0147 156.052 41.0063 156.045 41.0039C155.84 40.8127 155.637 40.6119 155.44 40.4171C155.217 40.1983 154.988 39.9711 154.753 39.7546C154.699 39.7053 154.691 39.6861 154.689 39.6861C154.689 39.6861 154.688 39.6729 154.699 39.6356C154.834 39.1799 154.96 38.7158 155.083 38.2673L155.206 37.8129C155.225 37.7467 155.241 37.6806 155.263 37.594L155.358 37.2201L152.304 36.0791L152.203 36.2823C152.104 36.4783 152.008 36.6694 151.913 36.857C151.678 37.3235 151.455 37.7648 151.244 38.2144C151.175 38.3611 151.161 38.3695 151.01 38.3635C150.662 38.3455 150.311 38.3575 149.97 38.3683C149.764 38.3756 149.55 38.3828 149.35 38.3828C149.338 38.3804 149.315 38.3683 149.304 38.3599L149.287 38.3311C148.972 37.8081 148.645 37.2682 148.36 36.7223C148.161 36.34 147.864 36.2366 147.477 36.4158C147.437 36.4338 147.379 36.4446 147.318 36.4566C147.28 36.4638 147.241 36.4711 147.204 36.4807L145.787 37.1059L145.759 37.1311C145.742 37.1456 145.726 37.16 145.71 37.1756C145.697 37.1889 145.679 37.2057 145.672 37.2105L145.587 37.2598C145.192 37.4858 145.078 37.5964 145.238 38.0485C145.255 38.0966 145.274 38.1519 145.296 38.2181C145.438 38.6569 145.585 39.0934 145.724 39.5009L145.837 39.8352L144.442 41.3249L142.097 40.6792L142 40.8476C141.549 41.6255 141.219 42.5068 140.991 43.542L140.949 43.7344L141.65 44.083C142.141 44.3271 142.625 44.5688 143.111 44.8068C143.125 44.8141 143.135 44.8189 143.142 44.8225C143.142 44.8285 143.142 44.8357 143.142 44.8453C143.13 45.527 143.14 46.139 143.169 46.7137C143.171 46.751 143.169 46.769 143.169 46.7703C143.165 46.7739 143.152 46.7847 143.116 46.8051C142.804 46.9807 142.497 47.1598 142.188 47.339C141.935 47.4856 141.684 47.6311 141.43 47.7754C141.338 47.8283 141.054 47.9894 141.163 48.3946C141.356 49.11 141.689 49.8278 142.21 50.6526C142.412 50.97 142.717 50.8642 142.816 50.8293C143.075 50.7392 143.335 50.6514 143.594 50.5648C143.926 50.453 144.269 50.3376 144.606 50.2185C144.66 50.1993 144.679 50.1993 144.678 50.1993C144.68 50.1993 144.698 50.2089 144.741 50.2534C145.086 50.6177 145.441 50.9628 145.817 51.3283C145.928 51.4353 146.039 51.5435 146.152 51.6541L145.531 53.9085L145.698 54.0059C146.588 54.5265 147.478 54.8692 148.418 55.0543L148.608 55.0916L149.66 52.9515C149.803 52.9442 149.944 52.937 150.083 52.9298C150.552 52.907 150.995 52.8865 151.442 52.8432C151.587 52.83 151.604 52.8432 151.662 52.9515C151.921 53.4312 152.198 53.9085 152.466 54.369L152.587 54.5746C152.593 54.5854 152.599 54.5974 152.606 54.6095C152.79 54.9521 153.031 54.9317 153.202 54.8535L155.431 53.8436C155.588 53.7726 155.827 53.5935 155.684 53.1883C155.595 52.937 155.511 52.6845 155.427 52.4308C155.31 52.0834 155.191 51.7239 155.06 51.3728C155.026 51.2814 155.02 51.2682 155.15 51.1407C155.503 50.7933 155.913 50.3773 156.277 49.93C156.329 49.8651 156.393 49.8438 156.467 49.8663C156.963 50.0178 157.467 50.156 157.954 50.2907C158.141 50.3424 158.329 50.3941 158.514 50.4458L158.678 50.4915L158.781 50.358C159.157 49.8723 159.755 48.2792 159.829 47.5638L159.847 47.3883L159.689 47.3113C159.511 47.2247 159.333 47.1382 159.155 47.0504V47.0444ZM158.474 49.9071C158.346 49.8711 158.216 49.8362 158.087 49.8001C157.603 49.6667 157.103 49.5296 156.613 49.3805C156.301 49.2843 156.096 49.3481 155.885 49.609C155.537 50.037 155.139 50.4398 154.796 50.7776C154.621 50.9496 154.447 51.166 154.588 51.5447C154.716 51.8874 154.835 52.2433 154.949 52.5871C155.035 52.8432 155.12 53.0993 155.21 53.353C155.214 53.3651 155.217 53.3747 155.22 53.3831L153.051 54.3654C153.042 54.3486 153.033 54.3329 153.024 54.3173L152.904 54.1105C152.637 53.6536 152.362 53.1799 152.108 52.7074C151.951 52.4152 151.738 52.3046 151.396 52.3359C150.96 52.3767 150.523 52.3984 150.06 52.42C149.873 52.4296 149.682 52.4381 149.486 52.4489L149.338 52.4573L148.328 54.5133C147.572 54.345 146.847 54.0648 146.122 53.6596L146.718 51.4942L146.612 51.3908C146.462 51.2441 146.315 51.0999 146.17 50.9592C145.797 50.5973 145.446 50.2558 145.108 49.8999C144.908 49.6895 144.708 49.6402 144.437 49.7364C144.105 49.8542 143.764 49.9697 143.434 50.0803C143.174 50.168 142.911 50.2558 142.652 50.3472C142.641 50.3508 142.631 50.3544 142.624 50.3568C142.137 49.5849 141.828 48.9176 141.65 48.2575C141.647 48.2455 141.645 48.2371 141.644 48.2299C141.651 48.2251 141.663 48.2167 141.679 48.2082C141.934 48.0628 142.186 47.9161 142.44 47.7694C142.747 47.5914 143.053 47.4135 143.363 47.2392C143.593 47.1093 143.685 46.9434 143.671 46.6837C143.642 46.121 143.634 45.521 143.645 44.8501C143.65 44.5459 143.48 44.4233 143.332 44.35C142.848 44.1119 142.364 43.8714 141.874 43.6274L141.526 43.4542C141.725 42.6174 141.986 41.9128 142.34 41.2648L144.601 41.8876L146.409 39.9566L146.2 39.3362C146.063 38.931 145.916 38.4958 145.774 38.0593C145.751 37.9884 145.73 37.9295 145.712 37.8778C145.701 37.8465 145.689 37.8141 145.68 37.7864C145.72 37.7612 145.778 37.7275 145.836 37.695L145.922 37.6457C145.981 37.6121 146.023 37.5712 146.058 37.5375L146.062 37.5339L147.341 36.9652C147.364 36.9604 147.387 36.9556 147.411 36.9508C147.495 36.9352 147.591 36.9159 147.686 36.8726C147.821 36.8101 147.833 36.8053 147.911 36.9556C148.203 37.5147 148.534 38.0617 148.853 38.5908L148.875 38.6268C148.963 38.7723 149.166 38.8853 149.339 38.8853C149.556 38.8853 149.773 38.8781 149.985 38.8709C150.313 38.8601 150.654 38.8481 150.981 38.8661C151.419 38.889 151.584 38.6689 151.697 38.4285C151.905 37.9848 152.126 37.5471 152.361 37.0843C152.423 36.9616 152.486 36.8366 152.549 36.7103L154.757 37.5351C154.744 37.5892 154.732 37.6349 154.718 37.6806L154.593 38.1363C154.472 38.5824 154.346 39.0453 154.212 39.4949C154.12 39.8075 154.259 39.9903 154.408 40.1274C154.637 40.3378 154.863 40.5614 155.081 40.7778C155.281 40.975 155.487 41.1782 155.696 41.3742C155.829 41.498 156.072 41.5533 156.251 41.498C156.557 41.4042 156.862 41.2996 157.157 41.1974C157.345 41.1325 157.535 41.0676 157.725 41.0051C157.957 40.9281 158.08 40.886 158.144 40.892L159.112 43.0719C159.059 43.1079 158.966 43.1584 158.875 43.2089L158.863 43.2162C158.369 43.4879 157.858 43.7692 157.363 44.065C157.194 44.166 157.097 44.398 157.099 44.564C157.104 44.8261 157.116 45.0906 157.127 45.3455C157.14 45.6401 157.154 45.9455 157.155 46.2424C157.157 46.4552 157.2 46.6705 157.497 46.8087C157.977 47.0324 158.46 47.2692 158.928 47.4977C159.05 47.5578 159.174 47.6179 159.297 47.678C159.18 48.3032 158.768 49.4142 158.47 49.9071H158.474Z" fill="#70C0FD"/>
<path d="M151.968 41.4356C150.856 41.0076 149.644 41.0388 148.554 41.5222C147.465 42.0067 146.629 42.8856 146.201 43.9978C145.773 45.1099 145.805 46.3231 146.288 47.4124C147.026 49.074 148.661 50.0623 150.372 50.0623C150.977 50.0623 151.59 49.9385 152.178 49.6776C154.426 48.6784 155.442 46.0369 154.444 43.7886C153.96 42.6992 153.081 41.8636 151.969 41.4356H151.968ZM151.972 49.2171C149.978 50.1032 147.634 49.2015 146.748 47.2068C146.319 46.2401 146.291 45.1652 146.671 44.1781C147.051 43.191 147.792 42.4119 148.759 41.9826C149.273 41.7542 149.818 41.64 150.364 41.64C150.843 41.64 151.324 41.729 151.786 41.9057C152.773 42.2856 153.552 43.0263 153.982 43.993C154.868 45.9876 153.966 48.331 151.971 49.2171H151.972Z" fill="#70C0FD"/>
<path d="M94.625 88.9795C93.8519 87.2409 91.8091 86.4546 90.0693 87.2265C89.2265 87.6004 88.5809 88.2809 88.2502 89.1406C87.9196 90.0015 87.9436 90.9393 88.3175 91.7809C88.6915 92.6238 89.372 93.2694 90.2317 93.6C90.6344 93.7551 91.0529 93.8321 91.4725 93.8321C91.9486 93.8321 92.4235 93.7323 92.872 93.5327C93.7148 93.1588 94.3605 92.4783 94.6923 91.6186C95.023 90.7577 94.9989 89.8211 94.625 88.9783V88.9795ZM94.3629 91.4936C94.0659 92.2655 93.4852 92.8762 92.7289 93.2129C91.9726 93.5484 91.131 93.57 90.3579 93.273C89.586 92.976 88.9752 92.3953 88.6398 91.639C88.3043 90.8828 88.2827 90.0411 88.5797 89.268C88.8766 88.4961 89.4574 87.8854 90.2136 87.5487C90.6212 87.3672 91.0468 87.2818 91.4677 87.2818C92.6556 87.2818 93.7906 87.9683 94.304 89.1226C94.6394 89.8788 94.6611 90.7205 94.3641 91.4936H94.3629Z" fill="#70C0FD"/>
<path d="M98.3077 91.5247C97.941 91.3444 97.5611 91.1592 97.1823 90.9825C97.1487 90.9668 97.1402 90.9572 97.1402 90.9572C97.139 90.9548 97.133 90.9404 97.1318 90.8767C97.1306 90.6386 97.1186 90.3969 97.109 90.1649C97.1006 89.9689 97.091 89.7657 97.0873 89.5673C97.0873 89.5505 97.1054 89.512 97.1114 89.5048C97.4913 89.2775 97.8869 89.0599 98.2692 88.8495L98.2777 88.8447C98.5169 88.7125 98.6612 88.6331 98.6756 88.4335L98.6792 88.3902L97.822 86.4617L97.7883 86.4352C97.5995 86.2837 97.4168 86.3439 97.0861 86.4533C96.9371 86.5026 96.788 86.5543 96.6389 86.6048C96.4128 86.6829 96.1784 86.7635 95.9487 86.8332C95.9319 86.8368 95.8898 86.8284 95.879 86.8212C95.7203 86.6721 95.5616 86.5158 95.4089 86.3655C95.2358 86.1948 95.0578 86.018 94.8751 85.8497C94.8113 85.7908 94.8113 85.7884 94.827 85.7367C94.9316 85.3832 95.0301 85.0213 95.1251 84.6726L95.2213 84.3191C95.2358 84.2686 95.2478 84.2169 95.2646 84.1496L95.3343 83.8743L92.991 82.999L92.9201 83.1408C92.8443 83.2923 92.7698 83.4402 92.6964 83.5857C92.5125 83.95 92.3393 84.2927 92.1746 84.6438C92.1181 84.764 92.0977 84.776 91.975 84.77C91.7045 84.7556 91.4316 84.7652 91.1671 84.7736C91.0059 84.7784 90.84 84.7844 90.6813 84.7844C90.6681 84.7832 90.6404 84.7676 90.6356 84.7628L90.6152 84.7291C90.3711 84.3239 90.1186 83.9055 89.8974 83.4823C89.7471 83.1961 89.5259 83.1192 89.2361 83.2527C89.2036 83.2683 89.1567 83.2767 89.1075 83.2863C89.0774 83.2923 89.0485 83.2983 89.0197 83.3044L87.9232 83.7877L87.9027 83.8045C87.8907 83.8153 87.8787 83.8274 87.8666 83.8382C87.8558 83.849 87.839 83.8646 87.833 83.8682L87.7669 83.9067C87.4542 84.0859 87.3869 84.1664 87.5035 84.4971C87.5168 84.5343 87.5324 84.5776 87.5492 84.6293C87.6586 84.966 87.7693 85.2942 87.8775 85.6128C87.9099 85.7102 87.9424 85.8052 87.9737 85.8978L86.8735 87.0737L85.0532 86.5723L84.9847 86.6901C84.6348 87.2937 84.3787 87.9766 84.2019 88.7798L84.1719 88.9144L84.6913 89.1729C85.0772 89.3653 85.4584 89.5553 85.8395 89.7429C85.8587 89.7525 85.8684 89.7585 85.8732 89.7621C85.8732 89.7669 85.8744 89.7765 85.8744 89.7909C85.8648 90.3212 85.872 90.7961 85.8948 91.2422C85.8972 91.2854 85.8912 91.2975 85.8912 91.2975C85.8912 91.2975 85.8828 91.3083 85.8431 91.3311C85.6015 91.467 85.3622 91.6065 85.1229 91.7459C84.9269 91.8602 84.7298 91.9744 84.5326 92.0862C84.4123 92.1547 84.262 92.2762 84.3342 92.5455C84.4833 93.101 84.7418 93.6565 85.147 94.2961C85.2949 94.5305 85.5137 94.4548 85.5954 94.4259C85.7974 94.355 86.0006 94.2877 86.2038 94.2191C86.4611 94.1326 86.7256 94.0436 86.9865 93.951C87.0346 93.9342 87.0767 93.945 87.1128 93.9835C87.3809 94.2672 87.6574 94.5354 87.9508 94.8203C88.0386 94.9057 88.1276 94.9922 88.2177 95.08L87.7356 96.8294L87.8522 96.8979C88.5424 97.3019 89.2313 97.5676 89.9611 97.7107L90.0934 97.7372L90.9098 96.0755C91.024 96.0695 91.137 96.0635 91.2488 96.0587C91.6131 96.0407 91.9582 96.025 92.3069 95.9914C92.4283 95.9794 92.4487 95.9962 92.4968 96.0852C92.6988 96.4615 92.9177 96.8366 93.1281 97.1985L93.2146 97.3476C93.2194 97.356 93.2242 97.3657 93.2291 97.3753C93.3385 97.5785 93.4852 97.6398 93.6679 97.5568L95.4017 96.7717C95.5171 96.72 95.6938 96.5865 95.588 96.286C95.5183 96.0912 95.4534 95.894 95.3872 95.698C95.2971 95.4275 95.2033 95.1473 95.1011 94.8744C95.071 94.7963 95.0698 94.7782 95.1756 94.6736C95.4498 94.4043 95.7684 94.0809 96.0497 93.7334C96.1207 93.6468 96.1243 93.648 96.2181 93.6769C96.604 93.7947 96.9972 93.9029 97.3771 94.0075C97.5226 94.0472 97.6669 94.0869 97.8112 94.1278L97.9254 94.1602L97.9975 94.0664C98.2885 93.6901 98.7514 92.4565 98.8091 91.9034L98.8223 91.7808L98.7117 91.7267C98.5758 91.6606 98.4388 91.5932 98.3017 91.5271L98.3077 91.5247ZM97.7907 93.7538C97.6873 93.725 97.5827 93.6961 97.4769 93.6673C97.0994 93.5639 96.7086 93.4569 96.3275 93.3402C96.093 93.2693 95.9403 93.3162 95.7816 93.5122C95.5111 93.8464 95.2009 94.1602 94.934 94.4235C94.8017 94.5534 94.6707 94.7157 94.7765 94.9995C94.8763 95.2664 94.9688 95.5441 95.0578 95.8122C95.1239 96.0106 95.1901 96.209 95.2598 96.4062C95.267 96.4254 95.2694 96.4386 95.2718 96.4471C95.2694 96.4483 95.2658 96.4507 95.261 96.4519L93.5537 97.225C93.5537 97.225 93.5477 97.2142 93.5453 97.2106C93.5381 97.1973 93.5308 97.1853 93.5248 97.1733L93.4383 97.0242C93.2291 96.6647 93.0126 96.2932 92.813 95.9216C92.6952 95.7028 92.5353 95.6199 92.2792 95.6427C91.939 95.6752 91.5987 95.6908 91.238 95.7088C91.0925 95.7161 90.9434 95.7233 90.7931 95.7317L90.6897 95.7377L89.9022 97.3404C89.301 97.2081 88.7263 96.9857 88.1528 96.6635L88.6169 94.9754L88.5424 94.9033C88.4269 94.789 88.3127 94.6784 88.1997 94.569C87.9099 94.2877 87.6358 94.0208 87.3725 93.743C87.221 93.5831 87.0767 93.5482 86.8711 93.6216C86.6138 93.713 86.3493 93.8019 86.0944 93.8885C85.89 93.957 85.6856 94.0256 85.4824 94.0965C85.4656 94.1025 85.4548 94.1061 85.4463 94.1085C85.0628 93.5014 84.8187 92.9759 84.6781 92.4577C84.6733 92.4397 84.672 92.4289 84.6708 92.4229C84.6769 92.418 84.6877 92.4096 84.7093 92.3976C84.9077 92.2846 85.1049 92.1704 85.3021 92.0549C85.5401 91.9167 85.7782 91.7784 86.0187 91.6425C86.1918 91.5452 86.2579 91.4249 86.2483 91.2277C86.2255 90.7889 86.2194 90.3224 86.2279 89.8006C86.2315 89.5757 86.1124 89.4868 85.9958 89.429C85.6147 89.2415 85.2347 89.0527 84.8488 88.8603L84.5771 88.7245C84.7334 88.0596 84.9402 87.5017 85.2227 86.9883L86.9841 87.4728L88.374 85.988L88.3404 85.8882C88.2983 85.7643 88.255 85.6357 88.2105 85.5022C88.1035 85.1848 87.9929 84.8566 87.8835 84.5223C87.8654 84.467 87.8498 84.4213 87.8354 84.3816C87.8246 84.3516 87.8137 84.3191 87.8065 84.2951C87.8378 84.2746 87.8895 84.2446 87.9412 84.2157L88.0085 84.1772C88.0518 84.152 88.0843 84.1207 88.1107 84.0955C88.1131 84.0931 88.1143 84.0919 88.1167 84.0895L89.1171 83.6446C89.1363 83.641 89.1543 83.6374 89.1736 83.6338C89.2385 83.6218 89.3118 83.6073 89.384 83.5737C89.4982 83.5208 89.5187 83.522 89.5848 83.647C89.8108 84.0799 90.0669 84.5031 90.3134 84.9119L90.3338 84.9467C90.3988 85.0538 90.5503 85.1379 90.6777 85.1379C90.846 85.1379 91.0144 85.1319 91.1791 85.1271C91.4352 85.1187 91.7009 85.1103 91.957 85.1235C92.2672 85.1403 92.397 85.0033 92.4944 84.794C92.6567 84.4478 92.8299 84.1063 93.0114 83.7444C93.0619 83.6446 93.1124 83.5436 93.1641 83.4402L94.9135 84.0943C94.9015 84.1436 94.8907 84.1845 94.8799 84.2253L94.7825 84.5788C94.6875 84.9263 94.5901 85.2858 94.4867 85.6357C94.4182 85.8677 94.5168 86 94.6334 86.1082C94.8113 86.2729 94.9881 86.4473 95.1588 86.6156C95.3139 86.7683 95.4738 86.927 95.6361 87.0785C95.7347 87.1711 95.9163 87.2119 96.0497 87.1711C96.2866 87.0989 96.5235 87.0172 96.7531 86.9378C96.901 86.8873 97.0477 86.8368 97.1956 86.7875C97.4084 86.7178 97.4961 86.6925 97.5406 86.6985L98.3053 88.4191C98.2656 88.4479 98.1851 88.4924 98.1069 88.5357L98.1923 88.6908L98.0997 88.5405C97.715 88.7521 97.3158 88.9722 96.931 89.2018C96.806 89.2764 96.7327 89.4495 96.7351 89.5733C96.7387 89.7765 96.7483 89.9821 96.7567 90.1817C96.7675 90.4113 96.7783 90.6482 96.7795 90.8803C96.7795 91.039 96.812 91.2001 97.0332 91.3035C97.4084 91.4778 97.7871 91.663 98.1526 91.8421C98.2512 91.8902 98.3498 91.9383 98.4472 91.9864C98.3582 92.477 98.0264 93.3715 97.7907 93.7538Z" fill="#70C0FD"/>
<path d="M91.9073 122.35C91.7089 122.254 91.5093 122.155 91.3097 122.058C90.7699 121.793 90.212 121.52 89.6553 121.261C89.5519 121.213 89.5351 121.193 89.5339 121.031C89.5315 120.682 89.5158 120.33 89.5002 119.99C89.487 119.701 89.4737 119.402 89.4689 119.11C89.4689 119.058 89.5146 118.965 89.5447 118.946C90.1038 118.612 90.6857 118.292 91.2472 117.982L91.2568 117.977C91.5947 117.791 91.7822 117.688 91.7991 117.438L91.8027 117.395L90.5619 114.601L90.5282 114.574C90.2853 114.381 90.0485 114.459 89.5747 114.614C89.3559 114.686 89.1383 114.761 88.9195 114.837C88.5864 114.951 88.2413 115.07 87.9011 115.174C87.8542 115.189 87.7484 115.164 87.7195 115.137C87.4863 114.918 87.2542 114.689 87.0294 114.467C86.7757 114.217 86.5136 113.958 86.2467 113.711C86.1264 113.601 86.1216 113.567 86.1529 113.461C86.3044 112.945 86.4487 112.419 86.5881 111.909C86.6362 111.733 86.6843 111.557 86.7324 111.381C86.7529 111.307 86.7709 111.233 86.7961 111.135L86.8803 110.802L83.5799 109.568L83.509 109.71C83.3971 109.935 83.2865 110.152 83.1783 110.367C82.9102 110.9 82.6553 111.403 82.4148 111.915C82.3223 112.112 82.2694 112.16 82.0421 112.148C81.6477 112.128 81.2498 112.141 80.8638 112.153C80.627 112.161 80.3817 112.169 80.1436 112.169C80.1052 112.169 80.027 112.124 80.0114 112.098L79.9825 112.051C79.623 111.454 79.2503 110.838 78.9245 110.214C78.7237 109.829 78.4495 109.734 78.0612 109.913C78.0035 109.939 77.9313 109.954 77.8532 109.968C77.8111 109.977 77.769 109.984 77.7281 109.995L76.1687 110.685L76.1447 110.696L76.1242 110.713C76.1074 110.728 76.0906 110.744 76.0737 110.759C76.0497 110.782 76.0268 110.805 76.0088 110.815L75.9114 110.87C75.4738 111.12 75.4076 111.2 75.5627 111.637C75.582 111.692 75.6048 111.756 75.6301 111.833C75.7912 112.33 75.9559 112.817 76.1146 113.287C76.1675 113.442 76.218 113.595 76.2673 113.741L74.584 115.539L71.9257 114.807L71.8571 114.924C71.3413 115.814 70.9794 116.782 70.7185 117.969L70.6885 118.103L71.3906 118.453C71.9581 118.736 72.5184 119.015 73.0787 119.29C73.1701 119.334 73.1785 119.342 73.1761 119.437C73.1629 120.211 73.1725 120.907 73.2062 121.561C73.2122 121.689 73.1965 121.708 73.0895 121.768C72.7348 121.968 72.3766 122.176 72.0315 122.376C71.7429 122.544 71.4556 122.711 71.1658 122.875C71.0011 122.969 70.8231 123.121 70.9145 123.456C71.1321 124.263 71.5085 125.072 72.0976 126.004C72.2804 126.292 72.5461 126.2 72.6591 126.16C72.9561 126.057 73.2531 125.957 73.5512 125.857C73.9288 125.73 74.3183 125.599 74.7007 125.463C74.8317 125.416 74.8666 125.417 74.9736 125.531C75.3656 125.946 75.7707 126.339 76.1988 126.755C76.3394 126.892 76.4825 127.032 76.628 127.174L75.9246 129.729L76.0413 129.797C77.0452 130.385 78.0504 130.772 79.112 130.982L79.2443 131.008L80.4358 128.582C80.621 128.572 80.8037 128.564 80.9829 128.554C81.5179 128.529 82.0217 128.503 82.5315 128.455C82.7335 128.436 82.8008 128.47 82.891 128.637C83.1867 129.188 83.5066 129.736 83.8156 130.266L83.9454 130.489C83.9538 130.502 83.961 130.516 83.9695 130.531C84.0248 130.635 84.1739 130.912 84.5069 130.76L85.6046 130.263C86.0868 130.044 86.5701 129.826 87.0522 129.607C87.2278 129.528 87.4093 129.357 87.2819 128.998C87.1797 128.711 87.0823 128.417 86.9873 128.132C86.8551 127.735 86.718 127.325 86.5689 126.926C86.5076 126.76 86.5388 126.699 86.6975 126.542C87.0979 126.148 87.5632 125.677 87.9744 125.169C88.1019 125.013 88.1452 125.01 88.3099 125.06C88.875 125.233 89.4509 125.391 90.0076 125.543C90.2216 125.602 90.4344 125.661 90.646 125.72L90.7602 125.753L90.8324 125.659C91.2544 125.114 91.9229 123.329 92.0059 122.524L92.0191 122.402L91.9085 122.348L91.9073 122.35ZM90.6196 125.35C90.4476 125.302 90.2733 125.255 90.1002 125.207C89.5459 125.054 88.9724 124.896 88.4121 124.726C88.0983 124.631 87.9119 124.688 87.6991 124.951C87.2987 125.445 86.8418 125.908 86.4475 126.295C86.2647 126.475 86.0976 126.682 86.2359 127.053C86.3825 127.448 86.5184 127.854 86.6495 128.249C86.7444 128.535 86.843 128.831 86.9464 129.12C86.9921 129.25 86.9717 129.26 86.9044 129.291C86.4222 129.51 85.9401 129.729 85.4579 129.946L84.3602 130.444C84.347 130.45 84.3374 130.452 84.3326 130.454C84.3169 130.437 84.2941 130.395 84.2809 130.368C84.2712 130.35 84.2616 130.332 84.252 130.315L84.1222 130.093C83.8144 129.565 83.4969 129.021 83.2036 128.475C83.0461 128.182 82.8417 128.077 82.5002 128.109C81.9988 128.157 81.4975 128.181 80.9672 128.207C80.7532 128.217 80.5356 128.227 80.3144 128.239L80.211 128.245L79.0483 130.612C78.1153 130.414 77.2268 130.071 76.337 129.565L77.0236 127.073L76.9502 126.999C76.7795 126.831 76.6112 126.669 76.4453 126.508C76.0196 126.094 75.6168 125.703 75.2297 125.294C75.0313 125.085 74.8498 125.041 74.5816 125.137C74.2029 125.272 73.8133 125.403 73.4382 125.529C73.1388 125.63 72.8407 125.73 72.5425 125.833C72.4559 125.863 72.4331 125.862 72.4283 125.86C72.4283 125.86 72.4162 125.854 72.3958 125.821C71.8259 124.921 71.4628 124.141 71.2548 123.37C71.2259 123.264 71.2331 123.248 71.3401 123.187C71.6299 123.021 71.9197 122.854 72.2082 122.685C72.5533 122.485 72.9104 122.278 73.2627 122.079C73.4514 121.974 73.5729 121.843 73.5584 121.547C73.5248 120.9 73.5152 120.212 73.5284 119.446C73.5332 119.164 73.3889 119.054 73.2338 118.977C72.6735 118.702 72.1144 118.423 71.5469 118.141L71.0913 117.915C71.3293 116.877 71.6503 116.016 72.094 115.224L74.6946 115.939L76.6677 113.831L76.634 113.732C76.5739 113.554 76.5114 113.369 76.4464 113.177C76.2877 112.708 76.1242 112.223 75.9631 111.727C75.9367 111.648 75.9138 111.581 75.8934 111.523C75.8681 111.451 75.8393 111.37 75.8357 111.337C75.8669 111.305 75.9727 111.245 76.0846 111.18L76.1831 111.124C76.2384 111.091 76.2793 111.052 76.3166 111.017C76.3226 111.011 76.3298 111.005 76.3358 110.999L77.8243 110.337C77.8556 110.33 77.8856 110.324 77.9169 110.318C78.0071 110.301 78.1093 110.281 78.2055 110.236C78.4063 110.144 78.488 110.151 78.6082 110.381C78.9401 111.014 79.3152 111.636 79.6771 112.237L79.706 112.284C79.7865 112.417 79.9813 112.526 80.14 112.526C80.3853 112.526 80.633 112.517 80.8722 112.51C81.2498 112.497 81.6417 112.485 82.0205 112.504C82.4305 112.526 82.5976 112.354 82.7311 112.068C82.9691 111.559 83.2216 111.059 83.4897 110.53C83.5751 110.36 83.6617 110.188 83.7506 110.013L86.4571 111.024L86.4499 111.052C86.4258 111.145 86.4078 111.218 86.3885 111.29C86.3405 111.465 86.2924 111.642 86.2443 111.819C86.106 112.326 85.9629 112.852 85.8114 113.364C85.7285 113.645 85.8283 113.811 86.0038 113.972C86.2671 114.215 86.5268 114.471 86.7781 114.72C87.0041 114.944 87.2386 115.174 87.4755 115.397C87.5993 115.512 87.8338 115.564 88.0009 115.513C88.3472 115.406 88.6946 115.287 89.0313 115.172C89.2477 115.097 89.4641 115.023 89.6817 114.952C90.0677 114.825 90.1915 114.791 90.2745 114.833L91.4347 117.444C91.4023 117.494 91.2917 117.556 91.0849 117.67L91.0753 117.675C90.5102 117.987 89.927 118.308 89.3619 118.646C89.2056 118.739 89.1118 118.964 89.1142 119.118C89.1191 119.416 89.1335 119.717 89.1467 120.009C89.1623 120.347 89.178 120.696 89.1804 121.037C89.1828 121.282 89.2369 121.459 89.5062 121.584C90.0593 121.841 90.616 122.114 91.1546 122.378C91.3157 122.457 91.478 122.536 91.6391 122.614C91.5213 123.35 90.9827 124.797 90.6208 125.352L90.6196 125.35Z" fill="#70C0FD"/>
<path d="M79.2843 115.749C76.7727 116.865 75.6377 119.815 76.7534 122.327C77.2945 123.544 78.2756 124.477 79.5188 124.954C80.0995 125.178 80.7055 125.29 81.3103 125.29C81.998 125.29 82.6845 125.145 83.3326 124.858C85.8443 123.742 86.9793 120.792 85.8635 118.28C84.7477 115.768 81.7972 114.633 79.2855 115.749H79.2843ZM85.6303 121.966C85.1866 123.121 84.3185 124.033 83.1883 124.536C80.8546 125.572 78.1133 124.518 77.0769 122.184C76.5743 121.054 76.543 119.795 76.9867 118.641C77.4303 117.486 78.2984 116.574 79.4286 116.071C80.0298 115.804 80.6682 115.67 81.3067 115.67C81.8682 115.67 82.4308 115.773 82.9707 115.981C84.1249 116.425 85.0375 117.293 85.5401 118.423C86.0427 119.553 86.0739 120.812 85.6303 121.966Z" fill="#70C0FD"/>
<path d="M179.553 55.6855C180.752 55.6855 181.97 55.4403 183.135 54.9233C185.295 53.9638 186.953 52.2192 187.802 50.0129C188.651 47.8066 188.59 45.4008 187.63 43.2402C187.574 43.1127 187.515 42.9889 187.452 42.8651C187.336 42.8963 187.22 42.9276 187.104 42.9576C187.175 43.0971 187.243 43.239 187.308 43.3833C188.23 45.4573 188.289 47.767 187.474 49.8855C186.659 52.004 185.067 53.6788 182.993 54.601C181.875 55.0976 180.706 55.3333 179.554 55.3333C176.296 55.3333 173.181 53.4492 171.775 50.2859C171.071 48.7012 170.893 47.0143 171.164 45.42C171.044 45.4248 170.925 45.4284 170.805 45.432C170.539 47.0708 170.729 48.8022 171.452 50.4289C172.916 53.7245 176.16 55.6867 179.554 55.6867L179.553 55.6855Z" fill="#70C0FD"/>
<path d="M197.52 50.1236C196.549 49.6475 195.545 49.1557 194.545 48.6904C194.284 48.569 194.246 48.4656 194.244 48.1482C194.239 47.5229 194.21 46.8881 194.183 46.2749C194.159 45.7519 194.135 45.2121 194.125 44.6806C194.123 44.5436 194.232 44.3199 194.331 44.261C195.34 43.6574 196.39 43.0791 197.407 42.5188L197.425 42.5092C198.029 42.1762 198.305 42.0247 198.331 41.6519L198.333 41.6087L197.436 39.5887C197.326 39.6308 197.216 39.6729 197.106 39.715L197.972 41.6664C197.938 41.8167 197.754 41.9249 197.255 42.2002L197.235 42.211C196.217 42.7713 195.165 43.3521 194.149 43.958C193.922 44.0939 193.768 44.451 193.771 44.6866C193.781 45.2217 193.805 45.7651 193.829 46.2906C193.857 46.9013 193.886 47.5314 193.89 48.1506C193.893 48.557 193.975 48.8143 194.395 49.0102C195.393 49.4743 196.396 49.9649 197.365 50.4398C197.691 50.5997 198.016 50.7584 198.34 50.9159C198.154 52.2854 197.098 55.1157 196.407 56.1028C196.062 56.0066 195.714 55.9116 195.366 55.8154C194.365 55.5401 193.333 55.2564 192.32 54.9474C191.809 54.7911 191.533 54.8788 191.185 55.3069C190.458 56.2026 189.631 57.0418 188.916 57.744C188.595 58.0602 188.347 58.3704 188.568 58.9608C188.833 59.6737 189.08 60.4108 189.317 61.1225C189.489 61.6383 189.667 62.171 189.851 62.6916C189.959 62.9982 189.892 63.0884 189.699 63.1761C188.831 63.5705 187.963 63.9637 187.095 64.3568C186.432 64.6574 185.769 64.9568 185.106 65.2574C184.941 65.3319 184.903 65.2922 184.778 65.059C184.761 65.0277 184.744 64.9965 184.727 64.9676L184.491 64.56C183.936 63.609 183.364 62.6255 182.835 61.6408C182.577 61.1598 182.27 61.0011 181.704 61.0552C180.796 61.1418 179.892 61.1851 178.933 61.2308C178.547 61.25 178.154 61.268 177.754 61.2909L177.651 61.2969L175.539 65.594C173.768 65.2309 172.086 64.5817 170.402 63.6102L171.647 59.0858L171.574 59.0137C171.266 58.7119 170.963 58.4173 170.665 58.1275C169.894 57.3797 169.167 56.6727 168.466 55.9321C168.146 55.5942 167.88 55.5293 167.448 55.6832C166.762 55.9273 166.06 56.1641 165.381 56.3926C164.852 56.5705 164.303 56.7545 163.766 56.942C163.501 57.0346 163.433 57.0214 163.333 56.8627C162.297 55.2239 161.637 53.8063 161.258 52.4008C161.185 52.1291 161.246 52.0437 161.479 51.9103C162.005 51.6121 162.535 51.3031 163.048 51.0049C163.671 50.643 164.314 50.2703 164.951 49.9108C165.262 49.7364 165.436 49.5441 165.412 49.0812C165.353 47.9341 165.335 46.7138 165.357 45.3563C165.239 45.3491 165.122 45.3431 165.004 45.3359C164.982 46.7078 165 47.9402 165.06 49.0992C165.074 49.3902 165.009 49.4719 164.778 49.603C164.14 49.9637 163.495 50.3376 162.871 50.6995C162.359 50.9977 161.829 51.3055 161.306 51.6025C161.023 51.7636 160.781 51.9824 160.919 52.491C161.307 53.9326 161.981 55.3802 163.037 57.0502C163.307 57.4759 163.669 57.3496 163.885 57.2739C164.42 57.0875 164.967 56.9036 165.496 56.7256C166.177 56.4972 166.88 56.2603 167.569 56.015C167.85 55.9152 167.975 55.9237 168.212 56.1737C168.918 56.9192 169.649 57.6286 170.422 58.38C170.696 58.6457 170.974 58.9163 171.255 59.1916L169.993 63.7773L170.11 63.8458C171.908 64.8991 173.707 65.5928 175.607 65.9655L175.739 65.992L177.878 61.6371C178.242 61.6179 178.599 61.5999 178.951 61.583C179.913 61.5361 180.822 61.4929 181.738 61.4063C182.16 61.3666 182.336 61.4568 182.526 61.8079C183.059 62.7974 183.632 63.7833 184.188 64.7368L184.424 65.1444C184.44 65.1708 184.455 65.1973 184.469 65.2249C184.576 65.4245 184.774 65.7948 185.254 65.5784C185.917 65.2778 186.579 64.9772 187.243 64.6778C188.111 64.2847 188.979 63.8915 189.847 63.4972C190.421 63.2374 190.244 62.7373 190.186 62.5738C190.002 62.0556 189.825 61.5241 189.653 61.0107C189.415 60.2953 189.169 59.5571 188.9 58.8369C188.764 58.4738 188.847 58.3079 189.165 57.9941C189.885 57.2847 190.722 56.437 191.461 55.5281C191.715 55.2143 191.85 55.171 192.218 55.284C193.235 55.5954 194.272 55.8792 195.273 56.1545C195.66 56.2615 196.046 56.3673 196.43 56.4743L196.544 56.5068L196.616 56.413C197.35 55.4656 198.56 52.2301 198.706 50.8294L198.719 50.7067L198.608 50.6526C198.247 50.4771 197.885 50.2991 197.522 50.1212L197.52 50.1236Z" fill="#70C0FD"/>
</svg>
