<svg width="268" height="198" viewBox="0 0 268 198" fill="none" xmlns="http://www.w3.org/2000/svg">
<path d="M254.62 0H13.15C5.89 0 0 5.89 0 13.15V184.48C0 191.74 5.89 197.63 13.15 197.63H254.62C261.88 197.63 267.77 191.74 267.77 184.48V13.15C267.77 5.89 261.88 0 254.62 0Z" fill="black"/>
<path d="M120.02 97.46H117.21V89.24C117.21 86.95 119.07 85.08 121.37 85.08C123.67 85.08 125.53 86.94 125.53 89.24V91.9H122.72V89.24C122.72 88.5 122.12 87.9 121.38 87.9C120.64 87.9 120.04 88.5 120.04 89.24V97.46H120.02Z" fill="#38677C"/>
<path d="M118.36 97.46H115.55V89.24C115.55 86.95 117.41 85.08 119.71 85.08C122.01 85.08 123.87 86.94 123.87 89.24V91.9H121.06V89.24C121.06 88.5 120.46 87.9 119.72 87.9C118.98 87.9 118.38 88.5 118.38 89.24V97.46H118.36Z" fill="#24586F"/>
<path d="M127.5 94.38H124.69V97.47H127.5V94.38Z" fill="black"/>
<path d="M114.43 94.38H111.62V97.47H114.43V94.38Z" fill="black"/>
<path d="M128.57 96.06H112.61V98.87H128.57V96.06Z" fill="#38677C"/>
<path d="M117.21 96.06H109.75V98.87H117.21V96.06Z" fill="#24586F"/>
<path d="M140.65 98.87H100.97V103.08H140.65V98.87Z" fill="#38677C"/>
<path d="M112.07 98.87H100.97V103.08H112.07V98.87Z" fill="#24586F"/>
<path d="M100.97 98.87H140.65" stroke="#24586F" stroke-miterlimit="10"/>
<path d="M100.97 103.08H138.94V108.79C138.94 112.88 135.62 116.2 131.53 116.2H100.97V103.09V103.08Z" fill="#38677C"/>
<path d="M100.97 103.08H117.97V108.79C117.97 112.88 114.65 116.2 110.56 116.2H100.97V103.09V103.08Z" fill="#24586F"/>
<path d="M138.94 103.08H100.97" stroke="#24586F" stroke-miterlimit="10"/>
<path d="M135.24 127.6C135.24 129.23 133.91 130.55 132.28 130.55H114.69V124.64H132.28C133.1 124.64 133.83 124.97 134.37 125.51C134.62 125.77 134.82 126.06 134.97 126.39C135.14 126.76 135.23 127.17 135.23 127.6H135.24Z" fill="#24586F"/>
<path d="M134.98 126.39C134.51 127.42 133.48 128.13 132.29 128.13H114.7V124.65H132.29C133.11 124.65 133.84 124.98 134.38 125.52C134.63 125.78 134.83 126.07 134.98 126.4V126.39Z" fill="#38677C"/>
<path d="M122.35 124.64H114.69V130.55H122.35V124.64Z" fill="#24586F"/>
<path d="M112.21 119.45H119.67V134.5C119.67 136.83 117.78 138.72 115.45 138.72H112.2V119.46L112.21 119.45Z" fill="#38677C"/>
<path d="M109.41 119.45H115.02V137.13C115.02 138 114.31 138.71 113.44 138.71H111C110.13 138.71 109.42 138 109.42 137.13V119.45H109.41Z" fill="#24586F"/>
<path d="M106.14 116.19H125.96V118.38C125.96 119.95 124.69 121.22 123.12 121.22H108.98C107.41 121.22 106.14 119.95 106.14 118.38V116.19Z" fill="#38677C"/>
<path d="M104.78 116.19H114.84V118.38C114.84 119.95 113.57 121.22 112 121.22H107.62C106.05 121.22 104.78 119.95 104.78 118.38V116.19Z" fill="#24586F"/>
<path d="M104.78 116.19H125.97" stroke="#24586F" stroke-miterlimit="10"/>
<path d="M109.81 121.22H119.67" stroke="#24586F" stroke-miterlimit="10"/>
<path d="M109.41 129.09H119.67" stroke="#24586F" stroke-miterlimit="10"/>
<path d="M109.41 131.99H119.67" stroke="#24586F" stroke-miterlimit="10"/>
<path d="M121.28 129.34H108.74C108.365 129.34 108.06 129.644 108.06 130.02V131.06C108.06 131.436 108.365 131.74 108.74 131.74H121.28C121.656 131.74 121.96 131.436 121.96 131.06V130.02C121.96 129.644 121.656 129.34 121.28 129.34Z" fill="#38677C"/>
<path d="M112.6 129.34H108.74C108.365 129.34 108.06 129.644 108.06 130.02V131.06C108.06 131.436 108.365 131.74 108.74 131.74H112.6C112.976 131.74 113.28 131.436 113.28 131.06V130.02C113.28 129.644 112.976 129.34 112.6 129.34Z" fill="#24586F"/>
<path d="M165.85 164.12L157.62 164.71L156.05 154.47L164.74 154.44L165.85 164.12Z" fill="white"/>
<path d="M167.64 170.8L148.92 171.3L149.04 169.63C149.08 169.08 149.21 168.57 149.42 168.11C149.86 167.12 150.64 166.35 151.69 165.93L152.16 165.74C152.62 165.55 153.03 165.31 153.4 165.02C153.72 164.77 154 164.49 154.25 164.18C154.78 163.5 155.14 162.68 155.28 161.76L165.8 161.48L166.99 167.65L167.64 170.81V170.8Z" fill="black"/>
<path d="M158.615 162.466L154.917 162.564L154.929 163.044L158.628 162.945L158.615 162.466Z" fill="white"/>
<path d="M157.95 163.783L154.252 163.881L154.264 164.361L157.963 164.263L157.95 163.783Z" fill="white"/>
<path d="M162.8 167.12C162.44 167.12 162.08 166.86 161.99 166.5C161.94 166.31 161.98 166.11 162.09 165.97C162.2 165.83 162.37 165.74 162.56 165.74C162.92 165.74 163.28 166 163.37 166.36C163.42 166.55 163.38 166.75 163.27 166.89C163.16 167.03 162.99 167.12 162.8 167.12ZM162.57 166.21C162.57 166.21 162.49 166.21 162.47 166.25C162.45 166.28 162.44 166.32 162.46 166.38C162.5 166.52 162.65 166.65 162.79 166.64C162.82 166.64 162.87 166.64 162.89 166.6C162.91 166.57 162.92 166.53 162.9 166.47C162.86 166.33 162.71 166.2 162.57 166.21Z" fill="white"/>
<path d="M160.56 167.18C160.2 167.18 159.84 166.92 159.75 166.56C159.7 166.37 159.74 166.18 159.85 166.03C159.96 165.89 160.13 165.8 160.32 165.8C160.68 165.8 161.04 166.06 161.13 166.42C161.18 166.61 161.14 166.81 161.03 166.95C160.92 167.09 160.75 167.18 160.56 167.18ZM160.33 166.27C160.33 166.27 160.25 166.27 160.23 166.31C160.21 166.34 160.2 166.38 160.22 166.44C160.26 166.58 160.41 166.71 160.55 166.7C160.58 166.7 160.63 166.7 160.65 166.66C160.67 166.63 160.68 166.59 160.66 166.53C160.62 166.39 160.47 166.26 160.33 166.27Z" fill="white"/>
<path d="M167.64 170.8L148.92 171.3L149.04 169.63C149.08 169.08 149.21 168.57 149.42 168.11L166.99 167.65L167.64 170.81V170.8Z" fill="white"/>
<path d="M167.258 168.974L155.492 169.286L155.504 169.766L167.27 169.454L167.258 168.974Z" fill="#94C19B"/>
<path d="M159.43 171.02L148.93 171.3L149.05 169.63C149.09 169.08 149.22 168.57 149.43 168.11C149.87 167.12 150.65 166.35 151.7 165.93L152.17 165.74C152.63 165.55 153.04 165.31 153.41 165.02C156.09 166.08 158.42 168.32 159.44 171.03L159.43 171.02Z" fill="white"/>
<path d="M155.28 161.75L154.83 160.83C154.52 160.18 154.86 159.55 155.53 159.53L156.47 159.51C157.21 159.49 157.99 159.85 158.55 160.45L159.64 161.63L155.28 161.75Z" fill="black"/>
<path d="M200.06 157.7L200.65 165.93L190.41 167.51L190.38 158.81L200.06 157.7Z" fill="white"/>
<path d="M206.74 155.91L207.24 174.63L205.57 174.51C205.02 174.47 204.51 174.34 204.05 174.13C203.06 173.69 202.29 172.91 201.87 171.86L201.68 171.39C201.49 170.93 201.25 170.52 200.96 170.15C200.71 169.83 200.43 169.55 200.12 169.3C199.44 168.77 198.62 168.41 197.7 168.27L197.42 157.75L203.59 156.56L206.75 155.91H206.74Z" fill="black"/>
<path d="M198.915 164.915L198.435 164.927L198.533 168.626L199.013 168.613L198.915 164.915Z" fill="white"/>
<path d="M200.222 165.59L199.742 165.602L199.841 169.301L200.32 169.288L200.222 165.59Z" fill="white"/>
<path d="M203.06 160.76C203.06 161.12 202.8 161.48 202.44 161.57C202.25 161.62 202.05 161.58 201.91 161.47C201.77 161.36 201.68 161.19 201.68 161C201.68 160.64 201.94 160.28 202.3 160.19C202.49 160.14 202.69 160.18 202.83 160.29C202.97 160.4 203.06 160.57 203.06 160.76ZM202.15 160.99C202.15 160.99 202.15 161.07 202.19 161.09C202.22 161.11 202.26 161.12 202.32 161.1C202.46 161.06 202.59 160.91 202.58 160.77C202.58 160.74 202.58 160.69 202.54 160.67C202.51 160.65 202.47 160.64 202.41 160.66C202.27 160.7 202.14 160.85 202.15 160.99Z" fill="white"/>
<path d="M203.12 162.99C203.12 163.35 202.86 163.71 202.5 163.8C202.31 163.85 202.12 163.81 201.97 163.7C201.83 163.59 201.74 163.42 201.74 163.23C201.74 162.87 202 162.51 202.36 162.42C202.55 162.37 202.75 162.41 202.89 162.52C203.03 162.63 203.12 162.8 203.12 162.99ZM202.21 163.22C202.21 163.22 202.21 163.3 202.25 163.32C202.28 163.34 202.32 163.35 202.38 163.33C202.52 163.29 202.65 163.14 202.64 163C202.64 162.97 202.64 162.92 202.6 162.9C202.57 162.88 202.53 162.87 202.47 162.89C202.33 162.93 202.2 163.08 202.21 163.22Z" fill="white"/>
<path d="M206.74 155.91L207.24 174.63L205.57 174.51C205.02 174.47 204.51 174.34 204.05 174.13L203.59 156.56L206.75 155.91H206.74Z" fill="white"/>
<path d="M205.413 156.282L204.934 156.295L205.246 168.061L205.726 168.048L205.413 156.282Z" fill="#94C19B"/>
<path d="M206.96 164.13L207.24 174.63L205.57 174.51C205.02 174.47 204.51 174.34 204.05 174.13C203.06 173.69 202.29 172.91 201.87 171.86L201.68 171.39C201.49 170.93 201.25 170.52 200.96 170.15C202.02 167.47 204.26 165.14 206.97 164.12L206.96 164.13Z" fill="white"/>
<path d="M197.69 168.28L196.77 168.73C196.12 169.04 195.49 168.7 195.47 168.03L195.45 167.09C195.43 166.35 195.79 165.57 196.39 165.01L197.57 163.92L197.69 168.28Z" fill="black"/>
<path d="M193.14 158.13L192.22 169.77L189.43 170.1L189.59 168.15L177.21 171.43C173.91 172.3 170.93 170.32 169.99 167.51C169.55 166.19 169.56 164.68 170.22 163.21L173.63 148.58C173.63 148.58 170.63 147.48 163.83 145.4L165.85 156.2L167.63 156.3L167.86 159.58L162.02 159.55L156.46 159.52L151.27 136.78C150.45 133.21 153.52 129.94 157.14 130.54L175.02 133.47L187.57 131.25C187.57 131.25 194.45 145.4 184.63 159.51L193.13 158.13H193.14Z" fill="#38677C"/>
<path d="M174.22 122.11C169.35 127.29 161.26 127.8 153.5 126.39L158.68 119.09L164.52 117.71L167.31 117.05L171.97 115.95C172.73 115.81 173.5 115.95 174.15 116.3C174.75 116.62 175.25 117.13 175.57 117.78C176.32 119.34 175.42 120.83 174.23 122.1L174.22 122.11Z" fill="#CA3D16"/>
<path d="M158.68 119.09L142.93 114.61L141.31 116.33C141.31 116.33 144.6 122.09 153.5 126.39L158.68 119.09Z" fill="#92482D"/>
<path d="M137.42 109.37L133.02 110.23C132.68 110.3 132.44 110.61 132.47 110.96C132.5 111.33 132.82 111.61 133.19 111.59L137.55 111.36L137.42 109.38V109.37Z" fill="#92482D"/>
<path d="M140.65 111.28L137.42 109.37L132.42 111.21C132.08 111.34 131.91 111.72 132.04 112.06C132.14 112.31 132.38 112.47 132.65 112.47L136.01 112.44L140.43 116.29L140.65 111.28Z" fill="#92482D"/>
<path d="M139.34 113.98L137.34 109.75L134.68 109.55C134.49 109.54 134.33 109.39 134.3 109.2C134.27 108.97 134.42 108.76 134.65 108.72L138.09 108.18L140.64 110.17L139.35 113.98H139.34Z" fill="#92482D"/>
<path d="M146.33 120.13C141.37 120.03 138.16 116.46 138.16 116.46L140.63 110.16L144.62 115.5L146.34 120.12L146.33 120.13Z" fill="#92482D"/>
<path d="M139.65 114.18L135.35 113.07L133.01 113.9C132.75 113.99 132.65 114.31 132.81 114.53L132.83 114.55C132.91 114.67 133.05 114.74 133.2 114.73L135.33 114.59L138.17 116.45L139.66 114.17L139.65 114.18Z" fill="#92482D"/>
<path d="M173.12 116.2L167.59 117.89L166.36 115.67L164.55 112.39L163.83 111.09L168.65 101.85L173.12 116.2Z" fill="#BA6C57"/>
<path d="M168.69 110.58C168.69 110.58 169.05 113.95 166.37 115.67L164.56 112.39L168.69 110.58Z" fill="#92482D"/>
<path d="M169.8 110.87L164.04 114.13C162.6 114.95 160.78 114.1 160.48 112.47C160.06 110.25 159.77 107.25 160.51 104.75C160.95 103.27 161.85 102.04 163.04 101.19C163.57 100.8 164.17 100.5 164.8 100.29L165.16 100.18H165.2C165.38 100.12 165.56 100.08 165.75 100.05C166.19 99.97 166.64 99.93 167.09 99.94C167.53 99.94 167.95 100.03 168.33 100.17C169.96 100.76 171.04 102.44 170.77 104.28L170.54 105.85L169.8 110.88V110.87Z" fill="#BA6C57"/>
<path d="M162.71 101.44C166.11 97.51 171.79 99.25 173.5 101.04C176.41 104.07 174.85 108.54 171.59 111.28L168.08 102.88L162.71 101.44Z" fill="black"/>
<path d="M176.804 107.613C177.216 105.86 176.129 104.105 174.377 103.693C172.624 103.281 170.869 104.368 170.457 106.121C170.045 107.873 171.132 109.628 172.885 110.04C174.637 110.452 176.392 109.365 176.804 107.613Z" fill="black"/>
<path d="M166.425 101.354C167.698 100.081 167.698 98.0165 166.425 96.7434C165.151 95.4703 163.087 95.4703 161.814 96.7434C160.541 98.0165 160.541 100.081 161.814 101.354C163.087 102.627 165.151 102.627 166.425 101.354Z" fill="black"/>
<path d="M170.977 102.74C173.02 101.886 173.985 99.538 173.132 97.4943C172.279 95.4506 169.93 94.4855 167.887 95.3387C165.843 96.1919 164.878 98.5404 165.731 100.584C166.584 102.628 168.933 103.593 170.977 102.74Z" fill="black"/>
<path d="M160.32 105.44C159.99 106.68 159.16 107.04 158.6 107.12C158.24 107.17 157.98 107.49 158 107.85C158.02 108.33 158.33 108.75 158.78 108.92L160.37 109.53C161.24 109.7 162.06 109.08 162.14 108.2L162.43 105.22L160.33 105.43L160.32 105.44Z" fill="#BA6C57"/>
<path d="M170.07 106.25C170.07 106.25 165.41 106.79 164.35 102.81L166.49 101.07C168.61 100.83 170.58 102.2 171.08 104.27L171.38 105.49L170.06 106.25H170.07Z" fill="black"/>
<path d="M168.17 106.92C174.27 102.34 175.05 110.45 168.43 110.01L168.17 106.92Z" fill="#BA6C57"/>
<path d="M167.78 104.07L167.52 108.11L168.26 108.01L169.62 105.51L167.78 104.07Z" fill="black"/>
<path d="M162.19 104.64C163.43 104.81 163.58 104.16 162.65 103.88C161.65 103.59 160.65 104.43 162.19 104.64Z" fill="black"/>
<path d="M161.46 107.01C161.32 107.58 161.42 108.09 161.68 108.15C161.94 108.21 162.26 107.8 162.4 107.24C162.54 106.67 162.44 106.16 162.18 106.1C161.92 106.04 161.6 106.45 161.46 107.01Z" fill="black"/>
<path d="M169.03 124.28L166.78 125.32C165.22 121.93 165.27 119.18 165.67 117.33L168.46 116.67C167.99 117.78 167.28 120.46 169.04 124.28H169.03Z" fill="#38677C"/>
<path d="M188.05 136.07L180.54 137.08L176.2 137.32L175.24 134.17L174.46 131.57L173.1 129.76C173.1 129.76 171.66 129.42 170.09 128.39C169.86 128.24 169.63 128.07 169.4 127.89C169.17 127.71 168.95 127.52 168.73 127.3C168.51 127.09 168.29 126.86 168.09 126.61C167.66 126.1 167.27 125.51 166.96 124.83C166.37 123.53 166.06 121.9 166.3 119.88C166.3 119.82 166.31 119.75 166.32 119.68C166.32 119.59 166.34 119.49 166.36 119.39C166.49 118.55 166.71 117.66 167.04 116.69L170.91 114.42C171.48 114.36 172.03 114.33 172.56 114.32C172.71 114.32 172.86 114.32 173 114.32C174.02 114.33 174.97 114.45 175.85 114.66C187.84 117.43 188.03 136.05 188.03 136.05L188.05 136.07Z" fill="#E15938"/>
<path d="M177.968 103.05C178.383 101.298 177.299 99.5409 175.547 99.1258C173.795 98.7107 172.038 99.7944 171.623 101.546C171.208 103.298 172.292 105.055 174.044 105.47C175.796 105.885 177.552 104.802 177.968 103.05Z" fill="black"/>
<path d="M168.17 106.69C166.78 108.01 160.04 109.41 160.04 109.41C160.04 109.41 160.02 112.21 160.48 113.45C160.94 114.7 163.46 116.6 168.87 111.54L169.31 106.08L168.17 106.68V106.69Z" fill="black"/>
<path d="M163.74 110.56C163.4 111.77 162.09 111.34 161.94 110.67C161.79 110 164.11 109.24 163.74 110.56Z" fill="white"/>
<path d="M128.27 120.15L132.38 121.78L134.2 120.5L134.49 116.15L131.71 114.89L130.7 115.53L132.86 116.48L133.16 118.94L131.35 120.09L129.25 118.78L128.99 116.62L127.97 117.27L128.27 120.15Z" fill="#24586F"/>
<path d="M127.49 120.64L131.6 122.28L133.43 120.99L133.72 116.65L130.93 115.38L130.24 115.82L132.09 116.97L132.38 119.43L130.57 120.58L128.47 119.27L128.22 117.11L127.53 117.55L127.49 120.64Z" fill="#38677C"/>
<path d="M131.6 122.28L137.79 132.82C138.51 134.05 140.12 134.39 141.28 133.57L142.25 132.88C143.46 132.02 143.63 130.28 142.59 129.21L134.18 120.49L131.58 122.27L131.6 122.28Z" fill="#24586F"/>
<path d="M131.6 122.28L137.79 132.82C138.51 134.05 140.12 134.39 141.28 133.57C142.47 132.72 142.65 131.02 141.66 129.95L133.41 121L131.59 122.28H131.6Z" fill="#38677C"/>
<path d="M173.81 122.16L171.34 122.4C170.97 118.57 172 115.95 173.02 114.35C174.04 114.36 174.99 114.48 175.87 114.69C175.1 115.49 173.39 117.81 173.81 122.17V122.16Z" fill="#38677C"/>
<path d="M142.71 124.86C138.77 123.18 133.81 124.07 133.81 124.07L136.99 131.33L143.08 127.49L142.71 124.86Z" fill="#BA6C57"/>
<path d="M140.9 127.99L136.61 131.98L132.76 126.14L133.81 124.07L140.9 127.99Z" fill="#BA6C57"/>
<path d="M161.54 128.46L142.72 124.86L141.14 127.22C141.14 127.22 146.18 133.38 157.56 136.68L161.54 128.46Z" fill="#BA6C57"/>
<path d="M179.14 123.37C179.14 127.31 177.65 130.93 175.24 134.17L174.46 131.57L173.1 129.76C173.1 129.76 171.66 129.42 170.09 128.39C169.86 128.24 169.63 128.07 169.4 127.89C169.17 127.71 168.95 127.52 168.73 127.3C168.51 127.09 168.29 126.86 168.09 126.61C169.06 122.7 179.14 113.21 179.14 123.36V123.37Z" fill="#CA3D16"/>
<path d="M187.58 131.25L179.43 130.77L170.62 123.83L166.96 124.84C166.96 124.84 171.75 128.88 174.45 131.57L175.83 138.91L188.74 137.32L187.57 131.24L187.58 131.25Z" fill="#38677C"/>
<path d="M177.91 129.57C176.98 132.25 174.82 133.51 174.82 133.51L174.46 131.58L173.08 130.25L175.84 127.75L177.91 129.57Z" fill="#24586F"/>
<path d="M178.61 124.84C175.11 132.16 166.49 135.5 157.57 136.64L160.26 128.21L174.03 118.92C174.82 118.51 175.69 118.39 176.52 118.55C177.29 118.7 178.01 119.08 178.57 119.67C179.93 121.11 179.46 123.04 178.61 124.83V124.84Z" fill="#E15938"/>
<path d="M172.58 114.34C171.97 115.96 167.59 117.9 167.06 116.71L170.93 114.44C171.5 114.38 172.05 114.35 172.58 114.34Z" fill="#BA6C57"/>
<path d="M175.83 140.03L173.63 148.58C173.63 148.58 170.63 147.48 163.83 145.4L165.85 156.2L167.63 156.3L167.86 159.58L162.02 159.55L157.94 138.47L175.82 140.04L175.83 140.03Z" fill="#24586F"/>
<path d="M249.69 128.97L241.92 134.47L234.24 125.32L241.84 111.33L249.69 128.97Z" fill="white"/>
<path d="M255.46 134.5L237.28 146.19L236.4 144.46C236.11 143.9 235.93 143.32 235.86 142.74C235.7 141.51 236.02 140.27 236.79 139.23L237.14 138.76C237.48 138.3 237.75 137.81 237.94 137.31C238.11 136.87 238.22 136.43 238.27 135.97C238.39 134.98 238.25 133.96 237.84 132.97L248.05 126.4L252.92 131.77L255.46 134.5Z" fill="black"/>
<path d="M241.565 131.707L237.974 134.017L238.271 134.48L241.863 132.17L241.565 131.707Z" fill="white"/>
<path d="M241.68 133.393L238.089 135.703L238.387 136.166L241.978 133.856L241.68 133.393Z" fill="white"/>
<path d="M248.47 133.76C248.12 133.99 247.6 133.93 247.3 133.63C247.14 133.47 247.06 133.26 247.08 133.05C247.1 132.85 247.22 132.66 247.4 132.54C247.75 132.31 248.27 132.37 248.57 132.67C248.73 132.83 248.81 133.04 248.79 133.25C248.77 133.45 248.65 133.64 248.47 133.76ZM247.7 133C247.7 133 247.63 133.05 247.62 133.1C247.62 133.14 247.64 133.19 247.68 133.23C247.8 133.35 248.03 133.38 248.17 133.29C248.2 133.27 248.24 133.24 248.25 133.19C248.25 133.15 248.23 133.1 248.19 133.06C248.07 132.94 247.84 132.91 247.7 133Z" fill="white"/>
<path d="M246.31 135.16C245.96 135.39 245.44 135.33 245.14 135.03C244.98 134.87 244.9 134.66 244.92 134.45C244.94 134.24 245.06 134.06 245.24 133.94C245.59 133.71 246.11 133.77 246.41 134.07C246.57 134.23 246.65 134.44 246.63 134.65C246.61 134.85 246.49 135.04 246.31 135.16ZM245.54 134.4C245.54 134.4 245.47 134.45 245.46 134.5C245.46 134.54 245.48 134.59 245.52 134.63C245.64 134.75 245.87 134.78 246.01 134.69C246.04 134.67 246.08 134.64 246.09 134.59C246.09 134.55 246.07 134.5 246.03 134.46C245.91 134.34 245.68 134.31 245.54 134.4Z" fill="white"/>
<path d="M255.46 134.5L237.28 146.19L236.4 144.46C236.11 143.9 235.93 143.32 235.86 142.74L252.92 131.76L255.46 134.49V134.5Z" fill="white"/>
<path d="M253.983 132.949L242.553 140.3L242.851 140.763L254.28 133.411L253.983 132.949Z" fill="#94C19B"/>
<path d="M247.48 139.63L237.28 146.19L236.4 144.46C236.11 143.9 235.93 143.32 235.86 142.74C235.7 141.51 236.02 140.27 236.79 139.23L237.14 138.76C237.48 138.3 237.75 137.81 237.94 137.31C241.22 136.74 244.85 137.57 247.49 139.63H247.48Z" fill="white"/>
<path d="M237.84 132.96L236.85 132.32C236.15 131.87 236.11 131.04 236.76 130.62L237.67 130.03C238.39 129.57 239.38 129.45 240.29 129.72L242.07 130.24L237.84 132.96Z" fill="black"/>
<path d="M249.32 126.55L244.3 129.81V129.82L235.86 135.3L232.98 132.03L235.09 129.99L220.96 107.79L222.07 106.28L228.69 97.25L249.32 126.55Z" fill="#38677C"/>
<path d="M228.69 97.25L222.07 106.28L220.96 107.79L220.54 106.46L214.26 86.73L212.39 80.84L210 73.35L215.71 72.85L220.49 72.42L225.3 86.96V86.98L228.69 97.25Z" fill="#38677C"/>
<path d="M215.16 138.76L205.64 139.19L204.13 118.83L213.5 118.33L215.16 138.76Z" fill="white"/>
<path d="M217.01 146.53H195.4L195.59 144.6C195.65 143.97 195.82 143.39 196.07 142.86C196.6 141.74 197.53 140.87 198.75 140.41L199.3 140.2C199.83 140 200.32 139.73 200.76 139.41C201.14 139.13 201.47 138.82 201.76 138.46C202.4 137.7 202.83 136.76 203.03 135.7H215.17L216.36 142.85L217.01 146.52V146.53Z" fill="black"/>
<path d="M206.84 136.65H202.57V137.2H206.84V136.65Z" fill="white"/>
<path d="M206.03 138.14H201.76V138.69H206.03V138.14Z" fill="white"/>
<path d="M211.54 142.13C211.12 142.13 210.72 141.8 210.63 141.39C210.58 141.17 210.63 140.94 210.76 140.78C210.89 140.62 211.09 140.53 211.31 140.53C211.73 140.53 212.13 140.86 212.22 141.27C212.27 141.49 212.22 141.72 212.09 141.88C211.96 142.04 211.76 142.13 211.54 142.13ZM211.3 141.08C211.3 141.08 211.21 141.08 211.18 141.13C211.15 141.16 211.15 141.21 211.16 141.28C211.2 141.45 211.37 141.59 211.54 141.59C211.58 141.59 211.63 141.59 211.66 141.54C211.69 141.51 211.69 141.46 211.68 141.4C211.64 141.23 211.47 141.09 211.3 141.09V141.08Z" fill="white"/>
<path d="M208.96 142.13C208.54 142.13 208.14 141.8 208.05 141.39C208 141.17 208.05 140.95 208.18 140.78C208.31 140.62 208.51 140.53 208.73 140.53C209.15 140.53 209.55 140.86 209.64 141.27C209.69 141.49 209.64 141.72 209.51 141.88C209.38 142.04 209.18 142.13 208.96 142.13ZM208.72 141.08C208.72 141.08 208.63 141.08 208.6 141.13C208.57 141.16 208.57 141.21 208.58 141.27C208.62 141.44 208.79 141.58 208.96 141.58C209 141.58 209.05 141.58 209.08 141.53C209.11 141.5 209.11 141.44 209.1 141.38C209.06 141.21 208.89 141.07 208.72 141.07V141.08Z" fill="white"/>
<path d="M217.01 146.53H195.4L195.59 144.6C195.65 143.97 195.82 143.39 196.07 142.86H216.36L217.01 146.53Z" fill="white"/>
<path d="M216.61 144.42H203.02V144.97H216.61V144.42Z" fill="#94C19B"/>
<path d="M207.53 146.53H195.33L195.52 144.59C195.58 143.96 195.75 143.37 196 142.84C196.54 141.71 197.47 140.84 198.7 140.38L199.25 140.17C199.79 139.97 200.28 139.7 200.72 139.38C203.8 140.69 206.43 143.36 207.53 146.54V146.53Z" fill="white"/>
<path d="M203.02 135.71L202.53 134.63C202.19 133.87 202.6 133.15 203.38 133.15H204.46C205.31 133.15 206.21 133.58 206.83 134.3L208.05 135.7H203.02V135.71Z" fill="black"/>
<path d="M215.95 135.71H201.79L200.96 132.49L203.02 132.32L201.77 106.02L201.47 99.75L212.89 102.99L215.95 135.71Z" fill="#38677C"/>
<path d="M212.89 102.99L215.95 135.71H211.08L208.84 107.19L201.77 106.02L201.47 99.75L212.89 102.99Z" fill="#24586F"/>
<path d="M201.47 99.75L209.82 72.42H220.49L212.89 102.99L201.47 99.75Z" fill="#38677C"/>
<path d="M216.42 54.06C219.36 57.27 208.86 67.35 201.22 71.12L201 61.46L210.49 50.18C211.07 49.57 211.81 49.19 212.61 49.08C213.34 48.97 214.1 49.09 214.79 49.45C216.45 50.32 215.14 52.67 216.41 54.06H216.42Z" fill="#171842"/>
<path d="M195.39 51.34C192.99 48.32 187.58 47.92 187.58 47.92L188.08 53.99L194.54 53.57L195.38 51.33L195.39 51.34Z" fill="#92482D"/>
<path d="M203.33 60.04L195.39 51.35L192.94 52.08C192.94 52.08 193.17 59.34 201.18 71.12C205.43 69.08 206.5 63.52 203.32 60.04H203.33Z" fill="#92482D"/>
<path d="M214.3 50.41H206.84L206 46.4L205.53 42.22L205.34 40.56L211.93 32.66L214.3 50.41Z" fill="#BA6C57"/>
<path d="M219.88 80.21L208.62 76.36L207.59 66.99C207.59 66.99 205.1 62.95 204.86 59.63C204.67 57.01 205.15 53.62 206.55 48.99L213.7 45.69C229.11 54.15 219.88 80.22 219.88 80.22V80.21Z" fill="#484B84"/>
<path d="M210.55 48.35C209.7 54.81 215.87 60.74 215.87 60.74L220.5 72.42L213.12 76.19C213.12 76.19 206.41 57.16 210.56 48.35H210.55Z" fill="#171842"/>
<path d="M225.3 86.98L214.26 86.73L212.45 86.69L205.26 86.52L208.3 73.46L215.8 72.63L221.8 71.96L225.3 86.96V86.98Z" fill="#38677C"/>
<path d="M216.43 74.67L208.3 73.46C208.3 73.46 207.76 72.11 207.08 70.04C206.14 67.17 204.93 62.94 204.52 59.07C204.42 58.1 204.36 57.15 204.37 56.25L209.7 54.82C209.7 54.82 211.3 67.72 216.43 74.68V74.67Z" fill="#38677C"/>
<path d="M209.65 66.28L207.08 70.04C206.14 67.17 204.93 62.94 204.52 59.07L207.9 58.59L209.66 66.28H209.65Z" fill="#24586F"/>
<path d="M209.7 54.81C209.43 49.87 212.05 46.68 214.3 46.03L213.69 45.68C213.69 45.68 206.64 46.91 208.06 55.78L209.7 54.81Z" fill="#38677C"/>
<path d="M210.6 42.11C210.6 42.11 209.53 45.77 206.01 46.4L205.54 42.22L210.61 42.11H210.6Z" fill="#92482D"/>
<path d="M212.16 42.42L205.67 46.04C204.05 46.95 202.01 45.99 201.68 44.15C201.22 41.65 200.92 38.28 201.76 35.48C202.26 33.83 203.29 32.45 204.63 31.5C205.23 31.07 205.9 30.73 206.61 30.5L207.01 30.38H207.05C207.25 30.31 207.46 30.27 207.66 30.24C208.15 30.15 208.65 30.11 209.17 30.12C209.66 30.13 210.13 30.22 210.56 30.39C212.38 31.07 213.58 32.96 213.28 35.02L213.01 36.78L212.15 42.42H212.16Z" fill="#BA6C57"/>
<path d="M204.26 31.78C208.11 27.39 214.47 29.38 216.38 31.4C219.62 34.82 217.04 40.36 213.36 43.42L210.27 33.44L204.25 31.79L204.26 31.78Z" fill="black"/>
<path d="M201.55 36.26C201.17 37.65 200.24 38.05 199.61 38.14C199.21 38.2 198.91 38.55 198.93 38.96C198.95 39.5 199.29 39.97 199.8 40.17L201.58 40.86C202.55 41.05 203.48 40.37 203.58 39.38L203.92 36.04L201.56 36.26H201.55Z" fill="#BA6C57"/>
<path d="M212.49 37.23C212.49 37.23 207.26 37.81 206.09 33.33L208.51 31.39C210.89 31.13 213.09 32.68 213.65 35.01L213.98 36.39L212.5 37.23H212.49Z" fill="black"/>
<path d="M210.36 37.98C217.24 32.87 218.06 41.99 210.63 41.45L210.36 37.98Z" fill="#BA6C57"/>
<path d="M209.94 34.77L209.62 39.31L210.45 39.2L211.67 36.33L209.94 34.77Z" fill="black"/>
<path d="M203.66 35.37C205.05 35.57 205.22 34.84 204.18 34.53C203.06 34.2 201.93 35.13 203.66 35.37Z" fill="black"/>
<path d="M202.83 38.03C202.67 38.67 202.78 39.24 203.07 39.31C203.36 39.38 203.72 38.93 203.88 38.29C204.04 37.65 203.93 37.08 203.64 37.01C203.35 36.94 202.99 37.39 202.83 38.03Z" fill="black"/>
<path d="M205.36 42.03C204.97 43.38 203.5 42.9 203.34 42.14C203.18 41.38 205.79 40.55 205.36 42.03Z" fill="white"/>
<path d="M204.625 84.284L206.212 84.1886C206.781 84.1544 207.268 84.5859 207.302 85.1549L208.121 98.7703L204.477 98.9893L203.659 85.3739C203.625 84.8049 204.056 84.3182 204.625 84.284Z" fill="#484B84"/>
<path d="M205.731 84.218L206.649 84.1628C206.979 84.143 207.264 84.3963 207.284 84.7257L208.129 98.7704L206.012 98.8976L205.168 84.853C205.148 84.5235 205.402 84.2378 205.731 84.218Z" fill="#171842"/>
<path d="M216.381 84.127L217.937 84.4516C218.495 84.568 218.852 85.1122 218.735 85.6702L215.951 99.0229L212.378 98.2778L215.162 84.9251C215.279 84.3671 215.823 84.0107 216.381 84.127Z" fill="#484B84"/>
<path d="M217.467 84.3464L218.368 84.5342C218.691 84.6016 218.9 84.921 218.833 85.2441L215.96 99.0177L213.885 98.5849L216.757 84.8112C216.825 84.4882 217.144 84.279 217.467 84.3464Z" fill="#171842"/>
<path d="M208.406 81.2501L209.983 81.0473C210.549 80.9745 211.064 81.3721 211.136 81.9374L212.877 95.466L209.256 95.9316L207.516 82.4031C207.443 81.8378 207.841 81.3228 208.406 81.2501Z" fill="#484B84"/>
<path d="M209.495 81.1119L210.407 80.9945C210.735 80.9524 211.037 81.1857 211.079 81.513L212.874 95.468L210.771 95.7385L208.976 81.7835C208.934 81.4562 209.167 81.154 209.495 81.1119Z" fill="#171842"/>
<path d="M202.69 84.05H200.86V92.37H202.69V84.05Z" fill="#CA3D16"/>
<path d="M201.06 84.05H199.23V92.37H201.06V84.05Z" fill="#E15938"/>
<path d="M222.74 85.9301H201.8V88.0401H222.74V85.9301Z" fill="#EDBD22"/>
<path d="M222.74 87.23H201.8V88.04H222.74V87.23Z" fill="#EA9700"/>
<path d="M223.29 84.05H221.4V92.37H223.29V84.05Z" fill="#CA3D16"/>
<path d="M221.6 84.05H219.71V92.37H221.6V84.05Z" fill="#E15938"/>
<path d="M249.32 126.55L244.3 129.81C237.78 119.85 228.7 105.51 228.7 105.51L222.07 106.28L220.54 106.46L214.26 86.73L212.45 86.69L211.43 83.15L212.39 80.85L215.71 72.85L215.8 72.63L221.79 71.96L225.29 86.96V86.98L228.69 97.24L249.31 126.54L249.32 126.55Z" fill="#24586F"/>
<path d="M196.56 90.85H226.3V96.8C226.3 100.22 223.52 103 220.1 103H202.76C199.34 103 196.56 100.22 196.56 96.8V90.85Z" fill="#CA3D16"/>
<path d="M196.56 90.85H219.67V96.8C219.67 100.22 216.89 103 213.47 103H202.76C199.34 103 196.56 100.22 196.56 96.8V90.85Z" fill="#E15938"/>
<path d="M227.58 90.85H195.29V93.01H227.58V90.85Z" fill="#EA9700"/>
<path d="M220.39 90.85H195.29V93.01H220.39V90.85Z" fill="#EDBD22"/>
<path d="M209.7 81.21C207.32 84.32 206.97 88.91 206.97 88.91L214.12 87.74L212.11 81.48L209.7 81.21Z" fill="#BA6C57"/>
<path d="M212.06 83.53L214.61 88.24L208.57 90.32L206.97 88.91L212.06 83.53Z" fill="#BA6C57"/>
<path d="M217.85 49.43C223.53 54.19 224.53 62.59 223.51 70.74L216.43 71.12L211.58 52.14C211.39 51.35 211.49 50.55 211.82 49.85C212.12 49.21 212.62 48.65 213.28 48.29C214.87 47.42 216.46 48.27 217.85 49.43Z" fill="#484B84"/>
<path d="M213.61 72.92L209.7 81.21L211.43 83.14C211.43 83.14 218.03 80.08 223.54 70.75C220.32 68.03 215.4 69.1 213.6 72.91L213.61 72.92Z" fill="#BA6C57"/>
<path d="M190.81 27.69H170.38V72.9H190.81V27.69Z" fill="#24586F"/>
<path d="M189 27.69H170.38V72.9H189V27.69Z" fill="#38677C"/>
<path d="M177.9 40.9L174.74 50.61L180.13 49.5L177.99 59.09L185.5 46.75L178.65 47.21L183.15 40.9H177.9Z" fill="#EDBD22"/>
<path d="M160.04 27.69H145.15V72.9H160.04V27.69Z" fill="#38677C"/>
<path d="M160.04 72.9H170.38V27.69H160.04V72.9Z" fill="#24586F"/>
<path d="M163.12 69.23H167.3V31.36H163.12V69.23Z" fill="black"/>
<path d="M195.29 51.43L192.16 45.98L188.43 44.48C188.08 44.34 187.7 44.54 187.6 44.9C187.53 45.18 187.66 45.47 187.92 45.6L189.55 46.44L190.88 50.59L195.29 51.44V51.43Z" fill="#92482D"/>
<path d="M95.19 105.51L94.49 113.16L94.17 116.73L93.26 126.8H76.43L74.28 105.51H95.19Z" fill="#24586F"/>
<path d="M95.19 105.51L94.5 113.16L94.18 116.73L93.27 126.79H88.15C84.13 126.79 80.65 123.98 79.82 120.04L76.74 105.5H95.2L95.19 105.51Z" fill="#5A8192"/>
<path d="M94.49 113.16L94.17 116.73C92.83 117.39 90.81 117.8 88.54 117.8C84.52 117.8 81.26 116.48 81.26 114.85C81.26 113.22 84.52 111.9 88.54 111.9C91 111.9 93.18 112.39 94.49 113.15V113.16Z" fill="#EDBD22"/>
<path d="M92.5 105.51C92.5 110.51 89.02 114.56 84.73 114.56C80.44 114.56 76.96 110.51 76.96 105.51" stroke="#212121" stroke-width="2" stroke-miterlimit="10"/>
<path d="M84.73 107.52C90.5014 107.52 95.18 106.62 95.18 105.51C95.18 104.4 90.5014 103.5 84.73 103.5C78.9587 103.5 74.28 104.4 74.28 105.51C74.28 106.62 78.9587 107.52 84.73 107.52Z" fill="white"/>
<path d="M95.19 105.51C95.19 105.88 94.68 106.22 93.79 106.51C91.98 107.11 88.61 107.51 84.74 107.51C80.87 107.51 77.5 107.11 75.69 106.51C74.8 106.22 74.29 105.87 74.29 105.51C74.29 104.4 78.97 103.5 84.74 103.5C90.51 103.5 95.19 104.4 95.19 105.51Z" fill="#24586F"/>
<path d="M93.7799 106.51C91.9699 107.11 88.5999 107.51 84.7299 107.51C80.8599 107.51 77.4899 107.11 75.6799 106.51C77.4899 105.91 80.8599 105.51 84.7299 105.51C88.5999 105.51 91.9699 105.91 93.7799 106.51Z" fill="#EDBD22"/>
<path d="M76.83 120.12H63.46L64.33 124.86C64.54 125.98 65.51 126.8 66.65 126.8H73.63C74.77 126.8 75.75 125.99 75.95 124.86L76.82 120.12H76.83Z" fill="#E15938"/>
<path d="M71.16 120.12H63.46L64.33 124.86C64.54 125.98 65.51 126.8 66.65 126.8H67.96C69.1 126.8 70.08 125.99 70.28 124.86L71.15 120.12H71.16Z" fill="#CA3D16"/>
<path d="M69.4401 120.12H55.0701L57.3001 124.83H67.2101L69.4401 120.12Z" fill="#E15938"/>
<path d="M58.6901 120.12H38.0801L38.9501 124.86C39.1601 125.98 40.1301 126.8 41.2701 126.8H55.4901C56.6301 126.8 57.6101 125.99 57.8101 124.86L58.6801 120.12H58.6901Z" fill="#E15938"/>
<path d="M51.4601 120.12H38.0901L38.9601 124.86C39.1701 125.98 40.1401 126.8 41.2801 126.8H48.2601C49.4001 126.8 50.3801 125.99 50.5801 124.86L51.4501 120.12H51.4601Z" fill="#CA3D16"/>
<path d="M107.07 41.23H83.3V81.38H107.07V41.23Z" fill="#EDBD22"/>
<path d="M83.3 86.09H107.07V79.81L83.3 82.41V86.09Z" fill="#EDBD22"/>
<path d="M83.3 86.09L107.07 91.11V87.65L83.3 84.19V86.09Z" fill="#EDBD22"/>
<path d="M83.3 90.18L107.07 92.69V89.23L83.3 88.28V90.18Z" fill="#EDBD22"/>
<path d="M83.3 39.79L107.07 42.3V38.84L83.3 35.95V39.79Z" fill="#EDBD22"/>
<path d="M83.3 29.51L107.07 35.13V29L83.3 23V29.51Z" fill="#EDBD22"/>
<path d="M83.3 39.79L107.07 35.95V32.11L83.3 35.95V39.79Z" fill="#EDBD22"/>
<path d="M17.3101 128.14L24.0501 132.91L30.7001 124.98L24.1201 112.86L17.3101 128.14Z" fill="white"/>
<path d="M12.3201 132.93L28.0701 143.06L28.8401 141.57C29.0901 141.08 29.2401 140.58 29.3101 140.08C29.4501 139.01 29.1701 137.94 28.5001 137.04L28.2001 136.63C27.9101 136.23 27.6801 135.81 27.5101 135.37C27.3701 134.99 27.2701 134.6 27.2201 134.21C27.1101 133.35 27.2401 132.47 27.5901 131.61L18.7401 125.92L14.5201 130.57L12.3201 132.94V132.93Z" fill="black"/>
<path d="M24.3605 130.483L24.1008 130.887L27.2127 132.889L27.4723 132.485L24.3605 130.483Z" fill="white"/>
<path d="M24.2575 131.961L23.9978 132.365L27.1096 134.366L27.3693 133.963L24.2575 131.961Z" fill="white"/>
<path d="M18.09 131.85C18.07 131.67 18.14 131.49 18.28 131.35C18.54 131.09 18.99 131.04 19.29 131.24C19.45 131.34 19.55 131.5 19.57 131.68C19.59 131.86 19.52 132.04 19.38 132.18C19.12 132.44 18.67 132.49 18.37 132.29C18.21 132.19 18.11 132.03 18.09 131.85ZM18.62 131.69C18.62 131.69 18.56 131.77 18.57 131.81C18.57 131.85 18.61 131.88 18.64 131.9C18.76 131.98 18.96 131.95 19.06 131.85C19.1 131.81 19.12 131.77 19.11 131.73C19.11 131.69 19.07 131.66 19.04 131.64C18.92 131.56 18.72 131.59 18.62 131.69Z" fill="white"/>
<path d="M19.9699 133.06C19.9499 132.88 20.0199 132.7 20.1599 132.56C20.4199 132.3 20.8699 132.25 21.1699 132.45C21.3299 132.55 21.4299 132.71 21.4499 132.89C21.4699 133.07 21.3999 133.25 21.2599 133.39C20.9999 133.65 20.5499 133.7 20.2499 133.5C20.0899 133.4 19.9899 133.24 19.9699 133.06ZM20.4999 132.9C20.4999 132.9 20.4399 132.98 20.4499 133.02C20.4499 133.06 20.4899 133.09 20.5199 133.11C20.6399 133.19 20.8399 133.16 20.9399 133.06C20.9799 133.02 20.9999 132.98 20.9899 132.94C20.9899 132.9 20.9499 132.87 20.9199 132.85C20.7999 132.77 20.5999 132.8 20.4999 132.9Z" fill="white"/>
<path d="M12.3201 132.93L28.0701 143.06L28.8401 141.57C29.0901 141.08 29.2401 140.58 29.3101 140.08L14.5301 130.57L12.3301 132.94L12.3201 132.93Z" fill="white"/>
<path d="M13.6059 131.575L13.3462 131.979L23.2452 138.346L23.5049 137.942L13.6059 131.575Z" fill="#94C19B"/>
<path d="M19.23 137.38L28.07 143.06L28.84 141.57C29.09 141.08 29.24 140.58 29.31 140.08C29.45 139.01 29.17 137.94 28.5 137.04L28.2 136.63C27.91 136.23 27.68 135.81 27.51 135.37C24.67 134.88 21.52 135.59 19.24 137.38H19.23Z" fill="white"/>
<path d="M27.5802 131.6L28.4402 131.04C29.0402 130.65 29.0802 129.93 28.5202 129.57L27.7302 129.06C27.1102 128.66 26.2502 128.56 25.4602 128.79L23.9202 129.24L27.5902 131.6H27.5802Z" fill="black"/>
<path d="M55.5001 82.93L37.8801 82.91L40.3501 75.36L41.2301 73.26L41.7001 72.16L41.9801 71.49L49.6601 68.8L50.0801 69.79L50.6201 71.11L51.6301 73.56L55.5001 82.93Z" fill="#EDBD22"/>
<path d="M73.3 57.9L84.2 49.19L82.6 41.21L93.31 31.96" stroke="#212121" stroke-width="2" stroke-linecap="round" stroke-linejoin="round"/>
<path d="M47.2699 60.21C48.7299 66.56 54.8899 70.7 61.6899 73.17L60.9599 65.01L51.8999 56.39C51.3599 55.93 50.6899 55.68 50.0099 55.66C49.3799 55.64 48.7499 55.81 48.1999 56.18C46.8799 57.07 46.9099 58.66 47.2599 60.22L47.2699 60.21Z" fill="#92482D"/>
<path d="M67.02 60.93C67.91 57.78 72.01 55.7 72.01 55.7L73.6 60.62L68.4 62.41L67.01 60.94L67.02 60.93Z" fill="#92482D"/>
<path d="M69.75 61.35L74.18 60.7L75.33 56.39L72.01 55.7L69.75 61.35Z" fill="#92482D"/>
<path d="M55.22 68.12L67.86 60.04L69.74 61.12C69.74 61.12 68.37 67.04 61.69 73.15L55.23 68.11L55.22 68.12Z" fill="#92482D"/>
<path d="M53.1501 61.29L50.07 69.79L49.5401 71.24L48.45 74.25L46.3301 80.09C45.0601 79.44 43.75 78.52 42.46 77.4C42.25 77.22 42.0401 77.03 41.8301 76.84C41.3301 76.38 40.84 75.89 40.34 75.37C38.33 73.26 36.42 70.73 34.84 68.08C34.78 67.98 34.72 67.88 34.66 67.78C33.28 65.42 32.01 63.1 32.75 61.05C33.32 59.46 35.1 58.02 38.94 56.84C39.06 56.8 39.17 56.77 39.29 56.74L46.14 54.97L49.5401 55.39C49.7101 55.41 49.87 55.44 50.03 55.49C52.56 56.09 54.05 58.79 53.14 61.29H53.1501Z" fill="#BA6C57"/>
<path d="M51.74 69.1201L57.46 60.84C57.46 60.84 50.96 52.94 46.76 56.08C42.56 59.22 48.75 67.6 51.74 69.1201Z" fill="#EDBD22"/>
<path d="M53.1501 61.29L50.07 69.79L49.5401 71.24L48.45 74.25L46.3301 80.09C45.0601 79.44 43.75 78.52 42.46 77.4C42.25 77.22 42.0401 77.03 41.8301 76.84C41.3301 76.38 40.84 75.89 40.34 75.37C38.33 73.26 36.42 70.73 34.84 68.08C34.78 67.98 34.72 67.88 34.66 67.78C33.28 65.42 32.01 63.1 32.75 61.05C33.32 59.46 33.25 58.22 38.94 56.84C39.06 56.81 39.17 56.77 39.29 56.74L46.14 54.97L49.5401 55.39C49.7101 55.41 49.87 55.44 50.03 55.49C52.56 56.09 54.05 58.79 53.14 61.29H53.1501Z" fill="#EDBD22"/>
<path d="M48.77 54.96C51.63 55.7 53.68 59.62 52.18 63.97H50.79C50.79 63.97 52.43 55.56 45.45 55.11L48.77 54.96Z" fill="#38677C"/>
<path d="M65.7799 102.83H65.76L59.32 105.94L55.93 107.57L55.74 107.23L44.7 87.75C44.7 87.75 44.82 87.42 45 86.91C45.39 85.79 46.06 83.83 46.33 82.67C46.35 82.58 46.3699 82.49 46.3899 82.4L52.83 82.77L53.4799 82.81L55.5 82.93L65.79 102.82L65.7799 102.83Z" fill="#38677C"/>
<path d="M53.9302 136.63L62.1702 137L63.4802 119.36L55.3702 118.92L53.9302 136.63Z" fill="white"/>
<path d="M52.3201 143.36H71.0401L70.8801 141.69C70.8201 141.14 70.6801 140.64 70.4601 140.18C70.0001 139.21 69.1901 138.46 68.1401 138.06L67.6701 137.88C67.2101 137.7 66.7801 137.47 66.4101 137.2C66.0801 136.96 65.7901 136.69 65.5401 136.38C64.9901 135.72 64.6101 134.91 64.4401 133.99H53.9201L52.8901 140.18L52.3201 143.36Z" fill="black"/>
<path d="M64.8301 134.8H61.1301V135.28H64.8301V134.8Z" fill="white"/>
<path d="M65.5401 136.09H61.8401V136.57H65.5401V136.09Z" fill="white"/>
<path d="M56.59 139.33C56.48 139.19 56.44 139 56.48 138.8C56.56 138.44 56.91 138.16 57.27 138.16C57.46 138.16 57.63 138.24 57.75 138.38C57.86 138.52 57.9 138.71 57.86 138.91C57.78 139.27 57.43 139.55 57.07 139.55C56.88 139.55 56.71 139.47 56.59 139.33ZM56.94 138.91C56.93 138.96 56.94 139.01 56.96 139.04C56.99 139.07 57.03 139.08 57.06 139.08C57.2 139.08 57.35 138.95 57.39 138.81C57.4 138.76 57.39 138.71 57.37 138.68C57.34 138.65 57.3 138.64 57.27 138.64C57.13 138.64 56.98 138.77 56.94 138.91Z" fill="white"/>
<path d="M58.82 139.33C58.71 139.19 58.67 139 58.71 138.8C58.79 138.44 59.14 138.16 59.5 138.16C59.69 138.16 59.86 138.24 59.98 138.38C60.09 138.52 60.13 138.71 60.09 138.91C60.01 139.27 59.66 139.55 59.3 139.55C59.11 139.55 58.94 139.47 58.82 139.33ZM59.17 138.91C59.16 138.96 59.17 139.01 59.19 139.04C59.22 139.07 59.26 139.08 59.29 139.08C59.43 139.08 59.59 138.95 59.62 138.81C59.63 138.76 59.62 138.71 59.6 138.68C59.57 138.65 59.53 138.64 59.5 138.64C59.36 138.64 59.21 138.77 59.17 138.91Z" fill="white"/>
<path d="M52.3201 143.36H71.0401L70.8801 141.69C70.8201 141.14 70.6801 140.64 70.4601 140.18H52.8801L52.3101 143.36H52.3201Z" fill="white"/>
<path d="M64.4402 141.53H52.6702V142.01H64.4402V141.53Z" fill="#94C19B"/>
<path d="M60.54 143.36H71.11L70.94 141.68C70.88 141.13 70.74 140.62 70.52 140.16C70.06 139.18 69.24 138.43 68.18 138.03L67.7 137.85C67.23 137.67 66.81 137.44 66.43 137.16C63.76 138.29 61.48 140.61 60.53 143.36H60.54Z" fill="white"/>
<path d="M64.4401 133.98L64.8601 133.05C65.1601 132.39 64.8001 131.77 64.1301 131.77H63.1901C62.4501 131.77 61.6701 132.15 61.1301 132.77L60.0701 133.98H64.4301H64.4401Z" fill="black"/>
<path d="M66.23 131.19L65.51 133.98H53.25L55.74 107.23L55.89 105.63L59.19 104.7L65.77 102.84L65.78 102.83L64.44 131.05L66.23 131.19Z" fill="#38677C"/>
<path d="M59.4 105.03L59.33 105.94L57.03 133.99H53.25L55.75 107.24L44.71 87.76C44.71 87.76 44.83 87.43 45.01 86.92L46.92 85.66L59.19 104.71L59.4 105.04V105.03Z" fill="#24586F"/>
<path d="M49.07 82.44L42.21 109.8L32.29 106.3V106.28L36.84 86.4L37.13 85.11L37.51 83.44L39.85 83.24H39.86L43.4 82.94L49.05 82.45L49.07 82.44Z" fill="#38677C"/>
<path d="M51.6301 73.5601L48.4601 74.2401L42.7901 75.4501L42.4701 77.3801L41.6701 81.8801L38.2301 82.7101L40.3501 75.3501C38.3401 73.2401 36.4301 70.7101 34.8501 68.0601L36.9001 64.1801L41.4701 72.1701L41.7001 72.1401L49.5501 71.2201L50.6201 71.09L51.6301 73.5401V73.5601Z" fill="#EA9700"/>
<path d="M42.8601 84.1L40.66 88.73L32.3 106.28C32.37 105.63 34.05 90.93 36.16 84.58C36.35 84 36.5401 83.5 36.7401 83.07C37.7301 82.93 38.81 83.02 39.87 83.22H39.8801C40.9301 83.43 41.96 83.75 42.87 84.09L42.8601 84.1Z" fill="#38677C"/>
<path d="M55.5 82.93C54.16 85.26 40.66 88.72 36.73 83.07L38.66 78.68L42.5 77.92L52.61 75.94L55.49 82.93H55.5Z" fill="#38677C"/>
<path d="M52.44 76.52C52.44 76.52 54.19 73.11 54.4 69.37C54.48 67.96 53.29 62.9 53.29 62.9L41.72 63.27C41.72 63.27 42.56 66.59 42.56 69.71C42.56 73.66 39.78 79.75 39.78 79.75L52.43 76.52H52.44Z" fill="#38677C"/>
<path d="M45.34 67.52L53.25 66.94L52.68 73.16L49.07 75.95L44.71 73.16L45.34 67.52Z" fill="#24586F"/>
<path d="M49.3501 43C46.5101 38.38 38.9601 39.62 37.2801 44.15C35.1601 49.87 41.5601 57.46 47.8301 50.38L49.3501 43Z" fill="#212121"/>
<path d="M41.09 47.63L40.49 56.97L46.61 59.44L47.67 49.24L41.09 47.63Z" fill="#BA6C57"/>
<path d="M47.04 55.11C47.04 55.11 44.37 54.23 43.96 51.26L47.33 52.68L47.05 55.11H47.04Z" fill="#92482D"/>
<path d="M40.9801 44.33L41.7501 46.55L42.1001 47.56L43.0501 50.28C43.5601 51.75 44.7901 52.85 46.3101 53.19L48.6701 53.72C50.7201 54.18 52.6401 52.62 52.6501 50.52C52.6501 48.98 52.5001 47.2 51.7501 45.36C50.8801 43.22 48.9701 41.66 46.8201 41.15L46.4401 41.07H46.4001C46.2101 41.03 46.0201 41.01 45.8301 40.99C45.3701 40.95 44.9101 40.96 44.4401 41.01L42.9601 41.18C41.4501 41.36 40.4901 42.88 40.9901 44.32L40.9801 44.33Z" fill="#BA6C57"/>
<path d="M52 46.01C52.47 47.26 53.3 47.54 53.89 47.56C54.27 47.58 54.57 47.88 54.58 48.26C54.6 48.76 54.33 49.22 53.89 49.44L52.32 50.23C51.45 50.49 50.54 49.94 50.36 49.05L49.76 46.02H52V46.01Z" fill="#BA6C57"/>
<path d="M42.8401 48.2701C47.0201 47.1001 46.2301 40.7501 46.2301 40.7501L43.6201 40.9801C40.6101 41.2401 38.8301 44.4601 40.2001 47.1501L40.3701 47.4801L42.8401 48.2801V48.2701Z" fill="#212121"/>
<path d="M40.76 43.39C44.86 42.88 44.29 34.69 39.15 35.1C34.01 35.51 33.66 44.28 40.76 43.39Z" fill="#212121"/>
<path d="M43.42 48.3801C37.56 43.1001 36.01 51.3801 42.87 51.5401L43.42 48.3801Z" fill="#BA6C57"/>
<path d="M50.34 46.55C50.58 47.15 50.56 47.72 50.29 47.83C50.02 47.94 49.6 47.55 49.36 46.95C49.12 46.35 49.14 45.78 49.41 45.67C49.68 45.56 50.1 45.95 50.34 46.55Z" fill="#212121"/>
<path d="M48.5901 43.8C47.3301 44.35 46.9701 43.71 47.8701 43.14C48.8401 42.53 50.1601 43.11 48.5901 43.8Z" fill="#212121"/>
<path d="M48.1399 49.8801C48.6899 52.0301 50.9099 51.3601 51.3699 50.2701C51.6499 49.6201 47.9499 49.1501 48.1399 49.8801Z" fill="white"/>
<path d="M71.3102 59.64L32.1602 93.79" stroke="#212121" stroke-width="5" stroke-linecap="round" stroke-linejoin="round"/>
<path d="M39.1701 65.4C37.8401 69.65 35.7301 74.69 32.9001 80.47L29.3401 73.09L32.7101 61.05C32.9401 60.37 33.3901 59.82 33.9601 59.46C34.4901 59.12 35.1201 58.95 35.7801 58.98C36.1101 59 36.4901 59.15 36.8801 59.38C38.9601 60.58 39.8901 63.12 39.1701 65.41V65.4Z" fill="#BA6C57"/>
<path d="M42.0099 79.76C45.0899 80.87 47.3999 83.94 47.3999 83.94L41.8499 86.35L40.4399 81.04L42.0099 79.76Z" fill="#BA6C57"/>
<path d="M41.3999 82.45L41.7299 86.91L46.9199 85.65L47.3999 83.94L41.3999 82.45Z" fill="#BA6C57"/>
<path d="M29.97 70.82L42.01 79.76L41.66 81.9C41.66 81.9 35.64 82.72 27.55 78.66L29.96 70.83L29.97 70.82Z" fill="#BA6C57"/>
<path d="M104.763 33.9233L85.1252 26.8299C84.3824 26.5616 83.5628 26.9463 83.2945 27.6891L82.5471 29.7582C82.2788 30.501 82.6634 31.3207 83.4062 31.589L103.044 38.6824C103.787 38.9507 104.607 38.566 104.875 37.8232L105.623 35.7541C105.891 35.0113 105.506 34.1916 104.763 33.9233Z" fill="#EA9700"/>
<path d="M104.769 33.928L102.7 33.1806C101.957 32.9123 101.137 33.2969 100.869 34.0397L100.122 36.1089C99.8535 36.8517 100.238 37.6713 100.981 37.9396L103.05 38.687C103.793 38.9553 104.613 38.5707 104.881 37.8279L105.628 35.7587C105.897 35.0159 105.512 34.1963 104.769 33.928Z" fill="white"/>
<path d="M101.21 38.06L85.2702 32.31C83.4402 31.65 82.4802 29.61 83.8902 28.05L99.8202 33.8C98.4102 35.36 99.3702 37.4 101.21 38.06Z" fill="#212121"/>
<path d="M42.2101 109.79L29.9601 129.03L31.7901 130.79L29.3001 133.62L17.6401 126.05L35.5101 100.66L42.2101 109.79Z" fill="#38677C"/>
<path d="M38.6401 56.74C42.1101 57.23 44.4201 59.44 44.4001 64.74H42.5401C42.5401 64.74 42.4101 58.06 36.1501 57.66L38.6401 56.74Z" fill="#38677C"/>
<path d="M30.9102 66.02L38.6602 69.33C38.6602 69.33 41.8702 61.98 37.5802 58.97C33.2902 55.96 31.4202 62.7 30.9102 66.02Z" fill="#EDBD22"/>
</svg>
