<svg width="505" height="495" viewBox="0 0 505 495" fill="none" xmlns="http://www.w3.org/2000/svg">
<path d="M209.627 1H59.0176V103.66H209.627V1Z" stroke="#EBEBEB" stroke-miterlimit="10"/>
<path d="M70.2868 7.08967C70.2868 8.75591 68.9322 10.1105 67.2659 10.1105C65.5997 10.1105 64.2451 8.75591 64.2451 7.08967C64.2451 5.42342 65.5997 4.06885 67.2659 4.06885C68.9322 4.06885 70.2868 5.42342 70.2868 7.08967Z" fill="#A6A6A6"/>
<path d="M82.6217 7.08967C82.6217 8.75591 81.2671 10.1105 79.6009 10.1105C77.9347 10.1105 76.5801 8.75591 76.5801 7.08967C76.5801 5.42342 77.9347 4.06885 79.6009 4.06885C81.2671 4.06885 82.6217 5.42342 82.6217 7.08967Z" fill="#EBEBEB"/>
<path d="M94.9567 7.08967C94.9567 8.75591 93.6021 10.1105 91.9359 10.1105C90.2696 10.1105 88.915 8.75591 88.915 7.08967C88.915 5.42342 90.2696 4.06885 91.9359 4.06885C93.6021 4.06885 94.9567 5.42342 94.9567 7.08967Z" fill="#FFC727"/>
<path d="M59.0176 13.0112H209.627" stroke="#EBEBEB" stroke-miterlimit="10"/>
<path d="M98.5248 229.176L12.1648 240.959L19.6376 295.726L105.998 283.942L98.5248 229.176Z" fill="#EBEBEB"/>
<path d="M98.5158 229.179C95.483 232.991 92.3663 236.672 89.2975 240.436C86.1928 244.128 83.076 247.832 79.9473 251.488C76.6748 255.312 73.3902 259.112 70.1057 262.876C69.9978 262.996 69.9139 263.116 69.806 263.236C66.8931 266.568 63.9682 269.889 61.0312 273.221L60.5997 273.689L60.0603 273.353C56.3442 270.932 52.6521 268.498 48.948 266.065C48.8161 265.993 48.6842 265.897 48.5524 265.813C44.3568 263.056 40.1732 260.287 36.0016 257.458C32.0218 254.785 28.03 252.051 24.0502 249.33C20.0824 246.525 16.1025 243.816 12.1587 240.951C16.2584 243.301 20.3101 245.806 24.3858 248.239C28.4495 250.721 32.5133 253.202 36.565 255.744C41.0723 258.549 45.5795 261.402 50.0868 264.291C50.0868 264.291 50.0948 264.294 50.1107 264.302C53.4792 266.448 56.8596 268.618 60.2281 270.776C62.8893 267.791 65.5505 264.782 68.2237 261.833C68.2237 261.833 68.2317 261.821 68.2477 261.797C71.8199 257.817 75.3801 253.861 78.9883 249.942C82.213 246.429 85.4376 242.929 88.6981 239.465C91.9827 236.036 95.2193 232.536 98.5398 229.167L98.5158 229.179Z" fill="white"/>
<path d="M50.3642 265.537C50.3642 265.537 50.3042 265.609 50.2683 265.645C49.8727 266.101 49.4651 266.544 49.0695 266.988C47.1515 269.109 45.1736 271.159 43.1478 273.173C40.6903 275.654 38.149 278.04 35.5837 280.425C33.0064 282.775 30.4172 285.101 27.756 287.366C25.0948 289.632 22.3976 291.861 19.5806 293.947C21.8821 291.298 24.3156 288.781 26.785 286.323C29.2664 283.842 31.7957 281.456 34.349 279.071C36.9383 276.709 39.5156 274.372 42.1888 272.106C44.3105 270.296 46.4683 268.51 48.6979 266.808C49.2134 266.412 49.7288 266.017 50.2563 265.633C50.2922 265.597 50.3402 265.573 50.3761 265.537H50.3642Z" fill="white"/>
<path d="M105.529 282.224C102.256 280.965 99.0436 279.538 95.8909 278.064C92.7142 276.59 89.5975 275.043 86.4808 273.473C83.3761 271.867 80.2953 270.236 77.2625 268.51C74.7811 267.12 72.3357 265.681 69.9262 264.147C69.4108 263.823 68.8953 263.499 68.3918 263.164C68.3439 263.14 68.3199 263.104 68.272 263.092C68.3199 263.116 68.3679 263.128 68.4158 263.14C69.0272 263.391 69.6265 263.619 70.2379 263.871C72.8392 264.914 75.3805 266.065 77.9218 267.239C81.0985 268.714 84.2152 270.26 87.3199 271.855C90.4247 273.461 93.5054 275.091 96.5382 276.817C99.583 278.532 102.604 280.294 105.529 282.236V282.224Z" fill="white"/>
<path d="M414.157 30.7535L405.879 80.3789L484.13 93.4316L492.408 43.8062L414.157 30.7535Z" fill="#EBEBEB"/>
<path d="M492.435 43.8189C488.767 46.3123 485.063 48.6738 481.383 51.1192C477.691 53.4927 473.987 55.8662 470.271 58.2038C466.399 60.6492 462.515 63.0587 458.643 65.4561C458.523 65.54 458.415 65.612 458.295 65.6959C454.867 67.8057 451.426 69.9035 447.974 72.0132L447.471 72.3009L447.099 71.8574C444.522 68.7527 441.968 65.6479 439.403 62.5192C439.307 62.4233 439.223 62.3034 439.127 62.1956C436.226 58.6713 433.337 55.135 430.472 51.5508C427.727 48.1463 424.994 44.706 422.273 41.2536C419.588 37.7533 416.843 34.3129 414.194 30.7646C417.119 33.9173 419.972 37.1899 422.848 40.3905C425.713 43.6511 428.578 46.8997 431.408 50.1962C434.572 53.8523 437.713 57.5445 440.854 61.2725C440.854 61.2725 440.862 61.2805 440.878 61.2965C443.227 64.0776 445.577 66.8587 447.926 69.6517C451.043 67.7697 454.172 65.8757 457.288 64.0296C457.288 64.0296 457.296 64.0216 457.312 64.0057C461.484 61.5123 465.655 59.0309 469.839 56.5975C473.591 54.4158 477.343 52.246 481.107 50.1123C484.883 48.0145 488.647 45.8448 492.435 43.8189Z" fill="white"/>
<path d="M440.769 62.4231C440.769 62.4231 440.697 62.471 440.661 62.495C440.194 62.7827 439.726 63.0584 439.259 63.3341C437.017 64.6647 434.752 65.9114 432.45 67.1102C429.645 68.5966 426.792 69.9991 423.927 71.3777C421.062 72.7203 418.173 74.0509 415.248 75.3095C412.323 76.5562 409.374 77.7669 406.365 78.8218C409.087 77.1436 411.88 75.6092 414.685 74.1348C417.502 72.6483 420.355 71.2578 423.208 69.8673C426.097 68.5127 428.974 67.1821 431.899 65.9354C434.224 64.9404 436.586 63.9695 438.983 63.0824C439.535 62.8786 440.086 62.6748 440.649 62.483C440.685 62.471 440.745 62.4471 440.781 62.4351L440.769 62.4231Z" fill="white"/>
<path d="M484.224 91.8162C481.718 89.8383 479.309 87.7405 476.96 85.6068C474.598 83.473 472.308 81.2793 470.019 79.0736C467.765 76.832 465.512 74.5904 463.342 72.2648C461.568 70.3828 459.818 68.4768 458.139 66.4989C457.78 66.0793 457.42 65.6598 457.072 65.2282C457.036 65.2043 457.024 65.1563 456.989 65.1323C457.024 65.1563 457.06 65.1923 457.096 65.2162C457.564 65.5998 458.019 65.9595 458.475 66.343C460.453 67.9494 462.359 69.6396 464.253 71.3418C466.614 73.4755 468.904 75.6692 471.182 77.8869C473.435 80.1285 475.689 82.3702 477.859 84.6957C480.04 87.0093 482.186 89.3588 484.212 91.8282L484.224 91.8162Z" fill="white"/>
<path d="M252.289 495C377.906 495 479.738 481.395 479.738 464.612C479.738 447.829 377.906 434.224 252.289 434.224C126.673 434.224 24.8408 447.829 24.8408 464.612C24.8408 481.395 126.673 495 252.289 495Z" fill="#EBEBEB"/>
<path d="M0.518555 413.019C161.821 412.288 342.758 412.276 504.06 413.019C342.758 413.762 161.821 413.75 0.518555 413.019Z" fill="#263238"/>
<path d="M427.111 334.921C427.111 334.921 405.857 330.102 394.193 319.361C382.542 308.62 376.032 289.393 376.032 289.393C376.032 289.393 388.547 291.682 399.875 295.65C401.781 297.688 405.402 301.883 407.092 305.851C407.092 305.851 407.451 301.656 407.152 298.563C410.185 299.965 412.822 301.5 414.728 303.154C424.39 311.605 427.123 334.921 427.123 334.921H427.111Z" fill="#3FC48B"/>
<path d="M389.314 298.743C386.413 296.741 383.464 294.799 380.575 292.785C380.395 292.666 380.575 292.39 380.755 292.498C386.233 295.77 391.639 299.271 396.854 302.927C398.676 304.209 400.462 305.528 402.236 306.883C402.116 306.679 401.984 306.463 401.864 306.247C401.229 305.18 400.558 304.137 399.886 303.083C398.532 300.985 397.057 298.911 395.379 297.053C395.319 296.981 395.427 296.885 395.487 296.957C397.141 298.863 398.796 300.757 400.306 302.783C401.025 303.742 401.685 304.737 402.332 305.768C402.667 306.295 402.979 306.835 403.291 307.374C403.399 307.554 403.507 307.734 403.614 307.925C406.36 310.083 409.045 312.337 411.598 314.71C413.168 316.185 414.691 317.707 416.165 319.278C415.35 316.7 414.631 314.099 413.672 311.57C413.636 311.486 413.78 311.45 413.816 311.534C414.739 314.195 415.758 316.856 416.465 319.589C418.095 321.351 419.654 323.173 421.116 325.067C421.092 324.948 421.068 324.84 421.044 324.72C420.804 323.713 420.553 322.718 420.289 321.723C419.773 319.805 419.21 317.887 418.563 316.005C417.232 312.145 415.506 308.357 412.857 305.216C412.797 305.144 412.905 305.048 412.965 305.12C417.112 310.035 419.558 315.933 421.104 322.119C421.332 323.03 421.548 323.929 421.751 324.84C421.859 325.319 421.991 325.811 422.075 326.314C422.722 327.177 423.346 328.064 423.957 328.963C427.649 334.454 430.526 340.459 432.948 346.609C435.681 353.525 437.803 360.682 439.756 367.85C439.792 367.994 439.589 368.042 439.541 367.91C435.381 355.467 431.138 342.857 424.017 331.732C422.519 329.383 420.888 327.117 419.162 324.936C415.662 324.744 412.138 323.977 408.829 322.874C405.161 321.651 401.708 319.961 398.472 317.875C396.602 316.664 394.9 315.262 393.161 313.859C393.078 313.799 393.161 313.679 393.257 313.751C396.134 316.185 399.587 318.091 403.003 319.649C406.432 321.219 410.04 322.442 413.732 323.245C415.302 323.593 416.896 323.845 418.491 324.06C416.525 321.639 414.427 319.325 412.221 317.12C411.502 316.401 410.759 315.717 410.028 315.022C407.582 313.236 404.885 311.833 402.164 310.527C398.676 308.848 395.247 307.062 391.807 305.3C389.865 304.305 387.935 303.298 385.969 302.339C385.885 302.303 385.969 302.171 386.041 302.219C389.529 303.91 393.078 305.48 396.614 307.098C399.934 308.621 403.291 310.143 406.479 311.929C406.611 312.001 406.743 312.085 406.875 312.169C403.998 309.664 401.013 307.266 397.968 304.965C395.151 302.831 392.286 300.757 389.385 298.743H389.314Z" fill="#263238"/>
<path d="M390.524 309.712C392.25 310.467 394.013 311.138 395.727 311.941C397.489 312.769 399.155 313.728 400.821 314.722C400.893 314.77 400.821 314.866 400.749 314.83C399.059 314.015 397.333 313.26 395.655 312.421C393.941 311.558 392.238 310.635 390.476 309.856C390.392 309.82 390.428 309.676 390.524 309.712Z" fill="#263238"/>
<path d="M496.181 227.79C496.181 227.79 490.212 234.622 489.828 245.447C489.756 247.353 490.056 250.014 490.284 253.131C482.36 257.362 476.414 264.986 476.414 264.986C480.921 262.277 487.095 261.186 490.439 261.63C490.332 263.68 490.08 265.826 489.624 267.983C488.15 267.899 485.309 268.091 480.61 269.769C480.61 269.769 485.225 269.649 488.737 271.388C484.949 283.447 473.681 295.83 442.574 301.092C442.574 301.092 436.568 279.971 448.088 257.314C457.402 238.986 496.193 227.79 496.193 227.79H496.181Z" fill="#3FC48B"/>
<path d="M431.798 352.674C432.338 347.519 433.021 342.389 433.812 337.27C435.406 327.033 437.468 316.844 440.082 306.822C441.316 302.087 442.803 297.46 444.577 292.953C444.457 292.138 444.481 291.287 444.457 290.46C444.433 289.465 444.433 288.47 444.445 287.475C444.469 285.485 444.565 283.495 444.733 281.505C445.068 277.585 445.668 273.653 446.639 269.841C447.202 267.624 447.873 265.442 448.521 263.248C448.545 263.164 448.688 263.2 448.664 263.284C447.562 267.072 446.926 271.016 446.363 274.924C445.799 278.796 445.464 282.692 445.32 286.6C445.284 287.666 445.26 288.733 445.26 289.812C445.26 290.268 445.284 290.723 445.296 291.191C446.83 287.487 448.557 283.866 450.535 280.342C453.675 274.768 457.271 269.47 461.179 264.411C461.143 263.836 461.323 263.224 461.431 262.673C461.575 261.978 461.731 261.282 461.887 260.587C462.21 259.16 462.558 257.758 462.941 256.343C463.709 253.526 464.74 250.805 465.615 248.012C465.639 247.928 465.782 247.964 465.758 248.048C464.931 250.805 464.392 253.658 463.757 256.463C463.445 257.854 463.145 259.244 462.834 260.623C462.678 261.318 462.534 262.013 462.39 262.709C462.39 262.757 462.366 262.817 462.366 262.865C463.625 261.282 464.907 259.712 466.214 258.178C472.16 251.213 478.669 244.788 485.226 238.41C486.029 237.631 486.856 236.864 487.671 236.085C487.743 236.025 487.839 236.121 487.767 236.193C481.498 242.726 475.336 249.343 469.499 256.26C468.108 257.902 466.741 259.568 465.399 261.258C466.106 260.779 466.813 260.311 467.521 259.856C469.331 258.669 471.165 257.518 473.047 256.463C474.929 255.408 476.835 254.378 478.777 253.407C480.767 252.424 482.9 251.608 484.83 250.494C484.914 250.446 484.986 250.59 484.902 250.625C482.912 251.441 481.066 252.675 479.22 253.766C477.326 254.893 475.432 256.02 473.574 257.195C471.752 258.357 469.906 259.496 468.096 260.683C466.586 261.666 465.087 262.745 463.529 263.644C459.945 268.295 456.564 273.102 453.567 278.148C451.673 281.325 449.959 284.586 448.413 287.918C448.784 287.75 449.156 287.595 449.528 287.439C450.475 287.019 451.422 286.6 452.381 286.168C454.215 285.353 456.049 284.562 457.883 283.771C461.371 282.248 464.919 280.858 468.336 279.191C470.254 278.256 472.148 277.273 473.922 276.087C474.006 276.039 474.066 276.159 473.994 276.219C467.617 280.618 460.46 283.711 453.411 286.839L450.355 288.194C449.516 288.566 448.676 288.985 447.801 289.309C445.716 293.972 443.953 298.779 442.539 303.73C439.71 313.607 437.552 323.701 435.766 333.818C433.98 343.983 432.781 354.208 431.846 364.482C431.726 365.764 431.618 367.047 431.475 368.33C431.415 368.845 430.659 368.845 430.659 368.306C430.719 363.091 431.247 357.865 431.798 352.686V352.674Z" fill="#263238"/>
<path d="M450.726 266.773C451.301 263.608 452.14 260.515 452.991 257.423C453.015 257.327 453.147 257.375 453.135 257.459C452.344 260.491 451.781 263.596 451.217 266.677C450.63 269.818 450.114 272.982 449.683 276.147C449.683 276.195 449.587 276.207 449.599 276.147C449.803 272.994 450.186 269.877 450.738 266.773H450.726Z" fill="#263238"/>
<path d="M464.128 275.344C466.238 273.857 468.599 272.719 470.889 271.532C472.027 270.944 473.166 270.393 474.317 269.83C475.504 269.254 476.726 268.775 477.901 268.187C477.985 268.151 478.057 268.271 477.973 268.319C476.834 268.895 475.755 269.578 474.641 270.189C473.49 270.813 472.339 271.46 471.188 272.083C468.911 273.306 466.681 274.66 464.296 275.655C464.092 275.739 463.948 275.476 464.128 275.356V275.344Z" fill="#263238"/>
<path opacity="0.1" d="M426.73 298.096C426.73 298.096 407.058 293.397 398.02 280.199C389.389 267.6 386.608 246.107 386.38 244.225C386.74 245.963 390.791 264.735 404.181 273.486C414.431 280.187 424.344 285.701 426.718 298.108L426.73 298.096Z" fill="#263238"/>
<path d="M408.58 264.111C412.044 267.444 414.633 271.363 415.832 276.062C415.832 276.098 415.784 276.122 415.772 276.086C414.298 271.723 411.852 267.408 408.484 264.231C408.412 264.171 408.508 264.063 408.58 264.123V264.111Z" fill="#263238"/>
<path d="M426.729 298.095C426.729 298.095 407.058 293.396 398.019 280.198C389.389 267.6 386.607 246.106 386.38 244.224C386.356 244.14 386.356 244.092 386.356 244.092C386.356 244.092 395.79 257.506 405.703 260.923C415.617 264.339 429.558 276.171 426.717 298.095H426.729Z" fill="#3FC48B"/>
<path d="M389.857 251.488C391.679 255.061 393.597 258.621 395.935 261.893C398.212 265.082 400.969 267.791 404.026 270.225C406.699 272.346 409.528 274.264 412.226 276.35C412.202 276.314 412.19 276.278 412.166 276.254C411.662 275.499 411.111 274.768 410.559 274.049C409.432 272.61 408.198 271.256 406.963 269.913C404.518 267.264 402.024 264.663 399.831 261.786C398.62 260.191 397.553 258.501 396.678 256.703C396.642 256.619 396.774 256.571 396.81 256.655C399.998 263.308 406.376 267.564 410.919 273.174C411.566 273.977 412.178 274.792 412.741 275.655C413.137 276.266 413.616 276.938 413.868 277.657C416.337 279.683 418.627 281.888 420.581 284.442C420.413 283.147 420.137 281.864 419.79 280.618C419.298 278.856 418.663 277.201 417.704 275.631C417.656 275.547 417.776 275.475 417.824 275.547C418.747 277.093 419.586 278.772 420.113 280.498C420.545 281.9 420.749 283.303 420.832 284.741C421.815 286.072 422.691 287.463 423.494 288.889C423.41 288.469 423.338 288.05 423.254 287.63C422.858 285.664 422.427 283.71 421.923 281.781C420.892 277.861 419.502 274.061 417.188 270.692C417.14 270.62 417.26 270.536 417.308 270.608C419.586 273.929 421.312 277.633 422.547 281.457C423.17 283.387 423.673 285.353 424.117 287.331C424.333 288.302 424.525 289.273 424.716 290.244C424.812 290.747 424.92 291.263 425.004 291.778C427.018 296.034 428.432 300.589 429.547 305.108C431.549 313.259 432.808 321.651 433.743 329.982C434.726 338.733 435.241 347.579 435.097 356.39C435.085 357.493 435.014 358.596 434.954 359.71C434.942 359.998 434.51 360.034 434.498 359.734C434.306 355.371 434.186 350.996 433.935 346.644C433.671 342.281 433.299 337.917 432.832 333.578C431.909 325.043 430.59 316.52 428.732 308.141C427.138 300.948 425.064 293.708 421.144 287.403C419.178 284.238 416.817 281.445 414.048 278.964C411.291 276.482 408.27 274.312 405.369 272.023C402.48 269.745 399.699 267.264 397.397 264.363C394.928 261.234 392.974 257.734 391.14 254.21C390.672 253.322 390.205 252.435 389.725 251.548C389.677 251.464 389.809 251.381 389.845 251.464L389.857 251.488Z" fill="#263238"/>
<path d="M393.249 254.378C394.508 257.039 396.03 259.568 397.636 262.038C397.672 262.098 397.588 262.158 397.54 262.098C395.826 259.676 394.4 257.087 393.117 254.426C393.081 254.342 393.213 254.294 393.249 254.378Z" fill="#263238"/>
<path d="M498.927 289.393C498.927 289.393 499.239 317.347 482.529 325.415C465.818 333.494 456.852 326.757 445.488 329.466C445.488 329.466 445.488 329.466 445.512 329.454C445.955 328.783 454.058 317.131 466.957 313.931C480.215 310.622 494.912 301.044 498.939 289.393H498.927Z" fill="#3FC48B"/>
<path opacity="0.1" d="M498.927 289.392C498.927 289.392 499.239 317.347 482.529 325.414C465.818 333.494 456.852 326.757 445.488 329.466C445.488 329.466 445.488 329.466 445.512 329.454C445.979 329.226 454.274 325.079 464.512 323.844C475.048 322.573 495.187 315.705 498.927 289.38V289.392Z" fill="black"/>
<path d="M444.385 329.97C446.375 328.172 448.617 326.625 451.038 325.463C451.398 325.295 451.77 325.151 452.129 324.995C452.309 324.767 452.489 324.564 452.693 324.348C453.196 323.82 453.712 323.329 454.263 322.849C455.318 321.95 456.433 321.123 457.631 320.428C460.401 318.798 463.433 317.659 466.262 316.148C466.346 316.1 466.418 316.232 466.334 316.28C464.932 317.011 463.577 317.803 462.223 318.606C460.892 319.385 459.537 320.116 458.255 320.943C457.092 321.687 455.989 322.514 454.946 323.425C454.647 323.676 454.371 323.964 454.083 324.24C455.929 323.605 457.823 323.125 459.729 322.741C462.786 322.118 465.879 321.687 468.936 321.039C470.434 320.716 471.92 320.32 473.371 319.841C474.761 318.726 476.14 317.611 477.459 316.4C479.041 314.938 480.503 313.343 481.774 311.605C481.834 311.533 481.954 311.605 481.894 311.677C479.832 314.338 477.614 317.023 475.037 319.241C475.756 318.965 476.476 318.678 477.171 318.354C482.853 315.777 487.9 311.677 491.412 306.499C491.46 306.427 491.592 306.499 491.532 306.57C488.475 311.006 484.591 314.794 480.012 317.635C477.71 319.061 475.289 320.224 472.736 321.075C469.787 322.058 466.73 322.646 463.685 323.209C460.7 323.772 457.703 324.336 454.826 325.319C452.165 326.23 449.648 327.536 447.394 329.227C443.091 332.451 439.77 336.863 437.373 341.646C434.208 347.987 432.698 355.083 431.859 362.084C431.823 362.384 431.355 362.384 431.379 362.084C432.158 350.336 435.311 338.109 444.361 329.946L444.385 329.97Z" fill="#263238"/>
<path d="M463.781 320.859C464.62 319.529 465.866 318.522 467.221 317.743C468.803 316.832 470.218 315.849 471.309 314.362C471.369 314.29 471.488 314.362 471.429 314.434C470.422 315.729 469.211 316.796 467.82 317.671C466.358 318.582 464.895 319.481 463.888 320.919C463.841 320.979 463.745 320.919 463.781 320.859Z" fill="#263238"/>
<path d="M454.909 350.612L454.154 365.98L451.816 412.947H416.753L414.416 365.98L413.66 350.612H454.909Z" fill="#37474F"/>
<path d="M454.909 350.612L454.154 365.98H414.416L413.66 350.612H454.909Z" fill="#263238"/>
<path d="M457.368 344.187H411.204V358.848H457.368V344.187Z" fill="#37474F"/>
<path d="M30.0352 476.24C32.6125 477.079 106.275 476.3 109.068 474.49C110.135 473.806 110.638 463.078 110.89 450.083C110.95 447.278 110.986 444.377 111.01 441.44C111.178 422.344 110.926 402.074 110.926 402.074L61.6579 402.457L63.1084 441.812L63.42 450.455C63.42 450.455 35.3576 463.365 32.5046 465.679C29.6756 467.992 27.4699 475.413 30.0592 476.24H30.0352Z" fill="#F7A9A0"/>
<path d="M30.036 476.227C32.6133 477.066 106.276 476.275 109.057 474.489C110.124 473.794 110.639 463.065 110.879 450.083C110.951 447.278 110.987 444.377 110.999 441.44C111.023 438.407 111.035 435.35 111.047 432.354H62.7376L63.0852 441.8L63.4089 450.442C63.4089 450.442 35.3344 463.365 32.4934 465.666C29.6644 467.98 27.4707 475.4 30.048 476.239L30.036 476.227Z" fill="#EBEBEB"/>
<path d="M29.8192 476.347C32.4204 477.186 106.49 476.407 109.296 474.585C110.59 473.746 111.082 457.982 111.249 441.356L63.0602 441.728L63.3719 450.418C63.3719 450.418 35.1416 463.401 32.2886 465.726C29.4356 468.052 27.2299 475.508 29.8312 476.347H29.8192Z" fill="#3FC48B"/>
<path d="M30.8504 473.363C43.2693 472.931 93.3766 472.344 105.676 472.847C105.772 472.847 105.772 472.919 105.676 472.931C93.3766 473.626 43.2693 473.818 30.8504 473.566C30.5867 473.566 30.5867 473.375 30.8504 473.363Z" fill="#263238"/>
<path d="M61.5864 447.674C66.4653 446.715 72.447 447.398 76.211 450.838C76.3549 450.97 76.1631 451.174 76.0072 451.126C71.1763 449.663 66.6571 448.728 61.6104 448.285C61.2508 448.249 61.2388 447.733 61.5864 447.674Z" fill="#263238"/>
<path d="M58.0857 449.831C62.9645 448.872 68.9462 449.556 72.7103 452.996C72.8541 453.128 72.6623 453.332 72.5065 453.284C67.6756 451.809 63.1563 450.886 58.1097 450.443C57.75 450.407 57.738 449.891 58.0857 449.831Z" fill="#263238"/>
<path d="M54.5727 452.001C59.4516 451.042 65.4333 451.725 69.1973 455.166C69.3412 455.298 69.1494 455.501 68.9936 455.454C64.1626 453.979 59.6434 453.056 54.5967 452.613C54.2371 452.577 54.2251 452.061 54.5727 452.001Z" fill="#263238"/>
<path d="M51.0727 454.159C55.9516 453.2 61.9333 453.883 65.6973 457.324C65.8412 457.455 65.6494 457.659 65.4936 457.611C60.6626 456.137 56.1434 455.214 51.0967 454.77C50.7371 454.734 50.7251 454.219 51.0727 454.159Z" fill="#263238"/>
<path d="M54.705 443.406C58.1933 446.055 62.7005 447.11 66.7523 448.561C67.1718 448.716 67.5075 448.309 67.5075 447.937C67.5914 447.925 67.6513 447.865 67.6154 447.758C66.2368 443.694 63.2999 439.39 59.9674 436.645C57.9056 434.955 54.3214 433.804 52.4273 436.465C50.6412 438.983 52.6551 441.848 54.693 443.406H54.705ZM53.4223 439.486C52.4993 434.14 58.2892 436.885 59.7516 438.192C60.6986 439.031 61.5497 440.002 62.3649 440.961C64.0791 442.975 65.4696 445.192 66.968 447.35C65.0261 446.511 63.0242 445.852 61.0463 445.096C58.6968 444.185 53.9138 442.435 53.4103 439.486H53.4223Z" fill="#263238"/>
<path d="M83.8579 440.145C82.6472 437.113 78.8832 437.388 76.4857 438.551C72.6018 440.433 68.7419 443.933 66.4523 447.554C66.3923 447.638 66.4523 447.722 66.5242 447.757C66.4523 448.117 66.668 448.585 67.1236 448.537C71.4031 448.081 76.0302 448.117 80.046 446.355C82.3835 445.324 85.0207 443.01 83.8699 440.145H83.8579ZM73.4529 446.511C71.3551 446.786 69.2573 446.966 67.1715 447.314C69.1374 445.564 71.0075 443.73 73.1532 442.183C74.1721 441.44 75.239 440.697 76.3538 440.11C78.092 439.186 84.3614 437.868 82.2037 442.855C81.0169 445.6 75.9583 446.187 73.4649 446.523L73.4529 446.511Z" fill="#263238"/>
<path d="M125.742 191.18C125.742 191.18 111.369 312.18 111.069 313.811C111.021 314.026 115.145 443.13 115.145 443.13H61.4175C61.4175 443.13 59.967 329.994 61.957 310.862C64.4983 286.455 80.5134 191.18 80.5134 191.18H125.742Z" fill="#37474F"/>
<path d="M112.065 432.091C103.806 431.923 106.179 431.851 97.9317 431.767C93.892 431.731 67.3399 431.491 63.5639 432.127C63.48 432.139 63.48 432.282 63.5639 432.294C67.3399 432.918 93.892 432.69 97.9317 432.654C106.191 432.57 103.818 432.51 112.065 432.33C112.221 432.33 112.221 432.091 112.065 432.091Z" fill="#263238"/>
<path d="M103.972 303.909C104.728 297.077 105.711 290.256 106.598 283.435C108.408 269.697 110.218 255.96 112.064 242.234C114.162 226.663 116.391 211.127 118.609 195.579C118.633 195.388 118.933 195.388 118.909 195.579C117.242 209.461 115.576 223.342 113.862 237.212C112.16 250.961 110.35 264.687 108.552 278.412C106.777 292.018 104.428 305.683 104.488 319.445C104.524 326.362 104.824 333.29 105.015 340.207C105.207 347.136 105.399 354.065 105.591 360.981C106.01 376.661 106.598 410.201 106.454 425.893C106.454 426.097 106.154 426.085 106.142 425.893C105.195 411.916 104.895 380.053 104.428 366.052C103.972 352.206 103.481 338.349 103.181 324.504C103.037 317.611 103.217 310.766 103.972 303.909Z" fill="#263238"/>
<path d="M159.343 473.758C161.944 473.003 222.492 431.047 223.799 427.99C224.302 426.828 218.704 417.657 211.62 406.761C210.097 404.411 208.503 401.99 206.873 399.544C196.3 383.637 184.72 366.999 184.72 366.999L144.131 394.941L167.398 426.72L172.505 433.696C172.505 433.696 156.502 460.128 155.447 463.641C154.392 467.141 156.742 474.525 159.343 473.758Z" fill="#F7A9A0"/>
<path d="M159.343 473.758C161.945 473.003 222.493 431.047 223.8 428.003C224.291 426.828 218.705 417.657 211.62 406.773C210.098 404.411 208.516 401.99 206.873 399.556C205.195 397.027 203.493 394.498 201.815 392.004L161.813 419.108L167.399 426.744L172.506 433.721C172.506 433.721 156.502 460.165 155.448 463.665C154.405 467.165 156.742 474.538 159.343 473.782V473.758Z" fill="#EBEBEB"/>
<path d="M159.212 473.974C161.837 473.207 222.721 431.023 224.027 427.942C224.627 426.528 216.2 413.198 207.005 399.34L167.315 426.672L172.446 433.684C172.446 433.684 156.359 460.26 155.292 463.797C154.237 467.321 156.586 474.741 159.212 473.974Z" fill="#3FC48B"/>
<path d="M158.397 470.929C168.43 463.605 209.583 435.015 220.06 428.542C220.144 428.494 220.18 428.542 220.108 428.601C210.326 436.082 168.934 464.336 158.517 471.097C158.301 471.241 158.193 471.085 158.397 470.929Z" fill="#263238"/>
<path d="M169.436 432.414C172.936 428.877 178.27 426.096 183.329 426.827C183.521 426.851 183.485 427.139 183.329 427.187C178.498 428.685 174.243 430.448 169.819 432.917C169.508 433.097 169.196 432.677 169.448 432.426L169.436 432.414Z" fill="#263238"/>
<path d="M167.759 436.177C171.26 432.641 176.594 429.86 181.653 430.591C181.844 430.615 181.808 430.903 181.653 430.951C176.822 432.449 172.566 434.211 168.143 436.681C167.831 436.861 167.519 436.441 167.771 436.189L167.759 436.177Z" fill="#263238"/>
<path d="M166.069 439.93C169.569 436.393 174.903 433.612 179.962 434.344C180.154 434.368 180.118 434.655 179.962 434.703C175.131 436.202 170.875 437.964 166.452 440.433C166.14 440.601 165.829 440.193 166.081 439.942L166.069 439.93Z" fill="#263238"/>
<path d="M164.378 443.682C167.878 440.145 173.213 437.364 178.272 438.096C178.463 438.119 178.427 438.407 178.272 438.455C173.441 439.954 169.185 441.716 164.762 444.185C164.45 444.353 164.138 443.945 164.39 443.694L164.378 443.682Z" fill="#263238"/>
<path d="M161.357 432.737C165.733 432.977 170.048 431.323 174.22 430.244C174.651 430.136 174.699 429.621 174.507 429.309C174.567 429.249 174.591 429.165 174.507 429.093C171.091 426.492 166.248 424.574 161.945 424.178C159.295 423.927 155.675 424.994 155.603 428.254C155.531 431.347 158.816 432.582 161.369 432.725L161.357 432.737ZM158.097 430.22C154.333 426.3 160.674 425.341 162.616 425.605C163.863 425.773 165.121 426.096 166.332 426.432C168.873 427.139 171.283 428.194 173.728 429.141C171.654 429.537 169.616 430.112 167.555 430.592C165.097 431.155 160.158 432.39 158.085 430.232L158.097 430.22Z" fill="#263238"/>
<path d="M183.653 413.689C180.944 411.855 177.995 414.193 176.653 416.506C174.495 420.246 173.248 425.305 173.392 429.597C173.392 429.704 173.476 429.74 173.56 429.728C173.704 430.076 174.147 430.328 174.483 430.04C177.767 427.259 181.627 424.694 183.953 420.99C185.32 418.832 186.195 415.427 183.641 413.701L183.653 413.689ZM178.607 424.79C177.024 426.192 175.382 427.511 173.86 428.985C174.507 426.432 175.034 423.867 175.933 421.385C176.365 420.198 176.82 418.988 177.42 417.873C178.331 416.135 182.79 411.52 183.809 416.854C184.373 419.791 180.513 423.111 178.631 424.79H178.607Z" fill="#263238"/>
<path d="M80.5127 191.18C80.5127 191.18 88.8679 216.965 98.3379 229.971C98.3379 229.971 100.807 325.318 104.655 336.275C111.045 354.424 160.696 427.763 160.696 427.763L206.2 396.344C206.2 396.344 158.61 327.464 156.129 320.883C154.475 316.508 149.668 240.927 150.363 239.033C158.706 216.161 146.132 191.192 146.132 191.192H80.5247L80.5127 191.18Z" fill="#37474F"/>
<path d="M196.492 386.754C189.599 391.297 191.517 389.895 184.672 394.522C181.328 396.787 159.343 411.676 156.586 414.325C156.526 414.385 156.61 414.505 156.682 414.469C160.146 412.838 181.867 397.579 185.164 395.241C191.913 390.482 189.923 391.777 196.624 386.946C196.744 386.85 196.624 386.658 196.492 386.742V386.754Z" fill="#263238"/>
<path d="M144.598 236.264C145.269 233.292 146.024 230.331 146.48 227.31C146.935 224.265 147.043 221.172 146.863 218.092C146.504 211.858 145.125 205.709 143.495 199.703C143.087 198.192 142.656 196.694 142.212 195.208C142.128 194.932 142.548 194.836 142.632 195.1C144.466 201.01 146.324 206.907 147.259 213.045C148.17 218.991 148.014 224.888 146.791 230.774C145.545 236.804 143.795 242.678 144.034 248.887C144.154 252.112 147.99 312.013 147.99 315.129C147.99 318.186 148.122 321.255 149.201 324.144C150.244 326.937 151.898 329.466 153.432 331.996C155.075 334.669 156.729 337.342 158.395 340.003C164.952 350.48 179.96 371.686 186.961 381.875C187.848 383.17 188.735 384.452 189.634 385.747C189.73 385.879 189.514 385.999 189.419 385.867C182.07 375.738 166.702 354.652 159.93 344.127C156.609 338.96 153.217 333.794 150.196 328.447C148.769 325.918 147.678 323.281 147.295 320.392C146.911 317.491 142.86 248.12 143.099 245.003C143.327 242.054 143.938 239.141 144.598 236.264Z" fill="#263238"/>
<path d="M123.836 199.931C124.962 204.582 124.807 210.384 128.103 214.196C129.733 216.09 132.119 217.037 134.516 217.528C137.261 218.104 140.067 218.163 142.86 217.984C142.979 217.984 142.991 218.151 142.884 218.187C137.897 219.782 130.98 219.506 127.204 215.406C125.466 213.512 124.699 211.031 124.327 208.538C123.908 205.733 123.668 202.772 123.632 199.943C123.632 199.823 123.812 199.811 123.836 199.919V199.931Z" fill="#263238"/>
<path d="M98.0031 230.151C98.0391 229.696 98.6864 229.732 98.7224 230.163C98.9262 232.273 98.8902 234.395 98.9501 236.504C99.0101 238.506 99.058 240.508 99.106 242.51C99.2139 246.622 99.2978 250.745 99.3937 254.857C99.5855 263.092 99.8252 271.316 100.161 279.551C100.509 287.774 100.88 296.01 101.288 304.233C101.491 308.345 101.743 312.444 101.983 316.556C102.211 320.512 102.45 324.48 103.206 328.388C104.752 336.347 107.881 344.199 112.124 351.176C112.22 351.344 111.968 351.463 111.861 351.32C107.413 345.35 104.285 338.745 102.546 331.576C100.688 323.88 100.497 315.909 100.053 308.045C99.118 291.431 98.5066 274.816 98.0871 258.178C97.9672 253.503 97.8713 248.827 97.8593 244.164C97.8593 241.887 97.8353 239.609 97.8593 237.32C97.8713 234.934 97.7994 232.525 97.9912 230.151H98.0031Z" fill="#263238"/>
<path d="M89.6115 226.123C95.0897 227.921 100.364 230.475 105.423 233.148C105.627 233.256 105.495 233.543 105.279 233.459C99.9566 231.278 94.5263 229.192 89.3357 226.735C88.9282 226.543 89.2039 225.991 89.6234 226.123H89.6115Z" fill="#263238"/>
<path d="M88.0051 191.336C88.0171 191.156 88.3407 191.12 88.3407 191.312C88.2928 197.342 88.7004 202.652 89.2398 208.286C89.4915 210.899 91.6972 225.356 96.4562 224.301C97.2474 224.121 97.6549 223.378 97.7868 222.227C97.9426 220.849 97.3912 219.159 97.1515 217.792C96.624 214.771 96.2045 211.726 95.9287 208.67C95.4253 202.964 95.3893 197.258 96.1205 191.564C96.1445 191.372 96.4322 191.396 96.4322 191.576C96.4322 199.475 96.648 207.363 97.8827 215.191C98.4821 218.955 100.46 224.613 96.3363 225.188C92.1407 225.776 89.4196 216.294 88.9041 213.704C87.4776 206.464 87.4177 198.648 88.0171 191.324L88.0051 191.336Z" fill="#263238"/>
<path d="M96.3118 224.685C96.7434 225.656 97.091 226.663 97.3787 227.682C97.6064 228.473 97.9181 229.324 97.8222 230.139C97.7982 230.295 97.5825 230.319 97.4986 230.211C96.9351 229.54 96.7074 228.617 96.3957 227.814C96.0361 226.891 95.6525 225.968 95.3169 225.033C95.1011 224.409 96.0481 224.086 96.3118 224.685Z" fill="#263238"/>
<path d="M65.4567 130.619C58.9955 141.456 34.8649 188.698 40.4271 202.16C43.8435 210.443 53.4214 207.339 58.6479 204.246C64.7734 200.626 74.2674 147.51 74.8908 136.913C75.4782 126.831 71.81 119.974 65.4687 130.619H65.4567Z" fill="#F7A9A0"/>
<path d="M43.3274 173.858L71.3779 166.941C71.3779 166.941 74.3268 151.538 75.2258 135.343C76.1249 119.148 70.287 121.161 59.3785 138.399C48.47 155.637 43.3394 173.846 43.3394 173.846L43.3274 173.858Z" fill="#3FC48B"/>
<path d="M53.5282 158.682C53.1565 159.701 52.8449 160.732 52.7729 161.859C53.4682 160.96 53.9117 159.977 54.3313 158.982C54.7029 157.963 55.0146 156.944 55.0865 155.817C54.4032 156.716 53.9477 157.687 53.5282 158.67V158.682ZM69.0039 125.932C68.7521 126.7 68.5603 127.479 68.5124 128.318C69.2076 127.419 69.6512 126.448 70.0707 125.441C70.1187 125.309 70.1666 125.177 70.2026 125.045C69.831 125.285 69.4354 125.585 69.0039 125.932ZM67.7332 143.11C66.7622 143.566 65.8032 144.081 64.9521 144.813C66.067 144.669 67.0859 144.297 68.0808 143.878C69.0518 143.422 70.0108 142.919 70.8619 142.175C69.7471 142.307 68.7282 142.691 67.7332 143.11Z" fill="white"/>
<path d="M70.2044 161.751C60.123 165.095 49.1786 166.989 47.2845 167.457C47.2006 167.481 47.1886 167.325 47.2845 167.301C49.1546 166.941 61.5615 163.321 70.2044 161.571C70.3003 161.547 70.3123 161.703 70.2044 161.739V161.751Z" fill="#263238"/>
<path opacity="0.1" d="M75.2137 135.354C74.3147 151.549 71.3778 166.953 71.3778 166.953L58.6711 170.081L73.4036 124.613C74.926 125.668 75.5494 129.192 75.2137 135.354Z" fill="black"/>
<path d="M76.2454 205.577L148.841 191.18C148.841 191.18 124.938 142.067 89.8631 123.007C81.7476 118.596 69.1848 121.809 67.9381 129.553C63.6347 156.189 76.2454 205.577 76.2454 205.577Z" fill="#3FC48B"/>
<path d="M87.6686 141.061C87.285 142.08 86.9734 143.11 86.9014 144.237C87.5967 143.338 88.0522 142.355 88.4598 141.36C88.8314 140.353 89.1431 139.322 89.227 138.196C88.5317 139.095 88.0762 140.066 87.6686 141.061ZM81.0756 184.671C80.704 185.678 80.3803 186.709 80.3084 187.835C81.0037 186.936 81.4592 185.965 81.8667 184.958C82.2384 183.939 82.55 182.909 82.6339 181.794C81.9387 182.693 81.4831 183.664 81.0756 184.671ZM105.782 180.163C105.41 181.182 105.098 182.213 105.014 183.328C105.71 182.441 106.165 181.458 106.585 180.463C106.956 179.444 107.268 178.413 107.34 177.298C106.645 178.186 106.201 179.168 105.782 180.163ZM68.5967 127.431C68.5488 127.731 68.5128 128.018 68.4888 128.33C69.1841 127.431 69.6276 126.46 70.0472 125.453C70.0712 125.393 70.0951 125.333 70.1071 125.261C69.4838 125.921 68.9803 126.64 68.6087 127.419L68.5967 127.431ZM119.411 147.678C119.112 147.534 118.812 147.402 118.512 147.282C117.493 146.91 116.462 146.599 115.348 146.527C116.235 147.222 117.218 147.678 118.201 148.085C118.884 148.325 119.555 148.553 120.274 148.685C119.987 148.349 119.699 148.013 119.399 147.69L119.411 147.678ZM123.223 188.111C122.216 187.739 121.185 187.428 120.059 187.356C120.946 188.051 121.929 188.495 122.936 188.914C123.942 189.286 124.985 189.597 126.1 189.669C125.201 188.986 124.23 188.531 123.223 188.111ZM79.7929 158.466C78.786 158.083 77.7551 157.771 76.6283 157.687C77.5273 158.382 78.4983 158.838 79.5052 159.257C80.5242 159.629 81.5551 159.941 82.6699 160.013C81.7708 159.317 80.7999 158.874 79.7929 158.466ZM138.591 176.867C138.136 175.884 137.62 174.925 136.889 174.086C137.021 175.201 137.404 176.208 137.812 177.203C138.267 178.186 138.783 179.145 139.514 179.984C139.382 178.869 139.023 177.862 138.591 176.867ZM104.007 154.127C103.552 153.144 103.036 152.197 102.305 151.346C102.437 152.461 102.821 153.48 103.24 154.474C103.684 155.445 104.199 156.404 104.93 157.256C104.799 156.141 104.439 155.122 104.007 154.127ZM121.197 167.373C120.214 167.816 119.255 168.32 118.416 169.063C119.531 168.931 120.55 168.548 121.533 168.128C122.516 167.685 123.475 167.169 124.314 166.438C123.199 166.558 122.18 166.929 121.197 167.373ZM94.5494 195.184C93.5664 195.639 92.6074 196.143 91.7683 196.886C92.8832 196.754 93.9021 196.37 94.885 195.951C95.868 195.495 96.827 194.98 97.6661 194.249C96.5513 194.38 95.5324 194.74 94.5494 195.184ZM67.7096 143.11C67.4819 143.218 67.2541 143.338 67.0264 143.458V144.273C67.374 144.165 67.7216 144.021 68.0573 143.878C69.0283 143.422 69.9873 142.919 70.8384 142.175C69.7235 142.307 68.7046 142.691 67.7096 143.11ZM92.2119 170.322C91.2289 170.765 90.2699 171.281 89.4308 172.024C90.5456 171.892 91.5645 171.509 92.5475 171.089C93.5305 170.645 94.4895 170.13 95.3286 169.387C94.2137 169.519 93.2068 169.902 92.2119 170.322ZM100.519 129.924C100.447 129.972 100.387 130.02 100.303 130.08C100.411 130.068 100.531 130.056 100.639 130.02C100.603 129.984 100.555 129.96 100.519 129.924Z" fill="white"/>
<path d="M89.2526 126.856C104.033 122.18 142.453 111.763 148.638 100.172C156.765 84.9716 150.844 50.9275 146.744 45.2095C144.478 42.0568 123.021 50.6278 120.767 54.1161C118.514 57.6044 122.601 84.0007 121.774 86.9855C120.959 89.9824 94.4191 106.489 82.7554 115.995C68.0469 127.982 77.6488 130.524 89.2406 126.856H89.2526Z" fill="#F7A9A0"/>
<path d="M128.294 115.252L104.212 99.2969C104.212 99.2969 95.3649 105.614 82.8501 115.935C70.3233 126.245 71.1024 132.718 91.1693 129.074C111.236 125.417 128.294 115.264 128.294 115.264V115.252Z" fill="#3FC48B"/>
<path d="M109.522 112.927C108.503 112.555 107.473 112.243 106.358 112.171C107.245 112.867 108.228 113.31 109.223 113.73C110.242 114.101 111.273 114.413 112.387 114.485C111.5 113.79 110.517 113.346 109.534 112.927H109.522ZM88.4366 119.556C87.993 118.573 87.4776 117.626 86.7344 116.775C86.8662 117.889 87.2498 118.908 87.6694 119.903C88.1129 120.886 88.6284 121.833 89.3716 122.684C89.2397 121.558 88.8561 120.551 88.4366 119.556Z" fill="white"/>
<path d="M101.166 103.684C110.457 108.839 119.255 115.612 120.898 116.679C120.97 116.727 120.862 116.846 120.79 116.787C119.255 115.648 108.191 108.983 101.047 103.804C100.963 103.744 101.07 103.636 101.166 103.684Z" fill="#263238"/>
<path d="M91.1572 129.074C93.2191 128.342 95.2689 127.863 97.4506 127.707C95.4847 128.654 93.3389 129.158 91.1572 129.074Z" fill="#263238"/>
<path d="M92.7754 129.697C93.5426 129.122 94.3577 128.738 95.1729 128.271C94.6214 129.05 93.6864 129.493 92.7754 129.697Z" fill="#263238"/>
<path d="M48.5665 207.291C39.8637 206.512 38.1495 193.817 42.5609 189.598C53.6012 179.001 76.4732 171.593 85.5116 169.111C89.5274 168.008 119.076 177.646 115.408 184.072C109.498 194.417 66.1041 208.849 48.5665 207.291Z" fill="#F7A9A0"/>
<path d="M85.8715 179.444C85.8715 179.444 85.0444 170.609 88.6766 160.228C90.199 155.877 95.0778 148.876 97.3434 146.431C100.736 142.775 117.254 129.636 120.527 133.568C123.488 137.129 107.868 146.611 107.868 146.611C107.868 146.611 122.793 135.642 125.562 140.593C128.343 145.544 109.259 153.911 109.259 153.911C109.259 153.911 124.843 142.99 126.892 148.541C128.451 152.736 111.596 161.283 111.596 161.283C111.596 161.283 125.058 151.993 126.844 156.236C128.81 160.923 113.754 169.794 113.754 169.794C115.492 170.921 118.765 178.953 114.677 185.186C113.97 186.265 85.8715 179.432 85.8715 179.432V179.444Z" fill="#F7A9A0"/>
<path d="M102.45 150.075C104.152 148.72 105.878 147.341 107.688 146.155C109.511 144.956 111.369 143.829 113.299 142.81C118.022 140.305 121.366 139.478 121.162 139.55C116.403 141.288 109.822 145.471 108 146.67C106.178 147.857 104.308 148.96 102.486 150.159C102.438 150.194 102.402 150.123 102.438 150.087L102.45 150.075Z" fill="#263238"/>
<path d="M106.645 156.728C108.898 155.097 111.08 153.395 113.406 151.861C115.719 150.338 118.045 149.092 120.466 147.737C120.646 147.629 120.646 147.761 120.466 147.881C118.105 149.344 116.043 150.866 113.705 152.352C111.38 153.827 108.97 155.229 106.693 156.788C106.657 156.812 106.621 156.752 106.657 156.728H106.645Z" fill="#263238"/>
<path d="M109.224 163.081C112.544 160.407 116.428 158.118 120.204 156.2C120.396 156.104 120.372 156.272 120.18 156.392C116.512 158.537 113.539 160.419 109.319 163.212C109.26 163.26 109.152 163.152 109.224 163.093V163.081Z" fill="#263238"/>
<path d="M124.255 144.908C124.782 144.297 125.31 143.626 125.609 142.883C125.909 142.139 125.873 141.456 125.657 140.701C125.645 140.653 125.561 140.689 125.585 140.725C125.957 141.48 125.561 142.439 125.154 143.086C124.758 143.722 124.267 144.309 123.763 144.86C123.236 145.436 122.66 145.963 122.061 146.455C121.462 146.946 120.886 147.45 120.227 147.881C120.227 147.881 120.215 147.917 120.227 147.929C120.227 147.929 120.251 147.965 120.275 147.953C121.33 147.402 122.529 147.138 123.715 147.09C124.279 147.066 124.878 147.078 125.394 147.33C125.837 147.546 126.209 147.929 126.412 148.385C126.628 148.876 126.652 149.464 126.472 149.967C126.293 150.459 125.945 150.866 125.597 151.262C124.818 152.161 123.979 153.024 123.092 153.827C122.6 154.271 122.097 154.702 121.594 155.11C121.078 155.517 120.527 155.889 120.035 156.332C120.011 156.356 120.119 156.44 120.155 156.428C120.611 156.296 123.955 155.002 125.418 155.493C126.245 155.769 126.76 156.368 126.82 157.219C126.892 158.083 126.52 158.85 126.077 159.557C125.513 160.444 124.003 162.17 123.26 162.913C123.224 162.949 123.284 162.997 123.32 162.961C124.075 162.206 125.717 160.588 126.377 159.737C126.928 159.03 127.324 158.166 127.288 157.255C127.252 156.428 126.82 155.625 126.065 155.242C125.298 154.858 124.375 154.966 123.559 155.134C122.972 155.254 120.982 155.925 120.587 156.105C120.97 155.865 122.732 154.534 123.224 154.103C124.219 153.252 125.166 152.341 126.041 151.358C126.808 150.495 127.359 149.452 126.904 148.277C126.484 147.186 125.418 146.683 124.291 146.671C123.404 146.671 122.553 146.838 121.737 147.15C121.965 147.006 122.205 146.85 122.421 146.683C123.092 146.167 123.691 145.556 124.243 144.92L124.255 144.908Z" fill="#263238"/>
<path d="M45.7141 186.888C52.2233 181.194 60.1589 177.082 68.4781 174.805C60.5785 178.257 52.9425 182.201 45.7141 186.888Z" fill="#263238"/>
<path d="M72.7195 136.218C76.7113 136.302 81.746 128.498 83.3044 123.248C83.4123 122.888 82.4173 120.191 81.1227 116.115C80.3435 113.646 79.5403 110.877 78.9769 108.287C78.869 107.76 63.6211 115.708 63.6211 115.708C63.6211 115.708 66.3782 120.778 67.3132 125.285C67.3851 125.669 67.4211 126.017 67.4331 126.364C67.4331 126.412 67.4331 126.472 67.4451 126.544C67.553 128.63 68.8476 136.122 72.7075 136.206L72.7195 136.218Z" fill="#F7A9A0"/>
<path d="M69.134 126.281C68.5347 126.424 67.9713 126.52 67.4558 126.544C67.4558 126.472 67.4558 126.412 67.4438 126.364C67.4438 126.017 67.3959 125.657 67.3239 125.286C66.3889 120.778 63.6318 115.708 63.6318 115.708C63.6318 115.708 76.0028 109.258 78.5322 108.359C78.676 111.452 78.64 124.015 69.134 126.269V126.281Z" fill="#263238"/>
<path d="M73.1513 88.784C77.0112 93.555 80.4876 110.457 78.0301 115.528C74.4699 122.888 65.4674 127.084 58.4188 122.073C51.586 117.218 47.4383 95.1253 50.4831 90.1865C54.9544 82.9222 67.4333 81.7234 73.1393 88.784H73.1513Z" fill="#F7A9A0"/>
<path d="M64.2227 104.104C64.2227 104.104 64.3186 104.14 64.3305 104.188C64.5343 105.326 64.9659 106.609 66.0687 106.765C66.1047 106.765 66.1167 106.825 66.0687 106.825C64.7741 106.909 64.2227 105.219 64.2227 104.092V104.104Z" fill="#263238"/>
<path d="M64.9897 102.701C66.7878 102.174 67.7108 105.818 66.0446 106.298C64.4023 106.777 63.4913 103.133 64.9897 102.701Z" fill="#263238"/>
<path d="M57.4709 105.638C57.4709 105.638 57.399 105.71 57.411 105.758C57.7346 106.873 57.9144 108.203 56.9794 108.839C56.9554 108.863 56.9794 108.911 57.0034 108.899C58.2021 108.407 57.9504 106.645 57.4709 105.638Z" fill="#263238"/>
<path d="M56.1646 104.715C54.3185 105.039 55.0977 108.707 56.7999 108.407C58.4781 108.12 57.7109 104.451 56.1646 104.715Z" fill="#263238"/>
<path d="M65.9713 100.184C65.4558 100.268 64.9524 100.256 64.4369 100.28C63.8495 100.316 63.382 100.4 62.8546 100.088C62.5669 99.9203 62.459 99.4528 62.5909 99.1531C62.9145 98.4698 63.6218 98.254 64.329 98.1821C65.0962 98.1102 65.7076 98.2421 66.3549 98.6736C66.9782 99.0932 66.6546 100.064 65.9713 100.172V100.184Z" fill="#263238"/>
<path d="M54.3072 103.241C54.7867 103.037 55.2063 102.761 55.6618 102.497C56.1772 102.21 56.6208 102.03 56.8965 101.478C57.0403 101.179 56.8965 100.723 56.6208 100.555C55.9854 100.16 55.2662 100.352 54.6309 100.675C53.9476 101.023 53.5041 101.466 53.1924 102.174C52.8927 102.857 53.6839 103.516 54.3192 103.241H54.3072Z" fill="#263238"/>
<path d="M67.4815 113.993C67.2777 114.329 67.0979 114.761 66.7023 114.892C66.3187 115.024 65.8152 114.964 65.4196 114.916C65.3837 114.916 65.3597 114.964 65.3837 114.988C65.7793 115.348 66.4745 115.468 66.966 115.24C67.4575 115.024 67.5894 114.521 67.6013 114.017C67.6013 113.945 67.5054 113.945 67.4815 113.993Z" fill="#263238"/>
<path d="M65.4559 110.913C65.0723 112.051 64.2812 112.819 63.3222 113.262C62.9026 113.466 62.4351 113.598 61.9556 113.67C61.8597 113.694 61.7758 113.706 61.6799 113.706C61.596 113.706 61.5241 113.73 61.4282 113.73C61.2963 113.742 61.1884 113.658 61.1405 113.538C61.1405 113.538 61.1285 113.454 61.1165 113.406L61.0925 113.298C60.8528 112.435 60.6011 111.092 60.6011 111.092C60.3253 111.332 58.8869 112.471 58.8029 112.003C58.0837 108.191 57.2805 103.96 57.3645 100.016C57.3645 99.8842 57.5563 99.8722 57.5802 99.9921C58.4193 103.624 58.6111 107.376 59.4023 111.044C59.8698 110.721 60.613 110.145 61.0686 110.037C61.2004 110.037 61.5001 112.639 61.644 113.01C61.644 113.01 61.644 113.022 61.6559 113.046C63.1544 112.867 64.1493 112.147 65.3121 110.817C65.384 110.733 65.4919 110.781 65.444 110.889L65.4559 110.913Z" fill="#263238"/>
<path d="M62.4707 113.13C62.4707 113.13 63.4776 113.898 64.5685 113.958C64.9761 113.982 65.3836 113.922 65.7552 113.694C66.5344 113.226 66.3306 112.447 65.983 111.824C65.6953 111.32 65.3117 110.925 65.3117 110.925C65.3117 110.925 64.4127 112.435 62.4707 113.142V113.13Z" fill="#263238"/>
<path d="M64.5668 113.957C64.9744 113.981 65.382 113.922 65.7536 113.694C66.5328 113.226 66.329 112.447 65.9813 111.824C65.1063 112.183 64.387 113.058 64.5668 113.957Z" fill="#FF9ABB"/>
<path d="M79.9231 101.023C75.6676 102.905 71.496 98.5299 71.0045 93.9747C71.0045 93.9747 59.9521 99.7166 56.0203 90.5942C56.0203 90.5942 55.2051 95.4611 49.9906 97.5109L49.9427 101.419C48.624 101.503 46.1307 98.5778 48.0846 94.8737C48.0846 94.8737 46.5982 90.1507 49.0196 86.1229C51.4411 82.0952 55.5048 82.6945 55.5048 82.6945C55.5048 82.6945 57.4108 79.434 61.8821 78.439C66.3534 77.4321 69.53 80.7046 69.53 80.7046C69.53 80.7046 75.6796 79.7217 78.137 83.4497C80.5944 87.1778 79.4796 90.6901 79.4796 90.6901C79.4796 90.6901 81.5054 91.769 82.0329 95.521C82.3685 97.9305 81.2057 100.472 79.9351 101.035L79.9231 101.023Z" fill="#263238"/>
<path d="M55.9724 89.6709C56.1762 90.4621 56.4159 91.2293 56.7756 91.9605C57.0872 92.7037 57.5188 93.375 57.9983 94.0103C58.9812 95.245 60.3478 96.1441 61.8942 96.3838C63.4406 96.7315 65.0349 96.2999 66.5693 95.9043C67.3125 95.6046 68.0797 95.3649 68.8109 95.0293C69.5421 94.6816 70.2614 94.31 71.0046 93.9744C70.3333 94.4299 69.626 94.8494 68.9308 95.281C68.2115 95.6766 67.4443 95.9763 66.7011 96.3239C65.1428 96.8154 63.4765 97.2709 61.7863 96.9472C60.12 96.6476 58.5857 95.6526 57.6387 94.274C56.6917 92.8955 56.1402 91.3012 55.9724 89.6709Z" fill="#263238"/>
<path d="M69.5195 80.6927C70.982 80.1772 72.5643 79.9614 74.1347 80.0693C75.705 80.1772 77.2993 80.7646 78.4741 81.9154C79.0375 82.5147 79.481 83.186 79.8167 83.9053C80.1763 84.6125 80.4161 85.3917 80.512 86.1829C80.7277 87.7652 80.3681 89.4195 79.4691 90.6782C80.1523 89.2996 80.3681 87.7173 80.0804 86.2428C79.7927 84.7923 79.0975 83.3539 78.0665 82.3229C77.5511 81.7955 76.9277 81.3879 76.2564 81.0882C75.5732 80.8125 74.8419 80.6088 74.0867 80.5129C72.5883 80.3091 71.0299 80.417 69.5195 80.7046V80.6927Z" fill="#263238"/>
<path d="M55.4928 82.6824C54.2462 82.6824 52.9995 82.8742 51.8367 83.2578C50.6859 83.6534 49.619 84.2767 48.8279 85.1758C48.0247 86.0629 47.5212 87.1897 47.2455 88.3764C46.9818 89.5752 46.9219 90.8218 47.0178 92.0685C46.6821 90.8578 46.6342 89.5632 46.814 88.2925C46.9938 87.0218 47.5212 85.7752 48.3963 84.7922C49.2834 83.8212 50.4581 83.1499 51.7048 82.8382C52.9515 82.5146 54.2462 82.4547 55.4809 82.6824H55.4928Z" fill="#263238"/>
<path d="M51.9453 97.223C53.0721 96.2879 54.0551 95.257 54.7863 94.0463C55.1699 93.4589 55.4217 92.7996 55.6374 92.1403C55.8652 91.469 55.9011 90.7618 55.9731 90.0186C56.1409 90.7258 56.2128 91.493 56.069 92.2362C55.9491 92.9794 55.6734 93.6987 55.2778 94.346C54.8822 94.9813 54.4027 95.5687 53.8273 96.0482C53.2639 96.5277 52.6406 96.9473 51.9573 97.223H51.9453Z" fill="#263238"/>
<path d="M55.6263 112.735C53.7083 113.143 51.6465 111.117 51.0351 108.216C50.4238 105.315 51.4787 102.63 53.3966 102.222C55.3146 101.815 57.3645 103.84 57.9878 106.741C58.5992 109.642 57.5443 112.327 55.6263 112.735ZM53.5525 102.929C52.0301 103.253 51.2149 105.555 51.7424 108.06C52.2698 110.565 53.9481 112.339 55.4824 112.016C57.0048 111.692 57.82 109.391 57.2925 106.885C56.7651 104.38 55.0869 102.594 53.5645 102.917L53.5525 102.929Z" fill="#455A64"/>
<path d="M67.3979 110.241C64.6888 110.816 61.9916 108.922 61.3802 106.021C60.7689 103.12 62.4711 100.303 65.1683 99.728C67.8774 99.1526 70.5746 101.047 71.1859 103.948C71.7973 106.848 70.0951 109.666 67.3979 110.241ZM65.3241 100.435C63.0105 100.927 61.5601 103.36 62.0875 105.878C62.6149 108.383 64.9405 110.025 67.2541 109.534C69.5676 109.042 71.0181 106.609 70.4907 104.091C69.9632 101.586 67.6377 99.9438 65.3241 100.435Z" fill="#455A64"/>
<path d="M61.5234 105.506C58.6943 105.134 57.6874 106.249 57.6874 106.261L57.136 105.794C57.136 105.794 58.3587 104.367 61.6193 104.787L61.5234 105.506Z" fill="#455A64"/>
<path d="M70.7425 103.564L70.4668 102.905C70.9103 102.725 77.9589 99.7762 79.1097 99.4645C80.3204 99.1169 83.5211 100.136 83.8927 100.244L83.6769 100.927C82.7659 100.639 80.2605 99.944 79.3495 100.136C79.3375 100.136 79.3135 100.136 79.3015 100.148C78.4144 100.388 74.4466 102.042 70.7425 103.564Z" fill="#455A64"/>
<path d="M75.3203 102.857C75.3203 102.857 76.9506 96.3601 79.7676 96.7556C82.5847 97.1512 82.7165 105.614 80.367 107.664C78.0175 109.726 76.0755 107.592 76.0755 107.592L75.3203 102.857Z" fill="#F7A9A0"/>
<path d="M79.7444 99.189C79.7444 99.189 79.8163 99.2249 79.7924 99.2609C78.1741 100.771 77.8384 102.929 77.8384 105.039C78.1381 104.116 78.7615 103.432 79.9722 103.744C80.0321 103.756 80.0201 103.852 79.9602 103.864C79.1091 103.996 78.5936 104.344 78.3059 105.183C78.1022 105.77 78.0542 106.429 77.9823 107.053C77.9583 107.256 77.6107 107.28 77.5987 107.053V107.005C76.6157 104.583 77.2151 100.436 79.7444 99.2009V99.189Z" fill="#263238"/>
<path d="M66.9072 129.373C66.9072 129.373 66.9552 129.325 66.9672 129.361C67.8303 132.525 70.0479 139.802 75.1186 137.608C77.1684 136.733 78.6668 134.863 79.8536 133.125C81.0763 131.351 82.0473 129.433 82.8504 127.455C83.7375 125.273 84.6366 122.983 85.128 120.706C85.152 120.61 85.2959 120.646 85.2839 120.742C84.9362 123.343 84.3369 125.369 83.5217 127.623C82.7306 129.804 81.7116 131.926 80.3331 133.856C79.0385 135.654 77.4202 137.56 75.2145 138.399C73.1167 139.19 71.1627 138.495 69.9041 136.877C68.2618 134.755 67.3388 131.938 66.9072 129.349V129.373Z" fill="#263238"/>
<path d="M117.42 57.8441C116.054 54.4037 118.715 52.3539 118.715 52.3539C118.715 52.3539 114.232 51.4549 113.441 47.7747C113.033 45.8807 115.73 43.5312 115.73 43.5312C115.73 43.5312 112.17 42.6561 111.666 39.3356C111.271 36.6864 114.028 34.7325 114.028 34.7325C114.028 34.7325 111.019 32.311 111.487 29.47C112.434 23.7161 134.874 17.7224 140.484 24.9747C143.097 28.3552 137.547 29.5299 137.547 29.5299C137.547 29.5299 145.938 29.7577 147.257 34.3129C148.576 38.8561 141.263 39.947 141.263 39.947C141.263 39.947 149.391 40.2347 150.278 45.1015C151.201 50.1602 143.709 50.0044 143.709 50.0044C143.709 50.0044 149.582 52.0183 149.403 55.9022C149.103 62.3154 137.02 57.5804 132.381 60.0498L132.465 68.6567C132.465 68.6567 118.919 61.6441 117.408 57.8321L117.42 57.8441Z" fill="#F7A9A0"/>
<path d="M114.425 34.3726C114.353 34.3966 114.305 34.3007 114.377 34.2648C121.294 30.5127 130.033 28.4749 137.86 29.4458C138.112 29.4818 138.172 29.9013 137.884 29.9253C129.613 30.4528 122.301 31.5796 114.437 34.3726H114.425Z" fill="#263238"/>
<path d="M115.599 43.519C115.515 43.555 115.468 43.4112 115.551 43.3632C122.696 39.5392 132.597 37.5134 141.48 39.6831C141.78 39.755 141.984 40.1266 141.624 40.0667C135.606 39.0717 122.672 40.9657 115.599 43.519Z" fill="#263238"/>
<path d="M144.31 50.3758C135.715 48.6136 127.384 49.7764 118.993 52.1859C118.885 52.2218 118.849 52.066 118.933 52.006C122.721 49.7164 128.235 48.7335 132.574 48.3259C136.734 47.9303 140.558 48.4098 144.37 50.0641C144.514 50.124 144.49 50.3997 144.31 50.3638V50.3758Z" fill="#263238"/>
<path d="M355.152 9.58325H148.897C137.377 9.58325 128.039 19.0892 128.039 30.8369V455.43C128.039 467.154 137.389 476.684 148.897 476.684H355.164C366.684 476.684 376.046 467.154 376.046 455.43V30.8369C376.046 19.0892 366.672 9.58325 355.164 9.58325H355.152ZM362.98 442.304C362.98 453.476 354.613 462.514 344.291 462.514H159.782C149.437 462.514 141.069 453.476 141.069 442.304V46.9239C141.069 24.1599 149.437 23.0451 159.782 23.0451H196.751C198.896 23.0451 200.659 25.4905 200.659 28.5113V29.818C200.659 36.9025 204.543 36.9265 209.302 36.9265H294.784C299.59 36.9265 303.45 36.9025 303.45 29.818V28.5113C303.45 25.4905 305.189 23.0451 307.37 23.0451H344.327C354.648 23.0451 363.016 26.0659 363.016 46.9239V442.292L362.98 442.304Z" fill="#263238"/>
<path d="M363.002 47.2714V442.639C363.002 453.812 354.635 462.85 344.314 462.85H159.792C149.447 462.85 141.08 453.812 141.08 442.639V47.2714C141.08 24.5074 149.447 23.3926 159.792 23.3926H196.761C198.907 23.3926 200.669 25.838 200.669 28.8588V30.1654C200.669 37.25 204.553 37.274 209.312 37.274H294.794C299.601 37.274 303.461 37.25 303.461 30.1654V28.8588C303.461 25.838 305.199 23.3926 307.381 23.3926H344.338C354.659 23.3926 363.026 26.4134 363.026 47.2714H363.002Z" fill="white"/>
<path d="M363.003 47.2834V83.1497H141.068V47.2834C141.068 24.5194 149.436 23.4045 159.781 23.4045H196.75C198.895 23.4045 200.658 25.85 200.658 28.8708V30.1774C200.658 37.262 204.542 37.2859 209.301 37.2859H294.783C299.589 37.2859 303.449 37.262 303.449 30.1774V28.8708C303.449 25.85 305.188 23.4045 307.369 23.4045H344.326C354.648 23.4045 363.015 26.4254 363.015 47.2834H363.003Z" fill="#3FC48B"/>
<path d="M263.687 28.0796H240.372C239.581 28.0796 238.933 27.4323 238.933 26.6411C238.933 25.85 239.581 25.2026 240.372 25.2026H263.687C264.478 25.2026 265.126 25.85 265.126 26.6411C265.126 27.4323 264.478 28.0796 263.687 28.0796Z" fill="white"/>
<path d="M190.359 31.9272C190.239 32.0471 190.119 32.167 189.999 32.2869C189.927 32.3588 189.867 32.4187 189.795 32.4906C188.836 31.5556 187.697 31.0641 186.355 31.0641C185.012 31.0641 183.873 31.5556 182.914 32.4906C182.854 32.4187 182.783 32.3588 182.723 32.2869C182.603 32.167 182.483 32.0471 182.375 31.9272L182.399 31.8913C182.555 31.7594 182.699 31.6156 182.854 31.4957C183.178 31.232 183.526 31.0162 183.897 30.8244C184.341 30.6086 184.796 30.4528 185.276 30.3569C185.504 30.3209 185.731 30.2969 185.971 30.261C186.055 30.261 186.559 30.261 186.571 30.261C186.726 30.261 186.882 30.285 187.038 30.2969C187.47 30.3449 187.901 30.4528 188.309 30.5966C188.608 30.7045 188.896 30.8364 189.172 31.0042C189.46 31.172 189.735 31.3638 189.987 31.5796C190.119 31.6875 190.239 31.8074 190.359 31.9152V31.9272Z" fill="white"/>
<path d="M184.042 33.6056C183.85 33.4138 183.67 33.234 183.479 33.0422C184.126 32.4069 184.881 32.0113 185.78 31.8914C187.111 31.7116 188.261 32.1192 189.232 33.0422C189.041 33.234 188.849 33.4138 188.669 33.6056C188.034 32.9823 187.267 32.6466 186.355 32.6466C185.456 32.6466 184.689 32.9823 184.042 33.6056Z" fill="white"/>
<path d="M188.106 34.1689C187.914 34.3607 187.734 34.5405 187.542 34.7323C187.219 34.4206 186.823 34.2408 186.356 34.2408C185.888 34.2408 185.505 34.4206 185.169 34.7323C184.977 34.5405 184.797 34.3607 184.605 34.1689C185.493 33.2339 187.111 33.162 188.094 34.1689H188.106Z" fill="white"/>
<path d="M186.86 35.2479C186.86 35.5236 186.632 35.7513 186.356 35.7513C186.081 35.7513 185.853 35.5236 185.853 35.2479C185.853 34.9721 186.081 34.7444 186.356 34.7444C186.632 34.7444 186.86 34.9721 186.86 35.2479Z" fill="white"/>
<path d="M155.535 33.0064C155.535 32.1913 156.194 31.532 157.01 31.532C157.825 31.532 158.484 32.1913 158.484 33.0064C158.484 33.8216 157.825 34.4809 157.01 34.4809C156.194 34.4809 155.535 33.8216 155.535 33.0064Z" fill="white"/>
<path d="M160.162 33.0064C160.162 32.1913 160.821 31.532 161.637 31.532C162.452 31.532 163.111 32.1913 163.111 33.0064C163.111 33.8216 162.452 34.4809 161.637 34.4809C160.821 34.4809 160.162 33.8216 160.162 33.0064Z" fill="white"/>
<path d="M164.802 33.0064C164.802 32.1913 165.462 31.532 166.277 31.532C167.092 31.532 167.751 32.1913 167.751 33.0064C167.751 33.8216 167.092 34.4809 166.277 34.4809C165.462 34.4809 164.802 33.8216 164.802 33.0064Z" fill="white"/>
<path d="M169.429 33.0064C169.429 32.1913 170.088 31.532 170.903 31.532C171.719 31.532 172.378 32.1913 172.378 33.0064C172.378 33.8216 171.719 34.4809 170.903 34.4809C170.088 34.4809 169.429 33.8216 169.429 33.0064Z" fill="white"/>
<path d="M174.067 33.0064C174.067 32.1913 174.727 31.532 175.542 31.532C176.357 31.532 177.016 32.1913 177.016 33.0064C177.016 33.8216 176.357 34.4809 175.542 34.4809C174.727 34.4809 174.067 33.8216 174.067 33.0064Z" fill="white"/>
<path d="M346.34 36.2189H334.365V30.6687H346.34V36.2189ZM334.976 35.6075H345.729V31.2801H334.976V35.6075Z" fill="white"/>
<path d="M343.079 31.616H335.36V35.2841H343.079V31.616Z" fill="white"/>
<path d="M347.418 31.9636H346.352V34.9365H347.418V31.9636Z" fill="white"/>
<path d="M162.092 69.4235L155.535 63.286L162.092 57.1365L163.111 58.2153L157.705 63.286L163.111 68.3447L162.092 69.4235Z" fill="white"/>
<path d="M335.418 62.2551C335.694 62.4109 335.838 62.7106 335.826 63.0223C335.826 63.1062 335.826 63.1901 335.826 63.274C335.826 63.3579 335.826 63.4418 335.826 63.5257C335.838 63.8374 335.694 64.1371 335.418 64.2929L334.495 64.8204L336.233 67.8292L337.156 67.3018C337.432 67.1459 337.755 67.1579 338.019 67.3377C338.163 67.4336 338.307 67.5175 338.463 67.6014C338.738 67.7453 338.918 68.021 338.918 68.3327V69.3995H342.395V68.3327C342.395 68.021 342.574 67.7453 342.85 67.6014C343.006 67.5175 343.15 67.4336 343.294 67.3377C343.557 67.1699 343.893 67.1459 344.157 67.3018L345.08 67.8292L346.818 64.8204L345.895 64.2809C345.631 64.1251 345.475 63.8254 345.487 63.5137C345.487 63.4298 345.487 63.3459 345.487 63.262C345.487 63.1781 345.487 63.0942 345.487 63.0103C345.475 62.6986 345.619 62.3989 345.895 62.2431L346.818 61.7156L345.08 58.7068L344.157 59.2342C343.881 59.3901 343.557 59.3781 343.294 59.2103C343.15 59.1144 342.994 59.0305 342.838 58.9465C342.562 58.8027 342.383 58.527 342.383 58.2153V57.1484H338.906V58.2153C338.906 58.527 338.726 58.8027 338.451 58.9465C338.295 59.0305 338.151 59.1144 337.995 59.2103C337.732 59.3781 337.396 59.4021 337.132 59.2342L336.209 58.7068L334.471 61.7156L335.394 62.2431L335.418 62.2551ZM340.656 60.433C342.227 60.433 343.497 61.7036 343.497 63.274C343.497 64.8443 342.227 66.115 340.656 66.115C339.086 66.115 337.815 64.8443 337.815 63.274C337.815 61.7036 339.086 60.433 340.656 60.433Z" stroke="white" stroke-width="0.75" stroke-miterlimit="10"/>
<path d="M298.963 104.595H162.93V113.118H298.963V104.595Z" fill="white"/>
<path d="M299.06 113.214H162.859V104.511H299.06V113.214Z" fill="#EBEBEB"/>
<path d="M299.06 104.511H290.357V113.214H299.06V104.511Z" fill="#3FC48B"/>
<path d="M297.406 111.248L296.615 111.847L295.152 109.917L294.613 109.21C294.721 109.174 294.829 109.114 294.924 109.042C295.104 108.898 295.248 108.718 295.332 108.515L295.895 109.258L297.394 111.248H297.406Z" fill="white"/>
<path d="M295.86 106.716C295.14 105.769 293.786 105.602 292.851 106.321C291.904 107.04 291.736 108.395 292.455 109.33C293.102 110.181 294.253 110.409 295.164 109.917C295.272 109.857 295.368 109.797 295.464 109.725C295.644 109.593 295.788 109.438 295.907 109.258C296.435 108.515 296.447 107.472 295.86 106.704V106.716ZM294.936 109.042C294.841 109.114 294.733 109.174 294.625 109.21C294.097 109.414 293.486 109.27 293.126 108.802C292.695 108.239 292.803 107.436 293.366 107.004C293.93 106.573 294.733 106.68 295.164 107.244C295.452 107.627 295.5 108.107 295.332 108.526C295.248 108.73 295.116 108.91 294.925 109.054L294.936 109.042Z" fill="white"/>
<path d="M165.173 106.273H164.718V111.451H165.173V106.273Z" fill="#C7C7C7"/>
<path d="M352.885 100.243C352.382 100.555 351.819 100.795 351.219 100.939C349.649 101.322 348.079 101.023 346.796 100.231C345.549 99.4642 344.59 98.2175 344.219 96.6831C343.463 93.5783 345.357 90.4377 348.474 89.6825C351.579 88.9272 354.72 90.8212 355.475 93.938C356.086 96.4433 354.971 98.9607 352.897 100.231L352.885 100.243Z" fill="#3FC48B"/>
<path d="M351.603 94.6576C351.603 95.6286 350.812 96.4198 349.841 96.4198C348.87 96.4198 348.079 95.6286 348.079 94.6576C348.079 93.6867 348.87 92.8955 349.841 92.8955C350.812 92.8955 351.603 93.6867 351.603 94.6576Z" fill="white"/>
<path d="M352.886 99.5243V100.256C352.382 100.567 351.819 100.807 351.219 100.951C349.649 101.334 348.079 101.035 346.796 100.244V99.5243C346.796 97.8461 348.162 96.4795 349.841 96.4795C351.519 96.4795 352.886 97.8461 352.886 99.5243Z" fill="white"/>
<path d="M362.99 126.856H141.067V144.453H362.99V126.856Z" fill="#EBEBEB"/>
<path d="M160.128 133.017H154.842V138.304H160.128V133.017Z" fill="white"/>
<path d="M182.581 138.304H177.295L179.453 135.654L177.295 133.017H182.581L184.739 135.654L182.581 138.304Z" fill="white"/>
<path d="M168.999 133.017L169.862 134.755L171.78 135.031L170.389 136.386L170.713 138.304L168.999 137.392L167.285 138.304L167.608 136.386L166.218 135.031L168.148 134.755L168.999 133.017Z" fill="#FFC727"/>
<path d="M230.625 134.575H188.525V136.721H230.625V134.575Z" fill="#263238"/>
<path d="M340.347 134.575H302.119V136.721H340.347V134.575Z" fill="#263238"/>
<path d="M286.068 134.575H243.489V136.721H286.068V134.575Z" fill="#455A64"/>
<path d="M160.128 150.603H154.842V155.889H160.128V150.603Z" fill="white" stroke="#EBEBEB" stroke-width="0.5" stroke-miterlimit="10"/>
<path d="M182.581 155.889H177.295L179.453 153.252L177.295 150.603H182.581L184.739 153.252L182.581 155.889Z" fill="white" stroke="#EBEBEB" stroke-width="0.5" stroke-miterlimit="10"/>
<path d="M168.999 150.603L169.862 152.353L171.78 152.628L170.389 153.983L170.713 155.889L168.999 154.99L167.285 155.889L167.608 153.983L166.218 152.628L168.148 152.353L168.999 150.603Z" fill="#FFC727"/>
<path d="M230.625 152.173H188.525V154.319H230.625V152.173Z" fill="#263238"/>
<path d="M340.347 152.173H302.119V154.319H340.347V152.173Z" fill="#263238"/>
<path d="M286.068 152.173H243.489V154.319H286.068V152.173Z" fill="#455A64"/>
<path d="M362.99 162.051H141.067V179.648H362.99V162.051Z" fill="#EBEBEB"/>
<path d="M160.128 168.2H154.842V173.487H160.128V168.2Z" fill="white"/>
<path d="M182.581 173.487H177.295L179.453 170.849L177.295 168.2H182.581L184.739 170.849L182.581 173.487Z" fill="white"/>
<path d="M168.999 168.2L169.862 169.938L171.78 170.226L170.389 171.581L170.713 173.487L168.999 172.588L167.285 173.487L167.608 171.581L166.218 170.226L168.148 169.938L168.999 168.2Z" fill="white"/>
<path d="M230.625 169.771H188.525V171.916H230.625V169.771Z" fill="#DBDBDB"/>
<path d="M340.347 169.771H302.119V171.916H340.347V169.771Z" fill="#DBDBDB"/>
<path d="M286.068 169.771H243.489V171.917H286.068V169.771Z" fill="#C7C7C7"/>
<path d="M160.128 185.797H154.842V191.084H160.128V185.797Z" fill="white" stroke="#EBEBEB" stroke-width="0.5" stroke-miterlimit="10"/>
<path d="M182.581 191.084H177.295L179.453 188.435L177.295 185.797H182.581L184.739 188.435L182.581 191.084Z" fill="white" stroke="#EBEBEB" stroke-width="0.5" stroke-miterlimit="10"/>
<path d="M168.999 185.797L169.862 187.536L171.78 187.811L170.389 189.166L170.713 191.084L168.999 190.185L167.285 191.084L167.608 189.166L166.218 187.811L168.148 187.536L168.999 185.797Z" fill="#FFC727"/>
<path d="M230.625 187.368H188.525V189.514H230.625V187.368Z" fill="#DBDBDB"/>
<path d="M340.347 187.368H302.119V189.514H340.347V187.368Z" fill="#DBDBDB"/>
<path d="M286.068 187.368H243.489V189.514H286.068V187.368Z" fill="#C7C7C7"/>
<path d="M362.99 197.234H141.067V214.831H362.99V197.234Z" fill="#EBEBEB"/>
<path d="M160.128 203.395H154.842V208.681H160.128V203.395Z" fill="white"/>
<path d="M182.581 208.681H177.295L179.453 206.032L177.295 203.395H182.581L184.739 206.032L182.581 208.681Z" fill="white"/>
<path d="M168.999 203.395L169.862 205.133L171.78 205.409L170.389 206.763L170.713 208.681L168.999 207.77L167.285 208.681L167.608 206.763L166.218 205.409L168.148 205.133L168.999 203.395Z" fill="#FFC727"/>
<path d="M230.625 204.966H188.525V207.112H230.625V204.966Z" fill="#DBDBDB"/>
<path d="M340.347 204.966H302.119V207.112H340.347V204.966Z" fill="#DBDBDB"/>
<path d="M286.068 204.965H243.489V207.111H286.068V204.965Z" fill="#C7C7C7"/>
<path d="M160.128 220.993H154.842V226.279H160.128V220.993Z" fill="white" stroke="#EBEBEB" stroke-width="0.5" stroke-miterlimit="10"/>
<path d="M182.581 226.279H177.295L179.453 223.63L177.295 220.993H182.581L184.739 223.63L182.581 226.279Z" fill="white" stroke="#EBEBEB" stroke-width="0.5" stroke-miterlimit="10"/>
<path d="M168.999 220.993L169.862 222.731L171.78 223.007L170.389 224.361L170.713 226.279L168.999 225.368L167.285 226.279L167.608 224.361L166.218 223.007L168.148 222.731L168.999 220.993Z" fill="white" stroke="#EBEBEB" stroke-width="0.5" stroke-miterlimit="10"/>
<path d="M230.625 222.551H188.525V224.697H230.625V222.551Z" fill="#DBDBDB"/>
<path d="M340.347 222.551H302.119V224.697H340.347V222.551Z" fill="#DBDBDB"/>
<path d="M286.068 222.551H243.489V224.697H286.068V222.551Z" fill="#C7C7C7"/>
<path d="M362.99 232.429H141.067V250.026H362.99V232.429Z" fill="#EBEBEB"/>
<path d="M160.128 238.578H154.842V243.864H160.128V238.578Z" fill="white"/>
<path d="M182.581 243.864H177.295L179.453 241.227L177.295 238.578H182.581L184.739 241.227L182.581 243.864Z" fill="white"/>
<path d="M168.999 238.578L169.862 240.328L171.78 240.604L170.389 241.958L170.713 243.864L168.999 242.965L167.285 243.864L167.608 241.958L166.218 240.604L168.148 240.328L168.999 238.578Z" fill="#FFC727"/>
<path d="M230.625 240.148H188.525V242.294H230.625V240.148Z" fill="#DBDBDB"/>
<path d="M340.347 240.148H302.119V242.294H340.347V240.148Z" fill="#DBDBDB"/>
<path d="M286.068 240.148H243.489V242.294H286.068V240.148Z" fill="#C7C7C7"/>
<path d="M160.128 256.175H154.842V261.462H160.128V256.175Z" fill="white" stroke="#EBEBEB" stroke-width="0.5" stroke-miterlimit="10"/>
<path d="M182.581 261.462H177.295L179.453 258.825L177.295 256.175H182.581L184.739 258.825L182.581 261.462Z" fill="white" stroke="#EBEBEB" stroke-width="0.5" stroke-miterlimit="10"/>
<path d="M168.999 256.175L169.862 257.913L171.78 258.201L170.389 259.556L170.713 261.462L168.999 260.563L167.285 261.462L167.608 259.556L166.218 258.201L168.148 257.913L168.999 256.175Z" fill="white" stroke="#EBEBEB" stroke-width="0.5" stroke-miterlimit="10"/>
<path d="M230.625 257.746H188.525V259.892H230.625V257.746Z" fill="#DBDBDB"/>
<path d="M340.347 257.746H302.119V259.892H340.347V257.746Z" fill="#DBDBDB"/>
<path d="M286.068 257.746H243.489V259.892H286.068V257.746Z" fill="#C7C7C7"/>
<path d="M362.99 267.624H141.067V285.221H362.99V267.624Z" fill="#EBEBEB"/>
<path d="M160.128 273.773H154.842V279.059H160.128V273.773Z" fill="white"/>
<path d="M182.581 279.059H177.295L179.453 276.41L177.295 273.773H182.581L184.739 276.41L182.581 279.059Z" fill="white"/>
<path d="M168.999 273.773L169.862 275.511L171.78 275.787L170.389 277.141L170.713 279.059L168.999 278.16L167.285 279.059L167.608 277.141L166.218 275.787L168.148 275.511L168.999 273.773Z" fill="white"/>
<path d="M230.625 275.344H188.525V277.489H230.625V275.344Z" fill="#DBDBDB"/>
<path d="M340.347 275.344H302.119V277.489H340.347V275.344Z" fill="#DBDBDB"/>
<path d="M286.068 275.344H243.489V277.489H286.068V275.344Z" fill="#C7C7C7"/>
<path d="M160.128 291.371H154.842V296.657H160.128V291.371Z" fill="white" stroke="#EBEBEB" stroke-width="0.5" stroke-miterlimit="10"/>
<path d="M182.581 296.657H177.295L179.453 294.008L177.295 291.371H182.581L184.739 294.008L182.581 296.657Z" fill="white" stroke="#EBEBEB" stroke-width="0.5" stroke-miterlimit="10"/>
<path d="M168.999 291.371L169.862 293.109L171.78 293.384L170.389 294.739L170.713 296.657L168.999 295.746L167.285 296.657L167.608 294.739L166.218 293.384L168.148 293.109L168.999 291.371Z" fill="white" stroke="#EBEBEB" stroke-width="0.5" stroke-miterlimit="10"/>
<path d="M230.625 292.941H188.525V295.087H230.625V292.941Z" fill="#DBDBDB"/>
<path d="M340.347 292.941H302.119V295.087H340.347V292.941Z" fill="#DBDBDB"/>
<path d="M286.068 292.941H243.489V295.087H286.068V292.941Z" fill="#C7C7C7"/>
<path d="M362.99 302.807H141.067V320.404H362.99V302.807Z" fill="#EBEBEB"/>
<path d="M160.128 308.968H154.842V314.254H160.128V308.968Z" fill="white"/>
<path d="M182.581 314.254H177.295L179.453 311.605L177.295 308.968H182.581L184.739 311.605L182.581 314.254Z" fill="white"/>
<path d="M168.999 308.968L169.862 310.706L171.78 310.982L170.389 312.336L170.713 314.254L168.999 313.343L167.285 314.254L167.608 312.336L166.218 310.982L168.148 310.706L168.999 308.968Z" fill="white" stroke="#EBEBEB" stroke-width="0.5" stroke-miterlimit="10"/>
<path d="M230.625 310.526H188.525V312.672H230.625V310.526Z" fill="#DBDBDB"/>
<path d="M340.347 310.526H302.119V312.672H340.347V310.526Z" fill="#DBDBDB"/>
<path d="M286.068 310.526H243.489V312.672H286.068V310.526Z" fill="#C7C7C7"/>
<path d="M160.128 326.553H154.842V331.84H160.128V326.553Z" fill="white" stroke="#EBEBEB" stroke-width="0.5" stroke-miterlimit="10"/>
<path d="M182.581 331.84H177.295L179.453 329.202L177.295 326.553H182.581L184.739 329.202L182.581 331.84Z" fill="white" stroke="#EBEBEB" stroke-width="0.5" stroke-miterlimit="10"/>
<path d="M168.999 326.553L169.862 328.303L171.78 328.579L170.389 329.934L170.713 331.84L168.999 330.941L167.285 331.84L167.608 329.934L166.218 328.579L168.148 328.303L168.999 326.553Z" fill="white" stroke="#EBEBEB" stroke-width="0.5" stroke-miterlimit="10"/>
<path d="M230.625 328.124H188.525V330.27H230.625V328.124Z" fill="#DBDBDB"/>
<path d="M340.347 328.124H302.119V330.27H340.347V328.124Z" fill="#DBDBDB"/>
<path d="M286.068 328.124H243.489V330.27H286.068V328.124Z" fill="#C7C7C7"/>
<path d="M362.99 338.001H141.067V355.599H362.99V338.001Z" fill="#EBEBEB"/>
<path d="M160.128 344.151H154.842V349.437H160.128V344.151Z" fill="white"/>
<path d="M182.581 349.437H177.295L179.453 346.8L177.295 344.151H182.581L184.739 346.8L182.581 349.437Z" fill="white"/>
<path d="M168.999 344.151L169.862 345.889L171.78 346.177L170.389 347.531L170.713 349.437L168.999 348.538L167.285 349.437L167.608 347.531L166.218 346.177L168.148 345.889L168.999 344.151Z" fill="white" stroke="#EBEBEB" stroke-width="0.5" stroke-miterlimit="10"/>
<path d="M230.625 345.722H188.525V347.867H230.625V345.722Z" fill="#DBDBDB"/>
<path d="M340.347 345.722H302.119V347.867H340.347V345.722Z" fill="#DBDBDB"/>
<path d="M286.068 345.722H243.489V347.867H286.068V345.722Z" fill="#C7C7C7"/>
<path d="M160.128 361.749H154.842V367.035H160.128V361.749Z" fill="white" stroke="#EBEBEB" stroke-width="0.5" stroke-miterlimit="10"/>
<path d="M182.581 367.035H177.295L179.453 364.386L177.295 361.749H182.581L184.739 364.386L182.581 367.035Z" fill="white" stroke="#EBEBEB" stroke-width="0.5" stroke-miterlimit="10"/>
<path d="M168.999 361.749L169.862 363.487L171.78 363.762L170.389 365.117L170.713 367.035L168.999 366.136L167.285 367.035L167.608 365.117L166.218 363.762L168.148 363.487L168.999 361.749Z" fill="white" stroke="#EBEBEB" stroke-width="0.5" stroke-miterlimit="10"/>
<path d="M230.625 363.319H188.525V365.465H230.625V363.319Z" fill="#DBDBDB"/>
<path d="M340.347 363.319H302.119V365.465H340.347V363.319Z" fill="#DBDBDB"/>
<path d="M286.068 363.319H243.489V365.465H286.068V363.319Z" fill="#C7C7C7"/>
<path d="M362.99 373.185H141.067V390.782H362.99V373.185Z" fill="#EBEBEB"/>
<path d="M160.128 379.346H154.842V384.632H160.128V379.346Z" fill="white"/>
<path d="M182.581 384.632H177.295L179.453 381.983L177.295 379.346H182.581L184.739 381.983L182.581 384.632Z" fill="white"/>
<path d="M168.999 379.346L169.862 381.084L171.78 381.36L170.389 382.714L170.713 384.632L168.999 383.721L167.285 384.632L167.608 382.714L166.218 381.36L168.148 381.084L168.999 379.346Z" fill="#3FC48B"/>
<path d="M230.625 380.917H188.525V383.062H230.625V380.917Z" fill="#DBDBDB"/>
<path d="M340.347 380.917H302.119V383.062H340.347V380.917Z" fill="#DBDBDB"/>
<path d="M286.068 380.917H243.489V383.062H286.068V380.917Z" fill="#C7C7C7"/>
<path d="M160.128 396.943H154.842V402.23H160.128V396.943Z" fill="white" stroke="#EBEBEB" stroke-width="0.5" stroke-miterlimit="10"/>
<path d="M182.581 402.218H177.295L179.453 399.581L177.295 396.943H182.581L184.739 399.581L182.581 402.218Z" fill="white" stroke="#EBEBEB" stroke-width="0.5" stroke-miterlimit="10"/>
<path d="M168.999 396.943L169.862 398.682L171.78 398.957L170.389 400.312L170.713 402.218L168.999 401.319L167.285 402.218L167.608 400.312L166.218 398.957L168.148 398.682L168.999 396.943Z" fill="white" stroke="#EBEBEB" stroke-width="0.5" stroke-miterlimit="10"/>
<path d="M230.625 398.502H188.525V400.648H230.625V398.502Z" fill="#DBDBDB"/>
<path d="M340.347 398.502H302.119V400.648H340.347V398.502Z" fill="#DBDBDB"/>
<path d="M286.068 398.502H243.489V400.648H286.068V398.502Z" fill="#C7C7C7"/>
<path d="M362.99 408.38H141.067V425.977H362.99V408.38Z" fill="#EBEBEB"/>
<path d="M160.128 414.529H154.842V419.816H160.128V414.529Z" fill="white"/>
<path d="M182.581 419.816H177.295L179.453 417.178L177.295 414.529H182.581L184.739 417.178L182.581 419.816Z" fill="white"/>
<path d="M168.999 414.529L169.862 416.279L171.78 416.555L170.389 417.91L170.713 419.816L168.999 418.917L167.285 419.816L167.608 417.91L166.218 416.555L168.148 416.279L168.999 414.529Z" fill="#3FC48B"/>
<path d="M230.625 416.1H188.525V418.245H230.625V416.1Z" fill="#DBDBDB"/>
<path d="M340.347 416.1H302.119V418.245H340.347V416.1Z" fill="#DBDBDB"/>
<path d="M286.068 416.1H243.489V418.245H286.068V416.1Z" fill="#C7C7C7"/>
<path d="M160.128 432.126H154.842V437.413H160.128V432.126Z" fill="white" stroke="#EBEBEB" stroke-width="0.5" stroke-miterlimit="10"/>
<path d="M182.581 437.413H177.295L179.453 434.776L177.295 432.126H182.581L184.739 434.776L182.581 437.413Z" fill="white" stroke="#EBEBEB" stroke-width="0.5" stroke-miterlimit="10"/>
<path d="M168.999 432.126L169.862 433.865L171.78 434.152L170.389 435.507L170.713 437.413L168.999 436.514L167.285 437.413L167.608 435.507L166.218 434.152L168.148 433.865L168.999 432.126Z" fill="white" stroke="#EBEBEB" stroke-width="0.5" stroke-miterlimit="10"/>
<path d="M230.625 433.697H188.525V435.843H230.625V433.697Z" fill="#DBDBDB"/>
<path d="M340.347 433.697H302.119V435.843H340.347V433.697Z" fill="#DBDBDB"/>
<path d="M286.068 433.697H243.489V435.843H286.068V433.697Z" fill="#C7C7C7"/>
<path d="M362.966 443.574C362.642 451.474 358.135 458.187 351.782 461.172H152.3C145.934 458.187 141.427 451.474 141.104 443.574H362.978H362.966Z" fill="#EBEBEB"/>
<path d="M160.127 449.724H154.841V455.01H160.127V449.724Z" fill="white"/>
<path d="M182.58 455.01H177.294L179.452 452.361L177.294 449.724H182.58L184.738 452.361L182.58 455.01Z" fill="white"/>
<path d="M168.998 449.724L169.861 451.462L171.779 451.738L170.388 453.092L170.712 455.01L168.998 454.111L167.284 455.01L167.607 453.092L166.217 451.738L168.147 451.462L168.998 449.724Z" fill="#3FC48B"/>
<path d="M230.624 451.294H188.524V453.44H230.624V451.294Z" fill="#DBDBDB"/>
<path d="M340.346 451.294H302.118V453.44H340.346V451.294Z" fill="#DBDBDB"/>
<path d="M286.067 451.294H243.488V453.44H286.067V451.294Z" fill="#C7C7C7"/>
<path d="M407.635 209.533C407.635 209.533 327.559 266.617 245.985 276.063C141.647 288.146 96.3465 274.72 74.8291 248.3C53.3118 221.892 101.117 195.316 124.229 187.32" stroke="#263238" stroke-width="0.75" stroke-miterlimit="10"/>
<path d="M415.055 187.32L407.635 209.532L424.093 195.951L487.758 170.933L415.055 187.32Z" fill="#3FC48B"/>
<path opacity="0.1" d="M415.055 187.32L407.635 209.532L424.093 195.951L487.758 170.933L415.055 187.32Z" fill="black"/>
<path d="M426.395 201.022L407.635 209.533L424.093 195.951L426.395 201.022Z" fill="#263238"/>
<path d="M424.094 195.951L487.759 170.933L436.405 223.785L424.094 195.951Z" fill="#3FC48B"/>
<path d="M415.056 187.32L387.892 170.777L487.759 170.933L415.056 187.32Z" fill="#3FC48B"/>
<path d="M381.539 131.566H123.043V345.301H381.539V131.566Z" fill="white"/>
<path d="M381.538 345.301C381.454 345.373 122.958 345.421 122.862 345.481C122.862 345.313 122.742 131.746 122.742 131.566V131.267H123.042C123.042 131.267 381.586 131.506 381.634 131.47C381.694 131.518 381.49 345.229 381.538 345.301ZM381.538 345.301C381.538 345.301 381.334 131.171 381.538 131.662L123.042 131.866L123.342 131.566C123.342 131.566 123.438 346.057 123.042 345.122L381.538 345.301Z" fill="#263238"/>
<path d="M134.31 137.656C134.31 139.322 132.956 140.676 131.29 140.676C129.623 140.676 128.269 139.322 128.269 137.656C128.269 135.989 129.623 134.635 131.29 134.635C132.956 134.635 134.31 135.989 134.31 137.656Z" fill="white"/>
<path d="M134.31 137.656C134.226 141.803 128.125 141.887 127.969 137.656C128.125 133.412 134.226 133.508 134.31 137.656ZM134.31 137.656C134.178 133.82 128.628 133.916 128.568 137.656C128.628 141.396 134.19 141.492 134.31 137.656Z" fill="#263238"/>
<path d="M146.645 137.656C146.645 139.322 145.291 140.676 143.625 140.676C141.958 140.676 140.604 139.322 140.604 137.656C140.604 135.989 141.958 134.635 143.625 134.635C145.291 134.635 146.645 135.989 146.645 137.656Z" fill="white"/>
<path d="M146.646 137.656C146.562 141.803 140.461 141.887 140.305 137.656C140.461 133.412 146.562 133.508 146.646 137.656ZM146.646 137.656C146.514 133.82 140.964 133.916 140.904 137.656C140.964 141.396 146.526 141.492 146.646 137.656Z" fill="#263238"/>
<path d="M158.993 137.656C158.993 139.322 157.638 140.676 155.972 140.676C154.306 140.676 152.951 139.322 152.951 137.656C152.951 135.989 154.306 134.635 155.972 134.635C157.638 134.635 158.993 135.989 158.993 137.656Z" fill="white"/>
<path d="M158.993 137.656C158.909 141.803 152.807 141.887 152.651 137.656C152.807 133.412 158.909 133.508 158.993 137.656ZM158.993 137.656C158.861 133.82 153.311 133.916 153.251 137.656C153.311 141.396 158.873 141.492 158.993 137.656Z" fill="#263238"/>
<path d="M123.043 143.578C205.852 143.206 298.73 143.206 381.539 143.578C298.73 143.949 205.852 143.949 123.043 143.578Z" fill="#263238"/>
<path d="M300.958 281.828H203.117V199.055L252.026 167.996L300.958 199.055V281.828Z" fill="#3FC48B"/>
<path opacity="0.2" d="M300.958 281.828H203.117V199.055L252.026 167.996L300.958 199.055V281.828Z" fill="black"/>
<path d="M295.448 275.498H208.635V164.063H273.091L295.448 185.293V275.498Z" fill="white"/>
<path d="M295.448 275.498C295.148 275.474 208.635 275.798 208.359 275.786C208.203 275.738 208.311 164.196 208.203 164.064V163.62H208.647C208.887 163.716 273.199 163.548 273.331 163.812L295.651 185.078L295.747 185.161V185.281C295.699 207.758 295.591 253.01 295.46 275.486L295.448 275.498ZM295.448 275.498C295.448 275.498 295.076 184.574 295.244 185.509L272.863 164.315C274.122 164.495 208.347 164.483 208.647 164.507L209.09 164.064L208.935 275.498C207.172 274.827 295.831 275.666 295.46 275.498H295.448Z" fill="#263238"/>
<path d="M273.089 164.063L295.446 185.293H273.089V164.063Z" fill="#DBDBDB"/>
<path d="M217.11 185.629H265.371V182.764H217.11V185.629Z" fill="#DBDBDB"/>
<path d="M217.11 192.846H265.371V189.981H217.11V192.846Z" fill="#DBDBDB"/>
<path d="M217.11 200.074H265.371V197.209H217.11V200.074Z" fill="#DBDBDB"/>
<path d="M217.109 207.29H287.822V204.425H217.109V207.29Z" fill="#DBDBDB"/>
<path d="M217.109 214.507H287.822V211.642H217.109V214.507Z" fill="#DBDBDB"/>
<path d="M217.109 221.735H287.822V218.87H217.109V221.735Z" fill="#DBDBDB"/>
<path d="M217.109 228.951H287.822V226.086H217.109V228.951Z" fill="#DBDBDB"/>
<path d="M217.109 236.18H287.822V233.315H217.109V236.18Z" fill="#DBDBDB"/>
<path d="M217.109 243.396H287.822V240.532H217.109V243.396Z" fill="#DBDBDB"/>
<path d="M217.109 250.625H287.822V247.76H217.109V250.625Z" fill="#DBDBDB"/>
<path d="M217.109 257.841H287.822V254.976H217.109V257.841Z" fill="#DBDBDB"/>
<path d="M217.109 265.07H287.822V262.205H217.109V265.07Z" fill="#DBDBDB"/>
<path d="M300.958 219.781V281.828H203.117V219.781C207.325 222.167 211.448 224.66 215.608 227.094C219.756 229.575 223.891 232.056 228.015 234.586C232.594 237.379 237.185 240.208 241.753 243.073C241.8 243.049 241.86 243.013 241.896 242.989C241.848 243.013 241.824 243.061 241.776 243.097C245.205 245.23 248.621 247.376 252.05 249.522C255.454 247.376 258.882 245.218 262.311 243.097C262.263 243.073 262.239 243.025 262.191 242.989C262.239 243.013 262.299 243.049 262.335 243.061C266.902 240.208 271.469 237.379 276.072 234.574C280.184 232.056 284.32 229.563 288.455 227.094C292.627 224.66 296.763 222.155 300.958 219.781Z" fill="#3FC48B"/>
<g opacity="0.2">
<path d="M300.96 219.781C297.004 222.562 292.976 225.223 288.996 227.956C284.98 230.63 280.965 233.303 276.913 235.952C272.693 238.709 268.462 241.442 264.23 244.163C264.098 244.247 263.979 244.343 263.847 244.427C260.095 246.825 256.343 249.222 252.579 251.608L252.015 251.943L251.476 251.608C247.712 249.21 243.972 246.813 240.22 244.403C240.088 244.331 239.956 244.247 239.824 244.151C235.581 241.43 231.349 238.697 227.129 235.928C223.102 233.303 219.074 230.63 215.07 227.944C211.09 225.211 207.063 222.55 203.107 219.769C207.314 222.155 211.438 224.648 215.598 227.081C219.745 229.563 223.881 232.044 228.004 234.573C232.584 237.367 237.175 240.196 241.742 243.061C241.742 243.061 241.75 243.065 241.766 243.073C245.194 245.206 248.611 247.352 252.039 249.498C255.444 247.352 258.872 245.194 262.3 243.073C262.3 243.073 262.308 243.065 262.324 243.049C266.892 240.196 271.459 237.367 276.062 234.561C280.174 232.044 284.309 229.551 288.445 227.081C292.616 224.648 296.752 222.143 300.948 219.769L300.96 219.781Z" fill="black"/>
<path d="M241.897 242.989C241.897 242.989 241.825 243.061 241.777 243.097C241.262 243.541 240.747 243.984 240.231 244.404C237.774 246.478 235.268 248.456 232.703 250.385C229.586 252.771 226.398 255.049 223.197 257.302C219.984 259.52 216.748 261.726 213.439 263.835C210.131 265.957 206.798 268.019 203.346 269.913C206.319 267.312 209.4 264.89 212.516 262.517C215.645 260.131 218.834 257.854 222.022 255.6C225.259 253.37 228.483 251.165 231.792 249.043C234.417 247.353 237.09 245.698 239.824 244.14C240.459 243.768 241.082 243.421 241.73 243.073C241.777 243.049 241.837 243.013 241.873 242.989H241.897Z" fill="black"/>
<path d="M300.731 269.925C297.279 268.031 293.922 265.957 290.638 263.847C287.329 261.725 284.105 259.532 280.868 257.314C277.667 255.048 274.479 252.771 271.362 250.397C268.821 248.467 266.303 246.501 263.87 244.427C263.342 243.984 262.827 243.54 262.312 243.109C262.264 243.085 262.24 243.037 262.192 243.001C262.24 243.025 262.3 243.061 262.336 243.073C262.983 243.445 263.618 243.792 264.242 244.164C266.975 245.722 269.636 247.376 272.285 249.067C275.594 251.188 278.818 253.382 282.043 255.624C285.243 257.889 288.432 260.167 291.549 262.54C294.677 264.902 297.758 267.335 300.731 269.937V269.925Z" fill="black"/>
</g>
<path d="M293.803 308.44H210.779V326.037H293.803V308.44Z" fill="#3FC48B"/>
<path d="M230.547 315.428C230.487 315.356 230.391 315.285 230.271 315.201C230.151 315.117 230.007 315.045 229.84 314.973C229.672 314.901 229.492 314.841 229.3 314.805C229.108 314.757 228.905 314.733 228.701 314.733C228.245 314.733 227.91 314.817 227.694 314.985C227.478 315.153 227.37 315.38 227.37 315.68C227.37 315.848 227.406 315.98 227.466 316.088C227.526 316.196 227.634 316.291 227.778 316.363C227.922 316.447 228.09 316.519 228.305 316.579C228.521 316.639 228.761 316.711 229.048 316.771C229.396 316.855 229.708 316.951 229.983 317.047C230.259 317.155 230.499 317.274 230.691 317.418C230.883 317.562 231.026 317.742 231.134 317.958C231.242 318.174 231.29 318.437 231.29 318.737C231.29 319.085 231.23 319.384 231.098 319.624C230.966 319.876 230.787 320.08 230.559 320.235C230.331 320.391 230.067 320.511 229.768 320.583C229.468 320.655 229.144 320.691 228.797 320.691C228.281 320.691 227.778 320.619 227.298 320.451C226.819 320.295 226.375 320.068 225.992 319.768L226.483 318.845C226.567 318.929 226.687 319.025 226.843 319.121C226.999 319.228 227.178 319.312 227.394 319.408C227.598 319.492 227.826 319.564 228.066 319.624C228.305 319.684 228.557 319.72 228.821 319.72C229.24 319.72 229.564 319.648 229.804 319.504C230.031 319.36 230.151 319.145 230.151 318.857C230.151 318.689 230.103 318.545 230.019 318.425C229.936 318.305 229.816 318.209 229.648 318.126C229.492 318.042 229.288 317.958 229.06 317.886C228.833 317.814 228.569 317.742 228.269 317.67C227.934 317.574 227.634 317.49 227.382 317.382C227.131 317.286 226.927 317.167 226.759 317.023C226.591 316.879 226.471 316.723 226.375 316.531C226.291 316.339 226.243 316.112 226.243 315.848C226.243 315.512 226.303 315.225 226.435 314.961C226.567 314.697 226.735 314.481 226.963 314.314C227.178 314.134 227.442 314.002 227.742 313.918C228.042 313.834 228.365 313.786 228.725 313.786C229.18 313.786 229.612 313.858 229.995 314.002C230.391 314.146 230.727 314.326 231.026 314.553L230.535 315.44L230.547 315.428Z" fill="white"/>
<path d="M235.222 319.72C235.581 319.72 235.881 319.648 236.109 319.504C236.348 319.36 236.54 319.18 236.684 318.953C236.828 318.725 236.936 318.461 236.996 318.173C237.056 317.886 237.092 317.586 237.092 317.274V313.822H238.17V317.274C238.17 317.742 238.111 318.185 238.003 318.593C237.895 319.001 237.715 319.372 237.487 319.672C237.247 319.984 236.948 320.223 236.576 320.403C236.205 320.583 235.749 320.667 235.234 320.667C234.718 320.667 234.227 320.571 233.855 320.379C233.483 320.187 233.184 319.936 232.944 319.624C232.716 319.312 232.548 318.941 232.441 318.533C232.345 318.126 232.285 317.694 232.285 317.262V313.81H233.364V317.262C233.364 317.574 233.4 317.874 233.459 318.173C233.519 318.461 233.627 318.725 233.771 318.953C233.915 319.18 234.107 319.36 234.346 319.504C234.586 319.648 234.886 319.708 235.234 319.708L235.222 319.72Z" fill="white"/>
<path d="M244.945 318.881C244.945 319.156 244.885 319.396 244.777 319.624C244.669 319.84 244.513 320.019 244.321 320.175C244.13 320.319 243.914 320.439 243.65 320.523C243.398 320.607 243.123 320.643 242.835 320.643H239.586V313.834H243.099C243.338 313.834 243.554 313.882 243.746 313.99C243.938 314.098 244.106 314.23 244.238 314.385C244.369 314.553 244.477 314.733 244.549 314.937C244.621 315.141 244.657 315.356 244.657 315.56C244.657 315.896 244.573 316.207 244.405 316.495C244.238 316.783 243.998 316.999 243.686 317.143C244.082 317.262 244.381 317.466 244.609 317.766C244.837 318.066 244.945 318.437 244.945 318.869V318.881ZM240.665 314.757V316.759H242.643C242.775 316.759 242.895 316.735 243.015 316.687C243.123 316.639 243.231 316.567 243.315 316.483C243.398 316.399 243.47 316.291 243.518 316.172C243.566 316.052 243.59 315.92 243.59 315.764C243.59 315.464 243.506 315.225 243.338 315.045C243.171 314.853 242.967 314.757 242.703 314.757H240.665ZM243.842 318.677C243.842 318.533 243.818 318.401 243.77 318.269C243.722 318.137 243.662 318.03 243.578 317.934C243.494 317.838 243.398 317.766 243.291 317.706C243.171 317.646 243.051 317.622 242.919 317.622H240.677V319.708H242.859C243.003 319.708 243.135 319.684 243.255 319.624C243.374 319.564 243.482 319.492 243.566 319.408C243.662 319.312 243.722 319.204 243.782 319.084C243.83 318.965 243.854 318.833 243.854 318.689L243.842 318.677Z" fill="white"/>
<path d="M250.099 315.428C250.039 315.356 249.943 315.285 249.823 315.201C249.703 315.117 249.559 315.045 249.391 314.973C249.224 314.901 249.044 314.841 248.852 314.805C248.66 314.757 248.456 314.733 248.253 314.733C247.797 314.733 247.461 314.817 247.246 314.985C247.03 315.153 246.922 315.38 246.922 315.68C246.922 315.848 246.958 315.98 247.018 316.088C247.09 316.196 247.186 316.291 247.33 316.363C247.473 316.447 247.641 316.519 247.857 316.579C248.073 316.639 248.313 316.711 248.6 316.771C248.948 316.855 249.26 316.951 249.535 317.047C249.811 317.155 250.051 317.274 250.243 317.418C250.434 317.562 250.578 317.742 250.686 317.958C250.794 318.174 250.842 318.437 250.842 318.737C250.842 319.085 250.782 319.384 250.65 319.624C250.518 319.876 250.338 320.08 250.111 320.235C249.883 320.391 249.619 320.511 249.319 320.583C249.02 320.655 248.696 320.691 248.349 320.691C247.833 320.691 247.33 320.619 246.85 320.451C246.371 320.295 245.927 320.068 245.543 319.768L246.035 318.845C246.119 318.929 246.239 319.025 246.395 319.121C246.55 319.228 246.73 319.312 246.946 319.408C247.15 319.492 247.378 319.564 247.617 319.624C247.857 319.684 248.109 319.72 248.372 319.72C248.792 319.72 249.116 319.648 249.355 319.504C249.583 319.36 249.703 319.145 249.703 318.857C249.703 318.689 249.655 318.545 249.571 318.425C249.487 318.305 249.367 318.209 249.2 318.126C249.044 318.042 248.84 317.958 248.612 317.886C248.384 317.814 248.121 317.742 247.821 317.67C247.485 317.574 247.186 317.49 246.934 317.382C246.682 317.286 246.478 317.167 246.311 317.023C246.143 316.879 246.023 316.723 245.927 316.531C245.843 316.339 245.795 316.112 245.795 315.848C245.795 315.512 245.855 315.225 245.987 314.961C246.119 314.697 246.287 314.481 246.514 314.314C246.73 314.134 246.994 314.002 247.294 313.918C247.593 313.834 247.917 313.786 248.277 313.786C248.732 313.786 249.164 313.858 249.547 314.002C249.943 314.146 250.278 314.326 250.578 314.553L250.087 315.44L250.099 315.428Z" fill="white"/>
<path d="M251.489 317.179C251.489 316.771 251.561 316.363 251.705 315.956C251.848 315.548 252.064 315.189 252.352 314.865C252.64 314.541 252.987 314.278 253.395 314.086C253.802 313.894 254.27 313.786 254.785 313.786C255.409 313.786 255.936 313.918 256.38 314.194C256.823 314.469 257.147 314.829 257.375 315.273L256.535 315.836C256.44 315.632 256.32 315.464 256.188 315.321C256.056 315.177 255.912 315.069 255.744 314.985C255.588 314.901 255.421 314.841 255.241 314.805C255.073 314.769 254.905 314.757 254.737 314.757C254.378 314.757 254.066 314.829 253.802 314.973C253.539 315.117 253.311 315.309 253.131 315.548C252.951 315.788 252.807 316.052 252.723 316.339C252.628 316.639 252.58 316.927 252.58 317.227C252.58 317.562 252.64 317.874 252.747 318.174C252.855 318.473 253.011 318.737 253.203 318.965C253.395 319.192 253.635 319.372 253.898 319.516C254.162 319.648 254.462 319.72 254.785 319.72C254.953 319.72 255.121 319.696 255.301 319.66C255.481 319.612 255.648 319.552 255.804 319.456C255.972 319.36 256.116 319.252 256.26 319.109C256.392 318.965 256.511 318.797 256.595 318.605L257.482 319.109C257.375 319.36 257.219 319.588 257.027 319.78C256.823 319.972 256.607 320.139 256.356 320.271C256.104 320.403 255.84 320.511 255.564 320.583C255.289 320.655 255.013 320.691 254.749 320.691C254.27 320.691 253.826 320.595 253.431 320.379C253.035 320.175 252.688 319.912 252.4 319.576C252.112 319.252 251.884 318.869 251.729 318.449C251.573 318.03 251.489 317.598 251.489 317.167V317.179Z" fill="white"/>
<path d="M258.49 320.631V313.822H261.451C261.762 313.822 262.038 313.882 262.302 314.014C262.565 314.146 262.781 314.314 262.973 314.518C263.153 314.721 263.309 314.961 263.405 315.225C263.512 315.489 263.56 315.764 263.56 316.04C263.56 316.268 263.524 316.495 263.465 316.699C263.405 316.915 263.309 317.107 263.201 317.287C263.081 317.466 262.949 317.622 262.781 317.754C262.613 317.886 262.434 317.982 262.23 318.042L263.836 320.631H262.613L261.139 318.258H259.569V320.631H258.49ZM259.569 317.311H261.451C261.606 317.311 261.738 317.275 261.87 317.215C261.99 317.143 262.098 317.059 262.194 316.939C262.29 316.819 262.35 316.687 262.41 316.531C262.458 316.376 262.482 316.22 262.482 316.04C262.482 315.86 262.446 315.704 262.386 315.548C262.326 315.393 262.242 315.261 262.146 315.141C262.05 315.021 261.93 314.937 261.798 314.865C261.666 314.793 261.535 314.769 261.391 314.769H259.569V317.311Z" fill="white"/>
<path d="M264.832 320.631V313.822H265.91V320.631H264.832Z" fill="white"/>
<path d="M272.778 318.881C272.778 319.156 272.718 319.396 272.61 319.624C272.502 319.84 272.346 320.019 272.154 320.175C271.963 320.319 271.747 320.439 271.483 320.523C271.231 320.607 270.956 320.643 270.668 320.643H267.419V313.834H270.932C271.171 313.834 271.387 313.882 271.579 313.99C271.771 314.098 271.939 314.23 272.071 314.385C272.202 314.553 272.31 314.733 272.382 314.937C272.454 315.141 272.49 315.356 272.49 315.56C272.49 315.896 272.406 316.207 272.238 316.495C272.071 316.783 271.831 316.999 271.519 317.143C271.915 317.262 272.214 317.466 272.442 317.766C272.67 318.066 272.778 318.437 272.778 318.869V318.881ZM268.498 314.757V316.759H270.476C270.608 316.759 270.728 316.735 270.848 316.687C270.956 316.639 271.064 316.567 271.148 316.483C271.231 316.399 271.303 316.291 271.351 316.172C271.399 316.052 271.423 315.92 271.423 315.764C271.423 315.464 271.339 315.225 271.171 315.045C271.004 314.853 270.8 314.757 270.536 314.757H268.498ZM271.675 318.677C271.675 318.533 271.651 318.401 271.603 318.269C271.555 318.137 271.495 318.03 271.411 317.934C271.327 317.838 271.231 317.766 271.124 317.706C271.004 317.646 270.884 317.622 270.752 317.622H268.51V319.708H270.692C270.836 319.708 270.968 319.684 271.088 319.624C271.207 319.564 271.315 319.492 271.399 319.408C271.483 319.312 271.555 319.204 271.615 319.084C271.663 318.965 271.687 318.833 271.687 318.689L271.675 318.677Z" fill="white"/>
<path d="M278.581 319.684V320.631H273.906V313.822H278.485V314.769H274.973V316.711H278.017V317.598H274.973V319.684H278.569H278.581Z" fill="white"/>
<path d="M184.046 291.957C227.764 291.586 276.816 291.586 320.546 291.957C276.828 292.329 227.776 292.329 184.046 291.957Z" fill="#263238"/>
<path d="M207.769 297.221C236.49 296.825 268.089 296.825 296.823 297.221C268.101 297.616 236.502 297.616 207.769 297.221Z" fill="#263238"/>
</svg>
